<svg xmlns="http://www.w3.org/2000/svg" viewBox="0 0 616.86 613.32">
  <g id="Camada_2" data-name="Camada 2">
    <g id="Camada_1-2" data-name="Camada 1">
      <g>
        <path d="M50.44,321.86l3.06-1.78c1.82-.77,3.67-1.47,5.45-2.31,11.63-5.48,23.55-9.86,36.64-9.93,3.33-.61,6.66-1.77,10-1.77q96.95-.18,193.89-.12c7.72,0,7.74,0,7.74-7.86q0-96.45.07-192.9a41.21,41.21,0,0,1,.93-6.28c.89-3.7,2.09-7.36,2.64-11.11,3-20.47,12.74-37.65,26.49-52.46,21.46-23.13,48.75-33.92,80-34.43,30-.48,60-.26,89.94,0a108.77,108.77,0,0,1,45.94,10.4c16.68,7.86,30.81,18.83,41.39,34.14,1,1.52,3,2.37,4.61,3.53a1,1,0,0,1,.34.62A26.9,26.9,0,0,0,601,54.08c5.23,10.23,10.81,20.23,11.7,32.16.32,4.35,2.68,8.56,4.11,12.83q0,38.37.1,76.73c-.54,1.56-1.49,3.09-1.55,4.66-.41,10.92,1.79,21.94-1.49,32.75-.22.69.92,1.8,1.43,2.72,0,.66-.06,1.31-.08,2a50.42,50.42,0,0,0-2.7,5.34c-2.56,6.89-4.81,13.9-7.5,20.74-1.91,4.84-4.35,9.47-6.56,14.19l-2.36,3.68-2.65,3.3-1.31,1.71-1.8,2.16-11,11-2.13,1.81-1.76,1.27-3.3,2.57a1.19,1.19,0,0,1-.65.47l-2.29,1.68a1,1,0,0,1-.67.36l-2.35,1.58a1.25,1.25,0,0,1-.69.38l-2.37,1.41-1.43.8-2.49,1.46-3.45,1.63-4.59,2.26-2.37.84-2.65,1.06L542.24,301l-4,1.36-2,.47-3.07.87c-3.32.85-6.62,1.84-10,2.48a22.35,22.35,0,0,1-5-.12q-102.41,0-204.79-.18c-4.86,0-6.24,1.47-6.21,6.25q.27,41.7.05,83.41c-.17,40.93-.49,81.87-.75,122.8-1.76,7.87-2.59,16.1-5.45,23.55-13.45,35-38.73,57.55-74.72,67.62a109.4,109.4,0,0,1-27.59,3.59c-30.15.44-60.31.18-90.47.17-49.49,0-91.35-30.77-105.94-78.06A47.64,47.64,0,0,1,.26,521.44Q0,460.23.19,399c0-3.63.68-7.25,1-10.87q6.06-14.5,12.1-29l.62-1q1.2-2,2.42-3.9l3.69-5.1,1.34-1.78,3.82-4.44,6.22-6.54.26-.23,4.76-4.36,6.15-4.7,4.83-3.33,1.08-.68Zm99.76,45.3-23,0c-.84-.4-1.67-1.16-2.51-1.17q-23-.09-46,0c-3.23,0-4.6,1.55-4.64,5-.13,11.13-.51,22.25-1,33.37-.06,1.47-.66,3.61-1.71,4.21-5.15,2.94-10.68,5.22-15.81,8.19-6.22,3.61-12.86,6.94-18.06,11.75-5.65,5.21-10.18,11.76-14.63,18.13C14.52,458.67,12.84,473.08,10.42,487,9,495.27,9.19,503.89,9.28,512.33c.24,23.79,10.49,42.91,28.2,58.3a76,76,0,0,0,31.35,15.93c8.6,2.19,17.88,2.09,26.88,2.27q24,.49,48,0c18.25-.38,36.48-1.25,54.72-2,2.29-.09,4.56-.65,6.85-.77,4.41-.22,8.87.11,13.21-.51a141.4,141.4,0,0,0,18.23-3.77c7.62-2.13,15.71-3.76,22.45-7.62,9.92-5.67,19.05-12.92,25-23.16,2.36-4.09,4.28-8.44,6.26-12.74,1.74-3.76,3.75-7.5,4.77-11.47a52.76,52.76,0,0,0,1.31-12.31c.11-7.91.21-15.85-.34-23.74a163,163,0,0,0-3-22.47c-1.85-8.67-3.41-17.4-8.76-25.1-4.41-6.33-7.33-13.7-11.09-20.51-2.86-5.18-6.05-10.18-9-15.31a40.22,40.22,0,0,1-3-6.09c-1.45-3.9-3.43-6.49-8.21-6.49-6.86,0-13.71-.63-20.57-1l-.48-25.57c0-3.94-3.08-2.3-4.77-2.31q-36-.17-72,0C153.54,366,151.87,366.74,150.2,367.16ZM437.64,229.48l4.17,12.59c1.55.64,3.09,1.81,4.64,1.83,10.56.16,21.12.18,31.67,0,1.76,0,3.49-1.25,5.24-1.91l1.08-2q4.85-16.07,9.67-32.11c6.36-.53,12.71-1.34,19.08-1.53,13.45-.38,26.37-2.91,38.57-8.68,3.14-1.48,6.12-3.33,9.13-5.1,4.37-2.57,9-4.82,13-8,3.46-2.75,6.24-6.41,9-9.89,3.31-4.1,7.32-8,9.25-12.76a273.64,273.64,0,0,0,9.55-29.07c3.3-11.66,6.28-23.45,3.56-35.76-1.64-7.47-3.46-14.91-4.76-22.44-1.12-6.53-4.52-11.9-8.13-17.07a44.84,44.84,0,0,0-9.15-9.51c-3-2.36-7.26-3.21-10.19-5.65-10.55-8.8-22.74-13.53-36.12-15.52-4.41-.65-8.9-.77-13.35-1.11-16.83-1.29-33.64-3.36-50.48-3.68-22.93-.43-45.88.76-68.83.66-9.31-.05-18.64-.38-27.23,3.31-9.79,4.19-19.74,8.54-28.46,14.5a60,60,0,0,0-17.69,18.07c-5.59,9.2-12.32,17.84-10.71,29.61.12.92-.51,1.93-.53,2.9-.2,10.06-.92,20.16-.31,30.17.48,7.85,2.83,15.58,4,23.42a46.5,46.5,0,0,0,10.84,23.9c4.52,5.38,7.77,11.84,11.45,17.9,2.81,4.61,4.56,10.22,8.28,13.84,5.73,5.55,12.87,9,21.54,8.64,11.64-.45,23.32,0,35-.15,3.85,0,7.68-.71,11.53-.88,7.16-.3,8.25-.55,10.12,5.81.24.81,1.11,1.43,1.69,2.14l1.35,5c-1.56,3-.73,5.31,2.13,7C437.35,228.46,437.5,229,437.64,229.48Z" style="fill: #6d6c70"/>
        <path d="M306.5,518.3c.26-40.93.58-81.87.75-122.8q.18-41.7-.05-83.41c0-4.78,1.35-6.26,6.21-6.25q102.39.27,204.79.18c9.82,2.59,20,4.2,29.37,8,31.15,12.48,52.83,34.31,62.94,66.82l2.33,4.5.54,2.86-.42.08.48.4c.1.68.21,1.37.32,2.05l2.79,13.86.28.31a30.85,30.85,0,0,0-.59,4.36q0,51.17,0,102.33a32.47,32.47,0,0,0,.57,4.37c-1.4,6.41-2,13.1-4.36,19.14-3.73,9.69-8.59,19-13,28.38l-.67.34.26.36a1,1,0,0,1-.58.64l-.68.06.38.3-.8.78-.42,0,.33.14-.54.92c-.41.69-.81,1.39-1.22,2.09l-.15.27-2.5,3-.37.3-.65.66a.6.6,0,0,1-.34.43l-.69.19.31.33-.69.73-.64,0,.4.29a.9.9,0,0,1-.48.65l-8.06,8.3-1.22.87-.53-.07.43.15-1,.87-.38,0-7.48,5.31c-3.19,1.66-6.26,3.63-9.6,4.91-9.89,3.82-19.91,7.3-29.8,11.11-1.25.48-2,2.17-3,3.29a.59.59,0,0,1-.51.2,92.59,92.59,0,0,0-9.83-.43c-6.76.38-13.49,1.55-20.24,1.6-24.59.2-49.19,0-73.79.09a142.69,142.69,0,0,1-40.1-5.56c-3.42-1-7-1.42-10.5-2.11l-.3-.11c-2.75-4.17-7.07-5.25-11.63-5.82a.57.57,0,0,1-.48-.27l-.65-.36a1,1,0,0,1-.62-.37c-1.95-4.55-5.56-6.62-10.35-6.91a.49.49,0,0,1-.44-.28l-.64-.52a.73.73,0,0,1-.46-.45l-.61-.54-1-.72-1.9-1.63c-18.22-15.65-30.22-35-35.4-58.57A95.35,95.35,0,0,0,306.5,518.3ZM437.17,392.41l-.51-2.18-.39-1-1-4.12-1-2.88-.75-3.22-.33-.28.1-.42-.72-2.06c-.11-.57-.23-1.15-.35-1.73-.32-1.12-.63-2.24-.95-3.37l-.3-.16.08-.34-.15-.4c-1.87-.79-3.74-2.25-5.63-2.28-11.76-.22-23.53-.14-35.29-.1a37.13,37.13,0,0,0-4.66.64l7,25.68,1.44,5.48.39.8,1.29,4.12.12.26a.56.56,0,0,0,.24.79c.12.32.24.63.37.94.33,1.37.65,2.73,1,4.09l.31.23-.13.36.69,2.47.3.12-.05.32V419c-3-7.61-6.26-14.82-11-21.3-.37-.52-.7-1.46-1.11-1.5a127.15,127.15,0,0,0-12.92-.73c-4.43.09-8.91,1.41-13.26,1-6-.52-11.23.69-13.93,6-4,8-7.08,16.42-10.74,24.57-2.2,4.89-4.26,10-7.32,14.32-6.31,8.93-8.53,19.23-10.61,29.52-1.46,7.23-1.25,14.78-2.43,22.08-2.53,15.63-1.4,31,2.29,46.28,4.06,16.87,15.2,28,29.71,36.38,2.35,1.36,4.49,3.17,6.95,4.25,6.13,2.7,11.94,5.78,19,6.44,7.47.7,14.66,4.79,22.11,5.28,20.77,1.34,41.6,1.69,62.42,2.15,3.63.08,7.32-1.86,11-1.77,15.16.39,30.31,1.31,45.47,1.81,7.83.26,15.67.22,23.49,0a40.34,40.34,0,0,0,9.63-1.77,124.36,124.36,0,0,0,16-5.24,69.72,69.72,0,0,0,12.74-7.55c5.18-3.74,10.05-7.93,15-12,1.52-1.27,3.32-2.63,4-4.35,3-7.27,6-14.59,8.37-22.07a88.89,88.89,0,0,0,4.25-17.93c1-10.11,2.61-20.53,1.14-30.39-1-6.62-1.68-13.64-4.73-20.5-3.93-8.86-6.07-18.54-12.64-26.07-6-6.93-11.75-14.5-19-20-6.9-5.23-15.61-8.06-23.45-12.09-2.58-1.32-4.86-3.2-7.42-4.56a5.07,5.07,0,0,0-3.75-.56,19,19,0,0,0-5.38,3.5c-1.8,1.63-4,3.39-4.73,5.54-2.9,8.37-5.24,16.94-7.94,25.38-.33,1.05-1.54,1.81-2.35,2.7a18.67,18.67,0,0,1,.22-4.38q10.22-34.23,20.58-68.41c0-1.49,0-3,.08-4.45a1.19,1.19,0,0,0-.65-.49c-.4-.38-.8-1.08-1.21-1.08q-19.29-.07-38.59,0c-.37,0-.74.53-1.12.81-1.4.91-3.71,1.55-4.07,2.77-2.64,8.78-4.89,17.68-7.27,26.54-1.73.55-3.51,1.57-4.11-1.49a3,3,0,0,0-2.46-1.63c-4.29.89-8.47,1.95-12.07-1.81-.29-.29-1.24,0-1.88.09-5.68.74-11.38,2.17-17,2-3.61-.12-4.09,1.39-4.27,3.76-.23,3.28-.05,6.58-.05,10.17l-1.92-1.17-.32-.21.13-.36c-.53-1.78-1.05-3.55-1.58-5.32l-.48-2.53-.64-2.5-.38-.16.07-.41c-.28-.81-.56-1.62-.83-2.43A.46.46,0,0,1,437.17,392.41Z" style="fill: #c43a03"/>
        <path d="M308.22,98.91a41.21,41.21,0,0,0-.93,6.28q-.09,96.45-.07,192.9c0,7.83,0,7.86-7.74,7.86q-96.95,0-193.89.12c-3.34,0-6.67,1.16-10,1.78-1.36-1-2.59-2.33-4.09-2.78-2.83-.85-5.87-1-8.73-1.72-28.68-7.53-51.64-23-67.76-48.29C8.22,244.42,4.32,232.67.49,220.83c-.11-9-.3-18-.31-27,0-31.64.35-63.29-.17-94.93C-.27,82.26,4.94,67.6,13,53.5c7.8-13.7,18.49-24.71,31.14-33.94a10.56,10.56,0,0,0,2.18-.83C66.87,5.48,89.44-.3,113.88,0c28.77.36,57.56,0,86.33.19a99.57,99.57,0,0,1,36,6.93C242.94,9.78,249.46,13,256.07,16l.22.11L262,19.94l.31.2,4.37,3.05.29.26L282,38l.21.16c.25.27.5.53.76.79l.16.24,1.47,1.91a2.78,2.78,0,0,1,.33.51A26.2,26.2,0,0,0,286.72,45a102.37,102.37,0,0,1,16.66,35.37C304.89,86.57,306.6,92.73,308.22,98.91Zm-124,145c2.49.65,5,1.87,7.46,1.86,10.4,0,20.8-.44,31.2-.76,7.2-.23,7.38-.48,5.51-7.67a55.57,55.57,0,0,0-2-5.47q-1.5-5.49-3-11v-8.43c1.75,1.24,3,1.73,3.65,2.66A9.13,9.13,0,0,0,238.68,218a12.8,12.8,0,0,1,8-1.17c12.21,2.68,21.72,0,26.58-11.61,5.2-12.48,10.35-25,15.59-37.45.9-2.13,1.72-4.59,3.34-6.08,4.4-4.07,4.64-9.31,5-14.61a45.77,45.77,0,0,1,.18-5c2.52-13.64,4.21-27.35,3.81-41.25-.42-15-2-29.8-11.66-42.29-1.51-2-3.51-3.56-5.14-5.44-6.31-7.24-11.29-15.68-19.65-21-2.76-1.77-5-4.43-7.82-6-2.31-1.29-5.21-1.48-7.81-2.31-4.87-1.55-9.62-4.07-14.6-4.64-8.79-1-17.71-.89-26.57-1.19C197,17.57,186,17,175,17c-15.45,0-30.93,0-46.32,1.14-10,.73-19.77,3.46-29.64,5.32-6,1.13-11.89,2.58-17.9,3.4-6.39.87-12.88.92-19.26,1.78C50.17,30.21,40.1,36,31.49,43.55A74.91,74.91,0,0,0,15.76,63,57.35,57.35,0,0,0,9,88.5C8.24,104.36,6.3,120.16,5.39,136c-.27,4.62,1,9.38,1.9,14,.66,3.54,1.23,7.29,2.86,10.4a222.18,222.18,0,0,0,12.93,21.89c2.61,3.82,6.56,6.74,10,10a23,23,0,0,0,4,2.92c6.39,3.8,11.77,9.52,19.95,9.92a36,36,0,0,1,8.62,2.05c6.41,2,12.78,4.12,19.67,6.35-1.84,10.23-7.31,20.52-5.62,32.28,14.65,0,28.79.05,42.93-.1,1.14,0,3.07-1.2,3.29-2.14,2-8.82,3.67-17.7,5.44-26.56,1.6-.72,3.18-2,4.78-2.05,11.95-.18,23.89,0,35.84-.17,2.93,0,4.13,1.2,4.7,3.87q2.25,10.47,4.8,20.87a14.82,14.82,0,0,0,1.85,3.39Z" style="fill: #c43a03"/>
        <path d="M282,38,267,23.45A28.16,28.16,0,0,1,282,38Z" style="fill: #9a999d"/>
        <path d="M350.05,590.49c4.79.29,8.4,2.36,10.35,6.91C356.94,595.1,353.5,592.8,350.05,590.49Z" style="fill: #6d6c70"/>
        <path d="M362.15,598.4c4.56.57,8.88,1.65,11.63,5.82Z" style="fill: #6d6c70"/>
        <path d="M538.24,302.32l4-1.36C540.89,301.38,540.61,304.94,538.24,302.32Z" style="fill: #9a999d"/>
        <path d="M613.44,388.63l-.48-.4.42-.08.21.22Z" style="fill: #6d6c70"/>
        <path d="M591.15,574.15l-.31-.33.69-.19A.51.51,0,0,1,591.15,574.15Z" style="fill: #6d6c70"/>
        <path d="M590.22,575.13l-.4-.29.64,0Z" style="fill: #6d6c70"/>
        <path d="M580.36,585l-.43-.15.53.07Z" style="fill: #6d6c70"/>
        <path d="M598.19,565.13l-.38-.3.68-.06Z" style="fill: #6d6c70"/>
        <path d="M599.07,564.13l-.26-.36.67-.34A.51.51,0,0,1,599.07,564.13Z" style="fill: #6d6c70"/>
        <path d="M347.9,588.7l.61.54A.57.57,0,0,1,347.9,588.7Z" style="fill: #6d6c70"/>
        <path d="M349,589.69l.64.52A.57.57,0,0,1,349,589.69Z" style="fill: #6d6c70"/>
        <path d="M597.3,566l-.33-.14.42,0Z" style="fill: #6d6c70"/>
        <path d="M361,597.77l.65.36A.46.46,0,0,1,361,597.77Z" style="fill: #6d6c70"/>
        <path d="M579,585.92l.38,0-.21.16Z" style="fill: #6d6c70"/>
        <path d="M232.42,393.86c6.86.35,13.71,1,20.57,1,4.78,0,6.76,2.59,8.21,6.49a40.22,40.22,0,0,0,3,6.09c3,5.13,6.16,10.13,9,15.31,3.76,6.81,6.68,14.18,11.09,20.51,5.35,7.7,6.91,16.43,8.76,25.1a163,163,0,0,1,3,22.47c.55,7.89.45,15.83.34,23.74a52.76,52.76,0,0,1-1.31,12.31c-1,4-3,7.71-4.77,11.47-2,4.3-3.9,8.65-6.26,12.74-5.93,10.24-15.06,17.49-25,23.16-6.74,3.86-14.83,5.49-22.45,7.62a141.4,141.4,0,0,1-18.23,3.77c-4.34.62-8.8.29-13.21.51-2.29.12-4.56.68-6.85.77-18.24.71-36.47,1.58-54.72,2q-24,.48-48,0c-9-.18-18.28-.08-26.88-2.27a76,76,0,0,1-31.35-15.93c-17.71-15.39-28-34.51-28.2-58.3C9.19,503.89,9,495.27,10.42,487c2.42-13.93,4.1-28.34,12.51-40.41,4.45-6.37,9-12.92,14.63-18.13,5.2-4.81,11.84-8.14,18.06-11.75,5.13-3,10.66-5.25,15.81-8.19,1-.6,1.65-2.74,1.71-4.21.45-11.12.83-22.24,1-33.37,0-3.44,1.41-5,4.64-5q23-.06,46,0c.84,0,1.67.77,2.51,1.17a31.58,31.58,0,0,1-4.78.73c-13.83.07-27.67.18-41.5,0-3.72-.05-4.9,1.08-4.89,4.81,0,10.65-.21,21.3-.59,31.95-.16,4.48,1.36,6.26,6,6.19,14.16-.22,28.33-.08,42.49-.08,7.37,0,7.37,0,7.36,7.53,0,44,0,88-.17,132,0,4.72,1.43,5.93,5.94,5.8,10.66-.32,21.34-.35,32,0,4.77.15,6.21-1.2,6.19-6.07-.21-44.33-.1-88.66-.27-133,0-4.73,1.31-6.42,6.22-6.33,15,.28,30-.07,45,.21,4.74.09,6.18-1.55,5.86-6.06A105.16,105.16,0,0,1,232.42,393.86Z" style="fill: #9a999d"/>
        <path d="M433.72,216c-.58-.71-1.45-1.33-1.69-2.14-1.87-6.36-3-6.11-10.12-5.81-3.85.17-7.68.84-11.53.88-11.65.11-23.33-.3-35,.15-8.67.33-15.81-3.09-21.54-8.64-3.72-3.62-5.47-9.23-8.28-13.84-3.68-6.06-6.93-12.52-11.45-17.9a46.5,46.5,0,0,1-10.84-23.9c-1.15-7.84-3.5-15.57-4-23.42-.61-10,.11-20.11.31-30.17,0-1,.65-2,.53-2.9-1.61-11.77,5.12-20.41,10.71-29.61a60,60,0,0,1,17.69-18.07c8.72-6,18.67-10.31,28.46-14.5,8.59-3.69,17.92-3.36,27.23-3.31,22.95.1,45.9-1.09,68.83-.66,16.84.32,33.65,2.39,50.48,3.68,4.45.34,8.94.46,13.35,1.11,13.38,2,25.57,6.72,36.12,15.52,2.93,2.44,7.17,3.29,10.19,5.65a44.84,44.84,0,0,1,9.15,9.51c3.61,5.17,7,10.54,8.13,17.07,1.3,7.53,3.12,15,4.76,22.44,2.72,12.31-.26,24.1-3.56,35.76A273.64,273.64,0,0,1,592.15,162c-1.93,4.73-5.94,8.66-9.25,12.76-2.81,3.48-5.59,7.14-9,9.89-3.94,3.13-8.59,5.38-13,8-3,1.77-6,3.62-9.13,5.1-12.2,5.77-25.12,8.3-38.57,8.68-6.37.19-12.72,1-19.08,1.53,1-4,1.8-8.05,3-12,6.64-21.9,13.38-43.76,20.07-65.64C523.07,111,529,91.7,534.85,72.41c1.46-4.82,2.62-9.73,4.1-15.27-2.83-.12-4.61-.27-6.39-.27-10.83,0-21.66,0-32.49,0-7.12,0-7.2.32-8.82,7.11C488.35,76,485.14,88,482,100.07q-8.37,32.54-16.74,65.06c-.9,3.51-1.49,7.09-2.22,10.64l-1.38-.1c-.43-1.35-.94-2.68-1.26-4-2.56-11.12-4.83-22.31-7.7-33.35-4-15.43-8.46-30.74-12.73-46.11C437.21,82.09,434.54,72,431.46,62c-.61-2-2.8-4.84-4.34-4.89-12.81-.4-25.64-.24-38.47-.22-2.67,0-3.51,1.21-2.62,3.87,1.69,5,3.15,10.16,4.72,15.23Q409.08,135,427.4,194.09C429.64,201.34,431.62,208.68,433.72,216Z" style="fill: #9a999d"/>
        <path d="M517.18,445.88c.81-.89,2-1.65,2.35-2.7,2.7-8.44,5-17,7.94-25.38.74-2.15,2.93-3.91,4.73-5.54a19,19,0,0,1,5.38-3.5,5.07,5.07,0,0,1,3.75.56c2.56,1.36,4.84,3.24,7.42,4.56,7.84,4,16.55,6.86,23.45,12.09,7.23,5.47,12.93,13,19,20,6.57,7.53,8.71,17.21,12.64,26.07,3,6.86,3.74,13.88,4.73,20.5,1.47,9.86-.1,20.28-1.14,30.39a88.89,88.89,0,0,1-4.25,17.93c-2.41,7.48-5.35,14.8-8.37,22.07-.72,1.72-2.52,3.08-4,4.35-4.91,4.1-9.78,8.29-15,12a69.72,69.72,0,0,1-12.74,7.55,124.36,124.36,0,0,1-16,5.24,40.34,40.34,0,0,1-9.63,1.77c-7.82.25-15.66.29-23.49,0-15.16-.5-30.31-1.42-45.47-1.81-3.63-.09-7.32,1.85-11,1.77-20.82-.46-41.65-.81-62.42-2.15-7.45-.49-14.64-4.58-22.11-5.28-7.09-.66-12.9-3.74-19-6.44-2.46-1.08-4.6-2.89-6.95-4.25-14.51-8.38-25.65-19.51-29.71-36.38-3.69-15.27-4.82-30.65-2.29-46.28,1.18-7.3,1-14.85,2.43-22.08,2.08-10.29,4.3-20.59,10.61-29.52,3.06-4.34,5.12-9.43,7.32-14.32,3.66-8.15,6.71-16.6,10.74-24.57,2.7-5.34,8-6.55,13.93-6,4.35.38,8.83-.94,13.26-1a127.15,127.15,0,0,1,12.92.73c.41,0,.74,1,1.11,1.5,4.74,6.48,8,13.69,11,21.3v-4.82a12,12,0,0,1,1.39,2.38Q415,467,430.34,517.5c3,9.73,5.69,19.53,8.86,29.19,3,9.27,3.23,9.21,12.83,9.21,7.83,0,15.67-.32,23.48.13,5.31.31,7.59-1.66,9.09-6.69,8.8-29.6,17.88-59.12,27-88.63C513.15,455.67,515.31,450.82,517.18,445.88Z" style="fill: #fd5401"/>
        <path d="M485.15,397.19q-4.2,17.1-8.4,34.2-6.47,26.6-12.91,53.2a33.09,33.09,0,0,1-1.67,3.88c-1.17-4.77-2-8.24-2.88-11.69q-6.57-25.25-13.16-50.5c-1.65-6.38-3.18-12.8-4.77-19.19l1.92,1.17c0-3.59-.18-6.89.05-10.17.18-2.37.66-3.88,4.27-3.76,5.65.19,11.35-1.24,17-2,.64-.08,1.59-.38,1.88-.09,3.6,3.76,7.78,2.7,12.07,1.81A3,3,0,0,1,481,395.7C481.64,398.76,483.42,397.74,485.15,397.19Z" style="fill: #fd5401"/>
        <path d="M431,370.69c-.12,0-.26.1-.34.06a.32.32,0,0,1-.12-.31c0-.08.2-.1.31-.15Z" style="fill: #fd5401"/>
        <path d="M395.56,404.89l.55.51-.31.29A.58.58,0,0,1,395.56,404.89Z" style="fill: #fd5401"/>
        <path d="M131.34,217c-1.77,8.86-3.46,17.74-5.44,26.56-.22.94-2.15,2.13-3.29,2.14-14.14.15-28.28.1-42.93.1-1.69-11.76,3.78-22,5.62-32.28-6.89-2.23-13.26-4.37-19.67-6.35A36,36,0,0,0,57,205.14c-8.18-.4-13.56-6.12-19.95-9.92a23,23,0,0,1-4-2.92c-3.43-3.24-7.38-6.16-10-10a222.18,222.18,0,0,1-12.93-21.89C8.52,157.32,8,153.57,7.29,150c-.88-4.63-2.17-9.39-1.9-14C6.3,120.16,8.24,104.36,9,88.5A57.35,57.35,0,0,1,15.76,63a74.91,74.91,0,0,1,15.73-19.4C40.1,36,50.17,30.21,61.92,28.65c6.38-.86,12.87-.91,19.26-1.78,6-.82,11.93-2.27,17.9-3.4,9.87-1.86,19.68-4.59,29.64-5.32C144.11,17,159.59,17.06,175,17c11,0,21.94.56,32.91.92,8.86.3,17.78.18,26.57,1.19,5,.57,9.73,3.09,14.6,4.64,2.6.83,5.5,1,7.81,2.31,2.84,1.57,5.06,4.23,7.82,6,8.36,5.36,13.34,13.8,19.65,21C286,55,288,56.58,289.54,58.55c9.62,12.49,11.24,27.24,11.66,42.29.4,13.9-1.29,27.61-3.81,41.25a45.77,45.77,0,0,0-.18,5c-.37,5.3-.61,10.54-5,14.61-1.62,1.49-2.44,3.95-3.34,6.08-5.24,12.47-10.39,25-15.59,37.45-4.86,11.65-14.37,14.29-26.58,11.61a12.8,12.8,0,0,0-8,1.17A9.13,9.13,0,0,1,227,215.08c-.62-.93-1.9-1.42-3.65-2.66v8.43l-.09.07L215.6,192q1.8,4.88,3.61,9.77c.84,2.31,1.67,4.63,2.51,6.95.38-3.67,1-7.24-.3-9.76-1.66-3.15.15-9.05-6.13-9.09a76.67,76.67,0,0,1-2.73-7.21q-11.75-43.49-23.36-87c-3.13-11.7-6.38-23.37-9.38-35.1-.82-3.21-2.6-4.31-5.67-4.27-13.14.19-26.29.36-39.43.43-3.14,0-5,1.21-5.76,4.29-1.8,6.92-3.81,13.77-5.64,20.68q-10.6,40-21.17,79.94-10.25,38.52-20.58,77c-1,3.66.3,5.24,4.2,5.2q17-.17,34,0c3.34,0,4.68-1.44,5.44-4.49,1.87-7.53,4-15,6.07-22.48Z" style="fill: #fd5401"/>
        <path d="M184.21,243.87l-.9-.94.28-.3.88,1Z" style="fill: #fd5401"/>
        <path d="M215.6,192c-.1-.71-.21-1.42-.31-2.13,6.28,0,4.47,5.94,6.13,9.09,1.33,2.52.68,6.09.3,9.76-.84-2.32-1.67-4.64-2.51-6.95Q217.41,196.88,215.6,192Z" style="fill: #c43a03"/>
        <path d="M154.57,105.75c.84,4.32,1.7,8.63,2.52,13L167,171c.25,1.3.47,2.62.74,3.92.72,3.41-.54,5-4.13,4.9-6.16-.12-12.33-.16-18.48.05-4.57.15-5.49-2.17-4.66-6,2-9.39,4.41-18.73,6.16-28.18,2.15-11.58,3.8-23.26,5.68-34.9.27-1.71.58-3.42.88-5.12Z" style="fill: #fd5401"/>
      </g>
    </g>
  </g>
</svg>
