<svg xmlns="http://www.w3.org/2000/svg" viewBox="0 0 704.95 704.95">
  <g id="Camada_2" data-name="Camada 2">
    <g id="Camada_1-2" data-name="Camada 1">
      <g>
        <path d="M202.42,33.26l18.83-8.17c12.35-4.57,24.9-8.54,37.44-12.53,6.23-1.65,12.61-2.72,18.7-4.89a163.54,163.54,0,0,0,18.77-3.34L314.86,2,333.65.33,352.35,0l18.72.25a123.11,123.11,0,0,0,18.78,1.51c6.22,1.18,12.5,2,18.79,2.53l18.71,3.42L446,12.38c12.7,3.71,25.17,8.08,37.6,12.6l18.75,8.15a2.52,2.52,0,0,0,2,.89l16.84,8.67c4.15,2.47,8.25,5,12.45,7.41,8.65,4.88,16.52,10.95,25,16.09a32.21,32.21,0,0,0,6.91,5.15l11.8,9.42,10.87,9.3a50.44,50.44,0,0,0,7.21,6.8l12.71,12.73c2.17,2.5,4.16,5.15,6.8,7.2a105.65,105.65,0,0,0,9.27,10.77,114,114,0,0,0,9.46,11.9,28.51,28.51,0,0,0,5.14,6.91c8.15,12.28,16.14,24.67,23.5,37.44a187.46,187.46,0,0,0,8.67,16.86,2.27,2.27,0,0,0,.88,1.94q4.07,9.38,8.14,18.75c1.79,5,3.67,10,5.34,15,2.49,7.52,4.83,15.09,7.24,22.64l4.68,18.61q1.69,9.34,3.4,18.7,1.23,9.4,2.45,18.8.71,9.36,1.4,18.71.25,9.39.5,18.78l-.51,18.71-1.5,18.79q-1.19,9.35-2.38,18.7L697,427.58q-2.31,9.33-4.63,18.66c-4,12.54-8,25.08-12.54,37.42l-8.22,18.85a1.17,1.17,0,0,0-.54,1.28,196.16,196.16,0,0,0-8.95,17.51c-1.55,2.54-3.17,5.05-4.64,7.64-5.81,10.21-12.59,19.79-18.91,29.68a29.16,29.16,0,0,0-5,6.74,121.73,121.73,0,0,0-9.68,12.16,100.76,100.76,0,0,0-9,10.46,50.73,50.73,0,0,0-7.62,8.22L596,607.37a41.57,41.57,0,0,0-7.89,7.39,88.59,88.59,0,0,0-10.8,9.21,111.69,111.69,0,0,0-12.22,9.68,28.12,28.12,0,0,0-6.71,5Q540,650.89,521.06,662.09c-6.15,2.79-12.17,5.81-18,9.17a1.47,1.47,0,0,0-1.56.64l-17.84,7.76-18.82,6.94A45.88,45.88,0,0,0,454.29,690a28.54,28.54,0,0,0-8.19,2.33l-18.71,4.55-21.75,3.9-2.22.34a2,2,0,0,0-2.24.32,7.44,7.44,0,0,0-3.76.51,2.12,2.12,0,0,0-2.24.24l-3.78.2-20.29,2c-6.22.83-12.51-.57-18.72.58-6.24-.77-12.51-.61-18.78-.59l-18.74-1.48-18.76-2.72-18.71-3.32-18.74-4.61c-12.66-3.76-25.09-8.2-37.52-12.65l-18.76-8.21a.44.44,0,0,0-.51-.21C196,667.75,190,664.79,183.8,662c-12.43-7.38-24.75-14.94-36.66-23.14a36.51,36.51,0,0,0-7-5.05,140,140,0,0,0-12.69-10.09,85.11,85.11,0,0,0-10-8.62,64.39,64.39,0,0,0-8-7.54l-12-11.86a55.91,55.91,0,0,0-6.85-7.58q-4.63-5.3-9.26-10.61l-10.09-12.7a38.39,38.39,0,0,0-5-7C57.89,545.92,50.3,533.61,43,521.15l-9.19-18a.52.52,0,0,0-.22-.54q-4.11-9.39-8.21-18.77c-4.58-12.38-8.8-24.89-12.75-37.48q-2.27-9.39-4.52-18.79c-.39-6.4-3.38-12.29-3.64-18.72A167.38,167.38,0,0,0,2,390Q1.3,380.7.58,371.34.3,362,0,352.56q.29-9.35.56-18.71.72-9.41,1.45-18.8c.68-2.22,0-4.48.19-6.71.41-.44,1.43-.63.61-1.56,1-1.36.77-2.95.79-4.49a1.16,1.16,0,0,0,.27-1.51l.54-3.72q1.8-9.75,3.59-19.5l4.56-18.71a30.45,30.45,0,0,0,2.36-8.32,42.07,42.07,0,0,0,3.3-10.39l7-18.83,8.09-18.66.33-.87c3.41-5.78,6.22-11.86,9.1-17.91,1.17-1.9,2.43-3.75,3.5-5.7,6.06-10.92,13.28-21.11,20-31.64a29.41,29.41,0,0,0,5-6.74,128.62,128.62,0,0,0,9.66-12.17l9.23-10.81a40.41,40.41,0,0,0,7.31-7.92A106.22,106.22,0,0,0,108.7,97.67a40.34,40.34,0,0,0,7.88-7.34,93,93,0,0,0,11.06-9.54,85.12,85.12,0,0,0,11.49-9.15,31.7,31.7,0,0,0,7.15-5.29c12.55-8.37,25.25-16.52,38.36-24L201,33.9A1.32,1.32,0,0,0,202.42,33.26ZM84.31,469.82q0,28.11,0,56.24c0,7.13,4.23,12.33,10.78,12.42q23.61.35,47.24,0c6.07-.08,10.43-4.83,10.73-10.91a50.43,50.43,0,0,0,0-7.87c-.38-3.4.94-4.15,4.19-4.13q39.73.2,79.48,0c25-.07,44.53-10.62,58.59-31.23q8.35-12.22,16.37-24.68a4.17,4.17,0,0,1,4.9-2.16,51.43,51.43,0,0,0,52.75-24.49l9.25-15.43c3.23-5.39,3.21-5.37,8.77-2.16q45,26,89.94,51.91c8.14,4.69,14.57,2.7,18.78-5.69,2.13-4.24,4.29-8.47,6.33-12.76.74-1.55,1.6-2.25,3.44-2.06,4.38.46,8.74-.1,13.08-.63,43.35-5.21,75.39-48.37,67.69-91.34-.46-2.57.38-3.52,2.43-4.53,12.21-6,24.33-12.25,36.56-18.24,4.65-2.27,7.76-5.48,7.94-10.83s-2.77-8.75-7.24-11.31Q476,224.07,325.63,138.06c-5.09-2.91-10.06-6.07-15.6-8.12-23.76-8.82-50.82-.38-65.76,20.82-19.58,27.78-38.93,55.73-58.46,83.54-18.12,25.78-10.94,58.51,16.34,74.22,20.25,11.66,40.43,23.44,60.73,35,2.76,1.57,2.87,2.71,1,5-2.85,3.48-5.43,7.17-8.14,10.77-14.25,18.91-15.11,39.19-2.39,59.26a3.61,3.61,0,0,1-.07,4.66q-7.17,10.54-14.08,21.26a4.52,4.52,0,0,1-4.23,2.41q-39.36-.08-78.73,0c-2.47,0-3.22-.74-3.19-3.2.13-10,.08-20,0-30,0-8.11-4.42-12.45-12.56-12.46q-21.55,0-43.12,0c-8.86,0-13.1,4.23-13.1,13.1Q84.29,442.07,84.31,469.82Z" style="fill: #0971b9"/>
        <path d="M233,208.64l2.32,1.35Q373.49,289.69,511.67,369.3c3,1.75,3.29,3.14,1.81,6.05Q497.42,407.12,481.64,439c-1.35,2.72-2.36,2.94-4.94,1.45Q365.58,376.23,254.37,312.11c-13.64-7.87-27.31-15.67-40.91-23.6-15.28-8.9-19-26.05-8.84-40.49q12.93-18.42,25.83-36.83C231.13,210.21,231.61,209,233,208.64ZM461.74,378.22a11.56,11.56,0,1,0,11.75,11.23A11.74,11.74,0,0,0,461.74,378.22Z" style="fill: #0971b9"/>
        <path d="M597.43,320.46c-8.18,4.12-15.63,7.88-23.1,11.62-13.4,6.7-26.83,13.35-40.2,20.14a5.66,5.66,0,0,1-6.17-.1q-126.38-73-252.83-145.91c-8.76-5.06-17.48-10.2-26.33-15.1-2.55-1.41-2.71-2.47-1-4.77,5.29-7.27,10.32-14.73,15.53-22.06,10.76-15.13,27.79-18.91,43.89-9.72q51.27,29.25,102.49,58.56L592.54,317.58C593.93,318.38,595.3,319.2,597.43,320.46Z" style="fill: #0971b9"/>
        <path d="M326.08,435.18c-7.37,0-12.15-1.26-16.53-3.87-9.76-5.82-19.56-11.55-29.21-17.55-13.54-8.4-16.84-25.57-7.52-38.49,3.8-5.26,7.84-10.34,11.6-15.63,1.43-2,2.61-2,4.61-.85q35,20.29,70,40.42c2.12,1.22,2.51,2.12,1.16,4.26-3.74,5.9-7.12,12-10.87,17.92C343.44,430.69,334.62,434.83,326.08,435.18Z" style="fill: #0971b9"/>
        <path d="M197.84,492.66c-13.74,0-27.48-.07-41.22.06-2.8,0-3.7-.75-3.58-3.58a149.69,149.69,0,0,0,0-15c-.18-3.27.75-4.23,4.12-4.21,25.86.15,51.72-.05,77.57.15,10.44.07,18.27-3.79,23.75-12.78,3.89-6.4,8.3-12.48,12.36-18.78,1.19-1.83,2.18-2.3,4.16-1,4.85,3.08,9.79,6,14.77,8.88,1.7,1,2,1.77.84,3.45-5.49,8.05-10.57,16.39-16.34,24.23-9,12.26-21.49,18.37-36.7,18.56C224.33,492.79,211.08,492.66,197.84,492.66Z" style="fill: #0971b9"/>
        <path d="M107.29,469.94c0-14.1.09-28.21-.07-42.31,0-2.9.89-3.61,3.61-3.51,5.36.19,10.74.13,16.1,0,2.28-.05,3.33.39,3.32,3.05q-.13,42.69,0,85.38c0,2.38-.84,2.94-3,2.89-5.62-.13-11.24-.18-16.85,0-2.56.09-3.12-.84-3.1-3.2C107.34,498.15,107.29,484.05,107.29,469.94Z" style="fill: #0971b9"/>
        <path d="M515.42,423.14c1.58-3.19,2.83-5.75,4.1-8.29,6.07-12.18,12.19-24.33,18.2-36.54a8.83,8.83,0,0,1,4.35-4.34c6.31-3,12.53-6.22,18.78-9.34,3.81-1.9,4-1.88,3.86,2.56-.66,22.38-11,39-30.4,49.9A50.07,50.07,0,0,1,515.42,423.14Z" style="fill: #0971b9"/>
      </g>
    </g>
  </g>
</svg>
