<svg xmlns="http://www.w3.org/2000/svg" viewBox="0 0 1501.03 939.13">
  <g id="Camada_2" data-name="Camada 2">
    <g id="Camada_1-2" data-name="Camada 1">
      <g>
        <path d="M1256.32,0c2.33.52,4.64,1.13,7,1.54A83,83,0,0,1,1306,22.81c1.42,1.31,2.57,2.18,4.83,1.67,14.94-3.42,29.35,2.35,38.05,15.05a39,39,0,0,1,6.63,25.62c0,.7-.12,1.4-.2,2.32l3.51,2.37a39.06,39.06,0,0,1,.71,64.7c-2.8,2-5.87,3.53-8.83,5.24-2,1.13-4,2.19-6.11,3.36.27,2.58.67,5,.76,7.37,1.36,34.22-12.42,60.46-41.23,79.06-16.32,10.53-32.31,21.58-48.42,32.44Q1006,430.27,756.38,598.6c-15.55,10.5-31.9,18.89-50.17,23.38-68.91,16.93-140.29-20.45-165-87-10.37-28-19.41-56.43-29.35-84.55-10.79-30.54-32-50-63.67-57-26.21-5.81-50.12.33-71.4,16.7-1.47,1.14-2.87,2.37-4.36,3.47a15.07,15.07,0,0,1-18.33.32,15.31,15.31,0,0,1-5.26-17.61c2.09-6.06,4.49-12,6.38-18.16,3.33-10.86,4.55-22.08,4.74-33.4.11-6.15,0-12.3.06-18.44.71-57.36,42.13-108,98.33-119.62,38.28-7.91,73.34-.12,104.15,24.09,20.67,16.25,40.64,33.37,60.91,50.12,8.6,7.09,17,14.39,25.78,21.29a100.19,100.19,0,0,0,49.54,20.94c30.1,4,57.21-3.48,81.11-22.32,10.69-8.42,18.94-18.95,25.95-30.53a153.36,153.36,0,0,0,19.49-48.21c2.51-12,9.72-20,21.24-24.3q89.82-33.66,179.61-67.44L1269.1,39.1c1.05-.39,2.06-.89,3.63-1.57-1.34-.71-2.22-1.26-3.16-1.66-11-4.68-22.45-5.85-34-2.64-20.89,5.82-41.68,12-62.49,18.15q-157.54,46.31-315,92.71c-6.71,2-13.32,3.3-20.19,1.38A31.64,31.64,0,0,1,816.62,127c-21.53-48.22-57.8-79.51-109.19-91.2C655,23.9,608,36.8,567.68,72.47c-18,15.91-35.17,32.69-52.59,49.22-8.33,7.9-17.56,14.12-28.73,17.2a63.38,63.38,0,0,1-35.49-.46c-25.32-7.47-50.59-15.17-76-22.2-91.28-25.21-185.75,27-211.18,118.11-17.58,63-2.84,119.19,41.69,167.32,3.17,3.42,6.06,6.86,6.45,11.75a15.62,15.62,0,0,1-8.67,15.46,14.83,14.83,0,0,1-17.46-2.63,201.74,201.74,0,0,1-14.2-15.46c-24.33-29.65-39.28-63.54-44.3-101.55a203.43,203.43,0,0,1,260.1-222c24.08,7.12,48.26,13.94,72.34,21.08,10.7,3.17,20.32,1.31,29.2-5.13a67.4,67.4,0,0,0,6.51-5.55c16.42-15.5,32.69-31.17,49.23-46.54q43-39.95,101.09-48.66c3.81-.56,7.65-.93,11.47-1.47.53-.08,1-.63,1.51-1h27.44c.53.31,1,.83,1.6.9,3.12.4,6.26.6,9.37,1a185.42,185.42,0,0,1,83,32.29,9.23,9.23,0,0,0,7.94,1.49c17.45-3.67,34.93-7.23,52.4-10.83,29.76-6.13,59.49-12.42,89.3-18.35,15.29-3,28.47,1.38,38.25,13.62s11.08,26,4.84,40.28c-2.45,5.63-5.26,11.1-7.87,16.65a31.55,31.55,0,0,0-1,3c1.68-.41,2.77-.62,3.83-.93Q980,75.57,992.32,72q104.91-30.86,209.84-61.67c10.94-3.2,22-6,33-9,1.88-.51,3.8-.88,5.71-1.31Zm-866,367.05,4.13-1.33c19.18-6.09,38.77-7.65,58.39-3.37,43.49,9.48,73,35.45,88.43,77.19,5.7,15.4,10.81,31,16.21,46.51,4.83,13.89,9.1,28,14.65,41.6,22.28,54.51,85.5,81.17,140.34,59.63,11.28-4.43,21.28-11,31.23-17.73q273.49-184.36,547-368.74c12-8.09,19.32-19.19,22.39-33.21.44-2,.64-4.16,1.11-7.25-2.53,1.4-4.24,2.33-5.94,3.28q-177.43,99.75-354.86,199.5a37.8,37.8,0,0,1-5,2.45,15.5,15.5,0,0,1-19-6.53,15.07,15.07,0,0,1,3-19.45,30.45,30.45,0,0,1,5.31-3.57q200.4-112.68,400.81-225.32a32.23,32.23,0,0,0,3-1.73,7.83,7.83,0,0,0,2.67-10.19,7.72,7.72,0,0,0-9.59-3.48c-2,.72-3.95,1.67-5.89,2.57L938.38,278.52l-26,12c-3.58,1.65-7.27,2.51-11.22,1.46a15.67,15.67,0,0,1-11.78-13.26,15.47,15.47,0,0,1,8.55-15.94c4.59-2.31,9.32-4.34,14-6.5l406.29-188a25.63,25.63,0,0,0,3.06-1.52,6.68,6.68,0,0,0-5.41-12.09c-1.1.3-2.16.73-3.23,1.13q-49.9,18.8-99.79,37.61Q1036.62,159.77,860.42,226a7.58,7.58,0,0,0-5.38,6.15,176,176,0,0,1-29.8,65.47C796,337.45,756.33,357,706.77,355.18c-29-1-54.92-11.13-77.73-29.06-6.29-4.94-12.33-10.2-18.5-15.3C588.07,292.25,566,273.2,543,255.25c-26.72-20.89-57.09-26.25-88.94-14.72-36.9,13.36-58,40.59-62.15,79.77C390.29,335.57,390.8,351.07,390.32,367.05ZM845.69,115c8.09-2.38,15.86-4.67,23.64-6.94L919.42,93.4c1.89-.56,3.65-1,4.67-3.21C930.63,76.08,937.34,62.05,944,48c1.4-3,1.5-5.81-.7-8.42s-4.87-2.92-8.13-2.25Q881.34,48.45,827.46,59.39c-4.85,1-9.68,2.08-15.16,3.25A194.79,194.79,0,0,1,845.69,115Z" style="fill: #0283c1"/>
        <path d="M0,771a54.42,54.42,0,0,0,1.64-6.45c2.54-19.36,8.86-37.2,21.37-52.46,14.19-17.31,32.61-27,54.75-29.49,21.84-2.5,42.68,1.18,62.58,10.4,7,3.23,10.43,10.28,8.54,17.27a14.65,14.65,0,0,1-15.5,10.86A23.79,23.79,0,0,1,126.5,719,82.19,82.19,0,0,0,89,711.66c-16.08.65-28.77,7.56-38.12,20.59A69.83,69.83,0,0,0,39.19,761c-3,16.72-2.52,33.3,2.79,49.53a67.51,67.51,0,0,0,5.94,13.24c10.63,18,26.84,25.74,47.39,25A99.74,99.74,0,0,0,127,841.88a23.45,23.45,0,0,1,7.89-1.5,13.72,13.72,0,0,1,13.31,10.16,14,14,0,0,1-6.35,16A74.06,74.06,0,0,1,122,874.31c-18.54,4.63-37.32,6-56,1.89-26.31-5.78-44.29-22.07-55.39-46.26a107.81,107.81,0,0,1-9-33.36c-.37-3.39-1-6.74-1.57-10.11Z" style="fill: #0283c1"/>
        <path d="M518.82,939.13c-1.06-.51-2.1-1.11-3.2-1.53-1.73-.66-3.58-1-5.24-1.82-5.25-2.45-7.63-7.31-6.16-12.22,1.35-4.51,6.69-7.4,12.17-6.41,2.8.5,5.53,1.43,8.34,1.93a20.06,20.06,0,0,0,5.93.31,7.3,7.3,0,0,0,6.56-6.81c0-3.28-2.65-6.25-6.43-7a11.1,11.1,0,0,0-8.57,1.74,12.21,12.21,0,0,1-11.47,1.31,12.94,12.94,0,0,1-7-18.32c1.85-3.65,3.65-7.33,5.71-11.48-2.28-.42-3.9-.69-5.52-1-26.56-5.17-43.2-20.94-49.63-47.15-4.74-19.32-4.3-38.65,3-57.29,9.84-25.11,28.94-38.52,55.39-41.86,16.07-2,31.61.28,46.66,6.12a31.52,31.52,0,0,1,6.5,3.23,13.06,13.06,0,0,1-4,23.42,9.15,9.15,0,0,1-4.19.17Q550.8,763,544,761.05c-8.51-2.4-17.15-3.36-25.85-1.64-14.26,2.83-23.24,11.82-27.42,25.42a68,68,0,0,0,.63,42.58c5.45,16.07,17.39,24.35,34.34,24.48a80,80,0,0,0,22-3.08c2.89-.79,5.79-1.56,8.73-2.11,6.63-1.23,11.79,1.63,14,7.61s0,12.66-5.77,15.39-12.22,4.71-18.42,6.79a82.51,82.51,0,0,1-8.61,1.9l-1.83,5.71c1.68.72,3.12,1.28,4.5,1.94,8.52,4.06,15,10,17.21,19.52A25.22,25.22,0,0,1,544.89,934c-3.47,1.87-7.45,2.77-11.19,4.15a18.15,18.15,0,0,0-2,1Z" style="fill: #0283c1"/>
        <path d="M1043.48,815v-4.62q0-54,0-108a29.18,29.18,0,0,1,.5-6.81,17.71,17.71,0,0,1,34.81,3.88c0,.86,0,1.72,0,2.58q0,76.51,0,153a29,29,0,0,1-.44,6.39c-2,8.74-7.34,14.62-16.06,16.53-9,2-16.68-.84-22.25-8.45q-43.39-59.32-86.75-118.68a14.56,14.56,0,0,0-4.06-4.09v4.49q0,53.81,0,107.61a26.64,26.64,0,0,1-.82,7.19c-2.36,8.3-10.17,13.22-19.17,12.34-8-.79-14.6-7.66-15.27-16-.12-1.57-.11-3.14-.11-4.71q0-75.46,0-150.91c0-1.15,0-2.29,0-3.43.35-9.82,6.08-17.5,15-20.18,8.78-2.62,17.69.5,23.39,8.33q33.59,46,67.11,92.16,10.59,14.55,21.18,29.11c.66.9,1.42,1.73,2.13,2.59Z" style="fill: #0283c1"/>
        <path d="M252.45,782.87c2-10.79-2.09-18.62-12.48-22.19a49.41,49.41,0,0,0-41.37,3.6c-3,1.64-5.8,3.64-8.67,5.52a14.08,14.08,0,0,1-8.51,2.44c-5.64-.27-9.81-3-12.08-8.16A12.59,12.59,0,0,1,172,749.42a43.8,43.8,0,0,1,8-6.37c15.39-9.78,32.35-13.21,50.36-11.89a75.46,75.46,0,0,1,29.52,8.12,55.25,55.25,0,0,1,20.85,18,40.28,40.28,0,0,1,7.08,23q.12,39.86.17,79.71a29.11,29.11,0,0,1-.3,5.12,14.58,14.58,0,0,1-12.39,12.44c-6.84,1.05-12.2-1.68-15.6-7.95-.4-.75-.78-1.5-1.27-2.43-1.19.62-2.33,1.18-3.43,1.79a70.52,70.52,0,0,1-37.39,9.14c-15.84-.61-30.28-5.46-42.72-15.5-6.94-5.6-12.36-12.44-14.41-21.26-3.22-13.86.58-26,10.07-36.4,8-8.71,18.11-13.78,29.35-16.78,15.86-4.22,32-5.46,48.4-5q1.71,0,3.42,0A2.56,2.56,0,0,0,252.45,782.87Zm.48,25.06c-13.84-.29-27.22-.8-40.34,2.5a27.49,27.49,0,0,0-15.6,9.91c-5.22,6.8-5.11,15.11.55,21.55a30.57,30.57,0,0,0,7.18,6c6.92,4.15,14.59,5.47,22.6,5a30.21,30.21,0,0,0,15.68-5c5.56-3.8,9.51-8.86,9.84-15.74C253.22,824.3,252.93,816.46,252.93,807.93Z" style="fill: #0283c1"/>
        <path d="M674.91,782.82c0-2.59.19-5,0-7.4-.5-5.34-3.34-9.3-7.71-12.25a30.92,30.92,0,0,0-14.06-4.81c-12.89-1.5-25,.59-36,8-1.89,1.29-3.78,2.58-5.76,3.72-6.69,3.87-14.43,2.3-18.64-3.71s-3-13.49,2.77-18.44a69.7,69.7,0,0,1,31.32-15.06c17.82-3.82,35.21-2.54,52,4.84A56.16,56.16,0,0,1,700,753.44a42.44,42.44,0,0,1,10,28c-.08,26.28,0,52.57.08,78.86a28.4,28.4,0,0,1-.32,5.54,14.63,14.63,0,0,1-12.61,11.74c-6.7.92-12-1.8-15.25-7.85-.41-.75-.76-1.53-1.27-2.58-1.44.75-2.76,1.47-4.11,2.15-26.6,13.4-52.35,11.83-77-4.83-8.62-5.84-15-13.79-17.18-24.25-2.84-13.61,1.25-25.44,10.51-35.5,7.88-8.56,17.93-13.54,29-16.51,15.85-4.24,32-5.51,48.38-5.09,1.14,0,2.29.07,3.43.07A7.49,7.49,0,0,0,674.91,782.82ZM674.83,808c-12.79-.45-25.05-.51-37.19,1.69a30.09,30.09,0,0,0-17.72,9.68c-5.87,6.66-6.22,15.52-.47,22.26a34.18,34.18,0,0,0,8.22,6.71c6,3.64,12.82,4.79,19.76,4.68,7.77-.13,15-2.15,20.83-7.61,3.46-3.2,6.24-7,6.46-11.75C675.1,825.24,674.83,816.83,674.83,808Z" style="fill: #0283c1"/>
        <path d="M1471.91,867.13c-7,4-13.81,7.17-21.25,8.87-23.33,5.33-44.5.78-63.21-14.23-6.72-5.39-11.68-12.26-13.57-20.8-3.09-13.9.9-26,10.45-36.3,7.91-8.53,18-13.51,29.05-16.48,15.85-4.24,32-5.48,48.39-5.05,1.15,0,2.29,0,3.43,0a2.18,2.18,0,0,0,.75-.31c1.87-10.91-2.14-18.62-12.53-22.18-14.52-5-28.7-3.63-42.1,4.07-3.09,1.78-5.93,4-9,5.72a13.65,13.65,0,0,1-20.37-9.75c-.82-5.05,1-9.28,4.87-12.59a67,67,0,0,1,24.67-13.38c19.87-6,39.48-5.34,58.6,3,9.88,4.28,18.24,10.65,24.27,19.73,4,6.06,6.56,12.61,6.55,20.05,0,28.57-.15,57.15.17,85.72.1,9.36-8.69,16.69-18.88,14a13,13,0,0,1-8-6.06C1473.41,870,1472.77,868.7,1471.91,867.13Zm-5.56-58.83a13.42,13.42,0,0,0-1.74-.38,190.88,190.88,0,0,0-32.07,1.09c-7.07.91-13.59,3.29-19,8.11a18.2,18.2,0,0,0-6.32,10.41c-1.35,7.41,1.57,13.14,7.15,17.69,7.34,6,16,7.93,25.24,7.74a30.36,30.36,0,0,0,16.63-4.86c5.47-3.65,9.6-8.51,10-15.21C1466.72,824.8,1466.35,816.66,1466.35,808.3Z" style="fill: #0283c1"/>
        <path d="M864.73,802.55c.08,16.59-2.66,30.49-9.88,43.23-10.78,19-27.44,29.3-48.79,32.42a84.67,84.67,0,0,1-33.58-1.73c-19.06-4.91-33.05-16.23-40.54-34.45-9.75-23.71-10.42-47.95-.34-71.7,9.83-23.18,28.3-35.43,53-38.79a85.38,85.38,0,0,1,30.24,1.26c23.93,5.35,39.05,20.21,46.13,43.49A91.16,91.16,0,0,1,864.73,802.55Zm-103.68,1.81c.17,3.42.21,6.86.55,10.26a58,58,0,0,0,5.14,19.78c3,6.22,7.31,11.27,13.72,14.16,12.62,5.71,33.09,4.15,42-14.37a52,52,0,0,0,3.26-8.35c3.44-12.17,3.48-24.52,1.36-36.9a57.83,57.83,0,0,0-2.52-9.5c-6.74-19-23-23.69-38.78-19.76-10.64,2.65-17,10-20.78,19.87C761.94,787.52,761.11,795.88,761.05,804.36Z" style="fill: #0283c1"/>
        <path d="M1238.68,804.25c-.17,14.41-2.8,28.18-9.81,40.85-10.64,19.26-27.31,29.82-48.81,33.06a84.85,84.85,0,0,1-33.17-1.51c-21-5.19-35.51-18-42.78-38.27-7.93-22.12-8.39-44.63.52-66.58,9.72-24,28.29-36.89,53.71-40.26a83.24,83.24,0,0,1,36,2.8c21.29,6.62,34.18,21.42,40.37,42.45a80.47,80.47,0,0,1,2.53,11.7C1238,793.71,1238.23,799,1238.68,804.25Zm-36.41.13c-.26-9.41-1.17-18.89-5.13-27.81-2.86-6.45-7.05-11.75-13.49-14.93-12.11-6-34.18-5.34-43.33,14.52a53.54,53.54,0,0,0-3.2,8.83c-2.89,11.07-2.89,22.29-1.24,33.55a51.89,51.89,0,0,0,5.65,17.85c3.6,6.5,8.76,11.23,15.94,13.47a34.94,34.94,0,0,0,19.42.44c9.9-2.54,16.26-9.06,20.3-18.14C1201.09,823.38,1202.09,814.06,1202.27,804.38Z" style="fill: #0283c1"/>
        <path d="M342.43,745.14c6.43-3.39,12.29-7,18.54-9.65a71.22,71.22,0,0,1,38.58-5c18.73,2.62,30.95,14.15,35.12,33.66a77.53,77.53,0,0,1,1.81,15.7c.18,26.72.12,53.44.07,80.16a17.83,17.83,0,0,1-30.73,12.7,18.49,18.49,0,0,1-5-13.28c0-5.43,0-10.86,0-16.29,0-17.43.08-34.87-.06-52.3a73.08,73.08,0,0,0-1.26-14c-1.94-9.48-8.39-14.65-18.08-15.28-11.31-.75-21.44,2.82-30.76,8.79-5.28,3.39-7.63,8.66-7.62,15q0,35.79,0,71.59a32.44,32.44,0,0,1-.73,7.63A17.86,17.86,0,0,1,323.41,878c-9.23-1-16.22-8.25-16.37-17.39-.17-9.86-.05-19.72-.06-29.58,0-27,.16-54-.13-81-.09-8.55,5.4-17.25,15.16-18.95,8.49-1.48,16.56,3.57,19.92,12.6C342.13,744.22,342.3,744.76,342.43,745.14Z" style="fill: #0283c1"/>
        <path d="M1309.09,823.49c.79-2.54,1.47-5.12,2.38-7.62q9.09-24.92,18.26-49.82c3-8,6-16,9.1-24a17.47,17.47,0,0,1,18.33-11.23,17.87,17.87,0,0,1,15.44,14.54c.8,4.09-.23,7.9-1.73,11.68q-11.2,28.25-22.33,56.53c-6.71,17-13.79,33.84-20,51-5.26,14.54-19.67,15.29-29.27,11.76a15,15,0,0,1-7.66-6.61,46.33,46.33,0,0,1-3.26-6.49q-21.42-53-42.79-106c-1.64-4.06-2.69-8.13-1.71-12.51a17.62,17.62,0,0,1,33.61-3c3.09,7.52,6,15.13,8.82,22.75q10.7,28.66,21.27,57.38c.19.52.43,1,.64,1.55Z" style="fill: #0283c1"/>
        <path d="M662.58,715.43c-3.35-1.13-6.77-2.08-10-3.43s-6.37-3.2-9.59-4.71a15.12,15.12,0,0,0-12.47-.47q-6.35,2.53-12.58,5.37a12,12,0,0,1-8.31,1c-4.32-1.2-7.33-3.93-8.35-8.33s-.1-8.42,3.48-11.25c7.6-6,16.06-10.54,25.87-11.37,3.41-.29,7.1.66,10.42,1.77a108.66,108.66,0,0,1,12.94,5.6,15,15,0,0,0,14.36-.1c3.54-1.85,7.08-3.7,10.71-5.36,7.25-3.31,15,.93,16,8.73.48,3.78-.54,7.35-3.62,9.58-7.9,5.72-16.28,10.57-26.11,12.2-.84.14-1.7.2-2.55.3Z" style="fill: #0283c1"/>
        <path d="M461.71,282a23.4,23.4,0,1,1-23.5,23.27A23.41,23.41,0,0,1,461.71,282Z" style="fill: #0283c1"/>
      </g>
    </g>
  </g>
</svg>
