<svg xmlns="http://www.w3.org/2000/svg" viewBox="0 0 1572.53 954">
  <g id="Camada_2" data-name="Camada 2">
    <g id="Camada_1-2" data-name="Camada 1">
      <g>
        <path d="M797,0c0,2.16-.13,4.33-.13,6.49q0,391.17,0,782.35v7.82H789.3q-390.91,0-781.84,0c-2.49,0-5,.22-7.46.33V0ZM729.52,222.52c-75.25-137.15-233.42-205-384.89-172C185.82,85,61.8,226.89,64.67,406c2.67,167.09,121.41,309.48,290.19,342.38,152.1,29.65,303.19-44.8,374.61-173.64L532.24,461.66C495.35,525.33,408.08,551,340.83,498.07c-56.15-44.23-64.43-127.79-17.61-181.6,23.86-27.42,54.14-43.11,90.44-45.21,52.32-3,90.51,21.4,118.46,64.19Z"/>
        <path d="M492,954c-10.21-2-19.83-5.23-28-12.11a51,51,0,0,1-12.92-61.2c10.15-20.68,33.62-32.15,55.85-27.32,23.12,5,39.54,24.51,40.29,47.77.84,25.89-16.81,47.47-42.43,51.93A18.9,18.9,0,0,0,502,954Zm4.38-32.74a18.22,18.22,0,1,0-18.15-18.57A18.22,18.22,0,0,0,496.38,921.26Z"/>
        <path d="M601,954c-9.89-2.39-19.37-5.52-27.34-12.34a51,51,0,0,1-12.45-61.32c10.36-20.66,33.84-31.9,56.07-26.84,23.19,5.28,39.4,24.8,39.91,48.08.58,25.76-17,47-42.41,51.49A18.9,18.9,0,0,0,612,954Zm5.59-69.17a18.22,18.22,0,1,0,18.34,18.35A18.28,18.28,0,0,0,606.59,884.83Z"/>
        <path d="M1305,954c-9.88-2.4-19.35-5.54-27.34-12.34A51.11,51.11,0,0,1,1265,880.78c10.12-20.72,33.53-32.22,55.82-27.42,23.09,5,39.65,24.55,40.35,47.73.79,26-16.78,47.52-42.4,52a18.9,18.9,0,0,0-2.78.93Zm5.23-32.74a18.22,18.22,0,1,0-18-18.2A18.23,18.23,0,0,0,1310.23,921.26Z"/>
        <path d="M74,954c-7.81-2.64-16.21-4.19-23.31-8.11-20.12-11.14-29.1-36.28-21.83-58.33,7.65-23.18,29.05-37.25,52.62-34.88,17.16,1.72,29.81,10.33,39.45,24.92L95,892.46c-5.56-6.28-12.07-11.31-20.75-9.25a26.93,26.93,0,0,0-12.66,7c-7.36,7.66-5.92,20.62,2.16,27.76,9,8,20.49,6.46,31.28-4.58L121,928.3c-8.53,13.33-20.18,21.36-35.2,24.65-1.28.28-2.52.7-3.78,1Z"/>
        <path d="M854.25,57h5.45q108.48,0,217-.08a8.94,8.94,0,0,1,7.92,3.78Q1194.21,198,1304,335.18a19.63,19.63,0,0,0,5.27,4.93V57.45h227.21V739.87H1531q-108.49,0-217,.06a8.51,8.51,0,0,1-7.52-3.55q-110.05-137.58-220.29-275c-1.13-1.41-2.3-2.8-4.39-5.34V739.51H854.25Z"/>
        <path d="M732,894.63v-39.8h31.85v96.91c-6,0-12.15-.62-18.12.15-9.76,1.24-16.35-2-22-10.25-7-10.24-15.52-19.47-24.37-30.35v40.14H667.51V854.36c10,0,20-.15,30,.15,1.57,0,3.37,1.89,4.55,3.32C711.76,869.63,721.38,881.54,732,894.63Z"/>
        <path d="M862.4,911.35v40h-32v-97c10.31,0,20.43-.16,30.54.17,1.51.05,3.19,2.14,4.4,3.61,9.62,11.69,19.15,23.46,29.52,36.19V854.8H927v96.91c-10.18,0-20.29.1-30.38-.14-1.27,0-2.72-1.68-3.71-2.89-8.78-10.68-17.47-21.44-26.2-32.17C865.63,915.15,864.47,913.82,862.4,911.35Z"/>
        <path d="M1199.77,858.05c5.51,13,10.59,25,15.66,36.94l1.11-.11c1.8-9.21,3.68-18.41,5.4-27.63,2.4-12.9,2.35-12.91,15.41-12.91h19.39c-2.4,12.82-4.62,24.89-6.91,36.95-3.58,18.8-7.28,37.58-10.73,56.4-.57,3.08-1.66,4.22-4.82,4.12q-9.49-.33-19,0c-3,.1-4.44-.94-5.56-3.65-3-7.33-6.37-14.53-10-22.64-3.58,8-6.89,15.07-9.82,22.26-1.27,3.11-3,4.21-6.36,4.05-6.15-.3-12.33.1-18.48-.23-1.41-.07-3.7-1.71-3.94-3-6.15-30.85-12.08-61.73-18-92.62a7.37,7.37,0,0,1,.31-1.64c9.94,0,20-.09,30.09.15.89,0,2.23,2.14,2.5,3.46,2.54,12.34,4.89,24.72,8.28,37.36C1189.29,883.35,1194.27,871.33,1199.77,858.05Z"/>
        <path d="M242.56,854.34h23.8c10.83,0,21.65,0,32.48,0,16.55,0,29.94,9,34.84,23.37s0,28.9-13.27,39.29l-3.76,3c6.08,10.41,12.09,20.67,18.57,31.76-12,0-23.06.09-34.12-.15-1.12,0-2.54-1.86-3.24-3.17-3.23-6-6.25-12.12-9.34-18.2-4-7.94-4-7.94-14-6.45,0,7.5-.21,15.13.08,22.73.16,4.1-1,5.52-5.28,5.37-8.78-.31-17.58-.1-26.72-.1ZM274.78,899c7.26,0,14.23.18,21.19-.07,4.22-.15,7.23-3.81,7.15-8.11s-2.15-7.45-6.29-7.72c-7.25-.48-14.55-.14-22.05-.14Z"/>
        <path d="M1371.08,951.44v-97.1h55.55c17.29,0,30.67,8.93,35.57,23.69s-.24,29-14.36,39.73l-2.8,2.1c6,10.32,12.06,20.58,18.68,31.88h-8.53c-7,0-14-.38-21,.13-5,.37-7.51-1.45-9.35-5.91-2.15-5.21-5-10.11-7.6-15.15-4.19-8.26-4.19-8.26-14.16-7.23v27.86ZM1403.22,899c7.32,0,14.41.2,21.47-.07,4-.16,7.15-4.29,7.07-8.31s-3.18-7.51-7.1-7.63c-7.07-.21-14.15-.06-21.44-.06Z"/>
        <path d="M941.74,951.45V854.67H1026v28.11H974v9.88h43.72V915.4H974v10.26h51.89v25.79Z"/>
        <path d="M1507.88,884.43c6.89-8.92,13.64-17.94,20.76-26.67a9.79,9.79,0,0,1,6.47-3.27c12-.32,24-.15,37.42-.15l-37.64,46.44,37.29,50.49c-1.81.2-3,.45-4.23.46-11,0-22,.17-33-.13a8.58,8.58,0,0,1-5.9-3.16c-6.28-8.81-12.16-17.9-18.2-26.89-1-1.45-2.06-2.83-4-5.44v35.31h-32.3V854.8h32V884Z"/>
        <path d="M232.06,951.42H198.28c-1.27-4.13-2.68-8.21-3.75-12.37-.69-2.65-1.81-3.86-4.77-3.79-8,.2-16,.16-24,0-2.57,0-4.12.7-4.61,3.28a3.74,3.74,0,0,1-.12.48c-1.39,4.07-1.64,9.78-4.49,11.75-3.09,2.13-8.58.88-13,.94-6.59.09-13.19,0-20.5,0,3.79-12.12,7.35-23.49,10.9-34.87,6-19.35,12.17-38.68,18-58.08,1.06-3.5,2.66-4.6,6.27-4.54,13.32.22,26.64.15,39.95,0,2.74,0,4.09.72,5,3.52,9.37,30.32,18.9,60.6,28.37,90.89C231.76,949.45,231.83,950.26,232.06,951.42Zm-53.79-68.33-1-.19c-2.64,9.28-5.28,18.57-8,28.14H186.3C183.54,901.45,180.9,892.27,178.27,883.09Z"/>
        <path d="M441.54,854.69v28H411.29v68.76H374.87V883H344.62V854.69Z"/>
        <path d="M1037.38,883V854.6c1.67-.09,3.29-.24,4.9-.24,29,0,58,.08,87-.12,4.42,0,5.78,1.15,5.56,5.58-.36,7.45-.1,14.92-.1,23h-30.61v68.64h-36.23V883Z"/>
      </g>
    </g>
  </g>
</svg>
