<svg xmlns="http://www.w3.org/2000/svg" viewBox="0 0 796.06 367.76">
  <g id="Camada_2" data-name="Camada 2">
    <g id="Camada_1-2" data-name="Camada 1">
      <g>
        <path d="M489.45,112.79q-8.19,16.15-16.85,32.06c-7.35,13.45-14.09,27.25-20.83,41-1.72,3.53-3.84,4.64-7.7,4.56-13.49-.25-27-.18-40.47,0-3.54,0-5.08-.63-5.76-4.7-4.62-27.55-9.69-55-14.54-82.54-.83-4.71-1.55-9.43-2.85-14.06C377.62,79,369.92,75.56,360.56,74.85c-5.46-.41-11,0-16.47.16-1.44,0-2.79.1-3.15,2.28-3.55,21.52-9.36,42.67-11.14,64.48-.7,8.56,2.31,13,8.78,13.77a56.35,56.35,0,0,0,12,0c3.66-.39,3.71,1.32,3.3,4-1.34,8.67-2.61,17.34-4,26-.4,2.62-.85,5-4.26,5.71-12.81,2.5-25.62,3.77-38.45.34-14.74-3.93-23-15.05-23.25-30.19-.32-17.77,4.48-34.75,7.53-52,1.89-10.74,4.28-21.39,6.43-32.08.47-2.35,0-3.67-3-3.59-8,.2-15.95.07-24,.07-.16-1.92,1.33-2.41,2.2-3.24,7.94-7.61,15.64-15.5,24-22.61a26.72,26.72,0,0,0,9.89-18.47c.5-4.58,2.2-9,2.62-13.61.29-3.19,1.81-4.19,4.44-4.89C327.06,7.52,340,4.11,352.82.37c3.31-1,3.35-.06,2.8,2.63-2.21,11-4.27,22.06-6.47,33.08-.6,3,.25,4.09,3.48,4.09,8.82,0,17.63-.2,26.46.44,20.44,1.49,38.75,18.59,42.33,38.76,1.95,11,3.63,22.13,5.17,33.23s2.39,22.07,3.56,33.26c2.06-.84,2.23-2.84,3-4.37Q456.55,93,479.84,44.39c1.49-3.12,3.1-4.46,6.7-4.37,13.3.34,26.6.32,39.91.43-11.14.12-22.27.36-33.41.29-3.65,0-5.28.6-5.23,4.86.23,21,.09,41.92.12,62.88C487.94,110.05,487.33,111.93,489.45,112.79Z" style="fill: #1a56c8"/>
        <path d="M210.16,162.24c-6.52,8.73-13,16.86-21.94,22.7-28.72,18.74-68.5,7.26-73.06-32.94-4.33-38.24,8.32-70.39,38.72-94.51,15.54-12.33,33.93-17.93,53.66-20,15.08-1.57,29.86-.25,44.63,2.22,5.52.92,10.9,2.65,16.38,3.79,2.24.46,2.54,1.39,2.12,3.46-5.41,26.39-10.9,52.76-16,79.21-3.8,19.61-5,39.53-5.49,59.47-.09,3.62-.7,4.91-4.6,4.8q-16-.41-32,0c-4,.1-4.83-1.31-4.44-4.94C209,177.79,209.51,170,210.16,162.24Zm11-90.09c-11.38-2.93-21.94-1.82-31.61,4.62-15.21,10.15-23.31,25-27.42,42.39-2.06,8.66-2.65,17.41,0,26.06,1.89,6.06,5.61,10.49,12.13,11.93,8.43,1.86,14.89-2,20.51-7.55,8.62-8.5,13.31-19.31,16.14-30.78C214.7,103.43,217.72,87.86,221.11,72.15Z" style="fill: #1a56c8"/>
        <path d="M558.63,132.61c-1.5,0-3,0-4.5,0-8.79.14-8.19-1.82-5.54,8,2.82,10.52,13.75,17.5,26.55,18,15.13.62,29.75-1.52,43.58-7.93,2.48-1.15,3.87-1.29,4.11,2.06.62,8.44,1.39,16.88,2.19,25.32.22,2.4-.31,3.86-2.82,5-12.07,5.35-24.71,8.16-37.78,9.61-13.85,1.54-27.46,1.15-40.9-3-22.39-6.85-36.59-25.53-38.53-51.36s4.73-49,20.65-69.23c17.72-22.52,41.38-33.31,70-32.25,16.23.6,30.74,6,40.9,19.69,12.24,16.45,8.75,46-6.84,57.68-11,8.26-23,12.49-35.82,15.17C582.28,131.86,570.44,132.35,558.63,132.61Zm2.81-32.88c10.75-.38,21.52-.84,31.57-5.19,4.47-1.94,8.22-5,9-10.37,1.15-8.46-3.69-13.49-13.38-14.53-14-1.49-28.24,7.26-34.54,22.17-3.39,8-3.49,8,4.91,7.92Z" style="fill: #1a56c8"/>
        <path d="M618.82,242.19c6.6-7.26,12.87-14.26,20.75-19.7a55.48,55.48,0,0,1,37.64-9.77c15.43,1.41,25.18,11.62,28.65,29.68.09.48.15,1,.32,2.13,5.44-7.64,10.94-14.61,18.25-19.88,13.33-9.64,28.06-14.44,44.38-10.89,16.78,3.65,25.84,16.19,27,32.76,1.17,16.28-2.43,32-5.28,47.7-4,22.28-8.56,44.45-12.64,66.72-.51,2.78-1.34,3.62-4,3.56-6.16-.13-12.33-.1-18.49,0-2.45.05-3-.51-2.51-3.12,3.32-17.35,6.61-34.7,9.55-52.12s8-34.77,7.75-52.85c-.32-19.45-14.66-25.57-29.7-21.19-12.15,3.53-20,12.39-26.72,22.59-8.38,12.79-11.23,27.36-13.88,42.05-3.61,20-7.47,40-11.22,60-.6,3.17-1.69,5.2-5.76,4.84a139.36,139.36,0,0,0-16.48-.07c-2.77.08-3.83-.44-3.2-3.63,5.61-28.55,11.21-57.11,16.48-85.73a69.69,69.69,0,0,0,.39-25.2c-2.38-13.22-11.2-15.92-20.44-16-9-.1-16.4,4.41-23,10.31-16.87,15.09-23.31,35-26.67,56.52-1.75,11.13-4.72,22.05-6.52,33.13C602,343,600.19,351.85,599,360.85c-.34,2.58-1.06,3.86-3.94,3.78-6.33-.18-12.66-.11-19-.05-2.38,0-3-.43-2.46-3.15,5.7-29.56,11.13-59.16,16.74-88.73,3.31-17.41,6.67-34.8,8.61-52.42.36-3.29,1.32-5,5.18-4.7a83.67,83.67,0,0,0,14,0c3.85-.31,4.36,1.3,3.87,4.5C620.86,227.43,619.87,234.81,618.82,242.19Z" style="fill: #1a56c8"/>
        <path d="M105.53,151.41c0,10.94,0,20.93,0,30.92,0,2.32-.69,3.59-3,4.44a107.49,107.49,0,0,1-48.86,6.13c-11.63-1.18-22.34-4.73-31.64-11.82C8.07,170.37,1.44,155.84.26,138.37-.93,120.63,1.9,103.79,10.17,88,24.68,60.36,47.7,44.4,78.24,38.67A100.29,100.29,0,0,1,124,40.52c3.23.89,3.8,2.15,2.8,5.12-3,8.92-5.93,17.86-8.64,26.87-.79,2.6-1.35,3.4-4.39,2.52-29.93-8.62-56.19,5.25-65.4,34.83-2.7,8.69-3.59,17.84-1.3,27a27.63,27.63,0,0,0,26.42,20.88C84.28,158,94.52,155.59,105.53,151.41Z" style="fill: #1a56c8"/>
        <path d="M330,309.32c-.54-39.9,24.45-76.79,57.24-89.93,20-8,40.12-9.07,60.6-1.86,3.4,1.19,4,2.48,2.55,5.69a111.57,111.57,0,0,0-4.48,12.6c-.95,3.1-2.19,4-5.48,2.55-11.86-5.28-24.62-5.52-36.56-2.24-12.55,3.44-23.16,11.28-31,22.19-13,18-19.07,38-14.9,60,3.64,19.17,16.85,28.41,36.53,27.76a75,75,0,0,0,28.88-6.42c3.06-1.39,4.75-1.71,4.78,2.7,0,4.11,1,8.21,1.58,12.31.31,2,.71,3.91-1.9,4.89-21.46,8.1-43.31,11.8-65.45,3.5-18-6.75-27.52-20.92-31.37-39.36C330,318.92,330,314.14,330,309.32Z" style="fill: #1a56c8"/>
        <path d="M461.86,239c17.3-21.38,49.91-31.87,75.87-23.88,20.75,6.39,32.62,21.39,37.06,42,5.25,24.4.15,47.13-12.29,68.69-11.14,19.32-26.6,32.82-48,39.11a61.55,61.55,0,0,1-30,1.71c2.61.17,2.42-1.69,2.41-3.37,0-5.81-.12-11.63-.18-17.45,13.41,3,25.91,1.08,36.18-8.43,22.58-20.89,31.11-47.11,25.61-77-3.95-21.46-22.55-32.2-43.12-25.67-23.23,7.38-33.14,26.59-39.63,48.2-1,.64-.9,1.55-.61,2.51l-.39,1.35c-2.47-.84-1.71-3-1.72-4.65q-.07-18.19,0-36.38A14.13,14.13,0,0,0,461.86,239Z" style="fill: #1a56c8"/>
        <path d="M279.17,332.94a43.76,43.76,0,0,1-44-43.35c-.21-23.45,19.71-43.73,43.15-43.92a44.16,44.16,0,0,1,44.46,43.77C322.86,313.05,302.92,333.24,279.17,332.94Z" style="fill: #1a56c8"/>
        <path d="M461.86,239a14.13,14.13,0,0,1,1.18,6.77q-.06,18.19,0,36.38c0,1.69-.75,3.81,1.72,4.65a10.8,10.8,0,0,1,.06,2.47A66.15,66.15,0,0,0,466,323.61c3.35,10.73,10.62,17.82,20.76,22.21.06,5.82.14,11.64.18,17.45,0,1.68.2,3.54-2.41,3.37C464.07,364.17,450,353,442.06,334.4c-9.36-21.8-6.39-43.71,1.35-65.23C447.45,257.92,453.32,247.57,461.86,239Z" style="fill: #1a56c8"/>
        <path d="M489.45,112.79c-2.12-.86-1.51-2.74-1.52-4.31,0-21,.11-41.92-.12-62.88-.05-4.26,1.58-4.89,5.23-4.86,11.14.07,22.27-.17,33.41-.29.56,2-1,3.37-1.81,4.87q-16.86,32.46-33.9,64.84C490.29,111,489.88,111.91,489.45,112.79Z" style="fill: #1a56c8"/>
        <path d="M465.77,282.91c.16.93.42,1.88-.61,2.51C464.87,284.46,464.77,283.55,465.77,282.91Z" style="fill: #1a56c8"/>
      </g>
    </g>
  </g>
</svg>
