<svg xmlns="http://www.w3.org/2000/svg" viewBox="0 0 1016.94 497.34">
  <g id="Camada_2" data-name="Camada 2">
    <g id="Camada_1-2" data-name="Camada 1">
      <g>
        <path d="M497.87,216.09c5.66-21.3,10.9-41.22,16.26-61.12C527,107.08,540,59.24,552.71,11.3,554,6.37,555.8,4.49,561,4.62q20.68.5,41.39,0c5.2-.13,7.91,1.76,10,6.39q23.45,51.11,47.27,102c1,2.08,2.27,4,4.47,7.87,5.24-19.17,10-36.33,14.61-53.51,5-18.61,10.18-37.21,15-55.89,1.32-5.17,3.72-7,9.12-6.88,16.5.33,33,.12,50.89.12-3.27,12.67-6.15,24.29-9.26,35.85C729.33,96.71,714,152.78,699.19,209c-1.57,5.94-4.23,7.34-9.69,7.21-11.86-.29-23.75-.43-35.6,0-6.21.24-9.25-2.1-11.8-7.64-16.16-35-32.68-69.9-49.1-104.82-1-2.18-2.15-4.31-4.31-8.63-4.51,16.47-8.48,30.8-12.36,45.16-6.09,22.61-12.41,45.16-18,67.88-1.6,6.48-4.56,8.19-10.78,8.05C531.35,215.84,515.15,216.09,497.87,216.09Z" style="fill: red"/>
        <path d="M277.67,214.75c4.74-17.89,9.4-35.69,14.16-53.46,13.12-49,26.41-97.87,39.3-146.89,1.9-7.22,4.67-10.1,12.76-9.91,30.89.73,61.82.08,92.71.93,9.73.27,19.67,2.75,29,5.8,17.82,5.83,29.89,17.74,32.26,37.07,2.46,20.14-3.88,37.25-20.73,49.22-6.86,4.87-14.9,8.07-22.9,12.3,1.26.88,2.78,2.11,4.46,3.08,23,13.43,30.53,36.22,20.09,60.88a54.42,54.42,0,0,1-31.14,30.4c-11.95,4.66-24.69,9.76-37.21,10.11C366.64,215.5,322.8,214.75,277.67,214.75Zm69.38-44.17c18.75,0,36.65,1.07,54.34-.33C416.05,169.08,425,157,424,143.56c-.87-11.36-9.7-18-25.1-18.43-11.27-.28-22.56-.23-33.83.07-2.35.07-6.26,1.41-6.71,3C354.25,142.05,350.8,156.1,347.05,170.58Zm21.76-80.45c8.05,0,14.88.23,21.69,0,10.95-.45,22-.36,32.78-2.11,11.65-1.9,17.72-10.72,17.05-21.72-.55-8.89-6.32-14.8-18-15.72-13.12-1-26.37-.65-39.56-.45-1.69,0-4.34,2.41-4.84,4.18C374.76,65.59,372.07,77.05,368.81,90.13Z" style="fill: red"/>
        <path d="M225.85,146.05,265,180.66c-14.69,16.38-31.53,28.75-52.45,34.7-30.31,8.62-60.25,7.31-88.65-6.89-35.32-17.66-52.35-54.53-46.23-97.7C88.54,34.36,168.18-17,242.13,5.19c24.67,7.38,41.76,23.69,52.21,48.56l-49.59,26.7c-4.43-5.37-8-11-12.81-15.31C213.1,48.2,181.78,50.4,161.28,70c-18.18,17.41-25.58,38.88-22.43,63.82,2.38,18.75,19,32.67,39.53,33.34a54.36,54.36,0,0,0,36.81-12.45C218.61,152,222,149.19,225.85,146.05Z" style="fill: red"/>
        <path d="M52.94,296.35c31.06,1.55,61.78-3.36,91.73,6.7,33.39,11.22,52.74,36.19,54.06,71.28,2.2,58.34-35.16,103.31-96.65,115.89A154,154,0,0,1,74.2,493.5c-24.24.45-48.49.15-74.2.15ZM28.25,471.84c22.35,4.48,68.66.62,87.83-6.91,40.21-15.81,61.75-48.87,59.28-91.52-1.09-18.84-9.66-33.66-25.69-43.83C125,313.92,97.43,317,69.87,317,55.92,368.92,42.1,420.34,28.25,471.84Z" style="fill: red"/>
        <path d="M1016.91,379.68c-.17,61.23-51.41,116.07-109.9,117.62-60.5,1.6-100.14-44-90.19-103.78,8.41-50.48,45.83-90.14,96.24-98.9C975,283.86,1018.12,327.53,1016.91,379.68Zm-23.28.72c.41-41.81-30.39-70.51-71.68-66.59A81.42,81.42,0,0,0,877.4,331.9c-25.46,20.75-38.74,47.82-38.49,80.63.34,45.69,39.7,74.11,84.52,61.8C963.74,463.26,993.21,423.82,993.63,380.4Z" style="fill: red"/>
        <path d="M514.74,493.86c8.84-33.16,17.22-64.81,25.71-96.44,8.36-31.13,17-62.2,25.08-93.4,1.42-5.46,3.34-7.73,9.3-7.63,24.28.41,48.61-.49,72.84.74a89,89,0,0,1,31.7,7.95c28.86,13.17,28.59,48.72,18.46,68.65-11,21.69-28.86,33.3-51.62,38.87-3.21.79-6.44,1.49-10.88,2.51l40.25,78.7c-8.56,0-15.66.55-22.57-.31-2.36-.29-4.92-3.82-6.28-6.44C636.33,467,625.81,447,616.18,426.53c-3.5-7.41-7.77-10-15.77-9.52-11.55.69-23.17.39-34.76.09-5.73-.15-8.73,1.16-10.26,7.55-4.67,19.55-10.77,38.76-15.28,58.34-2,8.6-5.44,12.44-14.34,11C522.58,493.42,519.22,493.86,514.74,493.86Zm48-96c26.57-1,51.34-1,75.86-3.42,9.56-1,19.66-6,27.58-11.82,13.9-10.21,19.83-25.16,15.39-42.34-4.17-16.11-17.71-21.59-32.29-22.34-21.38-1.1-42.85-.28-64.87-.28C577.48,343.39,570.46,369.35,562.75,397.9Z" style="fill: red"/>
        <path d="M481.57,493.27H458.86c-2.24-12.58-4.52-25.47-6.82-38.36-.48-2.72-.41-5.75-1.68-8-1.16-2.12-3.77-4.87-5.76-4.89q-49.26-.44-98.53,0c-2.42,0-5.54,2.25-7.11,4.37-9.53,12.83-19,25.69-27.85,39-4.27,6.47-9,9.73-16.86,8.61-3.94-.57-8-.1-13.87-.1,6.44-9.06,11.76-16.62,17.16-24.11,38.82-53.9,78.16-107.44,116.12-161.93,8.51-12.22,17.66-14.68,31.5-11.94Q463.22,393.82,481.57,493.27Zm-53.22-172.9L356.66,421H446Z" style="fill: red"/>
        <path d="M295,296.54c-3.81,14.63-7.24,28.18-10.88,41.67C271.25,386.1,258.21,434,245.4,481.86c-4,14.86-2.26,11.57-15.72,11.93-2.71.08-5.43,0-9.53,0,3.11-12,5.88-23.06,8.84-34.07,13.73-51.09,27.74-102.11,41-153.32,2.1-8.12,5.43-11.06,13.38-10C286.87,296.94,290.46,296.54,295,296.54Z" style="fill: red"/>
        <path d="M718.89,493.82C736.8,427.1,754.28,362,771.72,297.05h22.13c-4.37,16.69-8.45,32.66-12.73,48.56-12.4,46-25.17,91.94-37.06,138.08-2.2,8.54-5.69,11.45-13.92,10.21C727,493.42,723.62,493.82,718.89,493.82Z" style="fill: red"/>
        <path d="M484.89,248.51c-13.5,10.22-25.44,20.39-38.6,28.62-4.89,3.07-12.63,1.59-19.07,2.19l-.93-2c11.44-12.39,22.82-24.83,34.44-37,.92-1,3.71-1.06,5.18-.46C471.9,242.25,477.71,245.16,484.89,248.51Z" style="fill: red"/>
      </g>
    </g>
  </g>
</svg>
