<svg xmlns="http://www.w3.org/2000/svg" viewBox="0 0 1288.34 599.05">
  <g id="Camada_2" data-name="Camada 2">
    <g id="Camada_1-2" data-name="Camada 1">
      <g>
        <path d="M601.41,310.23V314q0,82.83,0,165.66c0,17.26-2.34,34.19-8.51,50.4-12.56,33-36.51,53.3-70.41,62.26a146.83,146.83,0,0,1-37.67,4.54c-62.87.05-125.75.19-188.63,0q-85.13-.31-157.39-45.6A296.33,296.33,0,0,1,.16,290.11a291.25,291.25,0,0,1,21.52-102Q56,104.27,131.06,53.31A291.19,291.19,0,0,1,233.29,9.48,251.38,251.38,0,0,1,273.6,3.65c10-.55,20.1-.93,30.15-1,28-.13,56,0,84.05,0H392V76h-4q-45.45,0-90.91,0c-29,0-57.07,5.06-83.84,16.26Q125,129.14,88.73,217.88A224.21,224.21,0,0,0,74,319.3c4.8,50.57,24.22,94.79,58.68,132.15,31.3,33.94,69.66,56,114.64,66.51a220,220,0,0,0,50,5.55c61.18,0,122.36-.11,183.53.08,24.44.07,42.16-17.63,46.09-36.19A55.81,55.81,0,0,0,528,475.85q.09-124.5,0-249,0-56.43,0-112.84c0-6.73,2.61-12,8.27-15.57a17.11,17.11,0,0,1,23.87,5.88c4.07,6.75,7.93,13.62,11.88,20.44q51.72,89.2,103.44,178.4,55.23,95.28,110.44,190.58c2.64,4.55,5.21,9.13,7.91,13.63,9.12,15.18,25.87,22.71,43.7,19.71,16.3-2.74,30.14-16.49,33.33-33.3a51.61,51.61,0,0,0,.77-9.54q.06-184.53,0-369c0-3,.08-5.93,1.35-8.72,2.9-6.39,7.86-10.08,14.82-10.53a16.35,16.35,0,0,1,15.86,8.26c3.75,6.14,7.25,12.43,10.86,18.65q47.06,81.22,94.1,162.44,42.08,72.63,84.13,145.27,22.23,38.38,44.48,76.77c8.76,15.05,26,22.79,43.69,19.74,16.48-2.84,30.24-16.52,33.27-33.27a51.4,51.4,0,0,0,.72-9.19q0-238.55,0-477.09V2.86h73.35V6.38q0,240.44-.14,480.86c-.1,44.67-21,78-60.08,99.37-18.43,10.11-38.58,13.88-59.61,11.95-33.47-3.06-60.45-18-80.62-44.87-4-5.28-7.19-11.12-10.52-16.84Q1012.3,425,947.36,313.19a8.73,8.73,0,0,0-2.35-2.82c0,1.16-.14,2.31-.14,3.47q0,59.1,0,118.21,0,27.42,0,54.83c0,28.49-9.23,53.6-28.18,74.9-16.88,19-37.95,30.73-63,35.41-43,8-87.49-10.92-111.28-46.27-5.1-7.56-9.47-15.62-14.06-23.52q-52.58-90.51-105.11-181-9.81-16.89-19.64-33.76c-.5-.87-1.06-1.71-1.59-2.56Z" style="fill: #ee0101"/>
        <path d="M392.07,100.46v73.38h-3.81c-30.53,0-61.06-.15-91.59,0A125.75,125.75,0,0,0,172.41,312.22c4.75,49.89,39.48,92.36,86.87,107.42A124,124,0,0,0,297,425.58c37.51,0,75-.13,112.53.09,10.34.06,20.51-7,20.84-20.27,0-1,0-2.06,0-3.09,0-96.95-.25-193.9.12-290.85.16-42.1,19.17-74.27,55-96.22a102,102,0,0,1,59.58-15c40,2.1,71.27,19.86,91.68,54.38C672.62,115.27,707.65,176.41,743,237.34q14.44,24.89,28.91,49.76a4.9,4.9,0,0,0,1.77,1.87v-3.56q0-86.25,0-172.52c0-23.76,6.22-45.64,20-65.09,18.53-26.26,43.85-42,75.64-46.65C914.1-5.39,958.23,16.46,981,55.67q59.46,102.56,119.07,205,7.67,13.18,15.31,26.37c.43.74,1,1.42,1.88,2.78V2.93h73c.08.85.19,1.72.25,2.59,0,.69,0,1.37,0,2.06q0,237.69,0,475.38a28.51,28.51,0,0,1-.73,7.8c-2.06,7-7,11.29-14.17,12.23s-13.34-1.77-17.15-8.24c-8.19-13.86-16.2-27.83-24.28-41.76q-47.46-82-94.93-163.93-56.31-97.23-112.57-194.5c-5.92-10.25-13.86-17.72-25.21-21.38-23.76-7.68-49.75,8.21-53.66,32.88a57,57,0,0,0-.64,8.86q0,183.84-.05,367.68a33.87,33.87,0,0,1-.54,7.13,17.1,17.1,0,0,1-14,13.31,17.31,17.31,0,0,1-17.72-8.54c-6-10.24-11.93-20.53-17.89-30.81q-40.29-69.49-80.57-139L618.52,156q-18.37-31.71-36.78-63.42c-6.58-11.34-16.33-18.2-29.2-20.68-22.8-4.39-45.79,12.3-48.62,35.36a67.93,67.93,0,0,0-.49,8.19q0,180.58,0,361.17c0,8.14-3.46,14.26-9.95,18.84A19.1,19.1,0,0,1,482.22,499H453.75c-52.49,0-105,.57-157.46-.15-66.59-.91-120.08-28.64-160.17-81.74-18.54-24.57-29.95-52.42-35.42-82.67A187,187,0,0,1,98,288.66c3.43-51.76,23.54-96,60.74-132.24,26.36-25.67,57.73-42.49,93.58-50.87a197.51,197.51,0,0,1,44.86-5.07q46.14-.08,92.28,0Z" style="fill: #ee0101"/>
      </g>
    </g>
  </g>
</svg>
