<svg xmlns="http://www.w3.org/2000/svg" viewBox="0 0 834.93 734.65">
  <g id="Camada_2" data-name="Camada 2">
    <g id="Camada_1-2" data-name="Camada 1">
      <g>
        <path d="M417.4,732.23c-27.48.77-55,1.93-82.45,2.17a432.7,432.7,0,0,1-48.85-2c-23.49-2.48-41.92-15.55-58.18-31.63C213.25,686.22,199,671.25,185.07,656A94.38,94.38,0,0,0,160.23,637c-12.13-6.61-24.39-13-36.71-19.27-21.89-11.16-32.17-28.94-31.33-53.47.41-12,.61-24,.23-36-.49-15.74-6.8-28.89-18.81-39.37C58.06,475.29,42.22,462,27.52,447.48a122.34,122.34,0,0,1-20-26.6c-10.77-18.94-8.91-38.7-.9-58.28,7.52-18.38,19.28-34.16,30.47-50.32,7.29-10.54,14.5-21.18,21.08-32.17C69.83,260.63,73.89,239.42,72,216.76a189.84,189.84,0,0,1,.18-31.9c1.49-17.43,10.38-31,24.34-41.3a131.33,131.33,0,0,1,15.93-10.32c20.54-11,37-26.42,51.33-44.55,9.3-11.75,18.5-23.83,29.38-34,17.13-16,33.37-33.35,55.48-43.41,32.23-14.66,63.87-15.84,95.46,1.4a160.08,160.08,0,0,0,67.58,19.77C438.69,34,464.29,26.54,488,14,505.4,4.78,523.35-1,543,.16c32,2,59,15.08,80.89,38.51a11.8,11.8,0,0,0,1.64,1.86c20.67,14.06,34.41,34.67,50.12,53.36,12.36,14.71,26.09,27.53,43,36.9,4.94,2.75,9.68,5.87,14.49,8.86,20.71,12.87,30.8,31.7,31,55.89.06,8.49-.29,17-1,25.47-1.82,22.26,3.57,42.78,15.31,61.47,9.82,15.64,20.63,30.67,31,46,10,14.81,19.12,30.06,23.55,47.66,4.34,17.24,1.76,33.36-7.12,48.6-8.18,14-19.57,25.25-31.57,35.89-10.84,9.62-21.87,19-32.88,28.46-12,10.25-18.12,23.42-18.66,38.94-.48,14,.12,28,0,42-.23,18.92-8,34-24.49,43.6-12.8,7.45-26,14.22-39.15,21-13.5,7-24.57,16.59-34.81,27.9-14.75,16.25-30.57,31.58-46.55,46.65-20.46,19.29-46,25.63-73.23,25.48-28.65-.16-57.3-1.18-86-1.75-7-.14-14,0-21,0Zm0-287.2c21.33,0,42.66.05,64,0,6.47,0,12,1.57,14.77,8,2.88,6.64.22,11.79-4.57,16.54-17.51,17.37-34.55,35.23-52.47,52.16-7.45,7-9.48,14.77-8.54,24.18.66,6.6,4.75,10.87,11.4,10.9q44,.16,88,0c6.77,0,11.67-3.4,14.44-9.7,2.34-5.33,4.81-10.61,7.12-16Q596,427.92,640.39,324.72c4.54-10.54,9.53-20.9,13.63-31.61,6.31-16.46,6.66-33.06-2.24-48.75-7-12.42-14.15-25-22.74-36.33-15.19-20-31.54-39.18-47.38-58.72-11.19-13.79-25.39-21.77-43.33-22.67-7-.35-14-1-21-1q-93-.16-186-.11c-9.16,0-18.32.43-27.49.52-21.67.22-39.31,8.27-52.69,25.77-8.18,10.71-17.8,20.34-25.84,31.15-13.41,18-26.64,36.2-38.86,55-9.92,15.28-13,32.4-7.08,50.23,2.63,7.87,5.73,15.62,9.08,23.22,19.44,44,39.28,87.84,58.46,132,14.86,34.19,29,68.7,43.38,103.09,2.65,6.32,7.26,10.22,14,10.27,29.67.2,59.33.14,89,.06,5,0,9.36-2.54,10.22-7.31,1.6-8.79,2.63-17.57-5.11-25.06-17.37-16.8-34.24-34.11-51.31-51.21-1.53-1.53-3.05-3.08-4.6-4.59-4.44-4.36-6.33-9.41-3.79-15.4s7.44-8.18,13.64-8.18Q384.94,445.06,417.43,445Zm0,138.54q-43.72,0-87.45,0a52.48,52.48,0,0,0-9,.53c-4.16.72-5.06,3.46-1.86,6.19a37.18,37.18,0,0,0,10,6.52c22.21,8.89,44.42,17.83,66.9,26a58.6,58.6,0,0,0,32.54,2.42c28.51-6.12,55.1-17.51,81.1-30.38a25.7,25.7,0,0,0,6.43-4.67c2.78-2.73,2-5.33-1.77-6a48.56,48.56,0,0,0-8.95-.58Q461.38,583.53,417.4,583.57Z"/>
        <path d="M331.08,311.41a33.86,33.86,0,1,1-33.82-34.14A33.9,33.9,0,0,1,331.08,311.41Z"/>
        <path d="M536.27,345.18A34,34,0,1,1,570,311,34,34,0,0,1,536.27,345.18Z"/>
      </g>
    </g>
  </g>
</svg>
