<svg xmlns="http://www.w3.org/2000/svg" viewBox="0 0 599.81 785.25">
  <g id="Camada_2" data-name="Camada 2">
    <g id="Camada_1-2" data-name="Camada 1">
      <g>
        <path d="M599.51,0c0,129.23-.26,258.45.3,387.68.05,12.39-4.44,18.66-14.25,24.66-43,26.27-89.24,44.82-137.32,59.07-55.47,16.45-112,27.32-169.88,30.65-36.65,2.1-73,1.55-108.45-8.84a112.58,112.58,0,0,1-27.1-12c-12.8-7.85-22.87-22.45-15.11-41.95.86-2.16,1.27-4.5,2.24-8-26.22,23.86-26.62,56.15,4,73.73,21.8,12.52,45.82,17.38,70.45,19.68,77,7.17,152.08-4.4,226.3-23.67,46.09-12,90.73-28,133.34-49.41,9.13-4.59,17.92-9.84,26.87-14.76,2.33-1.28,4.7-2.47,8.53-4.48v36c0,9.41-.4,18.85.18,28.22.4,6.29-1.87,9.54-7.6,11.75-20,7.69-39.85,16-59.94,23.54-19.58,7.35-39.14,14.89-59.15,20.87a920.87,920.87,0,0,1-169,34c-44.14,4.56-88.28,6.37-132.41,1.09-30-3.59-59.58-9.13-85.41-26.45-22.78-15.28-28.88-36.44-17.84-61.89a5.34,5.34,0,0,0,.39-3.12c-11.06,14.86-19.49,30.49-17.27,50.09,2.28,20.15,16,31.86,32.24,44H0V0ZM268.9,272.22c5.07,0,9.21.41,13.2-.19,1.79-.27,4.65-2.48,4.71-3.91.41-9.85.21-19.72.21-30.44H268.53v-78.6c-12.38,0-24.2-.19-36,.17-2,.07-4.48,2.05-5.93,3.8-17.89,21.73-35.76,43.47-53.25,65.51a23,23,0,0,0-4.29,11.92c-.65,8.16-.19,16.41-.19,25.23H112.78c4.18-4.6,9-7,13.4-10.18,10.89-7.87,22.86-14.79,32-24.37,17.34-18.16,17.43-58.89-18.67-70.71-16.59-5.43-33.75-5.59-50.43.71C67.27,169.4,54,192.75,58,218H80.8c12.46,0,12.46,0,13.59-12s9.94-18.22,23.06-16.63c9.08,1.1,15.28,9.63,11.59,19.83-2.26,6.27-8.75,11.58-14.41,15.92-14,10.73-29.45,19.64-42.65,31.2-12.51,11-19.37,25.63-16.92,43.35H171.4V272.86h56.8c0,7.82,0,15,0,22.14,0,4,.74,7.07,5.85,7,8.85-.17,17.71.17,26.55-.13,5.52-.19,9.09-2.45,8.44-9.19C268.41,286.15,268.9,279.54,268.9,272.22ZM210.46,370l-1.8-1.72c-6.41,7-13.57,13.5-19.11,21.15-13,18-8.55,35.12,11,45.41,19.08,10,39.92,12.47,60.92,13.42,34.37,1.56,68.44-1.73,102.17-8.29,54.74-10.65,107.77-26.36,156.62-54.08,18.26-10.36,35.41-22.17,47.38-39.91,6.48-9.62,9.85-20.22,2.89-31-6.49-10.05-16.09-15.36-28.91-15,1.54,2.86,5.13,4.08,6.2,6.44,2.37,5.23,6,11.83,4.52,16.42-2.63,8.27-7.19,17-13.5,22.78a199.68,199.68,0,0,1-35.95,26.14c-39.8,22.41-83,35.81-127.51,45.12-38.48,8.06-77.3,13.46-116.79,9.94-17.63-1.58-35.28-3.47-50.33-14.27-10.75-7.72-13.13-18.11-6.55-29.64C204.26,378.38,207.52,374.25,210.46,370Zm91.79-314.9v85.58h23.18V96.83c7.49,10.75,14.51,21.41,19,33,4.25,10.94,10.78,14,21.72,13.08,6.5-.56,9.35-1.8,9.24-9-.35-24-.06-48.09-.08-72.14a58.38,58.38,0,0,0-.68-6.39H351.6V97c-8.24-11.56-14.32-23.58-20.82-35.37-1.44-2.61-4.17-6-6.64-6.27C317.14,54.49,310,55.05,302.25,55.05Zm14.25,328.5c10.9-1,23.34-1.6,35.59-3.42,35.71-5.31,70.24-14.88,101.32-33.73,9.38-5.68,17.72-14,24.55-22.67,6-7.59,3-16.4-5.9-20.59a93.1,93.1,0,0,0-24.32-7.33c-22.59-3.63-45.09-.86-67.35,3.27-29.64,5.51-58.72,13.43-84.79,28.94-11,6.56-21.08,15.57-29.71,25.14-6.5,7.22-3.76,14.69,4.5,20.26C284,382.56,299.65,382.14,316.5,383.55ZM129.84,55.26c0,28.49-.08,56.34.23,84.19,0,1.54,3.28,4.15,5.22,4.34,3.67.36,7.47-.93,11.24-1.08,5.75-.22,8.56-2.56,8.08-8.68a86.32,86.32,0,0,1,.07-14.91c.25-2.54,1.94-5,3-7.41,2.77,1.67,6.59,2.7,8.1,5.16,3.87,6.3,6.53,13.34,10.1,19.86,1,1.84,3.41,4,5.29,4.11,7.26.48,14.57.19,23.2.19-6-12-11.23-22.59-16.56-33.29,1.75-1.34,3.31-2.39,4.71-3.63,8.93-7.9,11.6-17.45,8.74-29.13-2.9-11.89-10.93-18.54-22-19.4C163.11,54.33,146.82,55.26,129.84,55.26Zm408,52.48V87.63H505.54V74.4h39.91V55.35H478.73v85.26h66.84V121.27h-40V107.74ZM237.78,55c-9.77,28.94-19.25,57-29.05,86,8.36,0,15.51.22,22.64-.16,1.55-.08,4.17-2.16,4.3-3.5.7-7.67,5.5-8.37,11.61-7.87a77.44,77.44,0,0,0,11.6,0c4.27-.29,6.53,1.07,7.48,5.57.56,2.66,2.72,6.94,4.4,7.06,7.59.53,15.25-.17,24-.46-9.85-29.29-18.83-56.18-28-83a6.42,6.42,0,0,0-4.64-3.53C253.87,54.8,245.62,55,237.78,55Zm228,32.32c-.32-12.91-5.26-22.38-13.92-28.27-21.33-14.53-52.67-4.47-61,20.06-10.41,30.66,3.37,67.59,44.54,63.71,17.88-1.68,33.77-20.93,30.31-35.21a111.37,111.37,0,0,1-11.26-.06c-7.43-.75-12.69.45-16.14,8.65-3.21,7.64-17.2,7.25-20.87-.26-4.94-10.08-7-21.16-1.8-31.56,2.1-4.21,7.4-8,12-9.46,5.74-1.76,10.35,2,13.06,7.75.9,1.89,3.1,4.29,4.87,4.44C452.1,87.63,458.7,87.32,465.76,87.32ZM55.8,55.25v85.86c7,0,13.36-.25,19.67.08,5.27.27,7.53-1.31,7.16-7-.47-7.09-.11-14.24-.11-22.71h28.81V91.75h-28V74.6h35.46V55.25Z" style="fill: #28a4f3"/>
        <path d="M199.84,674.33l23.91-3.94c0,8.45.08,15.23,0,22-.27,20.45.28,41-1.17,61.34S208.11,785,187.89,785.25a67.63,67.63,0,0,1-11.54-.85c-17.32-2.83-17.32-2.91-10.8-19.63,29.39,6.1,40.8-.12,36.54-19.93-23.23,13.33-42.86,3.21-46.4-24-1.75-13.51-.62-26.56,7.61-38.06C173,669.17,185.65,667.15,199.84,674.33Zm-25.13,37.39c1.39,5.42,1.67,11,4.23,15.23,2.38,3.94,7.45,9.21,10.86,8.89,5.35-.51,12.16-3.69,12.59-11.08a228.48,228.48,0,0,0,0-27.07c-.34-5.82-4.24-9.43-10.19-10.24-6.34-.86-11,2.1-13.21,7.67C176.92,700.38,176.1,706.15,174.71,711.72Z" style="fill: #28a4f3"/>
        <path d="M3.27,641.4H59.12v17.77H23.47c0,8-.39,15.11.29,22.12.16,1.59,4,3.91,6.18,4,9,.46,18.08.19,27.55.19v17H24v31.15H60.6c.8.91,1.1,1.1,1.13,1.32C64,752.48,64,752.48,46.44,752.48c-11.62,0-23.25-.19-34.87.07-7.23.16-10-1.15-8.8-9.92,1.65-11.67.48-23.74.49-35.64C3.28,685.44,3.27,663.9,3.27,641.4Z" style="fill: #28a4f3"/>
        <path d="M398.39,678.75c6.53-3.07,11.44-6.55,16.84-7.69,14.39-3,27.32,7.49,28.23,24,1,18.42.24,36.95.24,56.07H423.18c0-11.25.13-22.45-.05-33.65-.12-6.89.27-14-1.48-20.55-1-3.59-5.65-8.28-9-8.59-3.58-.32-8.85,3.12-11.05,6.45-2.36,3.57-2.61,8.92-2.71,13.51-.31,14.06-.11,28.14-.11,42.87H379.1v-113h19.29Z" style="fill: #28a4f3"/>
        <path d="M121.1,751.77c0-13.8.13-25.94-.07-38.07-.08-5.22-.85-10.43-1.34-15.64-.52-5.66-3.88-10.44-9.08-9.86-4.4.49-9.23,4.18-12.23,7.81-2.09,2.52-1.86,7.33-1.91,11.13-.19,14.35-.08,28.71-.08,43.82H76.53V672.55c11.75-3.11,15.14-2,17.79,5.33,7-2.39,13.89-6.16,21.05-6.85,12.75-1.23,22.31,5.42,23.6,18.08,2,19.44,1.6,39.11,1.91,58.69,0,1.3-2.51,3.63-4,3.78C132,752.07,127.05,751.77,121.1,751.77Z" style="fill: #28a4f3"/>
        <path d="M317.45,733.84c6.83,1.29,12.74,3.22,18.65,3.2,3,0,7.76-3,8.47-5.6s-1.8-7.24-4.3-9.29c-4.61-3.79-10.5-6-15.39-9.49-7.05-5.06-10.47-12.36-9-20.95,1.62-9.2,6.44-16.57,16-19.33,10-2.91,20-2.71,30.11,2.07-1.22,5.1-2.27,9.52-3.31,13.88-5.31-.93-9.92-2.54-14.4-2.25-2.91.2-7.69,2.87-8,4.95-.41,2.93,1.77,7.29,4.25,9.31,4.2,3.42,9.75,5.13,14.29,8.21,8.08,5.46,11.2,13.44,9.89,23-1.42,10.32-7,17.87-17.27,19.8-7.67,1.44-15.82.84-23.72.46-8.08-.38-11.18-4.73-8.11-12.67C316.34,737.42,316.87,735.59,317.45,733.84Z" style="fill: #28a4f3"/>
        <path d="M242.41,638.05h19.32v113H242.41Z" style="fill: #28a4f3"/>
        <path d="M280.38,750.85c0-25-.09-49.54.22-74.05,0-1.65,2.82-3.85,4.81-4.72s4.37.06,6.54-.24c6.49-.89,8.66,1.62,8.54,8.25q-.54,31.88,0,63.77c.12,6.4-2.2,8.51-8.14,7.88C288.79,751.36,285.21,751.2,280.38,750.85Z" style="fill: #28a4f3"/>
        <path d="M280.49,650.23c-.76-7.51,3.39-9.66,10.35-9.7s10,3.21,9.89,9.91c-.15,6.54-4.64,11.12-10.89,10.63S279.63,657.47,280.49,650.23Z" style="fill: #28a4f3"/>
        <path d="M195.64,237.23l32.47-39v39Z" style="fill: #28a4f3"/>
        <path d="M320.08,369.24c-8.43-1.38-18.16-2.08-27.36-4.69-12.63-3.57-14.55-12.62-5.87-22.42,10.87-12.27,25.89-17.51,40.33-23.32,34.73-14,70.87-20.57,108.4-18,4.79.33,9.94,1.28,14.1,3.49s9.92,6.4,9.78,9.5c-.22,5-3.59,11.18-7.61,14.38-28.51,22.67-62.56,31.49-97.63,37.19C343.35,367.12,332.31,367.88,320.08,369.24Z" style="fill: #28a4f3"/>
        <path d="M155,91.74V74.66c5,0,9.62,0,14.21,0,5.53,0,8.75,2.35,8.88,8.38.14,6.48-3.1,8.87-9.15,8.71C164.52,91.64,160.14,91.74,155,91.74Z" style="fill: #28a4f3"/>
        <path d="M253.15,87.9c1.56,6.12,3.29,12.2,4.48,18.38.19,1-2,3.23-3.27,3.45-3.15.51-6.44.16-10.9.16,2.48-8,4.65-15,6.83-22Z" style="fill: #28a4f3"/>
      </g>
    </g>
  </g>
</svg>
