<svg width="252" height="85" viewBox="0 0 252 85" fill="none" xmlns="http://www.w3.org/2000/svg">
<g clip-path="url(#clip0_8_8)">
<path d="M57.6996 23.0781V61.0928C57.2778 61.1117 56.8885 61.1442 56.4965 61.1442C47.2719 61.1442 38.0473 61.2146 28.8227 61.1253C20.1875 61.0387 13.042 57.6074 7.44019 51.0344C2.89712 45.8018 0.28348 39.1686 0.0351026 32.2408C-0.381248 22.5369 2.87115 14.1805 9.95451 7.48847C15.1832 2.54991 21.5069 0.0657489 28.7119 0.025158C38.0717 -0.0235511 47.4341 0.025158 56.7939 0.025158C57.0643 0.025158 57.3346 0.0603368 57.6618 0.0819852V15.2657H56.3289C47.5071 15.2657 38.6854 15.4307 29.869 15.2197C22.4396 15.0411 17.4326 20.0743 15.8104 25.979C14.0856 32.2029 15.4698 37.8044 20.1794 42.3858C22.6126 44.7644 25.6055 45.9037 29.0201 45.8874C33.2431 45.8874 37.4688 45.8685 41.6918 45.9064C42.5163 45.9064 42.7245 45.6358 42.7056 44.8456C42.6542 42.9865 42.638 41.1248 42.7056 39.2657C42.7434 38.3321 42.392 38.1292 41.5458 38.1346C37.6256 38.167 33.7054 38.1481 29.7852 38.1481H28.5659V23.0781H57.6996Z" fill="#FBF9F8"/>
<path d="M117.727 0.42215H132.67C132.694 0.947125 132.735 1.43963 132.735 1.93213C132.735 12.1123 132.643 22.2979 132.778 32.4781C132.856 38.288 135.352 42.9127 140.497 45.9029C145.049 48.5521 151.519 47.6104 155.242 43.8814C158.567 40.553 160.187 36.5886 160.184 31.9044C160.173 21.9263 160.173 11.9473 160.184 1.96731V0.465447H175.073C175.091 0.828058 175.124 1.18796 175.124 1.54787C175.124 12.1367 175.219 22.7255 175.083 33.3116C174.994 40.2337 172.62 46.4441 168.308 51.8643C164.631 56.489 159.981 59.7498 154.293 61.4411C149.377 62.8946 144.155 62.9526 139.208 61.6084C134.261 60.2643 129.785 57.571 126.278 53.8289C122.891 50.2705 120.56 46.0625 119.117 41.3486C118.006 37.7225 117.738 34.0043 117.732 30.2537C117.718 20.7483 117.718 11.2419 117.732 1.73459L117.727 0.42215Z" fill="#FBF9F8"/>
<path d="M112.688 45.8866V61.092C112.35 61.1109 112.055 61.1434 111.76 61.1434C105.171 61.1434 98.5822 61.1434 91.9945 61.1434C83.3214 61.1434 76.0758 57.8528 70.3659 51.4016C65.6455 46.0679 63.1501 39.7493 62.7364 32.6026C62.2957 25.0256 64.2045 18.1171 68.6356 11.9662C73.2317 5.59072 79.4499 1.71023 87.1929 0.365318C88.6232 0.135917 90.0702 0.0263928 91.5187 0.0378848C98.3722 0 105.231 0 112.09 0C112.255 0 112.42 0.0189424 112.669 0.0324727V15.2703H111.387C104.899 15.2703 98.4101 15.3488 91.9215 15.2459C85.5221 15.1458 80.4421 19.692 78.6307 25.2908C77.0545 30.1617 77.4763 34.8919 80.2339 39.2622C82.8645 43.4349 86.6009 45.8623 91.6619 45.8785C98.283 45.8975 104.909 45.8785 111.53 45.8785L112.688 45.8866Z" fill="#FBF9F8"/>
<path d="M231.772 56.7244V62.5099H230.325C226.881 62.5099 223.434 62.5695 219.99 62.4748C215.218 62.3422 210.99 59.0245 209.597 54.4513C208.156 49.7076 209.184 45.4834 212.571 41.9412C214.367 40.0285 216.83 38.8828 219.449 38.7426C221.937 38.5778 224.435 38.6204 226.916 38.8698C229.85 39.2027 231.75 41.0834 232.38 43.941C233.01 46.7986 232.713 49.5885 230.353 51.7534C229.204 52.8661 227.674 53.4956 226.075 53.5123C223.372 53.5285 220.69 53.5123 217.94 53.5123V47.7944C218.232 47.7782 218.527 47.7511 218.819 47.7511C221.014 47.7511 223.21 47.7511 225.405 47.7295C226.513 47.7132 226.83 47.2694 226.797 45.9841C226.765 44.7799 226.527 44.5093 225.397 44.5038C223.642 44.5038 221.882 44.5038 220.13 44.5634C217.337 44.6473 215.118 47.3533 214.866 49.9403C214.775 50.8207 214.874 51.7104 215.156 52.5493C215.438 53.3881 215.897 54.1566 216.501 54.8026C217.106 55.4487 217.842 55.9572 218.659 56.2939C219.477 56.6306 220.358 56.7876 221.241 56.7542C224.705 56.6107 228.182 56.7244 231.772 56.7244Z" fill="#FAF9F7"/>
<path d="M206.804 62.4748H201.065V61.4573C201.065 57.5687 201.1 53.6801 201.048 49.7942C201.066 48.726 200.787 47.6739 200.243 46.7547C199.699 45.8356 198.911 45.0855 197.966 44.5877C195.533 43.2104 192.267 44.2901 190.994 47.0232C190.502 48.1263 190.236 49.317 190.213 50.5248C190.115 54.0725 190.18 57.6228 190.18 61.1732C190.18 61.5764 190.18 61.985 190.18 62.4531H184.438C184.438 62.1149 184.438 61.7604 184.438 61.4032C184.438 57.5498 184.438 53.6954 184.438 49.8402C184.438 44.1981 188.32 39.319 193.841 38.3476C198.626 37.506 203.198 39.844 205.523 44.4443C206.352 46.032 206.791 47.7945 206.804 49.5858C206.804 53.8506 206.804 58.1018 206.804 62.4748Z" fill="#FBF9F8"/>
<path d="M240.761 69.6296C242.351 68.2928 244.154 67.6217 246.258 67.8679C249.38 68.2305 251.935 70.9258 251.976 74.0621C252.024 77.3743 251.976 80.6865 251.976 83.9988C251.962 84.1233 251.937 84.2464 251.903 84.3668H248.088V83.306C248.088 80.3645 248.088 77.423 248.088 74.4815C248.088 73.3179 247.031 72.0461 245.987 71.8025C245.401 71.6718 244.788 71.749 244.252 72.021C243.716 72.293 243.292 72.7429 243.051 73.2936C242.847 73.8586 242.756 74.4578 242.781 75.0579C242.756 78.132 242.781 81.2061 242.781 84.3641H238.78C238.78 81.0573 238.82 77.7802 238.747 74.5086C238.705 73.8164 238.449 73.1544 238.014 72.6144C237.714 72.22 237.291 71.9362 236.812 71.807C236.334 71.6778 235.826 71.7105 235.368 71.9C234.189 72.3275 233.535 73.2151 233.529 74.4139C233.513 77.3202 233.529 80.2292 233.529 83.1355V84.383H229.666C229.615 84.1522 229.58 83.918 229.563 83.6821C229.563 80.5052 229.514 77.3256 229.612 74.1514C229.693 71.4183 231.061 69.4077 233.586 68.3469C236.019 67.324 238.323 67.7002 240.396 69.3536C240.502 69.4402 240.618 69.5159 240.761 69.6296Z" fill="#F9F9F7"/>
<path d="M250.943 56.7379V62.3422C245.83 63.0755 241.445 62.1176 239.296 56.4186C237.174 50.7981 235.311 45.0802 233.348 39.4056C233.305 39.2811 233.289 39.135 233.218 38.8292H237.149C239.369 38.8292 239.434 38.8157 239.985 40.9048C240.28 42.0251 240.796 42.4202 241.956 42.3444C243.53 42.2443 245.114 42.32 246.766 42.32V48.2355H242.589C242.981 49.4478 243.3 50.5275 243.67 51.5856C244.133 52.8791 244.608 54.1699 245.146 55.4309C245.538 56.3455 246.255 56.8056 247.309 56.7515C248.491 56.6919 249.67 56.7379 250.943 56.7379Z" fill="#F9F9F7"/>
<path d="M219.892 84.9973C215.056 84.9594 211.511 81.2386 211.565 76.2648C211.622 71.4291 215.299 67.8409 220.147 67.876C224.556 67.9166 228.395 71.9351 228.203 76.5544C227.984 81.8582 224.072 85.0189 219.892 84.9973ZM215.456 76.4082C215.456 78.9546 217.454 81.0762 219.887 81.0897C222.239 81.0897 224.234 78.9925 224.261 76.4624C224.288 73.9322 222.25 71.7728 219.833 71.7755C217.505 71.7755 215.475 73.9349 215.456 76.4082Z" fill="#F7F9F6"/>
<path d="M185.625 74.3733H192.113V78.3296H185.541C185.949 79.6826 187.114 80.4646 188.588 80.4782C190.413 80.4944 192.235 80.4782 194.06 80.4782H195.233V84.429H193.138C191.651 84.429 190.164 84.402 188.68 84.429C183.483 84.5373 180.158 79.5581 181.056 74.8577C181.867 70.6011 184.841 68.236 189.166 68.2414C190.959 68.2414 192.749 68.2576 194.538 68.2414C195.009 68.2414 195.322 68.3253 195.311 68.8962C195.293 69.9381 195.311 70.9826 195.311 72.1679C193.178 72.1679 191.129 72.0975 189.093 72.203C188.208 72.2917 187.347 72.5421 186.552 72.9418C186.114 73.1393 185.825 73.667 185.47 74.0459L185.625 74.3733Z" fill="#F8F9F7"/>
<path d="M166.851 68.263V72.1814C164.648 72.1814 162.496 72.1814 160.346 72.1814C158.848 72.1814 157.564 73.0392 157.186 74.3246H163.712V78.3214H156.953C157.764 79.7935 158.805 80.4701 160.238 80.4863C162.401 80.4863 164.564 80.4863 166.813 80.4863V84.5779C163.839 84.4263 160.779 84.6942 157.956 84.0366C153.474 82.9813 151.516 77.8127 152.984 73.548C154.155 70.1546 156.888 68.2847 160.511 68.2765C162.609 68.2603 164.696 68.263 166.851 68.263Z" fill="#F8F9F6"/>
<path d="M209.978 80.5918V84.6184C207.275 84.4209 204.539 84.6184 202.024 83.9528C198.177 82.9488 196.077 78.6814 196.861 74.7522C197.672 70.7553 201.024 68.0303 204.996 68.2387C206.639 68.3226 208.291 68.2387 209.984 68.2387V72.1679C208.216 72.1679 206.469 72.2355 204.725 72.1516C202.406 72.0434 200.629 74.2867 200.67 76.2865C200.705 78.7219 202.362 80.4565 204.744 80.4646C206.399 80.4646 208.053 80.4728 209.708 80.489C209.801 80.5148 209.892 80.5493 209.978 80.5918Z" fill="#F9F9F7"/>
<path d="M180.777 80.4836V84.337C177.817 84.337 174.883 84.448 171.963 84.2937C170.268 84.2044 168.503 82.2994 168.449 80.5052C168.308 76.5219 168.376 72.5332 168.362 68.5499C168.362 68.4903 168.424 68.4308 168.489 68.3145H172.274V69.4429C172.274 72.6901 172.299 75.9374 172.261 79.1847C172.261 80.1507 172.631 80.5215 173.578 80.5106C175.938 80.4646 178.298 80.4836 180.777 80.4836Z" fill="#F9F9F8"/>
<path d="M140.805 72.1733V68.3253H151.941V72.1706C151.173 72.1706 150.373 72.2328 149.586 72.157C148.618 72.0623 148.31 72.3843 148.329 73.3802C148.391 76.76 148.356 80.1453 148.356 83.5171V84.3857H144.517C144.495 84.0556 144.46 83.766 144.46 83.4738C144.46 80.0587 144.43 76.6464 144.473 73.234C144.473 72.3816 144.219 72.0948 143.392 72.1516C142.565 72.2085 141.694 72.1733 140.805 72.1733Z" fill="#F9F9F8"/>
</g>
<defs>
<clipPath id="clip0_8_8">
<rect width="252" height="85" fill="white"/>
</clipPath>
</defs>
</svg>
