<svg xmlns="http://www.w3.org/2000/svg" viewBox="0 0 1200 844">
  <g id="Camada_2" data-name="Camada 2">
    <g id="Camada_1-2" data-name="Camada 1">
      <g>
        <path d="M266,0h35c3.16.62,6.29,1.38,9.47,1.85,51.63,7.77,96.06,29.32,131.38,68.4.48.53,1,1,2.22,2.07,0-11.75-.18-22.54,0-33.33.36-17.3,10.91-28.54,28-28.76q44.75-.57,89.49,0c14.75.18,24.66,8.82,27.1,22.52a70.05,70.05,0,0,1,.64,12q0,208,0,416c0,34.52-.88,69-5.29,103.25-5.17,40.12-14.1,79.25-30.22,116.49C527.45,741.43,485.3,787.3,424,814.49,380.26,833.9,334,841.3,286.53,843a40.8,40.8,0,0,0-5.53,1H259a20.51,20.51,0,0,0-3.53-1c-15.75-1.46-31.61-2.13-47.23-4.41a460.57,460.57,0,0,1-134.5-41.08c-18.38-8.89-36-19.4-53.65-29.73C8.77,761.2,2.24,751.12,4.21,737.49A55.64,55.64,0,0,1,9.7,721.06c11.69-23.53,23.72-46.89,35.68-70.29,9.94-19.46,26.14-23.84,44.72-12.09,23.1,14.6,46.93,27.81,72.42,37.82,53.58,21,108.5,26.34,164.56,12.31,40.7-10.18,71.65-33.53,90.26-71.87,12.28-25.29,17.13-52.35,18.62-80.16.21-4,0-8.06,0-12.09a5.68,5.68,0,0,0-3.13,2.2c-22.28,22.75-48.58,39.25-78.42,50.14-36.85,13.44-74.74,15.26-113.28,10.11-45.88-6.13-88.11-21.78-125.59-49C49.82,490.28,14,424.74,2.89,344.93,2,338.28,1,331.64,0,325V277a23.26,23.26,0,0,0,1.12-4C5.84,222.25,20.89,174.89,49,132.26,96.26,60.65,161.58,16.19,247,2.79,253.35,1.8,259.68.93,266,0Zm28.93,145.67c-52-.18-99,26.42-124.41,71.13-21.53,37.88-26,78.59-17.25,120.79,13,62.7,61.31,107.29,124.47,115.65C334.48,460.76,391,432,418.79,381.12c20.6-37.73,24.45-77.91,16.18-119.63C421.43,193.25,364.19,145.91,294.93,145.67Z" style="fill: #06a948"/>
        <path d="M1200,324c-.15.08-.38.12-.43.24-7.21,17.83-13.91,22.32-33.62,22.32h-392c4.05,11.9,7.05,23.27,11.69,33.93,24.83,57.05,77.76,90.22,140.91,89,15.7-.31,31.25-1.7,46.44-5.88,24-6.63,44.19-19.36,59-39.57,10.31-14.1,23.49-20.44,41-20.06,29.31.64,58.65.16,88,.2a55.58,55.58,0,0,1,8.46.55c15.88,2.46,23.26,13.22,18.74,28.73a211.93,211.93,0,0,1-41.45,77.31c-33.76,40.37-77.29,65.34-127.57,78.59-65,17.14-130.55,19.88-195-1.41-103.6-34.2-168.87-105.6-194.65-211.21-19-77.87-10.29-153.78,28.44-224.64C699.92,75.19,764,26.17,849.82,6.61c13.25-3,27-3.85,40.5-5.73A37.09,37.09,0,0,0,894,0h38a7.81,7.81,0,0,0,2.06.92C944.79,2.29,955.61,3.15,966.25,5c52.28,9.14,98.6,30.83,137.46,67.23,55.9,52.36,83.56,118.57,93.29,193.31,1.06,8.14,2,16.3,3,24.45Zm-163.1-93.2c-8.44-32.42-24.33-59.61-51.87-79-28.4-20-60.23-25.76-94.12-20.84-52.45,7.62-89.09,36-109.74,84.88-2,4.78-3.41,9.83-5.16,15Z" style="fill: #06a948"/>
      </g>
    </g>
  </g>
</svg>
