<svg xmlns="http://www.w3.org/2000/svg" viewBox="0 0 1280 688">
  <g id="Camada_2" data-name="Camada 2">
    <g id="Camada_1-2" data-name="Camada 1">
      <g>
        <path d="M0,479V435a11,11,0,0,0,1-2.52c1.37-9.89,2.24-19.87,4.07-29.67C11.9,366.2,23.43,331.3,44.31,300.08c24-35.91,55.6-59.84,100.53-61.68,36.64-1.5,69.86,7.55,97.83,32.44,21.32,19,32.59,42.1,30.23,71.12-2.91,35.67-14.67,68.13-35.61,97.13C228.72,451,219,462,210.51,473.93c-11.38,15.89-20.18,33.21-20.76,53.16-.28,9.83,1.65,19.81,3.32,29.61,3.68,21.6,11.14,41.78,28,56.65,23.41,20.69,51.4,28.8,82.3,25.72,43.57-4.35,79.38-43.58,80.72-87.29.77-25.3-5.33-49.21-14.43-72.43q-80-204-160.29-407.84c-5.66-14.38-11.68-28.66-16.46-43.32C188.15,13.73,195,3.65,209.86.88A11.23,11.23,0,0,0,212,0H585c.73.38,1.43.81,2.18,1.14,12,5.38,18.14,13.56,18.11,27.84q-.51,310.64-.23,621.26a73.3,73.3,0,0,1-.13,8C603.48,671.6,599.69,683.47,585,688H192c-4.12-.82-8.24-1.67-12.37-2.47C113.27,672.66,64.55,634.36,28.27,579.07,12.56,555.14,7.43,527.22,3,499.39,1.92,492.61,1,485.8,0,479Z" style="fill: #bf0028"/>
        <path d="M695,0h390a21.89,21.89,0,0,0,3.08,1c7.55,1.25,15.21,2,22.63,3.72,56.52,13.34,99.07,47.1,133.38,92.39,20.53,27.1,27.84,59.24,32.92,92,1.07,7,2,13.94,3,20.91v43a23.72,23.72,0,0,0-1.07,3.52c-2,13-3.32,26.13-6.08,39-7.65,35.58-20,69.33-41.58,99.1-21,28.91-47.62,49.39-84,53.91-40.6,5-77.9-2.92-109.47-30.59-21.87-19.17-33.22-42.87-30.76-72.43a189.18,189.18,0,0,1,35.8-96.57c8.56-11.87,18.31-22.9,26.83-34.81,11.36-15.9,20.1-33.26,20.61-53.22.26-9.84-1.66-19.82-3.33-29.62-3.39-19.84-9.92-38.65-24.43-53.15-24.39-24.38-54.7-33-88.3-28.83-42.72,5.29-76.81,44-78.26,87-.86,25.64,5.23,49.92,14.47,73.45Q989.91,412,1069.78,614.17c6,15.15,12.32,30.2,17.37,45.65,4.62,14.12-1.68,23.82-16,27.22a12.18,12.18,0,0,0-2.16,1H694a16.83,16.83,0,0,0-2-1.31c-11.73-5.56-17.56-13.78-17.54-27.78Q675,348.47,674.74,38a81.28,81.28,0,0,1,.32-10.48C676.73,14.83,681.12,4,695,0Z" style="fill: #bf0028"/>
      </g>
    </g>
  </g>
</svg>
