<svg xmlns="http://www.w3.org/2000/svg" viewBox="0 0 266.5 742.45">
  <g id="Camada_2" data-name="Camada 2">
    <g id="Camada_1-2" data-name="Camada 1">
      <g>
        <path d="M88.67,398.06c.1-.55.21-1.1.32-1.65,3.33,3,7,1.48,10.54.66,5.4-1.25,8,.26,7.76,6.33-.28,6.84.18,13.71.33,20.56q-.2,4.26-.37,8.52c-.18.19-.55.41-.52.56a7.72,7.72,0,0,0,.51,1.36q-.17,12-.34,23.9a3.72,3.72,0,0,0,.08,5.32c-.07,2.23-.15,4.46-.22,6.69-3.34.72-5.16,3.49-7.36,5.64-24.92,24.23-22.89,58.42,4.65,79.47,1.58,1.21,3.08,3,5.23,2.26,2.93-1.07,1.54-3.89,1.83-6,.64-4.7-1.28-9.68,1.56-14.14a5.17,5.17,0,0,1,.5,1.27c-2,6.2,3.76,12.42-.24,18.81-1,1.66.91,3.62,3.33,3.8,2.68.21,3-1.52,3.56-3.65,1.27-4.94-2.18-10.22,1.17-14.94.72,1.7,2.35,1.57,3.76,1.9-3.6,2.45-5.89,5.13-.79,8.28,2.11,1.3,2.2,1.71.13,3.35-4.92,3.89-3.81,6.31,2.23,7.1,21.45,2.82,39-5.34,50.73-24.11,12.81-20.45,8.68-49-11.09-64.77-5.53-4.39-7.47-9.22-7-16.07.22-3.47,2.48-8.2-2.67-10.61l-.45-5.06c0-1.7-.09-3.4-.14-5.1.06-2.31.12-4.61.19-6.92,2.1-1.73,2.17-3.43-.07-5.09-.21-2.3-.43-4.6-.64-6.9,0-.59,0-1.17-.07-1.75l.12-14.18,1.2-.44-1.2-.44-.09-2.47c1.79,0,2.15-1.43,2.61-2.74l3.28-.47,6.71.75c8.39,2.66,16.93,4.94,25.14,8.07,27.27,10.39,40.81,31.7,39.08,60.59-.17,2.91-2,6.26,1.34,8.71-3.46,19.91-14,38.38-12.1,59.37A21.89,21.89,0,0,0,229.62,558c2.21,7.45,9.4,12,11.24,19.61,2.38,2.63,0,7.4,4,9.34.13.7.27,1.4.4,2.1.93,6.1,4.73,11,7.17,16.4,24.63,54.88,4.8,103.22-50.76,123.07-8.29,3-16.93,5-25.4,7.43-1.13.09-2.27.14-3.4.27-38.24,4.33-76.28,5.61-113.4-7.39-10.75-4.49-19.72-12.41-30.93-16-.53-4.07-3.87-6-6.5-8.43L6.28,678.31c-2.64-5-2.92-10.58-3.62-16,.57-.88,1.15-1.75,1.73-2.63.29-1.9.36-3.77-.93-5.4.2-12.79,1.71-25.28,6-37.52C14.1,603.25,22,591.32,26.89,578c13.12-19.54,23.83-39.7,16.83-64.49a220.54,220.54,0,0,0-13.94-40.09l-1.51-2.23,0,.28.54-6.82a12.64,12.64,0,0,0,.67-3.24c-1.24-20.26,7-36,23.39-47.37,6.91-4.79,14.65-8.38,22-12.52,3.29-2.53,6.92-3.75,11.09-2.93C87.09,399.45,87.84,398.58,88.67,398.06ZM198.72,649.64c1.79,1.71,3.55,1.75,5.27-.11l1.23-2,.13-3.37c0-.57,0-1.15.07-1.72,0-2.28.08-4.57.13-6.85,0-2.88.09-5.76.13-8.64-1.39-2.54-3.25-2.1-5.25-.85l-6.77.6c-7.43-1.72-15-.68-22.5-1.26-.13-1.49-.65-3.15-2.2-3.21-12.08-.52-24.19-1.47-36.23-.91-3.91.18-8.73-2.15-12.29,1.69l.34-.29-.18.41c-3-1.08-6.24-2.89-7.91,1.85l-6.93.42-2.71.12c-11.06-.25-22.13-.52-33.2-.72-1.64,0-3.44-.21-4.65,1.41-2.07,2.77-.37,19.1,2.29,21.93a13.69,13.69,0,0,0,8.12,2.19c18-.45,36.12,2.46,54.16-.21,3,1.39,6,1.75,8.93-.39l3.52-.83,6.74.58c4.72,4.32,14,4.45,19,.26l3.32-.66,22.3.05Z" style="fill: #f1c68f"/>
        <path d="M190.28,53.82l8.46,2.67c.29,2.87,2.81,3.44,4.78,4.36A43.44,43.44,0,0,1,223,79.54c11.88,21.29,16.19,44.35,13.41,68.53-.53,4.61-1.82,12.24-7.25,11.72-8.26-.78-7.48,3.81-8,8.55-.32,3.06,1.06,7.22-2.05,8.74-6.43,3.14-8.36,10.42-14.26,14-5,3-3,13.05-12.12,12.37-.21,0-.56,2-.85,3.09-1.93,7.09-7.42,10.08-13.94,10.57-2,.15-2.91.22-3.81,1.73-4.46,7.52-10.68,10.71-19.37,7.86-1.86-.61-3.12,1.15-4.54,1.45-6.12,1.3-11.21,8.26-17.07,6.16-7.41-2.64-14.68-2.27-22-2.94l-2.43.52-3.08-1.74c-4.7-7.73-11.77-11.47-20.62-12.21h0c.36-4.87-3.94-6.62-6.52-9.41-12.85-13.92-25.82-27.73-32.89-45.8,3.31-5.85-.12-6.94-5-7q-1.94-5.92-3.88-11.85c.54-.63,1.67-1.49,1.53-1.84-4.55-11.37-4.79-24-11.62-36.24,3.66,1.37,5.91,2.37,8.25,3.05s6.11.41,5.23-2.08c-2.3-6.48,2.85-10.53,4.52-15.25,2.37-6.69.74-17.39,12.29-18.3A47.08,47.08,0,0,0,65.44,72c7.85-2,9.09-9.43,13.47-14.13,5.66-6.05,10.58-12.89,12.91-21,1.35-4.68,2.26-9.68,5.63-13.08,3.7-3.74,8.58-.94,13.14.43a12.56,12.56,0,0,0-.48-2.49c-7-14-7.06-13.95,4.48-21.72l5,.27c1.78,3.25,5.32,3.56,8.15,3.75,12.35.83,23.45,5.55,34.4,10.6,4.92,2.26,9.84,5.11,12.57,10.31-1.18.58-1.22,1.15,0,1.71-1,2-4,2.17-4.55,4.83-.39,1.84,4.7,3.58.29,5.09-2.43.83-3.89-1.9-5.53-3.39-1.27-1.15-2.47-2.38-3.65-3.62-6.05-6.35-9.48,1.8-14,3.12-1,.29-3.4,7.76,1,10.67,3.84,2.55,4.07,5.16,3.26,9.37-2,10.18,1,19.69,7.45,21.43,6.25,1.69,5.76,5.2,5,9.52-1.47,8.33,7.21,13.37,6.79,21.32,6.48.26,7.44,5.41,8.6,12.16,3.14-5.39,4.44-9.14,3.68-13.5Zm27.43,34.81-3.41,0c-3.19-3-6.61-1.31-10,.06h9.94c0,.56,0,1.12,0,1.69-1.94,1.92-3.69,3.92-2.81,7.26,2.71-1.95,2.79-4.59,2.82-7.25,1.42,0,2.71-.33,3.43-1.73l.4-.69Zm-101.51-55,.77.67-.67-.77c0-3-.19-6-4.62-6.22C111.8,31.05,114.05,32.3,116.2,33.64Z" style="fill: #391d1d"/>
        <path d="M108.7,231.87l2.43-.52c-.07,1.42.11,2.72,1.56,3.45l-.18,10.73c-2.2,2.79-1.19,6.07-1.23,9.11-.11,11.46,0,22.92,0,34.38-1.18,4,.9,7.64,1.33,11.46-2.29,2.42-1.21,5.43-1.22,8.15Q111.11,366.34,111,424l-3.39-.08c-.15-6.85-.61-13.72-.33-20.56.24-6.07-2.36-7.58-7.76-6.33-3.55.82-7.21,2.34-10.54-.66a12,12,0,0,1,3-1.48c15.86-3.07,16-3.05,16.22-19.52.3-24.6.29-49.21.58-73.82a45.41,45.41,0,0,0-3.4-17.28c-9.68-25-24-48.1-31.48-74a7.47,7.47,0,0,0-1.94-2.78C46.61,181.4,32.16,149,19.57,115.76,12.3,96.53,5.3,77.11.81,57c-3.51-15.73,4.55-23.39,20-19.13C36,42,50.36,48.52,66,51.29c5.23.93,7.58-.41,10.23-4.65,7.39-11.8,13-24.69,21.94-35.52,2,.15,5.09,0,2.22,3-8.89,9.41-12.57,22-19.94,32.33C75.78,53,71,62.33,64.41,62.79c-12.65.89-26.17.18-38-6.63-.91-.52-1.7-3.58-2.71-1.26C21.56,59.73,17.15,57,13.57,59c2.65,2.79,3,5.93,0,8.49-2.48,2.13-1.9,4.91-.05,5.75C18.2,75.32,18.2,79.83,20,83.44l0,0c-5.77,1.45-1.87,3.61-.46,5.7s5.11,5.57,2.37,7c-5.09,2.69-2.89,6.56-1.64,8.45,3.35,5,2.85,11.21,5.32,16,3.93,7.64,4,17.16,11.21,23.17q2,5.93,3.89,11.85c1.23,2.65,2,5.62,5,7,7.07,18.07,20,31.88,32.89,45.8,2.58,2.79,6.88,4.54,6.52,9.41l-3.77-1.48c-.74-.47-1.14-2.2-2.24-1.18-.73.69-.28,2,.75,2.72,7,21.3,19.47,40.14,26.36,61.51l2.61-.7Z" style="fill: #6c574c"/>
        <path d="M112.62,300.48c-.43-3.82-2.51-7.46-1.33-11.46,2.86-3.17,0-7.88,2.95-11,2.35-2.25,3-1.91,3,1.47.11,7.51.7,15,1.1,22.51,1.44-6.52,1.36-13,1.49-19.53,0-2.09-1-5.47,2.07-5.68,4.14-.3,2.8,3.6,2.74,5.75-.27,9.9-.44,19.77,1.37,29.59.62-8.82.44-17.63.72-26.43.1-3.08-1.78-8.75,2.23-8.69,5.2.08,2,5.88,2.76,9.11.66,2.81-.83,5.92,1,9,2-18.91,2-18.91,12.61-18.92,1.2,8.41-1.57,16.94.84,25.34,1.81-1.69-.52-6.06,3.8-6.22l.22,15.11c-6.15,1.6-6.15,1.6-1.32,12.12-1.23,7.7,3.62,14.61,2.9,22.25-4.64,3.12-4,8.18-4.46,12.72-.31,2.76-.82,5-3.78,6-10,3.49-15.41-.37-15.28-10.95,0-2,.08-4,.11-6,3.46.22,5.23-1.16,5.05-4.85-.2-3.86.71-8.23-5.09-8.82-2.26-3.15-1.11-7.15-2.45-10.66-2.36,1.87.51,7.08-3.57,6.63-4.54-.49-2-5-2.54-7.76-.64-2.95,1-6.18-.87-9.11-2,1.63-1,3.7-1,5.54-.06,13.07,0,26.15-.08,39.22,0,3.19,1.17,7.42-4.59,6.85Q112.93,332,112.62,300.48Z" style="fill: #492e2c"/>
        <path d="M174.72,25c-2.73-5.2-7.65-8-12.57-10.31-11-5-22.05-9.77-34.4-10.6-2.83-.19-6.37-.5-8.15-3.75C142.68,1.67,164,8.18,182.5,22.41c3.48,2.68,6.7,6.24,7.18,11.19-1,2-2.77,4-2.8,6.09-.19,10.46-6,20-4,31,.8,4.45,1.58,11.44-.57,14.57-4.92,7.15-3.28,12.44.8,18.4.76,4.36-.54,8.11-3.68,13.5-1.16-6.75-2.12-11.9-8.6-12.16.42-8-8.26-13-6.79-21.32.76-4.32,1.25-7.83-5-9.52-6.47-1.74-9.43-11.25-7.45-21.43.81-4.21.58-6.82-3.26-9.37-4.39-2.91-2-10.38-1-10.67,4.49-1.32,7.92-9.47,14-3.12,1.18,1.24,2.38,2.47,3.65,3.62,1.64,1.49,3.1,4.22,5.53,3.39,4.41-1.51-.68-3.25-.29-5.09.57-2.66,3.52-2.79,4.55-4.83l0,0c.94.1,2.35,1.44,2.69.14.47-1.81-1.44-1.68-2.68-1.88Z" style="fill: #492e2c"/>
        <path d="M20,83.44c-1.77-3.61-1.77-8.12-6.46-10.23-1.85-.84-2.43-3.62.05-5.75,3-2.56,2.66-5.7,0-8.49,3.58-1.93,8,.76,10.1-4.07,1-2.32,1.8.74,2.71,1.26,11.86,6.81,25.38,7.52,38,6.63,6.55-.46,11.37-9.81,16-16.31,7.37-10.36,11-22.92,19.94-32.33,2.87-3-.27-2.88-2.22-3,3.73-6.3,8-11.76,16.46-11.06-11.54,7.77-11.53,7.76-4.48,21.72a12.56,12.56,0,0,1,.48,2.49c-4.56-1.37-9.44-4.17-13.14-.43-3.37,3.4-4.28,8.4-5.63,13.08-2.33,8.07-7.25,14.91-12.91,21C74.53,62.58,73.29,70,65.44,72a47.08,47.08,0,0,1-8.51,1.15c-11.55.91-9.92,11.61-12.29,18.3-1.67,4.72-6.82,8.77-4.52,15.25.88,2.49-2.95,2.74-5.23,2.08s-4.59-1.68-8.25-3.05C33.47,118,33.71,130.61,38.26,142c.14.35-1,1.21-1.53,1.84-7.17-6-7.29-15.53-11.22-23.17-2.47-4.79-2-11-5.32-16-1.25-1.89-3.45-5.76,1.64-8.45,2.74-1.44-.89-4.81-2.37-7s-5.31-4.25.46-5.7a2.72,2.72,0,0,0,.34.63c.1.1.34.06.51.09Z" style="fill: #492e2c"/>
        <path d="M112.69,234.8c-1.45-.73-1.63-2-1.56-3.45,7.36.67,14.63.3,22,2.94,5.86,2.1,11-4.86,17.07-6.16,1.42-.3,2.68-2.06,4.54-1.45,8.69,2.85,14.91-.34,19.37-7.86.9-1.51,1.83-1.58,3.81-1.73,6.52-.49,12-3.48,13.94-10.57.29-1.08.64-3.11.85-3.09,9.09.68,7.16-9.37,12.12-12.37,5.9-3.56,7.83-10.84,14.26-14,3.11-1.52,1.73-5.68,2.05-8.74.49-4.74-.29-9.33,8-8.55,5.43.52,6.72-7.11,7.25-11.72,2.78-24.18-1.53-47.24-13.41-68.53a43.44,43.44,0,0,0-19.47-18.69c-2-.92-4.49-1.49-4.78-4.36,19.32,5.32,28,20.55,34.5,37.54,17.92,47,2.53,98-38.05,127.62-8,5.81-17.09,9.06-25.89,13.09l-2.64.24c-3.34.59-6.68,1.61-10,1.68-6.88.15-9.27,3.62-8.46,10-4.66-4.48-9.46-9.53-9.75,2.59a2.22,2.22,0,0,1-2.09,2.28c-1.74.16-2.11-1.18-2.85-2.48-1.61-2.86,3-6.65-1.49-8.91-2.79-2.94-4.63-2.51-5.46,1.53l-1.74-.14c.24-3.45-1.13-5.38-4.84-5A13.53,13.53,0,0,1,112.69,234.8Z" style="fill: #492e2c"/>
        <path d="M113.24,363.58c5.76.57,4.57-3.66,4.59-6.85.07-13.07,0-26.15.08-39.22,0-1.84-1-3.91,1-5.54,1.92,2.93.23,6.16.87,9.11.59,2.73-2,7.27,2.54,7.76,4.08.45,1.21-4.76,3.57-6.63,1.34,3.51.19,7.51,2.45,10.66a12.38,12.38,0,0,0,0,13.67c0,2-.08,4-.11,6-.13,10.58,5.3,14.44,15.28,10.95,3-1,3.47-3.25,3.78-6,.5-4.54-.18-9.6,4.46-12.72.64,13.68,1.24,27.37,1.94,41.05.15,3-.56,6.54,3.63,7.68l-1.58,1.26-13.8.11c-2.9-2.16-4.34,4-7.12,1.33-1.78-1.73-3.72-1.84-5.26-.6-2,1.57-1.17,4.17-1.07,6.36.12,2.61,2,3.12,4.14,3.1,3.09,0,6.19-.1,9.28-.16l10.3.57c-7,3.49-13,1.17-18.67,2.73-3.05.85-5.42,1-5.23,5,.2,4.24,3.08,4,6,4,5.69,0,11.38,0,18.4,0-3.42,4.56-6.56,2.75-9.07,3.5l-6.74.06c-3.91.65-8.86,1.3-7.94,6.36.7,3.82,5.15,1.56,8,1.6l6.59.07,7.34.8v.89l-7.35.88-6.73,1.24-1.73.06c-5.25-.76-7.76,1.13-6.48,6.69-.6,12.1-.6,12.15,11.47,12.06,3.41,0,6.84-.72,10.22-.48,2.67.19,1.22,1.61.18,2.58-5.39-.05-10.77-.12-16.16-.14-2.85,0-6.12-.37-5.75,4.05.3,3.68,2.93,4.63,6.07,4.33,4.19-.4,8.35-1.07,12.52-1.63-2,6.33-7.36,2.06-10.91,3.48-2.22.89-6.39-2.47-6.6,2.47-.19,4.39,3.28,4.47,6.67,4.39,5.14-.13,10.3-.11,15.43.13.88,0,.42,1.19-.41,1.56a5.64,5.64,0,0,1-.83.23c-4.13.54-8.34,1.84-12.38,1.44-7-.68-9.27,2-7.93,8.55q.06,12.14.11,24.28-.15,18.76-.29,37.55l-1.89-.11c0-14,.19-28.07-.05-42.09-.11-6.5,1.46-13.19-1.53-19.48,0-1.4.11-2.8,0-4.19-.12-1.92.06-4.31-2.87-4-2.25.2-2.1,2.24-2.14,3.88,0,1.39.1,2.79.16,4.18-.21.71-.43,1.42-.64,2.12a2.44,2.44,0,0,0-1.17,0c-.14-5-.6-10-.32-15,.29-5.19-2.21-6.35-6.6-5.72l.06-2.06c3.08.09,6.47.8,6.47-4.11s-3.37-4.23-6.46-4.12l0-2.07c3.06.07,6.49.87,6.49-4.11s-3.36-4.26-6.47-4.15l0-2.05c4.67.71,7.48-.84,6.29-6a17.1,17.1,0,0,1,0-8.29c1.23-5.06-1.47-6.78-6.23-6,0-.69,0-1.38,0-2.06,4.38.59,5-2,5-5.53s-1.67-5-5.13-4.52l.21-2c4.81.68,4.88-2.46,4.88-5.87s-.16-6.53-4.94-5.8l.13-2.11c4.81.68,4.72-2.53,4.74-5.82s0-6.46-4.78-5.79l0-2.15c5.66.67,4.61-3.45,4.63-6.64s1-7.28-4.62-6.66C113.23,365,113.23,364.3,113.24,363.58Zm8.65,69.16a11,11,0,0,0-.31,2.52c.21,2.07-1,5.34,2.41,5.34s2.24-3.26,2.41-5.34a11.52,11.52,0,0,0-.32-2.52c-.78-3.93,3.54-10.87-2.55-11.07C119.43,421.53,122.26,428.8,121.89,432.74Zm16.8-67v-.15c-.29,0-.58,0-.86,0-5.32-.24-10-.86-9.72,7.49.33,8.9,5.4,4.69,9.25,4.57,2.29-.07,4.58-.14,6.87-.09,3.18.08,4.76-1.33,4.71-4.59s0-6.58-4.26-7.19A44.31,44.31,0,0,0,138.69,365.74Zm.32,15,0,.3c-1.42,0-2.86.1-4.27,0-4-.33-6.54.57-6.4,5.46.12,4.5,2.56,5.07,6.13,4.89,3.41-.17,6.83-.11,10.25-.12,2.25,0,4-.74,4.14-3.26.12-2.22.94-5.18-1.48-6.18S141.81,381,139,380.74Zm-19.23-8.94c.71,2.54-1.6,6.95,3.54,7.08,3.92.1,3.2-3.45,3.05-5.8-.19-2.74,1.74-7.07-3.39-7.21C119,365.76,120.12,369.29,119.78,371.8Zm-.09-14.7c.84,2.1-1.26,5.89,3.26,6.4,2.62.29,4-1.63,3.25-3.7-1.13-3.19.6-8.55-4-9.11C118.73,350.27,120.31,354.55,119.69,357.1Zm6.82,30.09c-.41-2.23,1-5.53-2.91-5.91s-3.76,2.53-3.74,5.13c0,2.92.18,6.19,4,6.11C127.19,392.45,126.18,389.3,126.51,387.19ZM125,339.94c-1.16-1.85,1.6-6.07-2.64-6.58-3.27-.39-2.75,3.17-2.49,5.17.36,2.67-2.08,7.17,2.78,7.45C125.71,346.15,124.51,342.5,125,339.94ZM123.6,395.2c-3,.92-2.06,3.53-2.12,5.62s.15,4.54,3,3.7,1.7-3.76,1.81-5.85C126.44,396.94,126.16,395.19,123.6,395.2Zm.78,23.21c2.67-1,2.07-3.48,2.08-5.62,0-1.68,0-3.85-2.25-3.86-3.47,0-2.71,2.94-2.78,5S121.32,418.07,124.38,418.41Zm2.1,28.63c-.23-1.25.18-3.38-2.12-3.63-3-.32-2.78,2.11-2.82,4,0,1.73.21,3.63,2.48,3.61S126.42,449.12,126.48,447Zm-2.42,6.55c-2.3.19-2.58,1.87-2.54,3.63s-.22,3.73,2,4c3,.42,2.92-1.95,3-3.92C126.57,455.58,126.32,453.89,124.06,453.59Z" style="fill: #6c574c"/>
        <path d="M176.32,735.94c8.47-2.46,17.11-4.47,25.4-7.43,55.56-19.85,75.39-68.19,50.76-123.07-2.44-5.44-6.24-10.3-7.17-16.4,1.28.4,2.69.21,3.57,1.8,17.09,31,25.24,62.87,8.25,96.55-13.49,26.74-37.41,40-65.07,47.78-5.14,1.45-10.43,2.32-15.65,3.46Z" style="fill: #6c574c"/>
        <path d="M132,240.17c4.44,2.26-.12,6.05,1.49,8.91.74,1.3,1.11,2.64,2.85,2.48a2.22,2.22,0,0,0,2.09-2.28c.29-12.12,5.09-7.07,9.75-2.59,1.15,9.81,1,19.65.75,29.49-1.19-.09-2.36-2.12-3.56,0-10.61,0-10.61,0-12.61,18.92-1.84-3.06-.35-6.17-1-9-.75-3.23,2.44-9-2.76-9.11-4-.06-2.13,5.61-2.23,8.69-.28,8.8-.1,17.61-.72,26.43-1.81-9.82-1.64-19.69-1.37-29.59.06-2.15,1.4-6-2.74-5.75-3.07.21-2,3.59-2.07,5.68-.13,6.5,0,13-1.49,19.53-.4-7.5-1-15-1.1-22.51-.05-3.38-.67-3.72-3-1.47-1.33-1-1.36-2.36-1.16-3.81,4.65.63,4.83-2.37,4.76-5.73-.13-7.25-.17-14.5-.24-21.75l1-2c2.25,1.3.82,3.66,1.54,5.41-.1,6-.31,12-.26,18,0,2.07-1,5.5,2.17,5.58,4,.1,2.18-3.73,2.7-5.94,1.39-5.9-2.1-11.72-.28-17.63l.33-8.57,1.74.14c.89,3.27-1.86,9.3,2.55,9.35,4.78,0,1.62-6,2.72-9.19A7.74,7.74,0,0,0,132,240.17Zm-.28,24.37c0-2,.07-4,0-5.92s.15-4.47-2.66-4.34-2.34,2.71-2.37,4.6c-.06,3.67,0,7.34,0,11,0,1.67,0,3.74,2.22,3.9,3,.21,2.66-2.27,2.78-4.17C131.82,267.93,131.74,266.23,131.71,264.54Zm6.91.19a30.72,30.72,0,0,0,0-4.05c-.34-2.3,1.17-6.18-2.34-6.24-4.37-.07-2.23,4.19-2.77,6.61a7,7,0,0,0,0,2.54c.5,3.4-1.6,9.39,2.66,9.44C141.19,273.08,137.33,267.09,138.62,264.73Zm6.82-1.91c-1.35-2,2.19-8-3.29-7.72-3.48.15-1.26,5.73-1.81,8.83a19.84,19.84,0,0,0,0,4.22c.07,1.68,0,3.73,2.19,4,2.94.31,2.76-2.13,2.89-4.05C145.52,266.64,145.44,265.23,145.44,262.82Z" style="fill: #6c574c"/>
        <path d="M176.32,735.94l.09,2.69-6.84,1.44c-.69-.82-1.25-.6-1.75.21-18.26,2.93-36.63,2.25-55,1.64-.55-.83-1.13-.94-1.77-.09-17.77-.33-35-3.13-51.53-10.08v-2.93c37.12,13,75.16,11.72,113.4,7.39C174.05,736.08,175.19,736,176.32,735.94Z" style="fill: #492e2c"/>
        <path d="M166.66,235l2.64-.24c4.19,53-.55,98.79-11.14,106,10.12-25.4,7.41-52.12,8.79-78.35C167.43,253.28,166.79,244.12,166.66,235Z" style="fill: #6c574c"/>
        <path d="M233.28,474.47c-3.33-2.45-1.51-5.8-1.34-8.71,1.73-28.89-11.81-50.2-39.08-60.59-8.21-3.13-16.75-5.41-25.14-8.07,0-.74.05-1.47.07-2.2,50.67,7.34,69.34,36.22,67.27,71.29C234.89,469,235,471.94,233.28,474.47Z" style="fill: #6c574c"/>
        <path d="M183.08,103.7c-4.08-6-5.72-11.25-.8-18.4,2.15-3.13,1.37-10.12.57-14.57-2-11.06,3.84-20.58,4-31,0-2,1.82-4.06,2.8-6.09,3.91,6.63-2.73,13.57.6,20.22Z" style="fill: #6c574c"/>
        <path d="M74.9,401.54c-7.36,4.14-15.1,7.73-22,12.52-16.41,11.37-24.63,27.11-23.39,47.37a12.64,12.64,0,0,1-.67,3.24c-5.16-6.48-2.91-13.63-1.22-20.34C33.43,421.35,51,409.61,71,400.5,71.92,400.06,73.57,401.16,74.9,401.54Z" style="fill: #6c574c"/>
        <path d="M4.39,659.64c-.58.88-1.16,1.75-1.73,2.63-4.35-12.42-2.29-25,.78-37,4.61-18,12.8-34.72,23.2-50.24.08,1,.17,2,.25,3C22,591.32,14.1,603.25,9.43,616.72c-4.26,12.24-5.77,24.73-6,37.52C2.74,656.21,2.76,658.06,4.39,659.64Z" style="fill: #6c574c"/>
        <path d="M26.89,578c-.08-1-.17-2-.25-3,2.07-4,4-8.21,6.24-12.15,8.45-14.64,11.93-30.16,8.79-47l2-2.4C50.72,538.32,40,558.48,26.89,578Z" style="fill: #492e2c"/>
        <path d="M43.72,513.53l-2,2.4c-3.79-11.25-7.75-22.46-11.24-33.81-.81-2.65-3.53-5.59-.65-8.68A220.54,220.54,0,0,1,43.72,513.53Z" style="fill: #6c574c"/>
        <path d="M59.52,728.82v2.93C47.9,727.58,37.16,722,28.59,712.82,39.8,716.41,48.77,724.33,59.52,728.82Z" style="fill: #6c574c"/>
        <path d="M6.28,678.31l15.81,26.08c-1,2-1.76,1.21-2.8-.13C13.24,696.45,7.6,688.47,6.28,678.31Z" style="fill: #6c574c"/>
        <path d="M145.36,276.16c1.2-2.1,2.37-.07,3.56,0,1.3,6.32,2.32,12.65,1.08,19.1-4.32.16-2,4.53-3.8,6.22C143.79,293.1,146.56,284.57,145.36,276.16Z" style="fill: #b38f76"/>
        <path d="M229.62,558a21.89,21.89,0,0,1-8.44-24.15Z" style="fill: #6c574c"/>
        <path d="M148.9,322.51c-4.83-10.52-4.83-10.52,1.32-12.12C150.23,314.48,152.23,318.78,148.9,322.51Z" style="fill: #6c574c"/>
        <path d="M244.91,586.94c-4.07-1.94-1.67-6.71-4-9.34C241.06,581.25,245.4,583.06,244.91,586.94Z" style="fill: #6c574c"/>
        <path d="M167.79,394.9c0,.73,0,1.46-.07,2.2l-6.71-.75-.27-2.13Z" style="fill: #492e2c"/>
        <path d="M160.74,394.22l.27,2.13-3.28.47-1.93-.38c0-.57,0-1.13,0-1.69l1.58-1.26Z" style="fill: #6c574c"/>
        <path d="M88.67,398.06c-.83.52-1.58,1.39-2.68.55Z" style="fill: #6c574c"/>
        <polygon points="28.29 471.49 28.27 471.21 27.79 471.36 28.29 471.49" style="fill: #6c574c"/>
        <path d="M167.82,740.28c.5-.81,1.06-1,1.75-.21Z" style="fill: #6c574c"/>
        <path d="M111.05,741.83c.64-.85,1.22-.74,1.77.09Z" style="fill: #6c574c"/>
        <path d="M128.18,544.06l1.89.11a2,2,0,0,1,.26,1.49c-2.26,2.14-2.46,4.58-.59,7.8-2.56-7.68,5.64-4.08,6.93-7.66,6.82.33,11.77-3.08,16-8,3.54-3.17,8.45-5.25,9.71-10.29,3.21-12.89,5-25.7-5.49-36.59,1-5.09,2.22-10.17.26-15.31,0-9.25-2.39-18.43-.86-27.73,5.15,2.41,2.89,7.14,2.67,10.61-.45,6.85,1.49,11.68,7,16.07,19.77,15.73,23.9,44.32,11.09,64.77-11.75,18.77-29.28,26.93-50.73,24.11-6-.79-7.15-3.21-2.23-7.1,2.07-1.64,2-2-.13-3.35-5.1-3.15-2.81-5.83.79-8.28Z" style="fill: #b38f76"/>
        <path d="M113.05,441l0,2.05q0,4.14,0,8.26c0,.69,0,1.38,0,2.07,0,2.74,0,5.49,0,8.23l-.06,2.06q-.2,36.93-.37,73.86c-2.84,4.46-.92,9.44-1.56,14.14-.29,2.1,1.1,4.92-1.83,6-2.15.78-3.65-1-5.23-2.26-27.54-21-29.57-55.24-4.65-79.47,2.2-2.15,4-4.92,7.36-5.64,1.21,5.17-2.22,10.6-.78,15,1.8,5.55,1,9.5-1.45,14.35-6.91,13.84-5,23.88,6.48,35.13V424q.18-57.71.39-115.41c0-2.72-1.07-5.73,1.22-8.15q.3,31.54.62,63.1c0,.72,0,1.44,0,2.16q0,6.64,0,13.3c0,.72,0,1.44,0,2.15,0,3.87,0,7.74,0,11.61,0,.7-.08,1.41-.13,2.11l.06,11.67-.21,2q.09,5,.16,10c0,.68,0,1.37,0,2.06Q113.06,430.87,113.05,441Z" style="fill: #b38f76"/>
        <path d="M156.27,447.91c-1.53,9.3.82,18.48.86,27.73-2.59-.31-5.91.86-6.57-3.29a5.64,5.64,0,0,0,.83-.23c.83-.37,1.29-1.52.41-1.56-5.13-.24-10.29-.26-15.43-.13-3.39.08-6.86,0-6.67-4.39.21-4.94,4.38-1.58,6.6-2.47,3.55-1.42,8.91,2.85,10.91-3.48,4.39-.55,3.19-3.91,3.32-6.61,1-1,2.49-2.39-.18-2.58-3.38-.24-6.81.45-10.22.48-12.07.09-12.07,0-11.47-12.06,5.5,1,7.08-1.79,6.48-6.69l1.73-.06c.45,2.53-1.17,6.61,3.23,6.54,5.67-.1,3-4.85,3.5-7.78l7.35-.88v-.89l-7.34-.79q0-4,.08-8.1c2.51-.75,5.65,1.06,9.07-3.5-7,0-12.71,0-18.4,0-2.93,0-5.81.21-6-4-.19-3.94,2.18-4.11,5.23-5,5.64-1.56,11.7.76,18.67-2.73L142,404.89q0-5,0-10l13.8-.11c0,.56,0,1.12,0,1.69l0,0-.89,1.71a1.55,1.55,0,0,0,.24,1.38l.09,2.46a.59.59,0,0,0,0,.89l-.12,14.18c-.18.17-.52.4-.49.52a7.52,7.52,0,0,0,.56,1.23c.21,2.3.43,4.6.64,6.9l-.75,3.3c-.14.21-.44.44-.41.6a7.87,7.87,0,0,0,.49,1.3l.74-.11c-.07,2.31-.13,4.61-.19,6.92-1.46,1.16-4.4,1.2-4.14,3.59s2.75,1.19,4.28,1.51Z" style="fill: #492e2c"/>
        <path d="M205.35,644.11c0,1.12-.09,2.25-.13,3.37-3.76,1.39-8.65-5.51-11.62,1.6L171.3,649c-.19-2.63-3.54-4.36-1.76-7.71,1-1.83,5.33-4,.34-6.55-4.24-2.21-8.39-4.18-12.62-.6-2.77,2.34-4,5.54-2.56,9.19a54.88,54.88,0,0,0,2.76,5.19l-5-.1c-1.92-4.43,3.45-14.11-8.3-11.53-.21,0-.86-1.21-1.05-1.93-1.93-7.37-6.53-5-11-3.08l-2.05-1.74c0-1,0-2-.07-3l2-1.42,8.43.31.56,1.44,1.44-1.71,6.15.07c1.45,2.88,2.82,2.79,4.12-.11l18.49-.39c7.49.57,15.07-.47,22.5,1.25,2.33,5.14,7.28,6.79,11.89,8.89-.05,2.28-.09,4.57-.13,6.85-.22.16-.63.37-.61.47A8,8,0,0,0,205.35,644.11Z" style="fill: #391d1d"/>
        <path d="M67.49,648.09c-2.66-2.83-4.36-19.16-2.29-21.93,1.21-1.62,3-1.44,4.65-1.41,11.07.2,22.14.47,33.2.72-.25,3-4.44,2.41-4.89,5.78,4.29.28,6.82,4.7,11.39,4.43.27,1.72,6,3.5,0,5.13-5.77,1.58-2.49,4.18.29,7.28Z" style="fill: #492e2c"/>
        <path d="M111,424V534.82c-11.49-11.25-13.39-21.29-6.48-35.13,2.42-4.85,3.25-8.8,1.45-14.35-1.44-4.43,2-9.86.78-15,.07-2.23.15-4.46.22-6.69a6.78,6.78,0,0,0-.08-5.32q.18-12,.34-23.9c0-.64,0-1.28,0-1.92q.18-4.26.37-8.52Z" style="fill: #492e2c"/>
        <path d="M112.67,537.55q.18-36.93.37-73.86c4.39-.63,6.89.53,6.6,5.72-.28,5,.18,10,.32,15-.06,16.73-.34,33.47,0,50.2.11,6.26-2.06,6.71-6.74,4.16A5.17,5.17,0,0,0,112.67,537.55Z" style="fill: #492e2c"/>
        <path d="M67.49,648.09h42.38c-2.78-3.1-6.06-5.7-.29-7.28,6-1.63.24-3.41,0-5.13,3.38-1.07,4.9,1.45,6.67,3.48,1,2.85,3,2.54,5.17,1.51a3,3,0,0,0,3.41,1.41l1.44-1.44.35-3.4c1.5-.76,1.6-2.09,1.42-3.53l.25-3.35,1.81-.19,2,1.75c-.27,7.49.48,14.31,10,15.38a3.68,3.68,0,0,1,.06,1.55l-3.52.83c-3-.39-6-1.22-8.93.39-18,2.67-36.11-.24-54.16.21A13.69,13.69,0,0,1,67.49,648.09Z" style="fill: #6c574c"/>
        <path d="M128.18,544.06l-3.43.68c-1.41-.33-3-.2-3.76-1.9q.08-29.21.14-58.4c.21-.7.43-1.41.64-2.12l4.83.17c3,6.29,1.42,13,1.53,19.48C128.37,516,128.19,530,128.18,544.06Z" style="fill: #492e2c"/>
        <path d="M157.46,648.55a54.88,54.88,0,0,1-2.76-5.19c-1.48-3.65-.21-6.85,2.56-9.19,4.23-3.58,8.38-1.61,12.62.6,5,2.6.62,4.72-.34,6.55-1.78,3.35,1.57,5.08,1.76,7.71l-3.32.66Z" style="fill: #492e2c"/>
        <path d="M121.13,484.44q-.07,29.2-.14,58.4c-3.35,4.72.1,10-1.17,14.94-.55,2.13-.88,3.86-3.56,3.65-2.42-.18-4.37-2.14-3.33-3.8,4-6.39-1.78-12.61.24-18.81,4.68,2.55,6.85,2.1,6.74-4.16-.29-16.73,0-33.47,0-50.2A2.44,2.44,0,0,1,121.13,484.44Z" style="fill: #b38f76"/>
        <path d="M148.55,625.9l-6.15-.08-2,.28-8.43-.31-2.24,0-17-.84c1.67-4.74,4.88-2.93,7.91-1.85l-.16-.12c3.56-3.84,8.38-1.51,12.29-1.69,12-.56,24.15.39,36.23.91,1.55.06,2.07,1.72,2.2,3.22l-18.49.39Z" style="fill: #b38f76"/>
        <path d="M116.22,639.16c-1.77-2-3.29-4.55-6.67-3.48-4.57.27-7.1-4.15-11.39-4.43.45-3.37,4.64-2.82,4.89-5.78l2.71-.12a31.17,31.17,0,0,0,22.5,5c-.08,1.12-.17,2.23-.25,3.35-2,.54-4.08,1.09-1.42,3.53-.12,1.14-.23,2.27-.35,3.4l-1.44,1.44a3,3,0,0,1-3.41-1.41c-.24-1.84.48-4.3-2.26-4.75C116.87,635.55,116.48,637.43,116.22,639.16Z" style="fill: #391d1d"/>
        <path d="M128.26,630.36a31.17,31.17,0,0,1-22.5-5l6.93-.42,17,.84q.15.72.27,1.44c0,1,0,2,.07,3Z" style="fill: #492e2c"/>
        <path d="M205.55,635.54c-4.61-2.1-9.56-3.75-11.89-8.89l6.77-.6,5.25.85C205.64,629.78,205.59,632.66,205.55,635.54Z" style="fill: #492e2c"/>
        <path d="M157.46,648.55,168,649.69c-5,4.19-14.3,4.06-19-.26a1,1,0,0,1-.28-1l3.81.05Z" style="fill: #b38f76"/>
        <path d="M142.22,648.85a3.68,3.68,0,0,0-.06-1.55c.11-2.86-1-7,3.87-6.3,4.49.62,2.44,4.65,2.65,7.39a1,1,0,0,0,.28,1Z" style="fill: #391d1d"/>
        <path d="M193.6,649.08c3-7.11,7.86-.21,11.62-1.6l-1.23,2-5.27.11Z" style="fill: #492e2c"/>
        <path d="M155.82,442.85c-1.53-.32-4,.73-4.28-1.51s2.68-2.43,4.14-3.59C155.73,439.45,155.77,441.15,155.82,442.85Z" style="fill: #6c574c"/>
        <path d="M129.77,650.07c2.91-1.61,5.93-.78,8.93-.39C135.81,651.82,132.81,651.46,129.77,650.07Z" style="fill: #b38f76"/>
        <path d="M106.9,458.3a6.78,6.78,0,0,1,.08,5.32A3.72,3.72,0,0,1,106.9,458.3Z" style="fill: #b38f76"/>
        <path d="M205.68,626.9l-5.25-.85C202.43,624.8,204.29,624.36,205.68,626.9Z" style="fill: #b38f76"/>
        <path d="M4.39,659.64c-1.63-1.58-1.65-3.43-.93-5.4C4.75,655.87,4.68,657.74,4.39,659.64Z" style="fill: #b38f76"/>
        <path d="M198.72,649.64l5.27-.11C202.27,651.39,200.51,651.35,198.72,649.64Z" style="fill: #b38f76"/>
        <path d="M155.05,429l.75-3.3c2.24,1.66,2.17,3.36.07,5.09l-.74.11C155.11,430.31,155.08,429.68,155.05,429Z" style="fill: #b38f76"/>
        <path d="M155.12,399.56a1.51,1.51,0,0,1-.23-1.38c.29-.57.58-1.14.88-1.71l0,0,1.93.38C157.27,398.13,156.91,399.52,155.12,399.56Z" style="fill: #b38f76"/>
        <path d="M155.16,418.84a7.52,7.52,0,0,1-.56-1.23c0-.12.31-.35.49-.52C155.11,417.67,155.14,418.25,155.16,418.84Z" style="fill: #6c574c"/>
        <path d="M107.25,432.48c0,.64,0,1.28,0,1.92a7.72,7.72,0,0,1-.51-1.36C106.7,432.89,107.07,432.67,107.25,432.48Z" style="fill: #b38f76"/>
        <polygon points="120.44 622.96 120.6 623.08 120.78 622.67 120.44 622.96" style="fill: #492e2c"/>
        <path d="M205.35,644.11a8,8,0,0,1-.54-1.25c0-.1.39-.31.61-.47C205.39,643,205.37,643.54,205.35,644.11Z" style="fill: #492e2c"/>
        <path d="M155.21,402.91a.59.59,0,0,1,0-.89l1.2.45Z" style="fill: #b38f76"/>
        <path d="M81.22,216.43,85,217.91h0a45.84,45.84,0,0,0,20.62,12.21l3.08,1.74v46.91l-2.61.7C99.2,258.11,86.77,239.27,79.73,218Z" style="fill: #fefefe"/>
        <path d="M105.62,230.13A45.84,45.84,0,0,1,85,217.92C93.85,218.66,100.92,222.4,105.62,230.13Z" style="fill: #6c574c"/>
        <path d="M45.58,162.7c-3-1.41-3.74-4.38-5-7C45.46,155.76,48.89,156.85,45.58,162.7Z" style="fill: #492e2c"/>
        <path d="M116.2,33.64c-2.15-1.34-4.4-2.59-4.52-6.32,4.43.25,4.59,3.19,4.62,6.22Z" style="fill: #492e2c"/>
        <path d="M214.24,88.65H204.3c3.39-1.37,6.81-3.1,10-.06Z" style="fill: #492e2c"/>
        <path d="M214.27,90.35c0,2.66-.11,5.3-2.82,7.25-.88-3.34.87-5.34,2.81-7.26Z" style="fill: #492e2c"/>
        <path d="M217.7,88.62c-.72,1.4-2,1.7-3.43,1.73h0c0-.57,0-1.13,0-1.69l.06-.06,3.41,0Z" style="fill: #492e2c"/>
        <path d="M116.3,33.54l.67.77-.77-.67Z" style="fill: #492e2c"/>
        <path d="M174.72,26.7c-1.22-.56-1.18-1.13,0-1.71h0c0,.58,0,1.16,0,1.74Z" style="fill: #492e2c"/>
        <path d="M217.71,88.63l.39-.7-.4.69Z" style="fill: #492e2c"/>
        <path d="M124.79,241.56l-.33,8.58h-4.33c-.72-1.75.71-4.11-1.54-5.41l-1,2-4.58.09c-.17-.43-.33-.85-.51-1.27l.18-10.73a13.53,13.53,0,0,0,7.26,1.73C123.66,236.18,125,238.11,124.79,241.56Z" style="fill: #391d1d"/>
        <path d="M112.51,245.53c.18.42.34.84.51,1.27l.06,27.39c-.2,1.45-.17,2.83,1.16,3.81-3,3.14-.09,7.85-2.95,11,0-11.46-.12-22.92,0-34.38C111.32,251.6,110.31,248.32,112.51,245.53Z" style="fill: #b38f76"/>
        <path d="M79.73,218c-1-.71-1.48-2-.75-2.72,1.1-1,1.5.71,2.24,1.18Z" style="fill: #fefefe"/>
        <path d="M128.39,346.54a12.38,12.38,0,0,1,0-13.67c5.8.59,4.89,5,5.09,8.82C133.62,345.38,131.85,346.76,128.39,346.54Z" style="fill: #391d1d"/>
        <path d="M174.7,26.72c0-.58,0-1.16,0-1.74,1.24.2,3.15.07,2.68,1.88C177.05,28.16,175.64,26.82,174.7,26.72Z" style="fill: #391d1d"/>
        <path d="M20,83.44l.8.77c-.17,0-.41,0-.51-.09a2.72,2.72,0,0,1-.34-.63Z" style="fill: #6c574c"/>
        <path d="M132,240.17a7.74,7.74,0,0,1-.19,1.69c-1.1,3.18,2.06,9.24-2.72,9.19-4.41-.05-1.66-6.08-2.55-9.35C127.36,237.66,129.2,237.23,132,240.17Z" style="fill: #391d1d"/>
        <path d="M152.65,537.83c-4.21,4.89-9.16,8.3-16,8l-6.34-.14a2,2,0,0,0-.26-1.49q.15-18.78.29-37.55c3.44-1.79,7.26-4.74,6.6,3-.2,2.3-1,5,1.69,8,0-6.3,0-11.7,0-17.09,0-5.78,3.87-5.93,8.2-6.08,4.93-.18,5.53,2.55,5.53,6.49C152.37,513.24,152.55,525.54,152.65,537.83Z" style="fill: #391d1d"/>
        <path d="M152.65,537.83c-.1-12.29-.28-24.59-.27-36.88,0-3.94-.6-6.67-5.53-6.49-4.33.15-8.22.3-8.2,6.08,0,5.39,0,10.79,0,17.09-2.73-3-1.89-5.72-1.69-8,.66-7.73-3.16-4.78-6.6-3q-.06-12.14-.11-24.28c4.12-1.55,8-1.51,11.94.92,4.71,2.87,9.77,5.15,14.68,7.69,10.52,10.89,8.7,23.7,5.49,36.59C161.1,532.58,156.19,534.66,152.65,537.83Z" style="fill: #492e2c"/>
        <path d="M156.87,491c-4.91-2.54-10-4.82-14.68-7.69-4-2.43-7.82-2.47-11.94-.92-1.34-6.55.91-9.23,7.93-8.55,4,.4,8.25-.9,12.38-1.44.66,4.15,4,3,6.57,3.29C159.09,480.78,157.89,485.86,156.87,491Z" style="fill: #391d1d"/>
        <path d="M138.69,365.74a44.31,44.31,0,0,1,6,0c4.26.61,4.21,3.94,4.26,7.19s-1.53,4.67-4.71,4.59c-2.29-.05-4.58,0-6.87.09-3.85.12-8.92,4.33-9.25-4.57-.3-8.35,4.4-7.73,9.72-7.49.28,0,.57,0,.86,0Z" style="fill: #492e2c"/>
        <path d="M139,380.74c2.8.3,5.83,0,8.34,1.07s1.6,4,1.48,6.18c-.15,2.52-1.89,3.25-4.14,3.26-3.42,0-6.84-.05-10.25.12-3.57.18-6-.39-6.13-4.89-.14-4.89,2.4-5.79,6.4-5.46,1.41.12,2.85,0,4.27,0Z" style="fill: #492e2c"/>
        <path d="M150.53,453.48c-.13,2.7,1.07,6.06-3.32,6.61-4.17.56-8.33,1.23-12.52,1.63-3.14.3-5.77-.65-6.07-4.33-.37-4.42,2.9-4.05,5.75-4.05C139.76,453.36,145.14,453.43,150.53,453.48Z" style="fill: #391d1d"/>
        <path d="M113.05,441q0-10.15,0-20.31c4.76-.74,7.46,1,6.23,6a17.1,17.1,0,0,0,0,8.29C120.53,440.18,117.72,441.73,113.05,441Z" style="fill: #492e2c"/>
        <path d="M142,394.86q0,5,0,10c-3.1.06-6.2.14-9.29.16-2.15,0-4-.49-4.14-3.1-.1-2.19-.89-4.79,1.07-6.36,1.54-1.24,3.48-1.13,5.26.6C137.65,398.9,139.09,392.7,142,394.86Z" style="fill: #391d1d"/>
        <path d="M119.78,371.8c.34-2.51-.74-6,3.2-5.93,5.13.14,3.2,4.47,3.39,7.21.15,2.35.87,5.9-3.05,5.8C118.18,378.75,120.49,374.34,119.78,371.8Z" style="fill: #492e2c"/>
        <path d="M119.69,357.1c.62-2.55-1-6.83,2.49-6.41,4.62.56,2.89,5.92,4,9.11.73,2.07-.63,4-3.25,3.7C118.43,363,120.53,359.2,119.69,357.1Z" style="fill: #492e2c"/>
        <path d="M126.51,387.19c-.33,2.11.68,5.26-2.6,5.33-3.87.08-4-3.19-4-6.11,0-2.6,0-5.51,3.74-5.13S126.1,385,126.51,387.19Z" style="fill: #492e2c"/>
        <path d="M125,339.94c-.51,2.56.69,6.21-2.35,6-4.86-.28-2.42-4.78-2.78-7.45-.26-2-.78-5.56,2.49-5.17C126.62,333.87,123.86,338.09,125,339.94Z" style="fill: #492e2c"/>
        <path d="M113.21,379q0-6.66,0-13.3c5.62-.62,4.64,3.45,4.62,6.66S118.87,379.71,113.21,379Z" style="fill: #492e2c"/>
        <path d="M137,428.69c-2.86,0-7.31,2.22-8-1.6-.92-5.06,4-5.71,7.94-6.36C137,423.38,137,426,137,428.69Z" style="fill: #492e2c"/>
        <path d="M113.2,392.8c0-3.87,0-7.74,0-11.61,4.75-.67,4.8,2.44,4.78,5.79S118,393.48,113.2,392.8Z" style="fill: #492e2c"/>
        <path d="M121.89,432.74c.37-3.94-2.46-11.21,1.64-11.07,6.09.2,1.77,7.14,2.55,11.06Z" style="fill: #492e2c"/>
        <path d="M113.13,406.58l-.06-11.67c4.78-.73,4.94,2.36,4.94,5.8S117.94,407.26,113.13,406.58Z" style="fill: #492e2c"/>
        <path d="M137,428.69c0-2.65-.05-5.31-.07-8l6.74-.06q0,4.05-.08,8.1Z" style="fill: #391d1d"/>
        <path d="M113.06,451.33q0-4.12,0-8.26c3.11-.11,6.47-.78,6.47,4.15S116.12,451.4,113.06,451.33Z" style="fill: #492e2c"/>
        <path d="M113.1,461.63c0-2.74,0-5.49,0-8.23,3.09-.11,6.47-.8,6.46,4.12S116.18,461.72,113.1,461.63Z" style="fill: #492e2c"/>
        <path d="M143.6,431.33c-.5,2.93,2.17,7.68-3.5,7.78-4.4.07-2.78-4-3.23-6.54Z" style="fill: #391d1d"/>
        <path d="M123.6,395.2c2.56,0,2.84,1.74,2.74,3.47-.11,2.09,1.13,5-1.81,5.85s-3.11-1.69-3-3.7S120.64,396.12,123.6,395.2Z" style="fill: #391d1d"/>
        <path d="M113.08,418.65q-.08-5-.16-10c3.46-.47,5.12.83,5.13,4.52S117.46,419.24,113.08,418.65Z" style="fill: #492e2c"/>
        <path d="M124.38,418.41c-3.06-.34-3-2.5-2.95-4.45s-.69-5,2.78-5c2.24,0,2.26,2.18,2.25,3.86C126.45,414.93,127.05,417.42,124.38,418.41Z" style="fill: #492e2c"/>
        <path d="M135.14,432.63c.6,4.9-1,7.69-6.48,6.69C127.38,433.76,129.89,431.87,135.14,432.63Z" style="fill: #391d1d"/>
        <path d="M126.48,447c-.06,2.08-.19,4-2.46,4s-2.52-1.88-2.48-3.61c0-1.92-.2-4.35,2.82-4C126.66,443.66,126.25,445.79,126.48,447Z" style="fill: #492e2c"/>
        <path d="M124.06,453.59c2.26.3,2.51,2,2.46,3.75,0,2,0,4.34-3,3.92-2.25-.31-2-2.4-2-4S121.76,453.78,124.06,453.59Z" style="fill: #492e2c"/>
        <path d="M126.6,482.49l-4.83-.17c-.06-1.39-.2-2.79-.16-4.18,0-1.64-.11-3.68,2.14-3.88,2.93-.27,2.75,2.12,2.87,4C126.71,479.69,126.61,481.09,126.6,482.49Z" style="fill: #391d1d"/>
        <path d="M121.89,432.74h4.19a11.69,11.69,0,0,1,.32,2.53c-.17,2.08.95,5.34-2.41,5.34s-2.2-3.27-2.41-5.34A11,11,0,0,1,121.89,432.74Z" style="fill: #391d1d"/>
        <path d="M113.08,274.19,113,246.8l4.58-.09c.07,7.25.11,14.5.24,21.75C117.91,271.82,117.73,274.82,113.08,274.19Z" style="fill: #492e2c"/>
        <path d="M120.13,250.13h4.33c-1.82,5.9,1.67,11.72.28,17.62-.52,2.21,1.29,6-2.7,5.94-3.15-.08-2.15-3.51-2.17-5.58C119.82,262.12,120,256.13,120.13,250.13Z" style="fill: #492e2c"/>
        <path d="M131.73,264.54c0,1.69.09,3.39,0,5.07-.12,1.9.18,4.38-2.78,4.17-2.24-.16-2.18-2.23-2.22-3.9-.07-3.66-.11-7.33,0-11,0-1.89-.37-4.46,2.37-4.6s2.58,2.42,2.66,4.34S131.71,262.56,131.73,264.54Z" style="fill: #492e2c"/>
        <path d="M138.62,264.73c-1.29,2.36,2.57,8.35-2.51,8.3-4.26,0-2.16-6-2.66-9.44a7,7,0,0,1,0-2.54c.54-2.42-1.6-6.68,2.77-6.61,3.51.06,2,3.94,2.34,6.24A30.72,30.72,0,0,1,138.62,264.73Z" style="fill: #492e2c"/>
        <path d="M145.44,262.82c0,2.41.08,3.82,0,5.23-.13,1.92.05,4.36-2.89,4.05-2.2-.22-2.12-2.27-2.19-4a19.84,19.84,0,0,1,0-4.22c.55-3.1-1.67-8.68,1.81-8.83C147.63,254.86,144.09,260.86,145.44,262.82Z" style="fill: #492e2c"/>
        <path d="M130.33,545.66l6.34.14c-1.29,3.58-9.49,0-6.93,7.66C127.87,550.24,128.07,547.8,130.33,545.66Z" style="fill: #f1c68f"/>
        <path d="M155.05,429c0,.64.06,1.27.08,1.9a7.87,7.87,0,0,1-.49-1.3C154.61,429.48,154.91,429.25,155.05,429Z" style="fill: #6c574c"/>
        <path d="M148.68,648.39c-.21-2.74,1.84-6.77-2.65-7.39-4.85-.67-3.76,3.44-3.87,6.3-9.57-1.07-10.32-7.89-10-15.38,4.5-1.91,9.1-4.3,11,3.07.19.72.84,2,1.05,1.93,11.75-2.58,6.38,7.1,8.3,11.53Z" style="fill: #492e2c"/>
        <path d="M148.55,625.9l4.12-.11C151.37,628.69,150,628.78,148.55,625.9Z" style="fill: #6c574c"/>
        <path d="M140.4,626.1l2-.28L141,627.54Z" style="fill: #6c574c"/>
        <path d="M130,627.21q-.12-.72-.27-1.44l2.24,0Z" style="fill: #6c574c"/>
        <path d="M116.22,639.16c.26-1.73.65-3.61,2.91-3.24,2.74.45,2,2.91,2.26,4.75C119.22,641.7,117.25,642,116.22,639.16Z" style="fill: #492e2c"/>
        <path d="M126.59,637.24c-2.66-2.44-.62-3,1.42-3.53C128.19,635.15,128.09,636.48,126.59,637.24Z" style="fill: #492e2c"/>
      </g>
    </g>
  </g>
</svg>
