<?xml version="1.0" encoding="utf-8"?>
<!-- Generator: Adobe Illustrator 25.2.1, SVG Export Plug-In . SVG Version: 6.00 Build 0)  -->
<svg version="1.1" id="Camada_1" xmlns="http://www.w3.org/2000/svg" xmlns:xlink="http://www.w3.org/1999/xlink" x="0px" y="0px"
	 viewBox="0 0 988.7 949.6" style="enable-background:new 0 0 988.7 949.6;" xml:space="preserve">
<style type="text/css">
	.st0{fill:#04032A;}
	.st1{fill:#CD0416;}
	.st2{fill:#F7F7F8;}
	.st3{fill:#D6D317;}
</style>
<g id="Camada_2_1_">
	<g id="Camada_1-2">
		<g>
			<path class="st0" d="M418.2,0h165.2c5.8,4.5,10.9,11.5,17.5,13.2C718.1,43.4,813.4,105.7,883.6,205
				c-43.9,29.6-86.4,61.5-132,88.3c-42.1,24.8-87.4,44.2-131.3,66c-2.2-17.4-2.2-35.4-7.1-52c-7.6-25.8-28-33.6-50.3-18.5
				c-17,11.5-33.5,25.7-45.4,42.2c-23.1,32.1-42.9,66.6-64.1,100.1c-3.7-9-7.4-18-11.1-27.1c-9.4-23.4-24.7-33.2-52.1-33.1
				s-43,9.8-51.6,33.6c-11.4,31.3-22.2,62.9-33.2,94.4L274,509.6V371.9h-51.5c-1,55.9,0.7,110.6-5.3,165.9
				c-7.9-6.4-12.3-13.1-14.4-20.5c-7.3-25.8-12.2-52.4-21.2-77.6c-6.9-19.4-15.9-39.2-28.7-54.9c-17.4-21.3-42.8-20-67-11.5
				c-19.3,6.8-29.6,21.4-29.7,41.9c-0.3,53-0.4,106.1,0.3,159.1c0.1,4.5,7.3,8.8,11.1,13.2C57,594.7,46.5,601.9,36,609.1
				c0.4,1.3,0.8,2.7,1.2,4L171,571.1c4.7,3.5,9.2,7.3,14.2,10.4c32.1,19.9,89.1,5.7,88.8-42.8l20.8-4.9l-14.9,53.2
				c14.3,0,26.1-0.9,37.7,0.2c12.5,1.2,18.5-3.1,22.1-15.5c5.9-20.7,13.9-40.7,21-61l54.7-16.6l5.8,10.7l-41.7,151.5
				c-20.2,14.4-40.3,28.9-60.5,43.3C263,739.2,207,778.9,151.1,818.4c-2.7-2.8-5.3-5.8-8.1-8.5C-4.9,667.2-53.1,428.8,70.6,228.7
				C146,106.7,257.3,35.1,397.5,7.4C404.6,6,411.3,2.5,418.2,0z M302.7,117c-12.2,11-22.7,24.3-36.4,31.6
				c-13.5,7.3-30.3,8.6-42.5,11.8c12.7,5.2,32.3,7.4,40.6,18.3c7.7,10.1,3.4,29.5,4.7,50.5c15.9-33.2,35.6-59,71.6-70.1
				C307.2,147.1,306.1,145.7,302.7,117z M613.8,200.4c14.2,8.9,30.7,13.6,36,24c5.8,11.5,1.3,28.2,1.3,39.3l62.1-66.7
				c-28.8-3.2-25-26-25-47.7C673.2,181.6,649,197.8,613.8,200.4L613.8,200.4z M327.1,243l-11,0.6c-4.3,9.8-10.7,19.5-11.8,29.6
				c-0.4,4,11.6,13.3,17.4,12.8c6.9-0.6,19-9.7,18.6-14C339.1,262,331.9,252.7,327.1,243z M422.3,85.1c-11.6-9.9-19.6-21.8-26.1-21
				c-8,1-14.7,12.5-22,19.5c6.6,6.8,12.8,18.2,20,19S409.9,93.3,422.3,85.1z M572.8,71.4c-9.4,12-20,19.5-19.9,26.9
				c0.1,7.7,10.5,15.2,16.5,22.7c7.6-6.6,20.3-12.5,21.5-20.1C592,93.6,581.3,84.3,572.8,71.4z M461,238.5
				c8.7-12.4,19.5-21.3,18.2-27.8c-1.6-8.3-13-14.7-20.2-21.9c-6.3,7.4-17.1,14.6-17.6,22.4C441,218.4,451.6,226.3,461,238.5z
				 M554.5,268.8c5.3-7.6,11.7-12.7,11.2-17c-0.6-4.6-7.7-8.4-11.9-12.6c-4,4.4-10.9,8.6-11.3,13.3
				C542,256.7,548.8,261.6,554.5,268.8z M417,309.5c7.5,5.9,12.2,12.4,16.5,12.1c4.5-0.3,8.5-7.1,12.8-11.1c-4-4.2-7.6-11.3-12-11.9
				C430,298,424.9,304.2,417,309.5z"/>
			<path class="st1" d="M988.7,157.4c-1.9,2.3-4.5,4.4-5.5,7c-17.1,42.8-34.1,85.7-51,128.7c-4.3,6.5-9.1,12.7-12.7,19.5
				c-16.4,30.6-35.4,59-64.6,79.2c-36.8-36.4-86.4-25.7-103.3,22.5c-9.5,27.1-18.9,54.3-28.3,81.5l-22.6,13
				c-6.8-28.3-21.7-49.1-51.9-55.5l37.9-31.6l3.5-3l35.1-25.2l-2.5-4.6L690.5,399c-0.6-8.3-1.2-16.6-2.1-28.2h-88.6
				c0.2-0.9,1.2-1.5,2.2-1.3c0,0,0,0,0,0l18.4-10.3c43.9-21.8,89.2-41.2,131.3-66c45.5-26.8,88.1-58.7,132-88.3
				c27.3-23.5,54.5-47,82-70.3c7.2-6.1,14.9-14.7,23.1-0.9L988.7,157.4z"/>
			<path class="st2" d="M274,538.7c0.4,48.5-56.6,62.7-88.8,42.8c-5-3.1-9.5-6.9-14.2-10.4c-3.2-4.8-6.4-9.6-9.7-14.5
				C150,518.4,138.9,480.1,127,442c-2.6-8.4-8.2-15.8-12.3-23.7l-6.4,2.1v155.8c-4,3.5-7.5,9.3-11.9,10.2c-9.3,1.7-19,0.8-28.6,1
				c-3.9-4.4-11.2-8.8-11.2-13.2c-0.8-53-0.7-106.1-0.3-159.1c0.1-20.5,10.4-35.1,29.7-41.9c24.2-8.5,49.6-9.8,67,11.5
				c12.8,15.7,21.8,35.5,28.7,54.9c9,25.2,13.9,51.8,21.2,77.6c2.1,7.4,6.6,14.2,14.4,20.5c6-55.2,4.3-110,5.3-165.9H274v137.8
				V538.7z"/>
			<path class="st3" d="M620.4,359.3L602,369.6c-0.3-16-6.2-28.5-23.7-29.8c-16.3-1.3-49.6,28.9-54,47.2c-5.1,7.5-10.1,15-15.2,22.5
				L472.4,472l-4,10.1c-10.1,26.8-20.2,53.6-30.4,80.4l-14.7,57.3c-1.8,21-3.6,42.1-5.4,63.1c0.7,10.2-0.1,20.9,2.5,30.7
				c6.1,23,21.1,28.5,41.3,15.8c7.1-4.5,14.8-9.5,19.2-16.3c22.3-34.1,43.7-68.8,65.4-103.3l9-4.1c-26.1,45-50.8,90.8-78.9,134.5
				c-10.5,16.3-27.8,29.5-44.5,40.3c-22.1,14.3-40.9,6.9-48.7-18.5c-5.1-16.6-5.7-34.6-8.4-51.9l4.5-53.8l41.7-151.5
				c10.8-24.6,21.7-49.1,32.5-73.7c21.2-33.5,40.9-68,64.1-100.1c11.9-16.5,28.4-30.8,45.4-42.2c22.3-15.1,42.7-7.3,50.3,18.5
				C618.2,323.9,618.2,341.9,620.4,359.3z"/>
			<path class="st2" d="M453.6,431.1c-10.9,24.6-21.7,49.1-32.5,73.7l-5.8-10.7l-12.6-37c-3.4-11.1-6.8-22.2-10.2-33.3l-4.6,0.5
				L375,468.1c-4.8,14.2-9.6,28.4-14.4,42.6c-7.1,20.3-15.1,40.4-21,61c-3.5,12.4-9.6,16.6-22.1,15.5c-11.6-1.1-23.4-0.2-37.7-0.2
				c5.3-18.9,10.1-36,14.9-53.2l10.7-34.9c11-31.5,21.8-63,33.2-94.4c8.7-23.8,24.2-33.5,51.6-33.6s42.8,9.7,52.1,33.1
				C446.2,413,449.9,422.1,453.6,431.1z"/>
			<path class="st1" d="M379.4,656.3l-4.5,53.8L158.6,825.7l-7.5-7.2C207,778.8,263,739.2,318.9,699.6
				C339.1,685.2,359.2,670.7,379.4,656.3z"/>
			<path class="st2" d="M302.7,117c3.4,28.7,4.5,30.1,38.1,42.1c-36,11.1-55.7,36.9-71.6,70.1c-1.3-21,3-40.3-4.7-50.5
				c-8.3-10.9-27.9-13.1-40.6-18.3c12.2-3.1,29-4.5,42.5-11.8C280,141.2,290.5,128,302.7,117z"/>
			<path class="st2" d="M613.8,200.4c35.2-2.5,59.4-18.8,74.4-51.1c0,21.7-3.8,44.5,25,47.7l-62.1,66.7c0-11.1,4.5-27.8-1.3-39.3
				C644.4,214,627.9,209.2,613.8,200.4z"/>
			<path class="st1" d="M161.4,556.6c3.2,4.8,6.4,9.6,9.7,14.5c-44.6,14-89.2,28-133.8,42.1c-0.4-1.3-0.8-2.7-1.2-4
				c10.5-7.2,21-14.4,31.6-21.6c9.6-0.2,19.4,0.7,28.7-1c4.4-0.8,8-6.6,11.9-10.2L161.4,556.6z"/>
			<path class="st1" d="M402.7,457.1l12.6,37l-54.7,16.6c4.8-14.2,9.6-28.4,14.4-42.6L402.7,457.1z"/>
			<path class="st2" d="M327.1,243c4.8,9.7,12,19,13.1,29.1c0.5,4.3-11.6,13.4-18.6,14c-5.7,0.5-17.8-8.8-17.4-12.8
				c1-10.2,7.5-19.8,11.8-29.6L327.1,243z"/>
			<path class="st2" d="M422.3,85.1c-12.4,8.3-20.8,18.2-28.1,17.4s-13.4-12.2-20-19c7.3-7,14-18.5,22-19.5
				C402.6,63.2,410.7,75.1,422.3,85.1z"/>
			<path class="st2" d="M572.8,71.4c8.5,13,19.2,22.2,18,29.5c-1.2,7.7-13.8,13.5-21.5,20.1c-5.9-7.6-16.3-15.1-16.5-22.7
				C552.8,90.9,563.4,83.3,572.8,71.4z"/>
			<path class="st2" d="M461,238.5c-9.4-12.2-20-20.1-19.6-27.2c0.5-7.8,11.3-15,17.6-22.4c7.2,7.2,18.5,13.6,20.2,21.9
				C480.5,217.3,469.7,226.1,461,238.5z"/>
			<path class="st1" d="M305.6,498.8l-10.7,34.9l-20.8,4.9c0-9.7,0-19.4,0-29.1L305.6,498.8z"/>
			<path class="st2" d="M554.5,268.8c-5.7-7.3-12.5-12.1-12.1-16.3c0.4-4.7,7.3-8.9,11.3-13.3c4.2,4.2,11.3,7.9,11.9,12.6
				C566.2,256.1,559.8,261.3,554.5,268.8z"/>
			<path class="st2" d="M417,309.5c7.9-5.3,13-11.4,17.3-10.9c4.4,0.6,8,7.6,12,11.9c-4.2,4-8.3,10.8-12.8,11.1
				C429.2,321.9,424.5,315.3,417,309.5z"/>
			<path class="st0" d="M158.6,825.7l216.3-115.6c2.6,17.3,3.3,35.3,8.4,51.9c7.8,25.4,26.6,32.8,48.7,18.5
				c16.7-10.8,33.9-24,44.5-40.3c28.2-43.6,52.8-89.5,78.9-134.5l21.8-17.8c20.9-0.3,41.7-0.6,62.6-0.9
				c31.2-0.5,51.8-16.7,58.2-47.2c2.1-10.1,1.9-20.7,2.7-31.1l22.6-13c-9,29.8-17.9,59.5-27.5,91.2c14.6,0,26.4-1,38,0.2
				c12.7,1.3,18.3-3.4,22.1-15.5c12.9-41.2,26.8-82.2,40.6-123.1c2-6.1,5.7-11.6,8.6-17.4l6,0.3l53,154.1H919l-64.2-193.8
				c29.1-20.2,48.2-48.6,64.6-79.2c3.7-6.8,8.5-13,12.7-19.5c55.8,135.3,50.7,268.9-17,398.1c-71,135.5-186.1,215.6-333.7,248.1
				c-64.2,14.2-130.1,13.5-194.9-1.2c-27-6.1-55.1-10.2-80.2-21.1C252.9,893.8,202.5,864.7,158.6,825.7z M524.5,870.7
				c18.8-27.4,36.3-56.2,71.6-67.1c-23-4.8-38.4-14.8-38.6-41.9c-14.8,29-40.3,39.1-69.4,43.6C530.7,822.4,530.7,822.4,524.5,870.7z
				 M354.7,795.7c-4,9-10.8,18.7-11.7,28.8c-0.4,4.5,10.6,13.2,17.3,14.2c5.3,0.8,15.3-6,17.4-11.5
				C383,812.9,376.3,802.2,354.7,795.7L354.7,795.7z M590.2,695.1c9.2-11.9,19.6-19.5,19.3-26.6c-0.3-7.6-10.8-14.7-16.8-22.1
				c-7.3,6.8-19,12.7-20.7,20.6C570.6,673.5,581.3,682.4,590.2,695.1z M792.9,762.3c-12.8-10.6-20.8-22-27.1-21.2
				c-7.8,1-19.1,11.8-19.8,19.2c-0.6,6.3,10.8,18.2,18.4,19.6C770.8,781.2,779.5,771.1,792.9,762.3z M724,684.3
				c-6.8-6.1-11.3-13.1-15.7-13.1s-12.2,6.7-12.6,11c-0.4,4.1,6.3,11.8,10.8,12.5S716.3,689.2,724,684.3L724,684.3z M645,854.4
				c5.9-7.4,12.5-12.1,12.3-16.5c-0.3-4.5-7.2-8.6-11.2-12.8c-4.2,4-11.2,7.6-11.8,12C633.7,841.5,639.8,846.7,645,854.4z
				 M439.8,852c-5.4,7.2-12,12.2-11.7,16.6s7.5,8.5,11.6,12.8c4.2-4.2,11.4-8.2,11.7-12.7S445.2,859.3,439.8,852z"/>
			<path class="st2" d="M700.6,508.7c-0.8,10.4-0.6,21-2.7,31.1c-6.4,30.4-27,46.7-58.2,47.2c-20.8,0.3-41.7,0.6-62.6,0.9H467
				c-20.9,4.4-22.4-13.5-29.1-25.3l30.4-80.4c1.6,4.2,3.5,8.3,4.9,12.6c15,46.4,15,46.4,64.3,42.4c30.6,0.3,61.2,0.5,91.8,1.1
				c12.7,0.2,19.6-6.8,17-17.8c-1.5-6.4-10.3-15-16.6-15.7c-17.3-1.9-35-0.1-52.6,0.2c-31.5,0.7-54-12.5-65.9-42.3
				c-0.7-17.7-1.5-35.4-2.3-53.2l15.2-22.4c22.5-17.9,49.7-13.5,75.5-16.1h88.6c0.8,11.5,1.5,19.8,2.1,28.1l-0.3,19.6l-3.5,3
				l-60.7,0.3c-15.4-0.4-30.9-1.2-46.3-0.9c-16,0.3-21.9,8.3-16,23.8c5.6,3,11.1,8.5,16.8,8.7c22.7,0.8,45.5,0,68.3-0.3
				C678.9,459.6,693.8,480.4,700.6,508.7z"/>
			<path class="st2" d="M854.8,391.8L919,585.6h-54.9l-53-154.1l-6-0.3c-2.9,5.8-6.5,11.4-8.6,17.4c-13.8,41-27.7,81.9-40.6,123.1
				c-3.8,12.1-9.4,16.8-22.1,15.5c-11.6-1.2-23.4-0.2-38-0.2c9.5-31.7,18.5-61.5,27.5-91.2c9.4-27.2,18.8-54.4,28.3-81.5
				C768.4,366.1,818,355.3,854.8,391.8z"/>
			<path class="st0" d="M625.9,421.8l60.7-0.3l-37.9,31.6c-22.8,0.2-45.6,1.1-68.3,0.3c-5.7-0.2-11.2-5.6-16.8-8.7L625.9,421.8z"/>
			<path class="st0" d="M599.8,370.9c-25.8,2.6-53-1.7-75.5,16.1c4.4-18.3,37.7-48.5,54-47.2c17.5,1.4,23.4,13.8,23.7,29.8
				C601,369.4,600,369.9,599.8,370.9C599.8,370.8,599.8,370.8,599.8,370.9z"/>
			<path class="st0" d="M690.1,418.6l0.3-19.6l32.2-10.3l2.5,4.6L690.1,418.6z"/>
			<path class="st0" d="M161.4,556.6l-53.2,19.7V420.5l6.4-2.1c4.2,7.9,9.7,15.3,12.3,23.7C138.9,480.1,150,518.4,161.4,556.6z"/>
			<path class="st1" d="M467,587.8h110.1l-21.8,17.8l-9,4.1c-6.3,3.3-12.7,6.4-18.9,9.9c-36.5,21-73,42.1-109.5,63.2
				c1.8-21,3.6-42.1,5.4-63.1C437.9,609.1,452.5,598.5,467,587.8z"/>
			<path class="st0" d="M417.9,682.9c36.5-21.1,73-42.2,109.5-63.2c6.2-3.5,12.6-6.6,18.9-9.9c-21.7,34.5-43,69.2-65.4,103.3
				c-4.4,6.8-12.1,11.8-19.2,16.3c-20.2,12.7-35.2,7.2-41.3-15.8C417.8,703.8,418.6,693.1,417.9,682.9z"/>
			<path class="st0" d="M537.6,537.1c-49.4,4.1-49.3,4.1-64.3-42.4c-1.4-4.3-3.2-8.4-4.9-12.6c1.3-3.4,2.7-6.8,4-10.1l39-9.4
				c11.9,29.8,34.4,43,65.8,42.3L537.6,537.1z"/>
			<path class="st1" d="M511.4,462.6l-39,9.4l36.7-62.6C509.9,427.1,510.6,444.9,511.4,462.6z"/>
			<path class="st0" d="M467,587.8c-14.6,10.6-29.2,21.3-43.8,31.9l14.7-57.3C444.7,574.4,446.2,592.2,467,587.8z"/>
			<path class="st0" d="M402.7,457.1l-27.7,11l12.9-43.8l4.6-0.5C395.9,434.9,399.3,446,402.7,457.1z"/>
			<path class="st2" d="M524.5,870.7c6.2-48.4,6.2-48.4-36.4-65.3c29-4.6,54.6-14.7,69.4-43.6c0.2,27,15.6,37,38.6,41.9
				C560.8,814.5,543.3,843.3,524.5,870.7z"/>
			<path class="st2" d="M354.7,795.7c21.6,6.5,28.3,17.2,23,31.5c-2.1,5.6-12,12.3-17.4,11.5c-6.7-1-17.7-9.7-17.3-14.2
				C343.9,814.4,350.7,804.7,354.7,795.7z"/>
			<path class="st2" d="M590.2,695.1c-8.8-12.7-19.6-21.7-18.3-28.1c1.7-8,13.3-13.8,20.7-20.6c6,7.3,16.5,14.5,16.8,22.1
				C609.8,675.6,599.4,683.2,590.2,695.1z"/>
			<path class="st2" d="M792.9,762.3c-13.4,8.8-22.1,18.9-28.5,17.7c-7.6-1.5-19.1-13.3-18.4-19.6c0.7-7.5,12-18.2,19.8-19.2
				C772.1,740.2,780,751.7,792.9,762.3z"/>
			<path class="st2" d="M724,684.3c-7.7,4.9-13.1,11.1-17.4,10.4s-11.2-8.5-10.8-12.5c0.4-4.3,8-11,12.6-11S717.1,678.2,724,684.3z"
				/>
			<path class="st2" d="M645,854.4c-5.2-7.8-11.3-12.9-10.7-17.2c0.6-4.5,7.6-8.1,11.8-12c4,4.2,11,8.3,11.2,12.8
				C657.5,842.3,650.9,847,645,854.4z"/>
			<path class="st2" d="M439.8,852c5.4,7.3,12,12.3,11.6,16.7s-7.5,8.5-11.7,12.7c-4.1-4.2-11.3-8.3-11.6-12.8
				S434.3,859.3,439.8,852z"/>
			<path class="st1" d="M537.6,537.1l39.6-32.2c17.6-0.3,35.3-2.1,52.6-0.2c6.3,0.7,15.1,9.3,16.6,15.7c2.6,11-4.3,18-17,17.8
				C598.8,537.6,568.2,537.4,537.6,537.1z"/>
			<path class="st1" d="M625.9,421.8l-62.3,22.9c-5.9-15.5,0.1-23.5,16-23.8C595,420.6,610.5,421.5,625.9,421.8z"/>
		</g>
	</g>
</g>
</svg>
