<svg xmlns="http://www.w3.org/2000/svg" viewBox="0 0 1133.84 856.01">
  <g id="Camada_2" data-name="Camada 2">
    <g id="Camada_1-2" data-name="Camada 1">
      <g>
        <path d="M444.31,521.45c-32,9.78-63.87,19.86-96,29.17-10.72,3.1-22.13,6.39-33,5.79-21.27-1.16-37.5-19.1-43.1-44.72q-45.4-207.4-90.63-414.85c-3.21-14.71-6.45-29.42-9.46-44.17C166,22.59,171,12.26,197.29,0H818.65l24.69,13.46c-16.49,18.12-34,35.45-49.29,54.51-61.7,76.76-122.64,154.13-184.11,231.08-11.66,14.59-24.46,28.28-40,46.14-5.59-7.65-9-13.64-13.67-18.53C507,274.41,456.5,223.32,396.68,183,368.39,163.91,338,148,308,131.41c-4.2-2.32-11,.14-16.66.39,1.88,5.31,3.74,10.63,5.69,15.92.25.65,1,1.09,1.5,1.68C327,185.52,356.46,220.89,383.62,258c36.88,50.32,58.12,107.17,61.27,169.69C446.46,458.82,444.61,490.17,444.31,521.45ZM662.73,168.66c.8-54.75-41.73-99.12-95.76-99.92-52.75-.77-96.82,42.32-97.73,95.57-.93,54.83,40.89,100,93.43,100.9C618,266.16,661.93,223.8,662.73,168.66Z" style="fill: #014393"/>
        <path d="M0,618.72c1.5.13,3.08.64,4.49.35,22.39-4.7,34.59,5.09,43.12,25.77,9.69,23.47,22.88,45.5,35.76,70.5v-95.5H113V764.47c-9.38,0-18.73.6-27.92-.34-3.08-.31-6.82-4-8.44-7.08-14.33-27.33-28.24-54.88-42.31-82.34-1.15-2.24-2.57-4.34-4.94-8.3v97.35H0Z" style="fill: #014393"/>
        <path d="M0,813.62c6.17-7.84,11.41-17.44,23.49-16.21,5.17.52,10.14,2.89,18.1,5.3C29.47,805,19.16,804.25,13,808.9c-8.28,6.21-7.4,17.49-3.87,27.24,4,11.12,11,12.75,28.66,7.24L39.39,846c-3.58,2.24-6.88,5.55-10.77,6.55-14.45,3.72-22-5.67-28.62-16.25Z" style="fill: #014393"/>
        <path d="M444.31,521.45c.3-31.28,2.15-62.63.58-93.81C441.74,365.12,420.5,308.27,383.62,258,356.46,220.89,327,185.52,298.55,149.4c-.47-.59-1.25-1-1.5-1.68-1.95-5.29-3.81-10.61-5.69-15.92,5.62-.25,12.46-2.71,16.66-.39C338,148,368.39,163.91,396.68,183,456.5,223.32,507,274.41,556.26,326.66c4.62,4.89,8.08,10.88,13.67,18.53,15.55-17.86,28.35-31.55,40-46.14C671.41,222.1,732.35,144.73,794.05,68c15.32-19.06,32.8-36.39,49.29-54.51l18.91,22.1c-42.66,85.52-86,170.75-117.75,261.15-16.62,47.34-29.34,95.67-32.64,146Q614.43,471.81,517,500.81C492.86,508,468.55,514.58,444.31,521.45Z" style="fill: #fdd202"/>
        <path d="M711.86,442.75c3.3-50.37,16-98.7,32.64-146,31.74-90.4,75.09-175.63,117.75-261.15,2.82,5.68,6.29,11.14,8.34,17.09q44.65,129.84,88.76,259.87a86.34,86.34,0,0,1,4.39,28.74c-.33,18.52-14.1,32.16-37,38.9q-90,26.49-180.07,52.9C735.09,436.45,723.46,439.53,711.86,442.75Z" style="fill: #014393"/>
        <path d="M825.32,764.09h-33c0-16.36,0-32.42,0-48.47,0-7.18-.08-14.36-.42-21.52-.4-8.45-3.31-14.84-13.42-14.42-9.29.4-18.36,8.05-18.43,16.17-.18,20.39,0,40.78-.09,61.18,0,2.2-.34,4.4-.56,7.05H728.15V654.76h25.48l2.44,10c11.33-4.39,22.2-10.44,33.8-12.6,13.24-2.47,24.12,4.27,31.12,16.61,6.09-4.41,11.41-9.14,17.49-12.5,22.54-12.47,47.9-1.15,50,24.32,2.23,27.32.5,55,.5,83.21H857.5c0-14.38,0-28.57,0-42.77,0-7.93.1-15.86-.13-23.79-.25-8.64-1-17.27-12.72-17.59a18.51,18.51,0,0,0-19.31,18.61C825.29,719.81,825.32,741.32,825.32,764.09Z" style="fill: #014393"/>
        <path d="M912.18,804.89c-.18-2.21-.47-4-.47-5.86,0-47.89,0-95.79,0-144.39h25.94l4,9.82c15.76-12.4,32.57-18.24,50.72-8.15,19.09,10.61,23.86,29.41,23.5,49.42-.19,10.36-1.55,21.29-5.2,30.9-11.27,29.64-37.72,37.76-66,21.1v47.16Zm71.16-95c-1.34-7.75-1.84-13.8-3.51-19.51-2.73-9.37-9.79-13.07-19.17-12-10.08,1.2-15.94,8-16,18.08-.07,8.67.56,17.4-.17,26-.79,9.39,2.11,15,11.77,17.19,9.38,2.11,17-.34,21-8.78C980.49,724,981.63,716,983.34,709.85Z" style="fill: #014393"/>
        <path d="M1026.33,709.72c-.21-33.6,21.81-57.64,53.16-58,31.15-.4,54.09,23.64,54.35,57,.25,33.88-22.61,58.89-53.82,58.88C1049.06,767.5,1026.54,743.25,1026.33,709.72Zm74.84.92c-1.39-7.32-1-14.64-4.2-19.48-3.74-5.58-10.21-11.24-16.48-12.73-8.41-2-14.76,4.32-17.64,12.55-4.5,12.86-5.32,26.31,1.09,38.3,2.82,5.27,10.48,10.55,16.23,10.89,5.12.3,12.33-5.09,15.55-10C1099.38,724.62,1099.61,716.82,1101.17,710.64Z" style="fill: #014393"/>
        <path d="M240.11,709.63c-.13,33.18-23.08,57.88-53.82,57.9-31.23,0-54.47-25.29-54-58.82s23.05-57.21,54.37-57C217.68,651.86,240.25,676.31,240.11,709.63Zm-32.48.47c-1.71-7.12-1.94-15.26-5.64-21.26-3.05-5-10.18-10.13-15.55-10.19s-13.17,4.85-15.81,9.78a43.19,43.19,0,0,0,.11,42.16c2.68,4.89,10.49,9.72,15.86,9.61s12.13-5.4,15.47-10.32C205.6,724.68,205.8,717.22,207.63,710.1Z" style="fill: #014393"/>
        <path d="M463,709.91c-.17,33.43-23,57.9-53.74,57.59-31.5-.31-53.67-24.82-53.42-59.06.25-33.43,23-57.16,54.33-56.75S463.18,676.07,463,709.91Zm-74.65-.62c1.61,7.28,1.43,14.93,4.94,20.06s10.59,10.53,16.36,10.83c5.17.27,13.09-5,15.6-10a45.16,45.16,0,0,0-.32-42.25c-2.47-4.69-9.93-9.51-15-9.36-5.56.18-12.82,4.79-15.92,9.65C390.26,694.16,390,702.35,388.34,709.29Z" style="fill: #014393"/>
        <path d="M644.42,718.35c6.63,24.17,19.56,28.32,52.85,17.89l9.67,17.38c-16.72,15.25-46.74,18.11-67.61,6.56-19.93-11-30.75-36.34-26.28-61.5,4.23-23.84,20.4-42,41-46,38.36-7.47,66.67,25.64,55.19,65.66H644.42Zm37.9-20.89c.64-13.34-3.72-19.43-14.67-20.74-12.12-1.45-20.19,5.68-23,20.74Z" style="fill: #014393"/>
        <path d="M621.58,646.73H583V764H549.61V647.14H510.45V619.77H621.58Z" style="fill: #014393"/>
        <path d="M242.7,655.1c32.07-2.92,32.14-2.94,39.93,25.69,5.14,18.9,10,37.87,15.69,59.37,2-6.45,3.39-10.73,4.57-15.06,5.61-20.73,11.47-41.4,16.57-62.25,1.68-6.89,4.74-9.3,11.63-8.72,6.7.56,13.48.12,21,.12-.57,3.49-.65,6.06-1.42,8.41-10.17,31.15-20.58,62.23-30.53,93.45-1.88,5.9-4.23,8.33-10.86,8.39-29.77.28-29.76.52-39.12-27.4C261.1,710,252,682.9,242.7,655.1Z" style="fill: #014393"/>
        <path d="M546.93,830.74v20.59l-2.2,1.41c-1.52-1.85-4.33-3.67-4.38-5.55-.35-16.07-.2-32.15-.2-49.51,13.06,1.81,27.7-5.25,35,9.81,4.23,8.69,0,16.88-10.34,21.31l12.22,22.31c-9.24,3.59-9.29-4.84-12.49-8.68C560.11,837.07,559.84,826.05,546.93,830.74Zm.69-5.6c7.49-2.26,14.18-3.44,19.82-6.53,1.65-.9,1.61-9.9.09-10.66-5.8-2.88-12.52-3.92-19.91-5.92Z" style="fill: #014393"/>
        <path d="M102,809.71c-1.38,16.17,1.12,29.8-1.52,42.76L95.84,852V797.71c11.49.7,11.62,11.59,16.18,17.92,5,6.94,8.77,14.76,14.79,25.15V798.3l3.67-1c1.07,2.51,3,5,3.07,7.54.29,15.09.14,30.19.14,49.11-4.9-3.51-8.89-5-10.68-7.88C116.1,835.05,109.9,823.54,102,809.71Z" style="fill: #014393"/>
        <path d="M639.51,808.65v43.21l-2.86,1c-1.24-2.16-3.52-4.3-3.56-6.48-.31-15.79-.17-31.58-.17-50.67,17,10.15,19.25,28.33,31.53,41.43,0-12.22-.16-22.84.16-33.44,0-2,2.07-3.85,3.19-5.78,1.27,1.79,3.62,3.56,3.65,5.37.29,16.12.17,32.25.17,49.31-12.69-1.22-12.72-12.5-17.54-19.05C649.11,826.79,645.49,819,639.51,808.65Z" style="fill: #014393"/>
        <path d="M250.34,798.12c13.55-.26,27.3-2.76,35,11a31.61,31.61,0,0,1-.83,33.28c-8,12.88-21.26,9.93-34.14,9.59Zm7.17,6.5V846.4c18.29.66,24.91-6,24.19-23.26C281.08,808.15,274.34,802.92,257.51,804.62Z" style="fill: #014393"/>
        <path d="M404.56,841.9c4.71,1.79,9.46,5.09,14.11,4.94,4.36-.14,8.6-3.93,12.89-6.12-2.34-3.74-4.17-8-7.19-11.06-2.21-2.26-6-3-9.06-4.41-7.53-3.41-13-8.34-10.34-17.44,2.54-8.73,9.68-11.43,17.79-10.33,4.82.65,9.36,3.42,14,5.24l-1.65,4.2c-3.47-1.19-7.05-3.56-10.4-3.26-4.35.39-8.5,2.9-12.74,4.5,2.28,3.72,3.88,8.21,7,10.93s9.05,3,11.87,6.07c3.71,4,8.45,10.34,7.53,14.53-1.07,4.92-7,10.54-12.13,12.44-9,3.34-17.47.33-23.65-6.34Z" style="fill: #014393"/>
        <path d="M456.35,831.92v19.36c-.78.49-1.56,1-2.35,1.46-1.56-1.79-4.44-3.56-4.48-5.39-.35-16.11-.2-32.22-.2-48.15,23.8-3.87,35.06,0,36.65,12.07C487.69,824.35,481.88,828.6,456.35,831.92Zm.35-3.9c8.65-3.56,15.58-5.53,21.29-9.33,1.61-1.06.89-10.13-.93-11-5.92-2.84-12.85-3.59-20.36-5.37Z" style="fill: #014393"/>
        <path d="M182.07,853.15c-1.8-2.09-4.64-3.95-5.19-6.33-1.86-8-5.65-11.16-14.56-11.25s-10.57,4.33-12.62,10.77c-.81,2.54-3.63,4.45-5.53,6.65l-2.67-1.94c5.52-16.18,10.93-32.4,16.7-48.49.69-1.91,3.3-4.31,5.06-4.34s4.46,2.31,5.14,4.2c5.79,16.11,11.21,32.36,16.74,48.57Zm-26.44-23.86H171c-2.45-8-4.59-15.08-6.74-22.12l-2.14.35C160,814.49,158,821.46,155.63,829.29Z" style="fill: #014393"/>
        <path d="M766.91,853.18c-1.93-2.89-4.92-5.56-5.56-8.72-1.56-7.65-6-8.76-12.9-8.69s-11.52.74-12.91,8.64c-.54,3.09-3.32,5.78-5.08,8.66l-3.74-1.84c5.67-16.74,10.92-33.65,17.26-50.14,2-5.27,7.24-5.82,9.53.52,5.92,16.4,11.29,33,16.89,49.51Zm-10.8-23.66c-2.35-7.94-4.45-15-6.55-22.16l-2.17-.09-6.67,22.25Z" style="fill: #014393"/>
        <path d="M621.42,853.33c-1.85-3.11-4.8-6-5.34-9.36-1.37-8.44-6.91-8.05-13.23-8.11s-10.88.42-12.14,8c-.54,3.24-3.42,6.1-5.23,9.13l-3.77-2c5.57-16.51,11-33,16.85-49.47.55-1.57,3.61-3.79,4.54-3.4,2.31,1,5.08,2.9,5.87,5.09,5.67,15.82,10.9,31.8,16.27,47.72Zm-16.89-46.17-2.2-.19c-2.17,7.22-4.33,14.44-6.74,22.5H610.9C608.64,821.55,606.58,814.36,604.53,807.16Z" style="fill: #014393"/>
        <path d="M333.39,853.45c-2.75-5.22-5.49-10.44-8.59-16.35-14.67-6.67-22.46,2.87-27.12,18.91L294,851.36c5.65-16.9,11.2-33.83,17.13-50.63.5-1.4,3.88-3,5.24-2.58a9,9,0,0,1,5,4.93c5.57,15.92,10.8,32,16.13,48Zm-17.46-50.14-8,25.88h15.26Z" style="fill: #014393"/>
        <path d="M84.66,852.9c-1.78-1.25-4.29-2.09-5.23-3.8-7.45-13.47-7.36-13.53-23-12.72l-9.36,16.86-3.72-2c5.56-16.48,11-33,16.81-49.39.58-1.66,3.1-3.9,4.45-3.73,2,.26,4.91,2,5.56,3.81C76,818.14,81.45,834.45,87,850.72ZM73.22,829.66l-8.47-25.93-6.93,25.93Z" style="fill: #014393"/>
        <path d="M497.48,798.29h30.33c.24,1.25.47,2.51.7,3.76l-24.12,2.81V820l19.39,1.15c.24,1.34.47,2.68.71,4l-20,2.8v17.7l24.55,2.09-.36,3.59H497.48Z" style="fill: #014393"/>
        <path d="M394.14,851.41H363V798.53h30c.19,1.32.37,2.64.56,4L370,804.57V820l19.67,1.19c.16,1.42.31,2.85.47,4.27l-20.22,2.28V846l24.69,1.53Z" style="fill: #014393"/>
        <path d="M723.3,807.4c-12.27-3.6-22.65-8.34-29.21,3.39-5.32,9.51-5.42,19.82.22,29.08,7.11,11.68,17.48,7.75,27.89,3.19-3.29,9.81-11.23,11.08-18.32,10.67-10.59-.62-18.55-11-20.33-23.88-1.87-13.51,3.85-26.07,14-30.73C706.54,795,714.78,796.89,723.3,807.4Z" style="fill: #014393"/>
        <path d="M223.56,851.28H192.94c0-15.8-.12-31.89.17-48,0-1.8,2.39-3.56,3.68-5.34,1,2,2.86,4,2.89,6.07.26,13.86.14,27.71.14,41.73l24,1.9C223.74,848.88,223.65,850.08,223.56,851.28Z" style="fill: #014393"/>
        <path d="M662.73,168.66c-.8,55.14-44.7,97.5-100.06,96.55-52.54-.9-94.36-46.07-93.43-100.9.91-53.25,45-96.34,97.73-95.57C621,69.54,663.53,113.91,662.73,168.66Z" style="fill: #fdd202"/>
      </g>
    </g>
  </g>
</svg>
