<svg xmlns="http://www.w3.org/2000/svg" viewBox="0 0 894.32 279.08">
  <g id="Camada_2" data-name="Camada 2">
    <g id="Camada_1-2" data-name="Camada 1">
      <g id="Camada_2-2" data-name="Camada 2">
        <g id="Camada_1-2-2" data-name="Camada 1-2">
          <g>
            <path d="M702.91,151.57c-3.34,5-6.59,10.72-10.75,15.72-7.93,9.54-13.3,20.56-18.84,31.43S663,221,658.08,232.27a219.55,219.55,0,0,0-12.55,37.27c-2.08,8.88-5.5,9.5-14.29,7.36-9.84-2.39-12.22-8.82-13.72-17.08a105.41,105.41,0,0,1-2.18-20.27c.15-13.33-.1-26.65-.05-40,0-6.13-.57-12.32,1.17-18.37.46-1.61.52-3.67-1.45-4.22-1.58-.44-2.3,1.54-2.46,2.62-1,6.65-5.34,12-7.08,18.29-2,7.25-6.58,13.29-9.93,19.88-6.83,13.43-15.14,26-25.82,36.87-10.11,10.23-22,17.13-36.54,18.81-7.64.88-15.09.28-21-5.37-8.08-7.67-15.76-15.65-20.12-26.25-3.76-9.11-3.64-18.65-2.62-28,2.05-18.82,5.54-37.43,12.45-55.18,5.5-14.13,10.32-28.6,20.67-40.3,4.78-5.41,9.82-9.94,17.62-9.56,1.71.08,2.83-.89,3.86-2,6.86-7.13,15.52-11.14,24.57-14.61,18.87-7.25,38.18,2.63,46,20.24a94.69,94.69,0,0,1,6.06,18.33,12,12,0,0,0,3.13-5.64c1-4.88,3.56-9.11,5.86-13.4,3.41-6.32,9.8-8.15,16.18-4.88,7.51,3.84,13.28,13.54,11.39,24-3.44,19.07-8.46,37.89-9.61,57.34a26.74,26.74,0,0,0,.45,3.58,63.4,63.4,0,0,0,7.11-13.88c1.22-3.08,1.92-6.35,5.13-8.15.41-.23,1-.72,1-1.08-.09-10,7.71-16,12.26-23.47,6.74-11.14,15.19-21,26.24-28.28,12-8,23.57-2.23,27.78,10,4.39,12.8,4.64,26.18,3.46,39.51-1.57,17.79-1.57,35.58-1.19,53.4,0,1.27-.48,3,1,3.57s2.25-1,3.11-2c10.14-11,18.52-23.32,26.7-35.89,13.11-20.16,24.42-41.48,38.76-60.83a71.67,71.67,0,0,1,13-13.67c10.28-8.08,18.68-4.78,26.17,7,7.67,12,8.61,25.52,9.66,39.08,1.58,20.23,1.69,40.59,5.17,60.65a144.09,144.09,0,0,0,3.42,14.54c1.33,4.74,5.32,6.36,9.82,4.33a14.92,14.92,0,0,0,5.18-3.75c5.55-6.26,9.37-7.46,15-4.67,4.47,2.23,8.47,11.34,7.25,16.73a16.9,16.9,0,0,1-7.5,10.73c-8,5.26-16.51,9.81-26.08,6.21-11.9-4.49-22.32-11.59-28.3-23.41-5.52-10.9-10.09-22.39-9.65-34.75a120.21,120.21,0,0,0-2.2-29.5c-1.91-9-.45-18.24-2.54-27.24-.49-2.1.93-4.77.7-7.28-.1-1.11.27-2.42-1.09-3.06s-2.29.23-3,1.08a45.92,45.92,0,0,0-5.27,6.53c-14.57,24.21-26.08,50.26-43.2,72.93-8.72,11.56-18,22.73-30.68,30.34-14.12,8.47-23.72,2.2-28.24-10.93-5.66-16.47-4.2-33.51-4.11-50.45C703,174.53,702.91,162.91,702.91,151.57Zm-110.79-9.69c.08-6.28.12-12.07-1.51-17.79-2.16-7.54-4.27-9.09-11.86-7.09-13.49,3.53-22.51,13.65-29.48,24.21-12.2,18.47-22.74,38.11-27.49,60.22-2.82,13.1-4.43,26.15-2.39,39.58,1.27,8.35,5.07,9.82,13.57,8a15.68,15.68,0,0,0,5.39-2.53,87.23,87.23,0,0,0,18.58-17.2c11.77-14.49,20-30.93,26.82-48.13C588.85,168.41,592.51,155.33,592.12,141.88Z" style="fill: #414193"/>
            <path d="M375.89,188.92c-.86,1-1.77,2-2.67,3-8.06,8.8-16.62,16.94-18.23,30-1.77,14.34-1.51,27.76,9.76,38.42,9.12,8.66,20.68,12.66,32.84,14.15,23.28,2.84,46.57.72,69.8-1.28,5.74-.5,11.66-.43,17.11-3,2-.92,3.49-1.79,3.36-4.28-.58-11-1.07-21.89-1.67-32.89-.17-3.13-1.66-3.75-4.66-2.6-4.65,1.79-9.44,3.23-14.24,4.6-13.79,3.94-27.67,7.5-42.21,6.44-15.21-1.11-22.31-9.5-20.56-24.45,1.85-15.76,9.26-29.42,17.11-42.76,16.9-28.71,37.17-55,59.32-79.78,11.3-12.64,21.93-26.14,36.67-35.14,15.64-9.53,29.49-11.7,45.64,1.37,2.72,2.2,5.4,4.46,8.26,6.46,4.76,3.32,7.69,3.09,12.05-.79,4.8-4.29,8-9.94,11.08-15.29s2.64-7.18-2.55-10.67c-7.3-4.91-15.56-7.55-24.07-9.22-30.84-6-60.4-5.21-85.57,17.11-2.73,2.43-3.69,1.09-4.9-1.46-3.71-7.78-6.78-16-11.58-23.11C455.1,7.74,439-.18,420,0c-31.34.3-58,10.52-74.19,39.85,2.26,5.48,2.43,11.13,1.37,17.27L363,37.21c4.78-3.55,9.36-6.27,10.8-7.2,7.09-4.58,7.51-4.42,16.4-6a68.1,68.1,0,0,1,17.5-.5c4,.82,8.2,1.22,9.28,2,5.31,3.6,4.18,3.23,10.11,8.84,9.15,8.66,6.56,15,10.16,36.32,2.47,14.63-.27,23.66-3.48,35.29" style="fill: #414193"/>
            <path d="M262.08,52.84C264,44.1,271.19,37,278.62,32c11-7.78,23.74-8.13,36.39-6.22,5.16.77,11,2.32,13.29,8.56a5.21,5.21,0,0,0,2.43,2.43c4.71,2.37,6.76,6.65,9.19,11,1.89,3.43,3.42,7.44,7.22,10,1.06-6.14.89-11.79-1.37-17.28C340,21.32,328.31,8.06,308.26,3.67c-14-3.08-27.46-.28-40.48,5.56-32.6,14.59-48.84,48.23-37.7,80,6.82,19.44,15.82,38.06,28.82,54.44,11.09,13.93,22,28,30,44.1,4.7,9.45,8.6,19.12,9.17,29.83.77,13.61-6,23.78-19,27.54-13.89,4-27.41,2.35-40.32-4.24a36,36,0,0,1-17.43-18.4c-8.57-19.93-14.84-40.6-20.63-61.43C190.32,123.7,182,85.84,174,47.91c-.81-3.85-2.37-4.76-5.94-4.59-5.66.25-11.34.23-17,0-4.4-.19-6.53,1.47-7.53,5.89-9.15,40.72-18.51,81.4-27.76,122.1-6.82,30-13.45,60-20.45,90-.84,3.62.06,4.19,3.35,4.08,6.49-.23,13-.31,19.49,0,3.34.16,4.54-.95,5.19-4.15,2.87-14.19,6.11-28.29,8.93-42.48.59-3,1.7-3.67,4.53-3.67q22,.09,44-.21c3,0,4.37.71,5,3.89,2,10.28,4.47,20.47,6.75,30.7a30.67,30.67,0,0,0,14,19.87,50.4,50.4,0,0,0,14.14,6.14c18.2,4.89,36.65,3.89,55.12,2.29,16.19-1.4,31.9-4.87,46.74-11.64,14.27-6.5,21.43-17.89,20.1-33.5-1.31-15.17-5.71-29.34-17.31-40.29-2.66-2.49-5-5.34-7.51-8l-40.4-52.41-8.73-17.33c-1-1.85-2-3.6-2.86-5.44a86.94,86.94,0,0,1-7.46-23.92c-1.14-7.91-2.11-16.37,1.49-24.37M171.93,177.61c-9.14-.27-18.29-.17-27.44-.05-2.52,0-3.22-.72-2.69-3.17L158.3,98c0-.1.25-.16.89-.56,5.51,25.33,10.92,50.48,16.56,75.58C176.63,176.9,175.77,177.72,171.93,177.61Z" style="fill: #980436"/>
            <path d="M.09,153.58C.09,118.43.16,83.27,0,48.12c0-4.2.79-5.7,5.42-5.54,18.48.64,37-.27,55.46.77,13.72.77,22.5,7.87,28.75,19.27,6.64,12.11,9.16,25.32,9.83,38.88.91,18.24-.31,36.19-7.59,53.4C84.88,171.43,72.8,180,55,180.53c-8,.24-16,.49-24,.28-3.87-.1-4.71,1.2-4.68,4.83.14,24.66,0,49.32.18,74,0,4.28-1.22,5.36-5.28,5.11a150.64,150.64,0,0,0-17,0c-3.39.18-4.21-1-4.19-4.19.12-18.82.06-37.65.06-56.47Q.11,178.83.09,153.58ZM46.82,80.34c-5.44-3.13-11.36.12-17-1.25-3-.73-4.11.8-4.06,3.85.13,8.31-.06,16.63.07,24.94.17,11.6-.56,23.21.38,34.8,9,1.57,18.09.87,27.13,0,7.29-.73,12.19-4.7,15.3-11.16a44,44,0,0,0,3.66-25.76C69.2,83.8,62,81,46.82,80.34Z" style="fill: #980436"/>
            <path d="M46.82,80.34c-5.32,0-10.65.25-16,0-3.53-.18-4.47,1-4.44,4.47.17,18.48.08,37,.06,55.44,0,.83-.15,1.65-.23,2.46-.94-11.6-.21-23.21-.38-34.81-.13-8.31.06-16.63-.07-24.94,0-3,1.09-4.58,4.06-3.85C35.46,80.46,41.38,77.21,46.82,80.34Z" style="fill: #414193"/>
          </g>
        </g>
      </g>
    </g>
  </g>
</svg>
