<svg id="Camada_1" data-name="Camada 1" xmlns="http://www.w3.org/2000/svg" viewBox="0 0 594.74 856.18">
  <g>
    <path d="M1089.28,122.22l14.24-5.79c7.07-1.46,14.1-3.16,21.23-4.27a18.76,18.76,0,0,1,9.09.72c5.64,2.1,10.76.07,16.06-.89l15.45,2.77,8.45,8c1.67,5.21.84,10.33-.6,15.43,2.43,5,2.46,10.1,1.13,15.34l-6,15.55-3.91,6.15-6.19,7.35-9.14,8.94L1139,200l-4.66,3.63L1118.54,215l-15,9.72-8.51,5.4-7.06,4.39-32.47,19.35-13.83,8c-.31,2-.45,4.07-1,6-2,7.77-8,11.87-14.49,15.44-2.27.18-2.93,1.15-2.56,3.56,1.08,7.08,1.82,14.21,2.7,21.32q1,7.72,2.06,15.45t1.85,15.46c.72,5.19,1.45,10.38,2.25,16.09l9.29-4.7,30.85-18.28,11.94-8.4,3.49-2.49c6.1-4.37,12-9.05,18.37-13,3.77-2.34,8.26-3.55,12.43-5.26-.61,1.28-1,2.79-1.86,3.8-9.67,10.73-19.42,21.38-29.14,32L1074,354.56c-.47.5-.94,1-1.4,1.49L1059.18,370l-3.14,3-13.54,12.53-.8.76c-2.87,1.54-5.22,3.18-3.94,7.2.75,2.37.7,5,1,7.49l1.77,13.26.51,2.19,1.58,15.49q1.08,7.72,2.15,15.44.84,7.74,1.67,15.47l1.44,15.45c.45.92.67,2.15,1.4,2.7,2.51,1.86,5.19,3.48,7.81,5.19l6.64,7.72a57,57,0,0,1,8.81,30.75l-.85,5.37c-2.24,4.49-4,9.34-6.83,13.4-4.83,6.87-5.06,3.94-1.41,12.15l4.76,15.54,4.41,30.84v15.46l-3.75,30.91q-1.58,7.74-3.17,15.47l-4,15.47q-2.42,7.59-4.82,15.16-2.73,7.79-5.48,15.58l-5.94,15.58-13.65,31q-7.56,15.41-15.11,30.82l-16.59,31L995,827.83l-9.53,16.37,25.39-6.25,15.36-2.73,2.44-.24,13-.78c11.46.13,21.89,3.24,30.87,10.61l4.75,4.46c4.91,6.06,9,12.52,9.19,20.66.24,10.19-3.58,18.69-11,25.65l-2.92,2.36a27.81,27.81,0,0,0-4.33,2.92c-3.33,3.3-6.47,6.8-9.68,10.21l-1.58,1.28L1041.59,920l-18.44,5.83-12.36,2.37-15.48,1.65-15.43.75-15.48-.75L949,928.21,918,921.93l-10.58-3.53c-1.27,2.6-2.39,4.86-3.5,7.13l-2.46,4-14,12.4-.25,0-.11.23-15.43,8.64-12.39,5.94L856.07,958l-15.34,5.68-15.45,3.86-15.36.6-13.8-3c-5.94-3.33-12.52-5.91-17.66-10.2-4.61-3.86-9.74-5.5-15-7.38L748.91,935.8q-2.24-4.68-4.45-9.36-1-7.66-2-15.33l2.58-14.4a52.36,52.36,0,0,1,18.47-23.94l14.78-7.52a.38.38,0,0,0,.56-.31l15.69-4.36,15.26-2.2,15.43-.78c2.53,0,5.07.09,7.6.06,7.66-.08,7.72-.15,7.62-8a2.38,2.38,0,0,0-.06-.37l4.83-30.88,3.09-15.48q1.68-7.23,3.35-14.46,2.2-8.24,4.43-16.47l1.06-3q2-6.08,3.95-12.16l-.16-.14.18.11.36-1L867,741.08q7.29-15.47,14.59-30.93l5.65-10.43,4.28-6.21a53.8,53.8,0,0,0-19.7-6.22l-15.63-.06-14.9,7.39-.75.45c-2,1.37-4.1,2.63-6,4.11-17.78,13.66-33.38,29.66-49,45.63-7.8,8-15.64,15.9-23.85,23.42-3.66,3.35-8.27,5.72-13.72,3.91a.6.6,0,0,0-.63-.2c-4.71-4.1-5.73-9.45-5.21-15.33l2.7-15.52A110,110,0,0,1,762,710.21l1.6-2,13.76-13.52,1.63-1.34,32-19.29,14.31-4.8,15.44-2.34,15.46.73L872.41,672,887,678.71l9.47,6.15,1.39-.48a25.68,25.68,0,0,0-.42-5.22,18.89,18.89,0,0,0-2.35-4.37C888.89,664.51,883,654,876.24,644.05c-5.56-8.15-10.49-9.23-20-6.43l-15.5,5.18L828,648.19l-2,.8-1,.4-.21.09-16.27,7.85-11.11,5.61-3.06,1.62-15.46,6.18c-9.76.57-11-.09-13.15-7q1.34-8.09,2.68-16.15l10-14.65.64-.61c9-8.24,19.61-13.54,30.86-17.79l15.42-3.94,15.44-1.46,15.45,1.32,15.47,5.19,3.54,1.85,10.92,9.22,4.19,6.09,6.73,15.46c.43,1.86.93,3.7,1.28,5.57.9,4.84,1.73,9.69,2.59,14.53a9.64,9.64,0,0,1-1.31-2.18c-1.43-5.2-2.62-10.47-4.17-15.63-6.07-20.25-18.67-33.61-40.28-36.52-25.76-3.47-49.73,1.59-70.89,17.15-8.85,6.5-15.46,15-16.49,26.41-.89,9.83,1.42,14.42,12.16,10.38,9.22-3.47,17.86-8.47,26.69-12.94,14.57-7.38,28.77-15.65,44.7-19.87,16.69-4.43,21.08-2.66,29.59,10.59,5.2,8.1,9.67,16.68,14.36,25.11,1.58,2.82,2.85,5.82,4.78,9.81,1.12-3.06,1.85-5.06,2.59-7.06.74-.33,1.77-.45,2.17-1,2-2.85,3.91-5.83,5.85-8.76L931.53,633q1.41-2.38,2.8-4.77c1.83-3,3.74-6,5.43-9.09.37-.66,0-1.74,0-2.62q-2.78-6.51-5.54-13c-.41-.93-.81-1.86-1.21-2.79-1.41-1.41-2.61-3.61-4.28-4.05-3.4-.89-7-.82-10.59-1.14l-15.56-1.78-15.43-1-15.47-1.43-15.46-1L840.73,589l-15.43-.83-15.48-.84-15.44-.76c-4.09-1.1-7.41-.8-9.19,3.92-.64,1.7-2.28,3.08-3.61,4.47-1.75,1.83-3.47,3.91-6.52,3.14.09-.23.11-.55.28-.67,10.49-7.35,14.23-17.77,12.15-29.9-2.69-15.66-10.85-28.43-23.43-38.14a27.54,27.54,0,0,0-9.3-4.39c-5.9-1.64-14.21,0-16.63,5.07a10.84,10.84,0,0,0,2.09.73c4.77.67,8.41,3.07,11.81,6.48,17.62,17.66,22.83,38,14,61.61a10.37,10.37,0,0,0-.22,2l7.76-1.5c-.81,3.24-3.57,2.65-5.79,2.72-2,.07-3.25.47-4.12,2.52-4,9.42-8.11,18.76-12.2,28.13l-3.6,7.56-4.42,8.06-9.25,15.44c-.58.94-1.16,1.89-1.73,2.84l-9.26,12.6-6.1,7-7.75,7.68-7.8,6-15.38,6.42-15,.81a19.35,19.35,0,0,0-1.87-2.73c-1-1.08-2.41-1.83-3.3-3-4.64-6-4.36-12.54-1.56-19.25,4.47-10.7,12.2-18.93,20.25-26.92,6.48-6.43,13.07-12.75,19.48-19.24,3.69-3.74,3.35-3.65.06-7.54-4.06-4.78-7.69-9.93-11.49-14.93-.59-.76-1.11-1.57-2-2.82-3.18,4.93-6,9.46-9,13.9-10.65,15.92-21.58,31.66-31.93,47.76-5.14,8-9.52,16.54-10.35,26.34-1,12.32,8.66,19.69,20.18,15.36,2.13-.79,4.27-1.55,6.41-2.32l-10.77,5.7c-6.38,1.08-11.2-1.74-15.41-6.13l-.78-1.15c-2.64-4.87-2.85-10.12-2.39-15.47.64-2.17,1-4.48,2-6.47,1.82-3.64.94-6.45-1.9-9l-1.7-15.46,3.79-15.49,1.81-5.35,4-10,6.9-15.5q7.06-15.4,14.15-30.81,5.52-15.54,11-31.07c.14-1.05.8-2.57.35-3.07-1.92-2.07-4.17-3.84-6.29-5.73-1.63-2.22-3.25-4.44-4.88-6.65l-8-15.44q.46-7.74.92-15.48l6.47-15.45,5.42-5.25c4.9-1.86,9.64-4.4,15.18-3.54,7.83,2.14,12,7.87,14.73,15q1,4.68,2.12,9.34c.9,7.17,2.84,13.75,10.94,15.78,6.43,1.62,13,2.87,19.46,4.14a5.35,5.35,0,0,0,3.1-.69c3.93-2,7.8-4.16,11.69-6.25l13.64,2.47c2.33,1.5,5.05,2.64,6.91,4.59,3.12,3.28,6.46,3.56,10.35,2.14l15.47-2.24,15.52-2.15,10.82-1.52,4.75-.52,15.3-2.12,15.45-2.09,15.46-1.76,15.43-1.55,15.48-1.43,15.41-.52,10.5.7,4.87-7.16.07-.09,4.45-3.83-3.43-3.82-6.24-7.72-4.84-6.51-4.74,6.49-.75.46c-5.29,2.64-10.28.34-15.32-.95l-1.5-.32-13.91-6.15-15.48-8.28-1.56-.91-13.9-8.4c-4.3-4.26-9.87-4.51-15.41-4.88l-31-7.5-15.36-6.5-5.25-3-10.29-9.2-3.73-6.2c-.58-3.09-1.12-6.18-1.74-9.26-.41-2.06-.93-4.09-1.4-6.13a29.71,29.71,0,0,1-1.43-5.44c-.32-4.67-3-7.23-7.08-8.8-9.61-5.5-20.26-7-31-8l-15.43-.77-15.48.71-15.44,1.52L670.7,397.2c-4,.49-7.92.8-11.82,1.52-6.39,1.16-12.73,2.59-19.09,3.9L638,401q1.28-2.31,2.56-4.61a66.27,66.27,0,0,1,26.8-19.16c-10.09,2-19.43,6-28.52,10.56l-14.53,7-10.82,5.42-4.62,2.5c-10.1,5.15-20.15,10.39-28.42,19.51.16-2.37.27-4.09.38-5.8q1.73-7.69,3.44-15.39,3.12-7.71,6.23-15.42l3.63-7.06q2.51-4.17,5-8.36l25-31.15,29.8-26.2-.1-.43-15.64,6.75-4.66,2.2-7.15,4.12,1.37-4,8.28-13.16q1.92-2.19,3.83-4.4l13-11.15,2.36-1.59,30.92-14.65,24.05-6.29-.25-1H686l-2.8-.43-.26-.95,17.95-9.58,16.15-5.69,15.45-3.07a229.1,229.1,0,0,1,46.32-.47l15.51,2.06,15.47,3c2.38,1.16,4.31.83,6.68-.73,2.56-1.7,5.83-2.35,8.8-3.45l15.32,3.15a62.88,62.88,0,0,1,18.46,15.46c1.13,1.39,2.17,3,3.63,3.93,9.18,5.66,16.65,13.22,24,21l12.62,14.83,2.34,3.89L909,323.88a65.69,65.69,0,0,1,3.44,7.5c1,3.08,2.71,4,5.63,2.89,8.16.18,14.24,4,18.36,10.87,2,3.39,3.62,7.05,5.41,10.59,0,.68,0,1.36.05,2a23.75,23.75,0,0,1-2.27-2.67c-2.1-3.38-3.81-7-6.2-10.18-4.65-6.13-11.37-8.4-17.67-6.34.34,1.07.66,2.15,1,3.22,2.55,7.67,4.88,15.36,3.68,23.65-1,6.64-5,10.47-11.7,10.18-3.49-.15-6.94-1.11-10.56-1.73,3.61,11.2,3.58,22.25-4.1,32-10.36-3.12-21.26-6.38-32.15-9.69-16.49-5-33.3-7.59-50.53-5.92-10.48,1-20.28,4.16-27.12,12.86-9.35,11.89-11.43,28,3.77,38.84a112.56,112.56,0,0,0,21.93,11.84c11.18,4.69,23.06,7.17,35,8.86l1-1.18-5.73-3.82,1.1-1.22,3.57,2.44c18.68,12.7,38.39,23.46,59.78,30.85,10.16,3.51,12.17,2.79,16.54-6.94,4.82-10.74,9-21.79,13-32.87,2.6-7.18,4.39-14.65,6.67-22.42h-6.61c-1.8,7.57-3.36,15.23-5.45,22.75-2.54,9.15-5.21,18.28-8.4,27.21-2.22,6.21-5.15,7.3-11.51,5.64a23.53,23.53,0,0,1-5.79-2.09c-8.24-4.72-16.74-9.11-24.51-14.53-17.75-12.41-34.41-26.18-48.51-42.78-2.23-2.63-4-6.93-6.68-7.59-3.14-.77-7,1.61-10.63,2.58a27.06,27.06,0,0,1-2.72.45c11-9.11,56.14-14.09,64.83-7.59H854.18a3.61,3.61,0,0,0,2.56,1.72c6.65,1.2,13.32,2.3,20,3.55,17.26,3.24,34.56,6.54,52.18,6.51,12.31,0,24.82.09,36.88-2,23.48-4,44-15.32,62.93-29.51,18.31-13.7,34.3-29.89,49.85-46.56,11.65-12.49,23.5-24.79,35.23-37.21.32-.34.26-1.06.55-2.43-2.68,1.72-4.76,2.89-6.67,4.3-14.79,10.92-29.64,21.78-44.3,32.87-11.42,8.64-23,16.88-36.25,22.61a18.88,18.88,0,0,1-2.43.62c.21-.71.2-1.06.35-1.16,1.81-1.22,3.65-2.39,5.48-3.58l1.06-.79-.24-.46-1.41.59c-.73.21-1.48.38-2.19.65-27.64,10.37-55.41,11.84-83.35,1.27-2.74-1-5.34-2.45-8-3.69l.37-.78,5.14.28,7,3.45,16.14,4.5V354.61q.06-7.73.13-15.44.69-15.46,1.4-30.93l.87-15.44,1.11-15.36c.42-3.66.94-7.31,1.22-11a8.09,8.09,0,0,0-.77-3.24c-2.05-5.61-4.14-11.2-6.21-16.79a23.47,23.47,0,0,1,0-4.51c.57-3.23,1.4-6.41,2.12-9.62a10,10,0,0,1,.22,3c-1.57,6.58,0,12.72,2.31,18.82,7.53,20.06,33.29,31.45,51.38,28.48,9.11-1.5,17-5.39,20.3-15a35.12,35.12,0,0,0,.87-5.29c-2.24,1.1-3.6,1.73-4.93,2.42-12.8,6.58-25.65,5.8-37.94-.86-12.74-6.9-19.51-19.3-26.48-31.3-1-1.67-1.32-3.67-3.91-3.14,2.3-2.16,1.2-4.67.67-7.07a62.57,62.57,0,0,0-2.18-8.52c-1.87-4.94-4.08-9.75-6.15-14.61-2.31-3.74-5.84-5.44-10-6L933.49,190l-9-5.56c-3.4-4.67-3.29-10-2.75-15.34q4.34-7.29,8.68-14.58l3-2.41L949,147.77l15.28,3,7,4,8.51,7.63,6,7.63,9.55-3.34,15.48-5.46,30.93-13.71L1073.05,130l14.12-6.84Zm-377.86,148,5.41-.72-.11-.82-5.06.29-1,.63Zm339,434,3-7.81.56-1.26-.47-.17c-.1.42-.2.83-.31,1.24-1.13,2.49-2.27,5-3.4,7.46l-3.21,6.62,1,.45C1048.58,708.55,1049.52,706.38,1050.46,704.2ZM877.37,336l.84,1.49.45-.15-.48-2.35c0-1.8-.21-3.61-.06-5.39.88-9.91,8.28-14.26,16.81-9.22,4.63,2.74,8.31,7.11,12.32,10.85a36,36,0,0,1,3.34,4.09,3.65,3.65,0,0,0-.16-2.87,144.15,144.15,0,0,0-37.61-49.21,78.89,78.89,0,0,0-20.28-12.07c-8.47-3.53-14.13,1-14.11,10.17a45.85,45.85,0,0,0,.77,8c1.66,9.14,4.67,17.24,13.45,22.46,4.6,2.73,8.09,7.3,12.09,11v-.07c-1.11-.36-2.44-.45-3.31-1.12-2.34-1.8-4.41-3.93-6.71-5.78C843.45,306.8,831.57,299,817,296.16c-10.35-2-19,2.88-20.75,12.57a32.7,32.7,0,0,0,.11,11.12c2.34,13.57,8.79,25.37,16.63,36.47,2.29,3.25,4.8,6.35,7.21,9.52a6.68,6.68,0,0,0,.42-3.52c-2.24-15.65,9.45-22.26,21.66-19.54,18.3,4.07,31,15.44,39.14,31.91,3.68,7.46,4.79,15.48-.29,23.13-.23.35,0,1,0,1.57,1.35.55,2.63,1.11,3.94,1.6,6.88,2.6,9,1.56,11.58-5.47,2.12-5.78,1.72-11.66.17-17.38a101.43,101.43,0,0,0-14.62-31.47c-4.31-6.2-8.91-12.19-13.38-18.27l.57-.7ZM997,481.44c.75,6.14,3,7.67,8.71,8.17,6.35.55,12.6,2.13,18.87,3.39.68.14,1.19,1.11,2.45,2.36-14.12-3.35-26.88-3.89-40,1.56,3.6,2.7,8.42,1.79,10.45,5.78a4,4,0,0,1-2.06-.46c-.84-.32-1.7-.59-2.56-.83-12.63-3.63-25.28-2.38-37.76.45a83.87,83.87,0,0,0-16.18,6,15.76,15.76,0,0,0-8,8.32c6.46,1.4,12.42,2.28,18.13,4,14.12,4.26,26.29,11.36,34.22,24.5,1.12,1.85,3.6,3.25,5.75,4,8.11,3,16.58,3.37,25.12,2.71,11.56-.89,22-4,28.86-14.44.17-.26.57-.38.87-.56l.8.64c-4,6.49-8,13-13.93,18.08l-.64,1.1,1.62-.46c13.63-6.7,23.84-16.39,27.63-31.8.26,8-3.33,14.44-7.61,20.54,6.05,5.2,6,5.17,10.88-.84,6.7-8.3,8.46-17.9,6.4-28-6.21-30.51-31.38-41.28-56.9-38.52-3.32.36-6.64.77-10,1.15a29.1,29.1,0,0,1,4.81-2.1,61.66,61.66,0,0,1,34.24,1.28c1.24.4,2.53.65,4.42,1.13-3.76-29-7.41-57.21-11.21-86.46-20.84,16.11-42.31,28.42-67.74,33.15.66,4.91-1.22,9.54,2,14.24,9,13.15,17.5,26.67,26.24,40A11.49,11.49,0,0,0,997,481.44Zm-12.9,359c-13.82,6.64-28.34,8.07-43.28,5.39-2.79-.5-3.88.14-4.86,2.58q-10.53,26.5-21.24,52.92c-2,5.08-4.14,10.15-6.27,15.39,1.82.58,3.14,1,4.48,1.41,20.88,6,42.32,7.94,63.93,8.48,17.92.44,35.72-.69,53.07-5.49,12.22-3.38,23.82-8.05,32.5-18,9.33-10.7,11.94-30.53-8.14-39.69a46.31,46.31,0,0,0-12-3.93c-6-.91-12.07-.88-18.44-1.27a22.45,22.45,0,0,1,3.41-1.15c9.82-1.59,19.27.09,28.24,4,10.28,4.49,17.09,11.91,17.33,23.76.07,3.51-.78,7-1.22,10.72a10.49,10.49,0,0,0,1.78-1c13.75-11.34,14.35-29.72,1.61-42.66-12-12.24-27-15.58-43.24-13.72-14.34,1.66-28.5,4.79-42.79,7a8.22,8.22,0,0,0-6.88,5.19,33.56,33.56,0,0,1-2.74,4.27l-.78-.58q3-6.52,6.1-13.06c.13-.27.26-.54.4-.81Zm3.66-289.66-1.14-.28.3.87a4,4,0,0,0,.37,1.07c9,12.6,10.12,26.8,8.3,41.56-2.15,17.46-7.83,34-14,50.3-8.26,21.87-17,43.58-24.89,65.57-4.33,12-7,24.44-6.35,37.44,1.2,23.88,29.35,34.6,45.47,25a78,78,0,0,0,18.57-14.74c21.21-23.85,34-52.45,44.05-82.31,6.4-19.08,9-39,10.09-59.11,1.12-21.13-1.44-41.79-9.2-61.63-.45-1.15-1-2.56-1.94-3.16-2.4-1.5-5.05-2.62-8-4.06l-2.43,2.27c-5,4.59-10.35,8.53-17.17,9.82-1.2.23-2.56-.39-3.84-.62a18.44,18.44,0,0,1,1.68-3.21c1.28-1.59,2.77-3,4.18-4.52-14.56,4-18.74,4.77-27.56,3.35C998.77,553.49,993.31,552,987.8,550.73ZM956.6,193.17l.63.46c0-.31-.08-.61-.11-.92l-3.86-4.92c5.49,1.37,9.81,6.45,11.58,13.26,1,3.83,1.92,7.7,2.66,11.6,3.25,17.1,10.87,31.68,24.46,42.86,12.41,10.21,26.47,14.88,42.9,5.08,3.42-2,7.18-3.48,10.61-5.49,22.33-13.15,44.8-26.09,66.86-39.68,16.4-10.1,32.19-21.18,45.18-35.66,8.36-9.32,13.64-20.19,14.82-32.72.48-5.21-2.34-8.21-7.54-8.08a40.47,40.47,0,0,0-11.66,2.18c-14.78,5-27.63,13.6-40.39,22.3-3.85,2.62-7.58,5.42-11.37,8.14-.19-.89,0-1.3.34-1.57,13.75-11.48,28.1-22.1,44.38-29.78,8-3.79,16.32-7,25.3-2.91,4.23-10.28.28-18.49-10-21.41a29.16,29.16,0,0,0-20,1.37,283.5,283.5,0,0,0-27.49,13.81c-12.69,7.32-25,15.31-37.45,23l-1-1.13c20-12.09,37.73-27.74,59.24-38-6.5-.38-13-.66-19.08.63-18.33,3.84-34.83,12.42-50.46,22.25-23.92,15-49.08,27-76.34,34.48-3.27.91-5,.54-7-2.38a47.85,47.85,0,0,0-17.36-16.1c-10.89-5.88-25-4.82-33.26,2.72-6.75,6.15-9.28,14-6.84,22.65,2.08,7.45,9.14,8.5,15.6,9.93C945.49,190.42,951,191.83,956.6,193.17ZM1047,711.92l-.94-.41c-.61,1.19-1.21,2.39-1.85,3.56-4.84,8.93-9.35,18.07-14.63,26.73-7.62,12.5-16.76,23.73-29.37,31.72-18.16,11.5-39.52,2.28-47.42-8.95-6.18-8.78-6.87-18.65-5.73-28.83,1.65-14.85,6.64-28.8,12-42.6,9-23.14,18.65-46,27.14-69.33,6-16.58,10.26-33.73,7.63-51.75-.69-4.73-2-9.15-5.19-12.91q.51,4,1,8l-1.56.22c-.37-1.53-.84-3-1.08-4.6-1.29-8.29-4.11-15.95-9.61-22.4-12.61-14.76-29.76-19.51-48.06-21-14.51-1.19-29,.21-43.44,2.14-13.85,1.86-27.74,3.53-41.61,5.29q-18.89,2.41-37.78,4.86c-10.11,1.31-20.22,2.69-31,4.13,11,13.7,18.72,28,14.11,45.92a15,15,0,0,0,2.63.76c12.69.84,25.37,1.56,38,2.46q15.55,1.11,31.08,2.54c12,1.11,24,2.38,36,3.6,11,1.12,22,2.24,33,3.44,2.9.31,4.68,1.77,5.71,4.84a127.65,127.65,0,0,0,6.29,14.89c1.2,2.46,1.42,4.53,0,6.88-2.42,4.1-4.56,8.38-7.15,12.36-11.27,17.38-22.52,34.77-34,52A339.23,339.23,0,0,0,866,753.08c-10.09,26.37-16.79,53.62-21.15,81.47a6.35,6.35,0,0,0,1.86,4.63,29.33,29.33,0,0,0,6.8,5q35.7,19,74.29,6.71c3.6-1.14,5.62-3.25,7.43-6.51,5.87-10.55,12.13-20.88,18.36-31.23,1-1.61,2.57-2.84,3.88-4.25l.47.44L937.8,843l1,1c5.59,0,11.27.63,16.76-.14A255.16,255.16,0,0,0,983,838.3c2.46-.63,5-3.27,6.32-5.64,6.86-12.22,13.44-24.61,19.93-37A738.17,738.17,0,0,0,1043.66,721C1044.83,718,1045.92,715,1047,711.92Zm-416-392.56c1.58-.69,2.23-1,2.89-1.26,6.53-2.63,12.9-5.82,19.63-7.68a51,51,0,0,0,13.68-5.78c4.45-2.76,9.35-4.8,14.08-7.09a7.43,7.43,0,0,1,2.14-.32c-2.86,2-6.11,3.09-8.72,5-11.1,8.11-22.55,15.84-32.85,24.89-18.35,16.11-34.51,34.3-46.77,55.62a99.7,99.7,0,0,0-12.52,33.67,274.81,274.81,0,0,1,51.84-31c17-7.61,51.64-17,57.16-15.14-3.61,1.32-7,2.38-10.25,3.77-12.58,5.34-24.81,11.32-35.66,19.77-1.16.9-2,2.24-3.69,4.22,2.05-.3,2.79-.36,3.51-.52a290.5,290.5,0,0,1,57.28-7.14,254.85,254.85,0,0,1,32.33,1.47c10.46,1.11,20.74,3.52,30.06,8.86,1.64.93,3.43,1.59,5.35,2.46.78,3.63,1.63,7.56,2.48,11.48a4.59,4.59,0,0,0,2-2.62c3.15-9.9,9.44-17.07,19-21.16,10.41-4.47,21.39-5.19,32.55-4.21,1.95.17,3.9.28,6.56.46-1.78-2.31-3-3.94-4.25-5.54-7.78-9.9-16.22-19.35-23.17-29.79-8-12.09-13.61-25.38-12.93-40.49.46-10.41,7.59-17.45,17.85-17.87,7.86-.32,14.92,2.05,21.86,5.26,1.86.87,3.74,1.72,6.08,2.79-1-4.28-2-7.72-2.56-11.24a62.3,62.3,0,0,1-.66-10.74c.3-8.93,7.21-14,15.87-11.94.62.15,1.24.34,1.86.5s1.22.27,2.64.58c-8.06-8.14-16.83-13.32-27.26-15.14-8.11-1.42-15.59,4.25-17.24,12.44-.36,1.78-.58,3.58-1,6.37-2.63-5.59-.25-9.79,1.06-14.14a38,38,0,0,0-4-1c-14-1.92-28-4.36-42-5.56A135.37,135.37,0,0,0,701,261.42c-3.11,1.29-6.06,2.94-9.09,4.43l.3.9c14-1.69,27.85-1.93,42.54,1.79a16.92,16.92,0,0,1-2.85,1.14c-6.71,1-13.52,1.59-20.13,3.08-23.94,5.41-46.7,13.63-66,29.41A59.6,59.6,0,0,0,631.07,319.36ZM816.54,894.83c0,.36-.07.73-.11,1.1-12.19-.13-20.13,1.66-28.86,6.48-21,11.63-22.66,40.3-2.89,53.82a53.25,53.25,0,0,0,42.27,8.4c20.11-4.19,38-13.55,55.64-23.78,10.75-6.26,17.85-15.06,22.45-26.45,6.72-16.66,13.83-33.18,20.8-49.75,1.8-4.27,3.72-8.48,5.92-13.49-15.27,6.33-30.17,9.24-45.71,7.14A80.64,80.64,0,0,1,844,839.68c-1,7.15-1.86,13.6-2.79,20.47-9.18,0-18.18-.53-27.08.12-13.26,1-26.21,3.76-38.32,9.56-14.35,6.87-24.86,17-29,33-5.23,20.17,3.4,37.71,22.48,44.88a17.84,17.84,0,0,0,2.75.5c-.75-1.68-1.38-2.94-1.89-4.25-4.73-12.11-3.45-23.63,4.41-33.92,7.29-9.54,17.88-13.55,29.39-15.12C808.07,894.35,812.34,894.83,816.54,894.83ZM709.84,632.67c-10,11-20.34,22.21-30.44,33.65-5.61,6.36-11,13-13.5,21.34-2.41,8.16,1.28,14.28,9.43,16.11,7.16,1.6,13.78,0,20.07-3.25,11.37-5.89,19.64-15.2,27.07-25.31,16.79-22.86,28.59-48.33,38.49-74.73,2.45-6.54,4.85-13.42,5.36-20.29.78-10.67-2.46-20.83-7.64-30.28s-12-16.08-23.26-17.41c-5.56-.65-11-2.15-16.51-3.19-10.53-2-17.09-7.36-18.32-18.81-.58-5.31-2.9-10.53-5-15.55-1.72-4.09-5.29-6.51-9.71-7.47-8-1.71-14.41,1-18.81,7.54-6.58,9.72-11.64,27.8-.62,40.6,3.86,4.48,7.5,9.2,11.76,13.26,2.61,2.48,2.89,4.61,1.95,7.79a328,328,0,0,1-19.63,49.79c-7.15,14.78-13.83,29.8-20.13,44.95-3.15,7.58-4.87,15.74-3,24.08.5,2.17,1.74,4.16,2.7,6.36,4.74-7.79,8.62-15.08,13.35-21.77,11-15.65,22.42-31.05,33.83-46.44,2.25-3,3-5.7.82-9a16.07,16.07,0,0,1-1.39-4.06l.51-.17C694.72,611.07,702.19,621.75,709.84,632.67ZM968.1,366.06c2.59.35,4.59.79,6.61.88,16,.71,31.45-2.08,46.51-7.36,7.28-2.55,7.3-2.52,6.56-10.23-.09-.89-.24-1.78-.36-2.67-2-14.09-3.93-28.17-5.84-42.27-.85-6.3-1.56-12.63-2.34-19-18.17,2.26-33.19-3.51-46.77-16.67C971,301.94,969.55,333.75,968.1,366.06ZM896,685.7c-5.82-3.05-11.24-6.18-16.9-8.79a76.51,76.51,0,0,0-48.49-5.43c-17,3.49-31.78,11.73-45.59,21.77-17.18,12.5-30.9,27.9-38,48.37-2.66,7.63-4.26,15.44-1.9,23.43,1.49,5.05,5.63,6.82,10.31,4.45a31.08,31.08,0,0,0,7.89-5.44c5.89-5.91,11.51-12.09,17.13-18.26,16.49-18.08,33.32-35.73,53-50.46,13.15-9.82,27.15-14.41,43.33-9.81,5.37,1.52,10.59,3.58,16.07,5.45C893.74,689.51,894.7,687.88,896,685.7ZM998.32,489.43a13.24,13.24,0,0,0-.91-1.8c-12.1-17.58-24.44-35-36.21-52.81-3.91-5.92-7.93-9.31-15.38-7.66-2.37.52-3.26,1-4,3.42-5.22,17.18-10.71,34.28-16,51.43a3.83,3.83,0,0,0,.25,3.05c4.89,6.28,9.93,12.44,15,18.73a70,70,0,0,1,41.55-7,5.28,5.28,0,0,0,2.93-.49C989.7,494.15,993.81,491.88,998.32,489.43Zm-171.12-74a18.8,18.8,0,0,0,1.85,3.55c4,4.65,7.82,9.63,12.39,13.72,8.22,7.36,17,14.15,25.44,21.23,1.46,1.21,2.4,1.44,3.74-.3,4.69-6.08,10.89-6.68,17.71-4.41,1.95.65,3.37,1.06,5.46-.57,1.76-1.37,4.87-1.73,7.26-1.46,9.4,1.07,15.19,6.77,17.71,16.81.41,1.63.76,3.27,1.14,4.91l1.4,0c3.72-13.67,7.45-27.33,11.33-41.56-2.79-.34-4.78-.62-6.78-.83-8.28-.86-16.63-1.28-24.82-2.66-17.16-2.89-34.19-6.53-51.36-9.36C842.41,413.31,834.93,413.08,827.2,415.43Zm1.07-41.72c2.51-6.86,7.33-8.35,13.41-7.7,7.37.79,13.41,4.21,18.71,9.12,5.66,5.25,9.51,11.18,6.33,19.61a64.65,64.65,0,0,1,6.55,2.27c3.25,1.51,5.11-.09,6.6-2.61,2.37-4,2.42-8.41,1.42-12.73-4.16-18-22.6-34.57-40.88-37-8.13-1.08-15.81,3.58-16.64,10.27C823,361.4,824.39,367.43,828.27,373.71Zm42.56,83.2c4.86,3.32,9.42,6.88,14.38,9.73,8.2,4.69,16.52,9.25,25.08,13.22,4.39,2,7.7-.46,7.49-5.38a34.46,34.46,0,0,0-2.54-11.5c-2.27-5.54-5.85-10.26-11.73-12.62-4.75-1.91-7.29-1.7-10.12.82l4.27,3.4c-4.83-.71-9.27-2.23-13.84-2.82C879,451.14,874,451.49,870.83,456.91ZM905,372.05a8.12,8.12,0,0,0,9.27-.58c3.19-2.33,4-5.82,3.55-9.64a52.85,52.85,0,0,0-12.12-27.94c-3.49-4.16-8-7.58-12.45-10.75-2.82-2-6.42-2.24-9.26.56-4.56,4.49-3.37,18.78,1.81,23,3.87-7.06,8-7.7,14-2,4.32,4.09,6.79,9.29,8.26,15C909.25,364.32,909.17,368.61,905,372.05Zm59.28,53.53-5.39.85c1.85,2.28,3.26,4,4.67,5.72l.72-.46Z" transform="translate(-580.47 -111.91)" style="fill: #0f0e0e"/>
    <path d="M1047,711.92c-1.12,3-2.21,6.08-3.38,9.09a738.17,738.17,0,0,1-34.41,74.62c-6.49,12.42-13.07,24.81-19.93,37-1.33,2.37-3.86,5-6.32,5.64a255.16,255.16,0,0,1-27.49,5.51c-5.49.77-11.17.14-16.76.14l-1-1L958,809.34l-.47-.44c-1.31,1.41-2.91,2.64-3.88,4.25-6.23,10.35-12.49,20.68-18.36,31.23-1.81,3.26-3.83,5.37-7.43,6.51q-38.6,12.2-74.29-6.71a29.33,29.33,0,0,1-6.8-5,6.35,6.35,0,0,1-1.86-4.63c4.36-27.85,11.06-55.1,21.15-81.47a339.23,339.23,0,0,1,35.21-67.62c11.52-17.2,22.77-34.59,34-52,2.59-4,4.73-8.26,7.15-12.36,1.39-2.35,1.17-4.42,0-6.88a127.65,127.65,0,0,1-6.29-14.89c-1-3.07-2.81-4.53-5.71-4.84-11-1.2-22-2.32-33-3.44-12-1.22-24-2.49-36-3.6Q846,586,830.4,584.94c-12.68-.9-25.36-1.62-38-2.46a15,15,0,0,1-2.63-.76c4.61-17.9-3.09-32.22-14.11-45.92,10.74-1.44,20.85-2.82,31-4.13q18.88-2.48,37.78-4.86c13.87-1.76,27.76-3.43,41.61-5.29,14.43-1.93,28.93-3.33,43.44-2.14,18.3,1.49,35.45,6.24,48.06,21,5.5,6.45,8.32,14.11,9.61,22.4.24,1.55.71,3.07,1.08,4.6l1.56-.22q-.53-4-1-8c3.19,3.76,4.5,8.18,5.19,12.91,2.63,18-1.59,35.17-7.63,51.75-8.49,23.31-18.17,46.19-27.14,69.33-5.35,13.8-10.34,27.75-12,42.6-1.14,10.18-.45,20,5.73,28.83,7.9,11.23,29.26,20.45,47.42,8.95,12.61-8,21.75-19.22,29.37-31.72,5.28-8.66,9.79-17.8,14.63-26.73.64-1.17,1.24-2.37,1.85-3.56Zm-64,77.62c-7.42-2.67-36.13,4.68-45,13.57C953.08,798.59,968.48,794,983.06,789.54Zm-30.67-198c-3.12-8.89-26.23-20.38-37.62-17.94,6.81,2.71,13.45,4.95,19.72,7.95S946.65,588.31,952.39,591.55Z" transform="translate(-580.47 -111.91)" style="fill: #01609d"/>
    <path d="M631.07,319.36a59.6,59.6,0,0,1,14.69-17.19c19.32-15.78,42.08-24,66-29.41,6.61-1.49,13.42-2.05,20.13-3.08a16.92,16.92,0,0,0,2.85-1.14c-14.69-3.72-28.58-3.48-42.54-1.79l-.3-.9c3-1.49,6-3.14,9.09-4.43a135.37,135.37,0,0,1,64.23-9.76c14.06,1.2,28,3.64,42,5.56a38,38,0,0,1,4,1c-1.31,4.35-3.69,8.55-1.06,14.14.44-2.79.66-4.59,1-6.37,1.65-8.19,9.13-13.86,17.24-12.44,10.43,1.82,19.2,7,27.26,15.14-1.42-.31-2-.43-2.64-.58s-1.24-.35-1.86-.5c-8.66-2.08-15.57,3-15.87,11.94a62.3,62.3,0,0,0,.66,10.74c.52,3.52,1.56,7,2.56,11.24-2.34-1.07-4.22-1.92-6.08-2.79-6.94-3.21-14-5.58-21.86-5.26-10.26.42-17.39,7.46-17.85,17.87-.68,15.11,4.9,28.4,12.93,40.49,6.95,10.44,15.39,19.89,23.17,29.79,1.25,1.6,2.47,3.23,4.25,5.54-2.66-.18-4.61-.29-6.56-.46-11.16-1-22.14-.26-32.55,4.21-9.52,4.09-15.81,11.26-19,21.16a4.59,4.59,0,0,1-2,2.62c-.85-3.92-1.7-7.85-2.48-11.48-1.92-.87-3.71-1.53-5.35-2.46-9.32-5.34-19.6-7.75-30.06-8.86a254.85,254.85,0,0,0-32.33-1.47,290.5,290.5,0,0,0-57.28,7.14c-.72.16-1.46.22-3.51.52,1.71-2,2.53-3.32,3.69-4.22,10.85-8.45,23.08-14.43,35.66-19.77,3.25-1.39,6.64-2.45,10.25-3.77-5.52-1.86-40.17,7.53-57.16,15.14a274.81,274.81,0,0,0-51.84,31,99.7,99.7,0,0,1,12.52-33.67c12.26-21.32,28.42-39.51,46.77-55.62,10.3-9.05,21.75-16.78,32.85-24.89,2.61-1.91,5.86-3,8.72-5a7.43,7.43,0,0,0-2.14.32c-4.73,2.29-9.63,4.33-14.08,7.09a51,51,0,0,1-13.68,5.78c-6.73,1.86-13.1,5.05-19.63,7.68C633.3,318.36,632.65,318.67,631.07,319.36Zm140.34,13,1.32-.5c-.43-1.48-.86-3-1.28-4.44-1.7-6-3.71-12-5-18.07-3.59-16.63,11.08-28.53,23.13-29.76s22.47,2.92,32.7,8.36c1.07.57,2.24,1,3.73,1.62-.17-1.09-.12-1.48-.26-1.57-12.5-7.84-25.49-14-40.88-11.26-10.35,1.87-19.43,11.1-21.47,21.32-1.67,8.33.76,16,3.42,23.68C768.06,325.33,769.85,328.78,771.41,332.32Z" transform="translate(-580.47 -111.91)" style="fill: #c22e38"/>
    <path d="M1076.38,154.1c12.46-7.7,24.76-15.69,37.45-23a283.5,283.5,0,0,1,27.49-13.81,29.16,29.16,0,0,1,20-1.37c10.31,2.92,14.26,11.13,10,21.41-9-4.09-17.26-.88-25.3,2.91-16.28,7.68-30.63,18.3-44.38,29.78-.33.27-.53.68-.34,1.57,3.79-2.72,7.52-5.52,11.37-8.14,12.76-8.7,25.61-17.3,40.39-22.3a40.47,40.47,0,0,1,11.66-2.18c5.2-.13,8,2.87,7.54,8.08-1.18,12.53-6.46,23.4-14.82,32.72-13,14.48-28.78,25.56-45.18,35.66C1090.27,229,1067.8,242,1045.47,255.1c-3.43,2-7.19,3.46-10.61,5.49-16.43,9.8-30.49,5.13-42.9-5.08-13.59-11.18-21.21-25.76-24.46-42.86-.74-3.9-1.66-7.77-2.66-11.6-1.77-6.81-6.09-11.89-11.58-13.26l3.86,4.92a3.8,3.8,0,0,0-.52.46c-5.56-1.34-11.11-2.75-16.69-4-6.46-1.43-13.52-2.48-15.6-9.93-2.44-8.68.09-16.5,6.84-22.65,8.28-7.54,22.37-8.6,33.26-2.72A47.85,47.85,0,0,1,981.77,170c1.92,2.92,3.68,3.29,7,2.38,27.26-7.53,52.42-19.44,76.34-34.48,15.63-9.83,32.13-18.41,50.46-22.25,6.12-1.29,12.58-1,19.08-.63-21.51,10.23-39.25,25.88-59.24,38l-8.62,4.39.73,1.36Zm-35,43.13c-9.44-3.26-25.73,2-33.34,10.27-6.06,6.57-11.16,21-8.35,26.15C1003.32,209.72,1018.42,199,1041.43,197.23ZM1054,165.56c15.79,1.54,30.28,4.07,43.89,10.24C1094.84,168.39,1065.55,161.11,1054,165.56Z" transform="translate(-580.47 -111.91)" style="fill: #f4f5f8"/>
    <path d="M987.8,550.73c5.51,1.24,11,2.76,16.53,3.66,8.82,1.42,13,.65,27.56-3.35-1.41,1.5-2.9,2.93-4.18,4.52a18.44,18.44,0,0,0-1.68,3.21c1.28.23,2.64.85,3.84.62,6.82-1.29,12.2-5.23,17.17-9.82l2.43-2.27c2.9,1.44,5.55,2.56,8,4.06.94.6,1.49,2,1.94,3.16,7.76,19.84,10.32,40.5,9.2,61.63-1.06,20.07-3.69,40-10.09,59.11-10,29.86-22.84,58.46-44.05,82.31a78,78,0,0,1-18.57,14.74c-16.12,9.55-44.27-1.17-45.47-25-.66-13,2-25.45,6.35-37.44,7.94-22,16.63-43.7,24.89-65.57,6.18-16.34,11.86-32.84,14-50.3,1.82-14.76.75-29-8.3-41.56a4,4,0,0,1-.37-1.07Zm54.59,47h1.36c1.49-8.16,1.67-16.22-1.63-24l-1.14.07Z" transform="translate(-580.47 -111.91)" style="fill: #f4f5f8"/>
    <path d="M816.54,894.83c-4.2,0-8.47-.48-12.6.09-11.51,1.57-22.1,5.58-29.39,15.12-7.86,10.29-9.14,21.81-4.41,33.92.51,1.31,1.14,2.57,1.89,4.25a17.84,17.84,0,0,1-2.75-.5c-19.08-7.17-27.71-24.71-22.48-44.88,4.14-16,14.65-26.13,29-33,12.11-5.8,25.06-8.58,38.32-9.56,8.9-.65,17.9-.12,27.08-.12.93-6.87,1.81-13.32,2.79-20.47a80.64,80.64,0,0,0,42.06,18.62c15.54,2.1,30.44-.81,45.71-7.14-2.2,5-4.12,9.22-5.92,13.49-7,16.57-14.08,33.09-20.8,49.75-4.6,11.39-11.7,20.19-22.45,26.45C865,951.08,847.06,960.44,827,964.63a53.25,53.25,0,0,1-42.27-8.4c-19.77-13.52-18.13-42.19,2.89-53.82,8.73-4.82,16.67-6.61,28.86-6.48C816.47,895.56,816.51,895.19,816.54,894.83Z" transform="translate(-580.47 -111.91)" style="fill: #fcbb43"/>
    <path d="M709.84,632.67c-7.65-10.92-15.12-21.6-22.59-32.28l-.51.17a16.07,16.07,0,0,0,1.39,4.06c2.21,3.32,1.43,6-.82,9-11.41,15.39-22.79,30.79-33.83,46.44-4.73,6.69-8.61,14-13.35,21.77-1-2.2-2.2-4.19-2.7-6.36-1.92-8.34-.2-16.5,3-24.08,6.3-15.15,13-30.17,20.13-44.95a328,328,0,0,0,19.63-49.79c.94-3.18.66-5.31-1.95-7.79-4.26-4.06-7.9-8.78-11.76-13.26-11-12.8-6-30.88.62-40.6,4.4-6.5,10.84-9.25,18.81-7.54,4.42,1,8,3.38,9.71,7.47,2.12,5,4.44,10.24,5,15.55,1.23,11.45,7.79,16.83,18.32,18.81,5.51,1,11,2.54,16.51,3.19,11.23,1.33,18.13,8.08,23.26,17.41s8.42,19.61,7.64,30.28c-.51,6.87-2.91,13.75-5.36,20.29-9.9,26.4-21.7,51.87-38.49,74.73-7.43,10.11-15.7,19.42-27.07,25.31-6.29,3.26-12.91,4.85-20.07,3.25-8.15-1.83-11.84-7.95-9.43-16.11,2.47-8.38,7.89-15,13.5-21.34C689.5,654.88,699.86,643.67,709.84,632.67Zm15.51-70.25c-11.74,5.08-18.82,29.47-12.24,37.86C711.73,586.07,716.09,573.87,725.35,562.42Z" transform="translate(-580.47 -111.91)" style="fill: #f4f5f8"/>
    <path d="M941.89,358.34l-5.14-.28-.37.78c2.66,1.24,5.26,2.65,8,3.69,27.94,10.57,55.71,9.1,83.35-1.27.71-.27,1.46-.44,2.19-.65l.59.66c-1.83,1.19-3.67,2.36-5.48,3.58-.15.1-.14.45-.35,1.16a18.88,18.88,0,0,0,2.43-.62c13.21-5.73,24.83-14,36.25-22.61,14.66-11.09,29.51-21.95,44.3-32.87,1.91-1.41,4-2.58,6.67-4.3-.29,1.37-.23,2.09-.55,2.43-11.73,12.42-23.58,24.72-35.23,37.21-15.55,16.67-31.54,32.86-49.85,46.56-18.94,14.19-39.45,25.47-62.93,29.51-12.06,2.08-24.57,2-36.88,2-17.62,0-34.92-3.27-52.18-6.51-6.65-1.25-13.32-2.35-20-3.55a3.61,3.61,0,0,1-2.56-1.72h20.73c-8.69-6.5-53.79-1.52-64.83,7.59a27.06,27.06,0,0,0,2.72-.45c3.58-1,7.49-3.35,10.63-2.58,2.69.66,4.45,5,6.68,7.59,14.1,16.6,30.76,30.37,48.51,42.78,7.77,5.42,16.27,9.81,24.51,14.53a23.53,23.53,0,0,0,5.79,2.09c6.36,1.66,9.29.57,11.51-5.64,3.19-8.93,5.86-18.06,8.4-27.21,2.09-7.52,3.65-15.18,5.45-22.75h6.61c-2.28,7.77-4.07,15.24-6.67,22.42-4,11.08-8.17,22.13-13,32.87-4.37,9.73-6.38,10.45-16.54,6.94-21.39-7.39-41.1-18.15-59.78-30.85l-3.57-2.44-1.1,1.22,5.73,3.82-1,1.18c-12-1.69-23.87-4.17-35-8.86A112.56,112.56,0,0,1,788,441.94c-15.2-10.87-13.12-26.95-3.77-38.84,6.84-8.7,16.64-11.85,27.12-12.86,17.23-1.67,34,.92,50.53,5.92,10.89,3.31,21.79,6.57,32.15,9.69,7.68-9.7,7.71-20.75,4.1-32,3.62.62,7.07,1.58,10.56,1.73,6.68.29,10.74-3.54,11.7-10.18,1.2-8.29-1.13-16-3.68-23.65-.36-1.07-.68-2.15-1-3.22,6.3-2.06,13,.21,17.67,6.34,2.39,3.15,4.1,6.8,6.2,10.18a23.75,23.75,0,0,0,2.27,2.67A.61.61,0,0,1,941.89,358.34Z" transform="translate(-580.47 -111.91)" style="fill: #fcbb43"/>
    <path d="M984.7,841,978.6,854l.78.58a33.56,33.56,0,0,0,2.74-4.27,8.22,8.22,0,0,1,6.88-5.19c14.29-2.21,28.45-5.34,42.79-7,16.2-1.86,31.2,1.48,43.24,13.72,12.74,12.94,12.14,31.32-1.61,42.66a10.49,10.49,0,0,1-1.78,1c.44-3.69,1.29-7.21,1.22-10.72-.24-11.85-7-19.27-17.33-23.76-9-3.93-18.42-5.61-28.24-4a22.45,22.45,0,0,0-3.41,1.15c6.37.39,12.47.36,18.44,1.27a46.31,46.31,0,0,1,12,3.93c20.08,9.16,17.47,29,8.14,39.69-8.68,9.95-20.28,14.62-32.5,18-17.35,4.8-35.15,5.93-53.07,5.49-21.61-.54-43-2.43-63.93-8.48-1.34-.39-2.66-.83-4.48-1.41,2.13-5.24,4.22-10.31,6.27-15.39q10.65-26.44,21.24-52.92c1-2.44,2.07-3.08,4.86-2.58,14.94,2.68,29.46,1.25,43.28-5.39C984.33,840.58,984.51,840.78,984.7,841Z" transform="translate(-580.47 -111.91)" style="fill: #fcbb43"/>
    <path d="M1030.83,555.1c5.9-5.13,9.94-11.59,13.93-18.08l-.8-.64c-.3.18-.7.3-.87.56-6.82,10.42-17.3,13.55-28.86,14.44-8.54.66-17,.24-25.12-2.71-2.15-.78-4.63-2.18-5.75-4-7.93-13.14-20.1-20.24-34.22-24.5-5.71-1.72-11.67-2.6-18.13-4a15.76,15.76,0,0,1,8-8.32,83.87,83.87,0,0,1,16.18-6c12.48-2.83,25.13-4.08,37.76-.45.86.24,1.72.51,2.56.83a4,4,0,0,0,2.06.46c-2-4-6.85-3.08-10.45-5.78,13.08-5.45,25.84-4.91,40-1.56-1.26-1.25-1.77-2.22-2.45-2.36-6.27-1.26-12.52-2.84-18.87-3.39-5.7-.5-8-2-8.71-8.17l5.21-3.16c3.32-.38,6.64-.79,10-1.15,25.52-2.76,50.69,8,56.9,38.52,2.06,10.09.3,19.69-6.4,28-4.86,6-4.83,6-10.88.84,4.28-6.1,7.87-12.57,7.61-20.54-3.79,15.41-14,25.1-27.63,31.8Z" transform="translate(-580.47 -111.91)" style="fill: #f4f5f8"/>
    <path d="M864.74,322.84c-4-3.74-7.49-8.31-12.09-11-8.78-5.22-11.79-13.32-13.45-22.46a45.85,45.85,0,0,1-.77-8c0-9.12,5.64-13.7,14.11-10.17a78.89,78.89,0,0,1,20.28,12.07,144.15,144.15,0,0,1,37.61,49.21,3.65,3.65,0,0,1,.16,2.87,36,36,0,0,0-3.34-4.09c-4-3.74-7.69-8.11-12.32-10.85-8.53-5-15.93-.69-16.81,9.22-.15,1.78,0,3.59.06,5.39l-.81,1-8-8.29-.57.7c4.47,6.08,9.07,12.07,13.38,18.27a101.43,101.43,0,0,1,14.62,31.47c1.55,5.72,2,11.6-.17,17.38-2.57,7-4.7,8.07-11.58,5.47-1.31-.49-2.59-1.05-3.94-1.6,0-.6-.2-1.22,0-1.57,5.08-7.65,4-15.67.29-23.13-8.12-16.47-20.84-27.84-39.14-31.91-12.21-2.72-23.9,3.89-21.66,19.54a6.68,6.68,0,0,1-.42,3.52c-2.41-3.17-4.92-6.27-7.21-9.52-7.84-11.1-14.29-22.9-16.63-36.47a32.7,32.7,0,0,1-.11-11.12c1.72-9.69,10.4-14.56,20.75-12.57,14.6,2.8,26.48,10.64,37.75,19.71,2.3,1.85,4.37,4,6.71,5.78.87.67,2.2.76,3.31,1.12l.56.75Z" transform="translate(-580.47 -111.91)" style="fill: #f4f5f8"/>
    <path d="M968.1,366.06c1.45-32.31,2.88-64.12,4.37-97.29,13.58,13.16,28.6,18.93,46.77,16.67.78,6.34,1.49,12.67,2.34,19,1.91,14.1,3.89,28.18,5.84,42.27.12.89.27,1.78.36,2.67.74,7.71.72,7.68-6.56,10.23-15.06,5.28-30.51,8.07-46.51,7.36C972.69,366.85,970.69,366.41,968.1,366.06Z" transform="translate(-580.47 -111.91)" style="fill: #01609d"/>
    <path d="M896,685.7c-1.29,2.18-2.25,3.81-3.13,5.28-5.48-1.87-10.7-3.93-16.07-5.45-16.18-4.6-30.18,0-43.33,9.81-19.72,14.73-36.55,32.38-53,50.46-5.62,6.17-11.24,12.35-17.13,18.26a31.08,31.08,0,0,1-7.89,5.44c-4.68,2.37-8.82.6-10.31-4.45-2.36-8-.76-15.8,1.9-23.43,7.12-20.47,20.84-35.87,38-48.37,13.81-10,28.6-18.28,45.59-21.77a76.51,76.51,0,0,1,48.49,5.43C884.75,679.52,890.17,682.65,896,685.7Z" transform="translate(-580.47 -111.91)" style="fill: #01609d"/>
    <path d="M1002.25,478.28,997,481.44a11.49,11.49,0,0,1-2-1.91c-8.74-13.34-17.22-26.86-26.24-40-3.23-4.7-1.35-9.33-2-14.24,25.43-4.73,46.9-17,67.74-33.15,3.8,29.25,7.45,57.48,11.21,86.46-1.89-.48-3.18-.73-4.42-1.13a61.66,61.66,0,0,0-34.24-1.28A29.1,29.1,0,0,0,1002.25,478.28Z" transform="translate(-580.47 -111.91)" style="fill: #01609d"/>
    <path d="M902.66,673.67c-.74,2-1.47,4-2.59,7.06-1.93-4-3.2-7-4.78-9.81-4.69-8.43-9.16-17-14.36-25.11-8.51-13.25-12.9-15-29.59-10.59-15.93,4.22-30.13,12.49-44.7,19.87-8.83,4.47-17.47,9.47-26.69,12.94-10.74,4-13.05-.55-12.16-10.38,1-11.36,7.64-19.91,16.49-26.41,21.16-15.56,45.13-20.62,70.89-17.15,21.61,2.91,34.21,16.27,40.28,36.52,1.55,5.16,2.74,10.43,4.17,15.63a9.64,9.64,0,0,0,1.31,2.18C901.51,670.17,902.08,671.92,902.66,673.67Z" transform="translate(-580.47 -111.91)" style="fill: #01609d"/>
    <path d="M998.32,489.43c-4.51,2.45-8.62,4.72-12.79,6.87a5.28,5.28,0,0,1-2.93.49,70,70,0,0,0-41.55,7c-5.08-6.29-10.12-12.45-15-18.73a3.83,3.83,0,0,1-.25-3.05c5.33-17.15,10.82-34.25,16-51.43.73-2.4,1.62-2.9,4-3.42,7.45-1.65,11.47,1.74,15.38,7.66,11.77,17.8,24.11,35.23,36.21,52.81A13.24,13.24,0,0,1,998.32,489.43Z" transform="translate(-580.47 -111.91)" style="fill: #c22e38"/>
    <path d="M827.2,415.43c7.73-2.35,15.21-2.12,22.47-.91,17.17,2.83,34.2,6.47,51.36,9.36,8.19,1.38,16.54,1.8,24.82,2.66,2,.21,4,.49,6.78.83-3.88,14.23-7.61,27.89-11.33,41.56l-1.4,0c-.38-1.64-.73-3.28-1.14-4.91-2.52-10-8.31-15.74-17.71-16.81-2.39-.27-5.5.09-7.26,1.46-2.09,1.63-3.51,1.22-5.46.57-6.82-2.27-13-1.67-17.71,4.41-1.34,1.74-2.28,1.51-3.74.3-8.48-7.08-17.22-13.87-25.44-21.23-4.57-4.09-8.35-9.07-12.39-13.72A18.8,18.8,0,0,1,827.2,415.43Z" transform="translate(-580.47 -111.91)" style="fill: #9c283b"/>
    <path d="M666.05,711.75c-2.14.77-4.28,1.53-6.41,2.32-11.52,4.33-21.22-3-20.18-15.36.83-9.8,5.21-18.35,10.35-26.34,10.35-16.1,21.28-31.84,31.93-47.76,3-4.44,5.8-9,9-13.9.87,1.25,1.39,2.06,2,2.82,3.8,5,7.43,10.15,11.49,14.93,3.29,3.89,3.63,3.8-.06,7.54-6.41,6.49-13,12.81-19.48,19.24-8,8-15.78,16.22-20.25,26.92-2.8,6.71-3.08,13.2,1.56,19.25.89,1.16,2.29,1.91,3.3,3a19.35,19.35,0,0,1,1.87,2.73c-.14,1-.28,2-.43,3,0,.25,0,.5,0,.76C669.13,711.11,667,708.22,666.05,711.75Z" transform="translate(-580.47 -111.91)" style="fill: #f4f5f8"/>
    <path d="M828.27,373.71c-3.88-6.28-5.31-12.31-4.5-18.78.83-6.69,8.51-11.35,16.64-10.27,18.28,2.44,36.72,19,40.88,37,1,4.32,1,8.72-1.42,12.73-1.49,2.52-3.35,4.12-6.6,2.61a64.65,64.65,0,0,0-6.55-2.27c3.18-8.43-.67-14.36-6.33-19.61-5.3-4.91-11.34-8.33-18.71-9.12C835.6,365.36,830.78,366.85,828.27,373.71Z" transform="translate(-580.47 -111.91)" style="fill: #1bc31e"/>
    <path d="M773.56,599.35l-7.76,1.5a10.37,10.37,0,0,1,.22-2c8.84-23.6,3.63-44-14-61.61-3.4-3.41-7-5.81-11.81-6.48a10.84,10.84,0,0,1-2.09-.73c2.42-5,10.73-6.71,16.63-5.07a27.54,27.54,0,0,1,9.3,4.39c12.58,9.71,20.74,22.48,23.43,38.14,2.08,12.13-1.66,22.55-12.15,29.9-.17.12-.19.44-.28.67Z" transform="translate(-580.47 -111.91)" style="fill: #f4f5f8"/>
    <path d="M966.67,229.44c2.59-.53,2.94,1.47,3.91,3.14,7,12,13.74,24.4,26.48,31.3,12.29,6.66,25.14,7.44,37.94.86,1.33-.69,2.69-1.32,4.93-2.42a35.12,35.12,0,0,1-.87,5.29c-3.32,9.6-11.19,13.49-20.3,15-18.09,3-43.85-8.42-51.38-28.48-2.29-6.1-3.88-12.24-2.31-18.82a10,10,0,0,0-.22-3Z" transform="translate(-580.47 -111.91)" style="fill: #f4f5f8"/>
    <path d="M870.83,456.91c3.19-5.42,8.13-5.77,13-5.15,4.57.59,9,2.11,13.84,2.82l-4.27-3.4c2.83-2.52,5.37-2.73,10.12-.82,5.88,2.36,9.46,7.08,11.73,12.62a34.46,34.46,0,0,1,2.54,11.5c.21,4.92-3.1,7.42-7.49,5.38-8.56-4-16.88-8.53-25.08-13.22C880.25,463.79,875.69,460.23,870.83,456.91Z" transform="translate(-580.47 -111.91)" style="fill: #ebebeb"/>
    <path d="M905,372.05c4.21-3.44,4.29-7.73,3.1-12.36-1.47-5.72-3.94-10.92-8.26-15-6-5.72-10.17-5.08-14,2-5.18-4.18-6.37-18.47-1.81-23,2.84-2.8,6.44-2.57,9.26-.56,4.45,3.17,9,6.59,12.45,10.75a52.85,52.85,0,0,1,12.12,27.94c.46,3.82-.36,7.31-3.55,9.64A8.12,8.12,0,0,1,905,372.05Z" transform="translate(-580.47 -111.91)" style="fill: #1bc31e"/>
  </g>
</svg>
