<svg xmlns="http://www.w3.org/2000/svg" viewBox="0 0 878.14 943.74">
  <g id="Camada_2" data-name="Camada 2">
    <g id="Camada_1-2" data-name="Camada 1">
      <g>
        <path d="M542.05,943.74c-5.9-1.48-11.91-2.6-17.67-4.48-29.14-9.51-47.74-38.44-44.18-68.36,3.83-32.12,27.78-55.66,59.13-58.59,23.4-2.19,44.39,2.94,60.83,20.4,17.5,18.58,22.05,40.92,14.48,65-7.66,24.34-25.23,38.49-50,43.88-3.37.74-6.75,1.44-10.13,2.16Zm41.89-66c0-19.3-15.28-34.46-35-34.59-19.49-.13-35.19,15.23-35.17,34.4S529.6,912,549.07,911.9C568.32,911.81,583.9,896.53,583.94,877.71Z" style="fill: #0f63ac"/>
        <path d="M878.14,733.25a40.63,40.63,0,0,0-1.62,5.09c-6,32.22-35.22,50.85-67.28,47.58-25.3-2.58-43.35-15.44-51.81-39.83-12.19-35.17,12.37-72.66,49.38-76.38,21-2.1,39.62,2.54,54.76,17.93,8.74,8.89,13.54,19.75,15.41,32a21,21,0,0,0,1.16,3.43Zm-61.92,25c17.25-.06,31.13-13.75,31.07-30.66S833.2,697.08,816,697.06s-31.11,13.41-31.27,30.48S798.49,758.26,816.22,758.21Z" style="fill: #0f63ac"/>
        <path d="M0,866.78c1-2.94,2-5.86,2.92-8.83,11.47-37.25,53.32-56.5,89.27-40.9a6,6,0,0,1,3,4.38c.26,11.11.14,22.23.14,34.69-8.26-8.39-17.17-13.37-28.27-13S46.66,848,40.16,857.28c-9.61,13.81-7.76,33.77,4.08,45.16,13.79,13.25,31,12.47,51.13-3v21.7c0,4,.38,8-.18,11.85-.27,1.87-2,4.52-3.59,5-7,2.24-14.27,3.84-21.44,5.67H60c-.6-.34-1.18-.91-1.81-1-26.1-2.85-49.08-22.57-55.7-47.8-.69-2.64-1.64-5.21-2.47-7.81Z" style="fill: #0f63ac"/>
        <path d="M878.14,625.75a5.59,5.59,0,0,0-1.66-.15c-6.73,1.42-10.67-1.25-12.08-8-1.2-5.74-4.75-7.67-10.58-7a84.66,84.66,0,0,1-14.68,0c-3.17-.18-4.95,1-5.9,3.88-.4,1.24-1.23,2.37-1.55,3.62-1.71,6.76-5.83,9.15-13.16,6.8,9.84-21.14,19.69-42.3,30.07-64.62,3,6.7,5.62,12.26,8.12,17.85q9.69,21.62,19.37,43.23a24.55,24.55,0,0,0,2,3.18ZM839.19,601.6h18.24c-3-6.9-5.84-13.29-9-20.46Z" style="fill: #1164ab"/>
        <path d="M0,564.64c6.75,0,13.55-.52,20.22.21,8.43.92,14.06,8.08,14.44,16.93a17.07,17.07,0,0,1-13.37,17.86c-3.62.86-7.41,1-11.81,1.62v24.49H0ZM9.64,573v18.63c5.61.6,11.39,1.17,14.32-4.08,1.51-2.71,1.52-7.7,0-10.34C21,572.13,15.24,572.36,9.64,573Z" style="fill: #1164ab"/>
        <path d="M878.14,898.47q-1.07,2.38-2.14,4.77c0-.94-.11-1.88-.11-2.82,0-26-.09-52,.07-78,0-4.14-1-5.77-5.37-5.51a119.86,119.86,0,0,1-17,0c-5.53-.44-7.44,1-7.34,7,.39,23.17.17,46.35.15,69.52,0,1.27-.21,2.54-.32,3.81l-.65-.12c-.07-.75-.14-1.49-.22-2.23V814.73h32.88Z" style="fill: #1164ab"/>
        <path d="M0,672.14l1.13.31V782.84L0,783Z" style="fill: #1164ab"/>
        <path d="M838.72,941.56l-7,2.18H813.64L807,941.42Z" style="fill: #1164ab"/>
        <path d="M564,320.21c-9.42,55.33-40.57,92.06-94.94,106.63-70.52,18.89-143-29.16-154.58-101.19a152.93,152.93,0,0,1-1.95-23.6q-.24-83.4,0-166.79c0-2.54,1.36-5.08,2.09-7.61,3.68.35,7.37,1,11.05,1,16.2-.15,32.39-.79,48.57-.76,49.28.09,98.55.42,147.83.65h5c10.5-.24,21-.27,31.48-.81,5.07-.26,6.35,1.54,6.33,6.45-.17,43.74,0,87.49-.13,131.23C564.72,283.67,564.27,301.94,564,320.21Zm-73.76-.63,1.21-1a21.33,21.33,0,0,0-1.8-3.61c-6.31-8.39-12.72-16.71-19-25.1a45.2,45.2,0,0,1-2.75-4.73c2.07.16,4.16.23,6.22.53.66.1,1.24.8,1.87,1.21,9.86,6.32,20.42,7.63,31.87,4.33-6.59-2.13-13.4-3.38-19.22-6.48s-10.54-8.05-16.94-13.12l44.46-4.9c0-.36.07-.71.1-1.07l-43.18-6.21c-.19-.61-.39-1.22-.59-1.84,2.89-1.39,5.66-3.19,8.7-4.09,8.73-2.6,16.44-6.27,19.51-16.57-9.8,9.55-22.4,6.79-34.29,8.48l25.27-31.76-1.41-1.26L457.67,237l-2.06-1c6.42-12.78,11.53-25.76,7-40.2a44.53,44.53,0,0,0-2,7c-1,3.9-1.24,8.24-3.19,11.59-3.15,5.39-7.38,10.15-11.24,15.11a9.31,9.31,0,0,1-2.42,1.62,9.64,9.64,0,0,1-1.21-2.78c-.53-6.15-.78-12.33-1.4-18.47-.79-7.72-1.86-15.42-2.93-24.17a14.92,14.92,0,0,0-1.05,2.44c-1.69,13-3.31,25.95-5.11,38.91-.2,1.38-1.45,2.61-2.21,3.91-1-.94-2.34-1.71-2.84-2.85a90.26,90.26,0,0,1-3.62-10c-2.29-7.54-7.49-12.3-14.45-15.65,2.08,5.54,5.48,10.55,7,16.07,1.62,6,1.46,12.4,2.17,19.55-10.86-5.93-18.41-16-29.64-20.74,4.79,11.6,14.88,19.55,19.43,31.55-13.41-7.78-27.26-11.14-42.4-7.74,6.8,2.13,14.18,2.84,20.46,5.86s11.44,8.35,17.09,12.67l.05,1.54c-6.47.81-12.92,1.86-19.4,2.36s-13.09.48-19.15,2.9l.26,1.38,38.91,5.84.12,2.14c-5.95,2.33-12.35,3.93-17.71,7.21s-9.46,8.15-14.12,12.33l1.06,1.44c5.64-2.56,11.08-5.8,17-7.51,6.14-1.78,12.72-2.09,19.1-3l.91,1.05c-3.84,4.75-7.73,9.46-11.5,14.26s-7.33,9.57-11,14.36l1.85,1.76,29.75-21.83,1.89,1.46c-7.88,12.53-11.23,25.89-8,40.5,2.22-6.54,3.08-13.69,6.11-19.74,3.11-6.21,8.35-11.35,12.66-16.95l1.52,0q2.25,22.56,4.49,45.1l1-.07,6.51-45.32,2.35-.4c4.18,13.75,10,26.36,23.89,34.76-3.74-6.93-7.83-12.62-10-19s-2.36-13.48-3.42-20.27l1.83-.64Zm62.21-132c0-9.73.17-18-.13-26.19-.06-1.77-1.46-3.8-2.79-5.19-12.06-12.55-30.33-14.48-45.92-4.22-15.09,9.94-29.6,10.34-44.68.12-13.55-9.18-27.45-8.93-41.34-.24-4,2.48-8.12,5-12.53,6.32-11.59,3.51-22.1.77-32-6.1-15.11-10.43-34.11-8.41-46.3,4.5-1.33,1.41-2.83,3.39-2.89,5.16-.3,8.39-.14,16.8-.14,25.2l1.8,1.26c.57-1.17.87-2.61,1.74-3.49,7.44-7.45,16.42-10.87,27-10.65,8.18.17,14.81,3.75,21.25,8.16,7.58,5.19,15.82,7.15,25,5.2-.38-3.84-.72-7.2-1.05-10.57l1.53-.41c1.59,3.4,3.19,6.79,4.73,10.08l29.52-14c.27.45.55.9.83,1.35.53-1.66,1.05-3.31,2-6.19l1.79,4.59c7.19,3.18,13.47,5.55,19.36,8.67,8,4.22,6.32,5.82,12.59-2.66a21.47,21.47,0,0,0,1.7-3.39l1.95,1.39c-1.17,3.53-2.33,7.06-3.62,11,10.3,1.82,19.52,1.06,28.2-4.33,4.45-2.77,9-5.86,13.93-7.28C528.41,171.43,541,175.47,552.46,187.6ZM349.62,374.81c1.48,1.86,2.51,3.36,3.73,4.69a115.1,115.1,0,0,0,51.33,32.67c3.95,1.24,7.16,1.21,10.57-1.24,15.33-11,30.75-10.9,46,.07,3.23,2.32,6.27,2.45,10,1.28A113.12,113.12,0,0,0,514.25,388c4.38-4,8.38-8.37,13-13.08-10.21-1.2-14.77,0-25.37,6.85-13.78,8.92-27.65,9.29-41.26.12-15.26-10.28-30.13-10.24-45.18.19a35.89,35.89,0,0,1-21.21,6.37c-7.93,0-14.61-3-20.89-7.41C366.45,376.21,359,373.39,349.62,374.81Zm52.17-18.06c.52-9.59,9.61-16.95,7.24-26.88-6.18.45-12.25,2.25-17.59,1-8.06-1.92-14.77-1.89-20.63,4.47-.25.27-.95.12-2.77.29l7.37-10.21c-16-12.81-34.42-9.52-45.48-.07-1.44,1.23-2.95,3.95-2.54,5.49,1.74,6.67,4.18,13.15,6.42,19.84,15-7.35,28.4-6.32,41.59,3,12,8.49,24.91,8.3,37.83,1.39,6.86-3.68,13.83-7.13,21.62-11.13-.83-7.79-1.8-16.83-2.77-25.9-9.35,1.21-13.38,3.42-13.52,9C418.24,339.93,409.54,347.94,401.79,356.75Zm45.68-39.41-1.87.82-3.48,26.38c6.22,2.84,11.75,4.5,16.3,7.6,15.45,10.53,30.51,10.36,45.68-.29a33.23,33.23,0,0,1,25.25-5.66c4.36.72,8.59,2.26,13.54,3.61,2-6.29,4.25-12.47,5.93-18.79a6.29,6.29,0,0,0-1.57-5.17c-12.28-11.78-33-11.83-45.77-.27l6.12,9.36L506.39,336c-2.61-2-5.16-4.12-7.87-6a6.26,6.26,0,0,0-3.88-1.29c-7.12,1-14.2,2.23-21.18,3.37,2.82,9.23,3,19-.43,21.23C471.19,336.14,457.93,327.84,447.47,317.34Zm-47-73.72c0-1.48.23-2.2,0-2.52-9.29-11.61-15.87-25.47-29.6-33.34-14.8-8.48-33.27-6.15-44.72,6.59-1.06,1.19-2.3,2.8-2.34,4.25-.22,8.55-.11,17.1-.11,25.52,4.93-3.39,9.31-6.9,14.15-9.58,3.89-2.14,8.55-5,12.5-4.48,6.9.86,13.51,4,20.25,6.21,1.39.45,2.94,1.35,4.22,1.09C384.12,235.46,392.29,238.22,400.52,243.62Zm151.9-1.06c0-7.5.14-16.07-.13-24.64,0-1.58-1.57-3.34-2.82-4.63-11.05-11.47-28.43-13.5-42.63-6.33-15.42,7.77-23,22.58-34.26,34.86,12.82.63,17.49-1.27,26.65-7.14,4.69-3,10.6-4.26,16.09-5.8,3.4-1,7.06-1,10.61-1.38a7.85,7.85,0,0,1,1.82.28l-.76,3.35,1.19-1.41Zm-16.66,22.87-.08,1.84-55.33,6.79c6.92,6.4,12.64,11.76,21.68,12.79,7.54.86,14.87,3,22.62,1.72a13.14,13.14,0,0,1,7.2.89c7,3.16,13.77,6.76,20.61,10.17,0-5-.66-10.89.15-16.58,1.37-9.61-3.78-14.76-11.19-18.67-3-1.57-6.19-3.28-9.42-3.59-6-.57-12.08-.16-18.12-.16l.08,1.5Zm-212.06,37c14.14-14.53,29.29-17.82,47.16-9.23,5.66-9.29,14.45-14.52,25.37-16.63l-.58-1.35-55-7.77,0-2,24.37-3.1c-14.51-5.47-31.85-.59-39.94,10.49a6.67,6.67,0,0,0-1.31,3.52C323.65,284.62,323.7,292.87,323.7,302.41ZM377.81,298c13.33,7.05,17.16,5.94,25.39-7.45C393.64,290,385.38,291.49,377.81,298Zm65.1-95.8c.87,8.4,1.55,15,2.43,23.51l13.25-17.41Zm-28.4,30.35c-1-7.41-1.75-13.29-2.51-19.05l-15.94,4.18Zm87.9,62.09c-11.09,3.85-19.19-1.73-28.64-5.66C484.1,304.46,489.71,305.64,502.41,294.64Zm-73.29-69.08c1.2-8.37,2.16-15.08,3.26-22.84l-10.91,3.91ZM467.76,215c-2.24,4.88-4.6,10-7.6,16.61l19.75-15Z" style="fill: #1164ab"/>
        <path d="M96.89,939.71c8.09-21.32,15.8-41.69,23.55-62,7.36-19.34,14.83-38.62,22-58,1.24-3.34,2.77-4.74,6.44-4.63,8.66.26,17.35.25,26,0,3.62-.1,5.11,1.14,6.41,4.57,13.3,35.38,26.84,70.67,40.32,106a10,10,0,0,0,2.61,4.21c1.38-7.61,2.83-15.21,4.13-22.84,4.93-29,9.93-57.89,14.58-86.88.68-4.23,2.29-5.18,6.17-5q11,.42,22,0c3.65-.14,5.22,1.16,6.46,4.56,6.84,18.72,14,37.34,21,56,.55,1.48,1.14,3,2.22,5.74,4.87-13,9.28-24.67,13.67-36.4,3.23-8.63,6.28-17.33,9.76-25.86.67-1.65,2.87-3.72,4.44-3.78,9.4-.35,18.81-.17,28.89-.17,7,41.33,14,82.45,21.1,124.12H346.62l-10.45-67.9-1.24-.13a31.68,31.68,0,0,0-1.62,3c-8.36,20.35-17,40.6-24.86,61.14-2.25,5.88-6.28,3.82-10,4.42-4,.65-5.48-1.34-6.8-4.82-7.33-19.34-14.91-38.59-22.43-57.87a20.34,20.34,0,0,0-3.8-6.53c-1.33,8.64-2.67,17.27-4,25.91-2,13.22-3.79,26.47-6,39.65-.24,1.41-2.76,3.46-4.24,3.48q-27.69.38-55.37,0a5.91,5.91,0,0,1-4.33-3.05,132,132,0,0,1-5.18-14.91c-.84-2.92-2.42-3.7-5.29-3.67q-18.94.19-37.89,0c-3.1,0-4.79.77-5.68,3.94a117.57,117.57,0,0,1-5,14.37c-.63,1.46-2.69,3.24-4.13,3.28C118.16,939.85,108,939.71,96.89,939.71Zm65.05-87.65c-5.13,14.62-9.72,27.73-14.49,41.31h28.94Z" style="fill: #0f63ac"/>
        <path d="M624.55,815.58c17.13-.13,34.26-.5,51.38-.25a49.34,49.34,0,0,1,15.75,3c15.05,5.44,23.67,19.36,23.28,36.44s-8,27.49-23.94,33.07c-.84.29-1.67.63-3,1.14l37.33,48.64V815.53h32.28v124.3q-16.26,0-32.6,0c-10.75,0-21.5-.28-32.24,0-4.46.12-7.11-1.19-9.51-5.09-7.8-12.66-16-25.05-24.14-37.54A6.46,6.46,0,0,0,656,894.4v44.67H623.9a14.91,14.91,0,0,0,.73-3.2Q624.63,875.72,624.55,815.58ZM655.93,871c9.23-.23,18.19.73,23.86-7.93,2.94-4.48,2.3-12.37-.9-16.57-4.09-5.38-14.3-7.88-23-5.5Z" style="fill: #0f63ac"/>
        <path d="M305.68,450.05c5.1,1.11,11.12,3.69,17,3.48,19.18-.69,38.41-1.63,57.45-3.89,35.9-4.27,71.67-5.32,107.67-1,21.66,2.61,43.51,3.88,65.31,4.89,6.28.29,12.7-2.38,19.21-3.73-4,10-1.26,21.28-.83,32.55.32,8.28-3.2,13.09-11.61,14.92-6.95,1.51-14.22,2.91-21.24,2.47-21.78-1.36-43.62-2.86-65.25-5.71-25.67-3.39-51.05-2.57-76.58.86-23.32,3.13-46.66,6.86-70.35,4.22-1.31-.15-2.64-.23-3.93-.47-14.88-2.77-18-7.32-17-22.46C306.17,467.12,305.68,458,305.68,450.05Z" style="fill: #0f63ac"/>
        <path d="M453.12,873.17c.51.21,1,.44,1.46.61,16.72,5.64,23.09,14.13,22.89,30.54-.18,15.91-8.93,28-23.91,32.59a46.27,46.27,0,0,1-12.7,2.34c-19.2.25-38.4.11-58,.11V815.11c4,0,8.12,0,12.2,0,13.95.14,27.91-.1,41.83.6,12.85.64,22.87,6.36,27,19.36,4.85,15.1,1.25,27.66-10.15,37.11A4.5,4.5,0,0,0,453.12,873.17Zm-37.93,42.22c7.86-1,15-1.52,21.87-3,5.15-1.12,7.5-5.3,7.61-10.59.12-5.5-2-10-7.45-11.24-7.16-1.58-14.55-2-22-3Zm0-51.21c7.47-.09,15.16,1.17,18.83-5.83,1.83-3.47,1.68-9.74-.33-13.1-4-6.64-11.5-5.47-18.5-5.22Z" style="fill: #0f63ac"/>
        <path d="M368.92,672.38h27V783.07c-8.88,0-17.87.19-26.84-.18-1.55-.06-3.25-2.26-4.47-3.8-16.34-20.7-32.61-41.46-49.81-63.37v67.09h-29V672.18c9.05,0,18-.18,27,.17,1.57.06,3.36,2.08,4.55,3.59,15.43,19.52,30.76,39.11,46.17,58.64a50.47,50.47,0,0,0,4.25,4.28c.32,0,.77.08.92-.08a1.7,1.7,0,0,0,.24-1Q368.93,705.08,368.92,672.38Z" style="fill: #0f63ac"/>
        <path d="M838.72,941.56,807,941.42c-19-2-32.61-15.33-36.34-36.13a86.19,86.19,0,0,1-1.35-14.6c-.15-23.75-.1-47.5-.09-71.26,0-1.26.25-2.53.4-4h31.72c0,2.3,0,4.31,0,6.33.23,24.31,0,48.63.85,72.92.66,18.65,15,23,30.83,18.51,6.35-1.8,9.28-7.31,11-13.36.47-1.61.8-3.27,1.19-4.9.08.74.15,1.48.22,2.23l.65.12c.11-1.27.32-2.54.32-3.81,0-23.17.24-46.35-.15-69.52-.1-6,1.81-7.47,7.34-7a119.86,119.86,0,0,0,17,0c4.33-.26,5.4,1.37,5.37,5.51-.16,26-.08,52-.07,78,0,.94.07,1.88.11,2.82A40.67,40.67,0,0,1,838.72,941.56Z" style="fill: #0f63ac"/>
        <path d="M1.13,782.84V672.45c15.42-.05,30.87-.55,46.27,0,11.34.41,21.26,4.71,25,16.64,3.91,12.43,3.28,24.23-7.89,33.31a9.6,9.6,0,0,0-1.16,1.41c.78.34,1.41.67,2.08.91C79.18,729.66,84.7,737,84.85,750.37c.16,14.08-6.72,24.92-19.24,29.55a39.16,39.16,0,0,1-12.56,2.85C35.75,783.07,18.44,782.86,1.13,782.84Zm28.31-21.48c6.83-.81,13-1.12,19-2.41,4.67-1,7-4.62,7.12-9.6.08-5.15-2-9.14-7-10.21-6.13-1.31-12.47-1.63-19.11-2.43Zm0-45.35c6.73-.61,13.88,1.11,17-5.84,1.42-3.19,1.15-8.59-.7-11.47-3.73-5.76-10.36-4.21-16.27-4.25Z" style="fill: #0f63ac"/>
        <path d="M702.68,783.09c-11.9,0-22.63.14-33.35-.14-1.56,0-3.57-1.73-4.55-3.2-7.18-10.82-14.15-21.78-21.21-32.69-1.08-1.66-2.26-3.25-4.08-5.86v41.49H610.8V672.94c17.8,0,35.54-1.17,53,.34,16.91,1.46,26.57,13.13,28,30.3,1.31,16-5.4,28.86-21.43,33.45a10.65,10.65,0,0,0-2,1.27Zm-63.11-61.26c8.19.07,16.28.81,21.07-6.93a12.42,12.42,0,0,0-.84-14.83c-5.29-6.49-12.73-5.75-20.23-5.22Z" style="fill: #0f63ac"/>
        <path d="M522.86,764c-2.2,6.18-2.71,14.68-7.09,17.87s-12.61,1.08-19.16,1.23c-3.38.07-6.76,0-10.91,0,3.53-9.43,6.83-18.35,10.21-27.24,10-26.36,20.17-52.67,30.06-79.08,1.34-3.56,2.95-4.9,6.83-4.71,7.53.36,15.08-.09,22.61.24,1.72.08,4.33,1.57,4.9,3q20.49,53.14,40.58,106.44c.05.14-.09.36-.36,1.32-9.07,0-18.38.1-27.68-.14-1.09,0-2.58-1.78-3.12-3.05-2.22-5.32-4.16-10.77-6.2-16.18a10.55,10.55,0,0,0-3-1q-17.1-.11-34.19,0C525.15,762.74,524,763.55,522.86,764Zm20.72-58.91L530.7,741.76h25.72Z" style="fill: #0f63ac"/>
        <path d="M122.29,766.26c-1.53,4.83-2.93,9.7-4.69,14.44a4.27,4.27,0,0,1-3.12,2.29c-9.21.18-18.41.11-28.33.11,14.18-37.28,28.13-74,42.2-110.92,9.72,0,19.33-.22,28.91.21,1.55.07,3.63,2.74,4.36,4.64,10.36,26.84,20.53,53.75,30.74,80.64,3.12,8.22,6.25,16.44,9.56,25.14H171.08c-2-6.15-4-12.37-6-18.59-.36-.41-.72-1.17-1.09-1.18-13.1-.15-26.2-.3-39.3-.18C123.91,762.87,123.1,765.08,122.29,766.26ZM144.09,705,131.22,741.9H157C152.75,729.79,148.66,718.1,144.09,705Z" style="fill: #0f63ac"/>
        <path d="M323.72,123.14c0-.37.07-.93-.14-1.09-8.89-7.12-8.12-19-13.74-27.84-5.77-9.09-10.16-19.07-14.85-28.8-.49-1,.68-3.92,1.73-4.35,9.81-4,19.77-7.58,30-11.43,9.14,20.77,23.13,36.95,43,49.24l-48.8,14.25c2.25,4.29,4.63,5,8.58,3.91,15.92-4.58,31.83-9.3,48-13a259.25,259.25,0,0,1,67.22-6.29c22,.73,43.87,2.59,65.22,8.33,13.16,3.53,26.18,7.57,39.37,10.95,2.25.58,5-1,7.59-1.55,0-.77-.09-1.55-.13-2.32L508.18,98.94c5.87-4.76,12.13-9.4,17.89-14.61A88.46,88.46,0,0,0,547.59,55c1.36-3,3-3.77,5.59-2.91,9,3,18,6,26.85,9.53,1,.39,1.79,4.07,1.11,5.47-6.06,12.53-12.57,24.84-18.67,37.35-1.07,2.19-.68,5.06-1.29,7.53a13.92,13.92,0,0,1-2.16,4.75,61.12,61.12,0,0,1-4.62,5.2L551,127a34.52,34.52,0,0,1-4.82-.79c-9.81-2.93-19.55-6.07-29.38-8.92-23.08-6.7-46.78-9.16-70.68-9.78-25.65-.66-51.1,1.4-76.08,7.59-12.13,3-24.29,6-36.16,9.88C329.51,126.43,326.35,128.08,323.72,123.14Zm-16.34-42.4,14.52,28.67,13.61-4.78C328.09,94.14,319.21,87.07,307.38,80.74Zm247.85,28.11,13.76-27C559.32,85,545.44,97,542.6,104.48Z" style="fill: #fbc231"/>
        <path d="M416.5,672.45h62.21v24.3c-9.71,0-19.1.1-28.48,0-4.1-.07-6.88.3-5.53,5.69a16.5,16.5,0,0,1-.27,7.83c-1.2,4.56,1.23,5,4.64,4.95,9.2,0,18.4,0,27.93,0v24.44H443.85c.4,6.52.76,12.45,1.17,19h33.73v24.08H416.5Z" style="fill: #0f63ac"/>
        <path d="M211.23,782.7V672.46H239.7v86H274V782.7Z" style="fill: #1164ab"/>
        <path d="M381.67,97.06c14.62-19.34,21.89-40.14,23.78-62.82C416,30.72,445.74,30.63,470,34c2.54,10.85,4.1,22.05,7.87,32.46s9.7,19.83,14.84,30A338.26,338.26,0,0,0,381.67,97.06Zm56.91-44c-10.84,9.41-17.21,21.13-21.43,35h42C457.79,77.11,448.05,60.39,438.58,53.08Z" style="fill: #fbc231"/>
        <path d="M711.26,782.7V672.59h28.4V782.7Z" style="fill: #1164ab"/>
        <path d="M290.47,375.6c.92,7.59,1.19,14.78,2.74,21.69,3.39,15.21,12.63,22.77,28.12,23.78,6.2.41,12.43.39,18.63.79,1.89.12,3.73,1,5.59,1.47l.31,2.29c-5.2,1.46-10.32,3.42-15.62,4.26-7.61,1.2-15.37,1.41-23,2.33-8.6,1-10.18,3.82-7.68,12,.9,3,1.24,6.12,2,10.09-19-5-33.08-14.46-41.24-31.67-5.6-11.82-7-24.51-7.68-37.36-.24-4.71,3.28-6.12,6.57-7.31C269.5,374.24,280.14,374.46,290.47,375.6Z" style="fill: #1164ab"/>
        <path d="M532.76,423.2a50,50,0,0,1,6.78-1.3c5.82-.35,11.68-.21,17.49-.69,17.36-1.43,27.26-11.5,29.14-29.47.52-5.05.75-10.13,1.17-16,11-.69,22.14-1.63,32.92,2.88,3.91,1.63,6.08,4.26,5.2,8.77-2.09,10.66-3,21.73-6.44,31.9-6.66,19.42-22,29.68-42.46,35.29.86-4.12,1.32-7.55,2.32-10.82,2.22-7.29.44-10.44-7.46-11.42-8.21-1-16.53-1.28-24.71-2.49-4.84-.71-9.51-2.6-14.25-4Z" style="fill: #1164ab"/>
        <path d="M399.62,33.7c-1.4,8.13-2.09,15-3.83,21.58A105.55,105.55,0,0,1,379,91.37c-3.05,4.17-4.78,4.78-9.13,1.67a111.4,111.4,0,0,1-37.69-45.25Z" style="fill: #fbc231"/>
        <path d="M476.76,33.33l66.79,15c-9.15,20.16-22,34.91-39,46-1.11.73-4.37,0-5.31-1.12-10.2-12.27-16.36-26.5-19.47-42.08C478.68,45.72,477.91,40.25,476.76,33.33Z" style="fill: #fbc231"/>
        <path d="M389.42,15.26C422.8,10.67,455.21,11,487.83,15a13.34,13.34,0,0,1-.14,2.17c-3,9.93-8.34,14.16-19.92,12.6-15.18-2.05-30.75-1.42-46.16-1.59a148,148,0,0,0-18.55,1.28c-5,.58-8.14-.92-9.51-6.08C392.89,21,391.24,18.76,389.42,15.26Z" style="fill: #fbc231"/>
        <path d="M738.12,601.22v24H729.2V563.7c7,.56,14,.49,20.73,1.79,8.07,1.56,12.22,6.77,13,14.26.93,8.52-2.39,14.79-9.84,18.55-.81.41-1.67.72-3.15,1.36L768.13,625c-7.41,2.09-12.15.25-15.78-6.22s-8.45-12.24-12.74-18.31Zm.17-9c5.82,0,11.65.55,14.39-4.92,1.36-2.71,1.36-7.39-.12-10-3-5.16-8.68-4.76-14.27-4.35Z" style="fill: #1164ab"/>
        <path d="M100.85,600.91v24.56H92V563.78c6.9.47,13.7.36,20.28,1.52,8.15,1.44,12.83,7.06,13.54,14.5.83,8.6-2.5,14.83-9.91,18.5-.82.4-1.67.73-3.15,1.36L131,625c-7.1,1.77-11.94.62-15.55-5.79-3.72-6.6-8.6-12.54-13-18.78Zm0-8.58c6.39-.1,12.52.42,15-5.56,1.2-2.91.74-8-1.16-10.35-3.44-4.25-9-4.19-13.82-3.28Z" style="fill: #1164ab"/>
        <path d="M187.58,564.43h33.1v8.22H197v14.62h23.11v8.89H197v20.4h23.63v8.76h-33Z" style="fill: #1164ab"/>
        <path d="M369.82,625.4V564.52H403v8H379.33v14.83h22.42c2.17,8.07,1.49,9-6,9H379.2v20.13h23.9v8.88Z" style="fill: #1164ab"/>
        <path d="M657.4,564.44h9.07c0,14.6.61,28.91-.2,43.14-.64,11.27-11.23,19.39-22.81,19.14-11.83-.25-21.66-9-22.07-20.67-.49-13.72-.12-27.46-.12-41.56h9.2c0,11.11-.06,22.14,0,33.17a58.12,58.12,0,0,0,.89,10.64c1.23,6.09,5.81,9.47,12.19,9.57,6.76.11,11.59-3.15,12.85-9.43a66.62,66.62,0,0,0,.92-12.32C657.48,585.63,657.4,575.14,657.4,564.44Z" style="fill: #1164ab"/>
        <path d="M571.82,388.06c-6-9.91-5.92-19.14-4-28.53,2.49-11.91,7.14-22.7,17.48-29.95,2.07-1.46,5.1-1.55,7.69-2.27.39,3,1.51,6.1,1,8.91-.6,3.2-2.66,6.12-4.23,9.44l13.07,3.17c-2.9,7.46-5.65,14.55-8.66,22.31.54-.27.19.06-.12,0-7.64-.82-13.93.16-16.06,9.36C577.42,383.07,574.4,385,571.82,388.06Z" style="fill: #1164ab"/>
        <path d="M306,388.42c-3-4.43-6.06-7.48-7.22-11.15-1.63-5.15-4.49-6.74-9.42-6.16a45.39,45.39,0,0,1-5.33,0c-2.88-7.47-5.65-14.7-8.65-22.49l13.08-3.12c-1.42-2.87-3.45-5.57-4-8.55s.23-6.37.43-9.57c2.88.76,6.3.78,8.55,2.41,10.35,7.51,14.88,18.59,17.17,30.69C312.23,369.51,312.16,378.4,306,388.42Z" style="fill: #1164ab"/>
        <path d="M290.06,625.4h-9V564.48h29.84v8.08H290.35v14.77h19.28c2,8.2,1.4,9-6.17,9.06-3.95,0-7.91,0-11.86.08a7.6,7.6,0,0,0-1.54.46Z" style="fill: #1164ab"/>
        <path d="M590.93,46.3c-1.7,3.32-3.08,6.88-5.26,9.85a6.07,6.07,0,0,1-5.33,1.77c-10.44-3.35-20.71-7.23-31.11-10.71-4-1.35-6.38-3.27-6-8,.3-3.92-.29-7.89-.27-11.84,0-.84.89-1.68,1.38-2.52l19.25,6.5,8.91,2.6c5,2.2,9.94,4.83,15.16,6.46C591.2,41.54,591.39,43.48,590.93,46.3Z" style="fill: #fbc231"/>
        <path d="M335,25.68c-.78,5.77-.71,11.6-2.62,16.7-.88,2.35-5.48,3.62-8.62,4.77-10.25,3.77-20.62,7.26-31.52,11.06-2.19-4.12-4.72-8.4-6.67-12.93-.44-1,.78-3.86,1.83-4.23,15-5.43,30.18-10.58,45.3-15.76C333,25.18,333.45,25.39,335,25.68Z" style="fill: #fbc231"/>
        <path d="M541.74,572.65H528.51v-7.92h36.68v7.86H552.32c-.79,1.8-2.22,3.59-2.25,5.4-.19,13.16,0,26.32-.2,39.48,0,2.59,2.26,7.15-3.43,7.06-5.25-.07-3.12-4.32-3.16-6.78-.2-13.16,0-26.32-.16-39.48C543.1,576.39,542.22,574.52,541.74,572.65Z" style="fill: #0f63ac"/>
        <path d="M350.2,430.92c.23,5,.5,10.7.79,16.84-12.4,0-24,.11-35.56-.1a11.7,11.7,0,0,1-6.3-2.25c-1.6-1.17-3.29-3.31-3.37-5.09-.05-1.17,2.55-3.26,4.22-3.55,5.9-1.06,11.93-1.39,17.87-2.24C335,433.5,342.19,432.23,350.2,430.92Z" style="fill: #1164ab"/>
        <path d="M527.9,447.69V431.64c12.14,1.41,23.79,2.58,35.37,4.21,3.58.51,9.4,0,9,5.24-.2,2.42-5.4,6.1-8.52,6.3C552,448.13,540.1,447.69,527.9,447.69Z" style="fill: #1164ab"/>
        <path d="M277.17,324.37c1.7,6.7,3.2,12.58,4.51,17.74L256.1,352.64c-3.44-2.43-5.53-7.37-5.47-12.67a11.5,11.5,0,0,1,4.18-7.87A40.45,40.45,0,0,1,277.17,324.37Z" style="fill: #1164ab"/>
        <path d="M621.72,352.72l-25.41-10.51c1.28-4.69,2.9-10.69,4.76-17.56a38.92,38.92,0,0,1,23.72,8.63C630.29,337.74,628,347.88,621.72,352.72Z" style="fill: #1164ab"/>
        <path d="M845.06,804.8c-3.89,4.52-7.51,9.33-11.81,13.43-1.56,1.48-4.71,1.54-7.17,1.77-3.09.28-6.22.07-10.29.07,2.92-5.62,5.33-10.41,7.93-15.11a3.61,3.61,0,0,1,2.56-1.61c6.11-.14,12.23-.07,18.34-.07C844.77,803.78,844.91,804.29,845.06,804.8Z" style="fill: #1164ab"/>
        <path d="M421.16,8.51V.05c11.21,0,22.22-.24,33.19.34,1.25.06,2.26,4.73,3.76,8.12Z" style="fill: #fbc231"/>
        <path d="M462.7,8.8c.8-8.85.8-9,8.83-8.59,5.23.25,10.48.67,15.66,1.44,2.05.31,3.92,1.8,5.87,2.75-1.84,2.8-1.48,7.59-7.07,6.84C478.4,10.22,470.75,9.62,462.7,8.8Z" style="fill: #fbc231"/>
        <path d="M333.64,11.54c2.76,7.92,2,9.13-5.09,11.2a155.84,155.84,0,0,0-16.79,5.73c-3.2,1.35-5,.09-5.49-2.4-.35-1.76.58-5.14,1.79-5.61C316.47,17.16,325.1,14.44,333.64,11.54Z" style="fill: #fbc231"/>
        <path d="M413.69,8.54c-7.08.89-13.74,1.87-20.43,2.53-6,.58-7.6-1.24-7.95-9.16,8.47-.61,17-1.43,25.52-1.74C414.45,0,414.69,1.16,413.69,8.54Z" style="fill: #fbc231"/>
        <path d="M547.7,22.84c-3-.58-5.84-1.17-6.27-5.13-.49-4.6,1.08-6,5.61-4.68,5.86,1.77,11.72,3.51,17.56,5.34,7,2.22,7.68,5.2,2.41,11Z" style="fill: #fbc231"/>
        <path d="M570.27,679c-2.44-4.73-7-9.59-1.68-15.64a5.81,5.81,0,0,1,3.53-2.06c5.34-.22,10.68-.1,16.44-.1Z" style="fill: #1164ab"/>
        <path d="M304.7,30.36C297.41,33.43,292,35.8,286.45,38c-4.83,1.93-7.83-.35-10.53-5.73,7.56-2.84,14.82-5.92,22.36-8C299.56,23.89,302,27.72,304.7,30.36Z" style="fill: #fbc231"/>
        <path d="M574.85,31.82c-1.45-5.31.95-8.43,5.79-7.07a100.29,100.29,0,0,1,13.08,4.77c2.2,1,4,2.74,6,4.15l-4.53,5.21Z" style="fill: #fbc231"/>
        <path d="M471.92,625.5h-8.53V564.67h8.53ZM464,594.62c0,8.46-.16,16.93.15,25.38.06,1.56,1.75,4,3.15,4.39,3.12.92,3.51-1.57,3.5-4.1q0-25.1,0-50.19c0-2.52-.37-5-3.49-4.11-1.41.41-3.1,2.82-3.16,4.39C463.8,578.45,464,586.54,464,594.62Z" style="fill: #1164ab"/>
        <path d="M624.55,815.58q0,60.15.08,120.29a14.91,14.91,0,0,1-.73,3.2,41.85,41.85,0,0,1-.46-4.43q0-57,0-113.9A25,25,0,0,1,624.55,815.58Z" style="fill: #1164ab"/>
        <path d="M541.74,572.65c.48,1.87,1.36,3.74,1.38,5.62.12,13.16,0,26.32.16,39.48,0,2.46-2.09,6.71,3.16,6.78,5.69.09,3.38-4.47,3.43-7.06.22-13.16,0-26.32.2-39.48,0-1.81,1.46-3.6,2.25-5.4a47.07,47.07,0,0,0-.92,6.53c-.08,15.21,0,30.42,0,46.07h-9.61Z" style="fill: #1164ab"/>
        <path d="M368.92,672.38q0,32.68,0,65.38a1.7,1.7,0,0,1-.24,1c-.15.16-.6.06-.92.08,0-20.7,0-41.4,0-62.11C367.78,675.29,368.52,673.84,368.92,672.38Z" style="fill: #1164ab"/>
        <path d="M294.46,377.73q3.66,6.09,7.08,11.75C294.47,390.87,293.88,390,294.46,377.73Z" style="fill: #1164ab"/>
        <path d="M583.11,390.12h-6.83L584,377.6C583.67,382.16,583.41,385.92,583.11,390.12Z" style="fill: #1164ab"/>
        <path d="M122.29,766.26c.81-1.18,1.62-3.39,2.44-3.4,13.1-.12,26.2,0,39.3.18.37,0,.73.77,1.09,1.18-13-.11-25.93-.29-38.89-.23C124.91,764,123.6,765.47,122.29,766.26Z" style="fill: #1164ab"/>
        <path d="M522.86,764c1.15-.44,2.29-1.25,3.44-1.26q17.1-.13,34.19,0a10.55,10.55,0,0,1,3,1Z" style="fill: #1164ab"/>
        <path d="M490.25,319.58,460,295.34l-1.83.64c1.06,6.79,1.27,13.85,3.42,20.27s6.22,12,10,19c-13.88-8.4-19.71-21-23.89-34.76l-2.35.4-6.51,45.32-1,.07q-2.25-22.54-4.49-45.1l-1.52,0c-4.31,5.6-9.55,10.74-12.66,16.95-3,6.05-3.89,13.2-6.11,19.74-3.2-14.61.15-28,8-40.5l-1.89-1.46-29.75,21.83-1.85-1.76c3.66-4.79,7.27-9.62,11-14.36s7.66-9.51,11.5-14.26l-.91-1.05c-6.38.95-13,1.26-19.1,3-5.89,1.71-11.33,4.95-17,7.51L372,295.37c4.66-4.18,8.86-9.11,14.12-12.33s11.76-4.88,17.71-7.21l-.12-2.14-38.91-5.84-.26-1.38c6.06-2.42,12.62-2.39,19.15-2.9s12.93-1.55,19.4-2.36l-.05-1.54c-5.65-4.32-10.82-9.65-17.09-12.67s-13.66-3.73-20.46-5.86c15.14-3.4,29,0,42.4,7.74-4.55-12-14.64-19.95-19.43-31.55,11.23,4.69,18.78,14.81,29.64,20.74-.71-7.15-.55-13.59-2.17-19.55-1.5-5.52-4.9-10.53-7-16.07,7,3.35,12.16,8.11,14.45,15.65a90.26,90.26,0,0,0,3.62,10c.5,1.14,1.86,1.91,2.84,2.85.76-1.3,2-2.53,2.21-3.91,1.8-13,3.42-25.94,5.11-38.91a14.92,14.92,0,0,1,1.05-2.44c1.07,8.75,2.14,16.45,2.93,24.17.62,6.14.87,12.32,1.4,18.47a9.64,9.64,0,0,0,1.21,2.78,9.31,9.31,0,0,0,2.42-1.62c3.86-5,8.09-9.72,11.24-15.11,1.95-3.35,2.22-7.69,3.19-11.59a44.53,44.53,0,0,1,2-7c4.55,14.44-.56,27.42-7,40.2l2.06,1,32.58-24.53,1.41,1.26-25.27,31.76c11.89-1.69,24.49,1.07,34.29-8.48-3.07,10.3-10.78,14-19.51,16.57-3,.9-5.81,2.7-8.7,4.09.2.62.4,1.23.59,1.84l43.18,6.21c0,.36-.07.71-.1,1.07l-44.46,4.9c6.4,5.07,11.17,10,16.94,13.12s12.63,4.35,19.22,6.48c-11.45,3.3-22,2-31.87-4.33-.63-.41-1.21-1.11-1.87-1.21-2.06-.3-4.15-.37-6.22-.53a45.2,45.2,0,0,0,2.75,4.73c6.31,8.39,12.72,16.71,19,25.1a21.33,21.33,0,0,1,1.8,3.61Z" style="fill: #fbc231"/>
        <path d="M522.08,128.53c-5.09-1.4-10.18-2.76-15.26-4.19-2.67-.75-5.31-1.6-8-2.41l.64-2.41c5.77,1.28,11.64,2.23,17.28,4,3.62,1.11,6.9,3.34,10.33,5.06Z" style="fill: #fbc231"/>
        <path d="M307.38,80.74c11.83,6.33,20.71,13.4,28.13,23.89l-13.61,4.78Z" style="fill: #c53234"/>
        <path d="M555.23,108.85l-12.63-4.37C545.44,97,559.32,85,569,81.88Z" style="fill: #c53234"/>
        <path d="M438.58,53.08c9.47,7.31,19.21,24,20.53,35h-42C421.37,74.21,427.74,62.49,438.58,53.08Z" style="fill: #c53234"/>
        <path d="M465.32,116.54H412.83c0-.67,0-1.33,0-2,17.48-2,35-1.71,52.5-.14Z" style="fill: #fbc231"/>
        <path d="M405.67,117.85l-45.56,8.33C362.36,120.84,398.9,114.12,405.67,117.85Z" style="fill: #fbc231"/>
        <path d="M498.18,122.13l-26.79-3.93C474.42,114,494.92,116.8,498.18,122.13Z" style="fill: #fbc231"/>
        <path d="M464,594.62c0-8.08-.17-16.17.15-24.24.06-1.57,1.75-4,3.16-4.39,3.12-.91,3.5,1.59,3.49,4.11q0,25.1,0,50.19c0,2.53-.38,5-3.5,4.1-1.4-.41-3.09-2.83-3.15-4.39C463.81,611.55,464,603.08,464,594.62Z" style="fill: #0f63ac"/>
      </g>
    </g>
  </g>
</svg>
