<svg xmlns="http://www.w3.org/2000/svg" viewBox="0 0 609.23 549.79">
  <g id="Camada_2" data-name="Camada 2">
    <g id="Camada_1-2" data-name="Camada 1">
      <g>
        <path d="M164.81,368.46h-5.4c-11.65,0-23.3,0-34.95,0a2.26,2.26,0,0,1-2.64-1.92C117.19,351.67,106,343.5,90.37,343c-10.56-.33-20.08,2.05-27.95,9.46A45,45,0,0,0,50,373.66a91.21,91.21,0,0,0,.49,52.12c2.38,7.73,6.25,14.7,12.68,19.88,10,8,21.43,8.75,33.37,6.6a30.29,30.29,0,0,0,19.25-11.51c3.28-4.26,5-9.2,6.22-14.36.14-.61.31-1.22.47-1.86h41.81l-.24,3.4c6.31-8.19,14.5-12.71,23.82-15.22,5.3-1.43,10.73-2.42,16.11-3.53,7.8-1.6,15.63-3.1,23.43-4.71a23,23,0,0,0,4.07-1.38c6.05-2.48,7.07-4,6.88-10.4-.15-4.95-2.66-8.5-7.83-9.89a31.88,31.88,0,0,0-20,.73c-5.79,2.2-9,6.64-10,12.81H161.34c2.18-15,8-27.53,21.83-35.13,11.21-6.17,23.46-8,36-8.4,10.56-.32,21.07.33,31.22,3.61,16.42,5.32,26.13,16.29,27.67,33.76.62,7.14,1,14.32,1.06,21.49.16,16.35-.09,32.71.14,49.06.07,4.89,1.06,9.78,1.83,14.64.22,1.39,1.15,2.67,1.75,4l.66-.18v-123h42v17a7.67,7.67,0,0,0,1.26-1.09c10-15.05,24.51-20.27,41.88-19.37a56.94,56.94,0,0,1,17.79,3.32c8.14,3.15,13.79,9,17.42,16.86a4,4,0,0,0,1.24,1.75V356.2h17.21v-37h42.95V356h62.27v3c0,23.14,0,46.28,0,69.41a123.17,123.17,0,0,0,.87,13.84c1.33,11.54,8.67,15.91,20,14.48,10.61-1.34,15.85-7.24,17.32-18.77a114.29,114.29,0,0,0,.88-13.84c.09-21.94,0-43.88,0-65.82v-2.06h42.59V486.1H567.44V468.45c-1.59,2-2.75,3.56-4,5-10.73,12.45-24.49,17.22-40.62,15.89a52.62,52.62,0,0,1-16.94-3.83,32.42,32.42,0,0,1-17.81-19c-.25-.66-.51-1.31-1.05-2.65-.12,1.22-.22,1.77-.22,2.32,0,6.14,0,12.28,0,18.43,0,1.26-.16,2.14-1.65,2.34-11.95,1.54-23.89,3.33-35.95,1.14-14.57-2.66-21.43-9.76-24.2-24.5-2.06-11-2.55-22-2.58-33.1,0-15.16,0-30.32,0-45.48v-3.19H407.47c2.06,34.1.6,68.07,1,102,0,.7,0,1.4,0,2.23H365.66v-2.83c0-22.18.12-44.36-.11-66.54a137.92,137.92,0,0,0-1.84-20c-1.11-7.09-5.72-11.17-12.91-11.53a31.86,31.86,0,0,0-11.26,1.32c-7.63,2.51-10.58,9.08-12,16.29a68.15,68.15,0,0,0-1.34,13c-.14,22.1-.07,44.21-.08,66.31v3.91c-1.05,0-1.82.11-2.6.11-26.17,0-52.34,0-78.51.07-2.45,0-3.3-.78-3.58-3.08-.41-3.3-1.12-6.57-1.79-10.3-.83.73-1.46,1.25-2.05,1.82-15.79,15.13-34.48,18.87-55.11,13.32-14.18-3.82-23.55-16.17-24.56-30.88-.17-2.46-.28-4.93-.44-7.83-.47.77-.79,1.23-1,1.72-12.06,23.85-31.8,36.48-58,39.42-15.91,1.78-31.52.43-46.54-5.53C34,477.83,20.6,465.55,11.46,448.67,1.53,430.33-1,410.52.32,390c.85-13.32,3.53-26.25,9.6-38.24,13-25.72,33.78-40.94,62.42-45.13,14.52-2.12,29.05-2,43.16,2.17,27.32,8.13,43.56,26.47,48.64,54.58C164.42,365,164.56,366.54,164.81,368.46ZM465.5,381.84a13.69,13.69,0,0,0-.16,1.51c0,19.07-.06,38.14.08,57.2A64.6,64.6,0,0,0,466.75,451a9,9,0,0,0,7.78,7.69c3.64.64,7.39.7,10.89,1-1.81-26.2-.24-52-1-77.8ZM238.22,425.5c-3.93,1.31-7.64,2.71-11.44,3.78S219,431,215.16,432.07A85.89,85.89,0,0,0,205,435.56c-4.48,1.89-6.58,5.64-6.94,10.34-.73,9.6,6.25,16.92,16,16.84,13.58-.12,23-7.57,24.08-19.68C238.66,437.3,238.22,431.44,238.22,425.5Z" style="fill: #047493"/>
        <path d="M393,131.42c-2-5.16-3.82-10.43-6.16-15.44A65.79,65.79,0,0,0,377,101.45c-3.91-4.61-7.7-9.24-12.39-13.06a89.17,89.17,0,0,0-32.71-17.13A87.56,87.56,0,0,0,284.78,71a5.57,5.57,0,0,1-1.16.12c-2.87.34-5.87.26-8.57,1.12a158.22,158.22,0,0,0-16.21,6.13c-5.48,2.44-10.74,5.37-16.08,8.1a55.55,55.55,0,0,0-6.16,3.37c-1.55,1.06-2.71,2.68-4.2,3.84-4.47,3.46-9.11,6.69-13.49,10.25a58.39,58.39,0,0,0-6.92,6.88,63.29,63.29,0,0,0-4.35,6.09c-2.5,3.63-5.21,7.15-7.39,11-1.45,2.51-2.08,5.48-3.17,8.21-.54,1.36-1.34,2.6-1.92,3.94-.8,1.82-1.51,3.68-2.24,5.53-1.49,3.71-3.12,7.39-4.4,11.17-1,2.86-1.45,5.87-2.2,8.79-.82,3.14-1.92,6.22-2.49,9.4a52.44,52.44,0,0,0-1,10.06c.16,9.59.59,19.16.93,28.74a1.16,1.16,0,0,0,.14.69c2.78,3,1.11,7,2.52,10.37,1.68,4,2.57,8.4,3.83,12.62.33,1.11,1.11,2.23,1,3.3-.29,3.52,1.55,6.37,2.77,9.35a58.2,58.2,0,0,0,5,9c3.09,4.82,6.15,9.7,9.65,14.22,3.19,4.1,7,7.74,10.44,11.62a9.87,9.87,0,0,1,1.11,2c-3.41-2.48-6.94-4.81-10.21-7.46a159,159,0,0,1-51.66-73.89,147,147,0,0,1-7.93-52.43,156,156,0,0,1,22.9-77.54c1.55-2.55,3.3-5,5-7.46l.55-.69.47-.7c3.16-3,6.22-6.2,9.53-9.07C194.23,53,199.46,48,205.3,44A119,119,0,0,1,247,25.87a122.65,122.65,0,0,1,33.8-2.72,119.16,119.16,0,0,1,34.76,7.29A117.87,117.87,0,0,1,345,46.4a120.3,120.3,0,0,1,23.5,23,125.9,125.9,0,0,1,14.93,24.93c5.21,11.27,7.92,23.17,10,35.29A5.45,5.45,0,0,1,393,131.42Z" style="fill: #864492"/>
        <path d="M261.08,80.37c-2.34,1.79-4.69,3.57-7,5.36-18.8,14.47-30.39,33.38-34.57,56.71a96.81,96.81,0,0,0-.34,29c.08.63.12,1.26.18,1.9.3,3,.46,6.08.94,9.08a70.88,70.88,0,0,0,2,9.34c1.07,3.6,2.52,7.08,3.78,10.63a59.28,59.28,0,0,0,2.17,6.17c1.72,3.55,3.64,7,5.61,10.44,2.75,4.81,5.2,9.86,9.69,13.43a19.25,19.25,0,0,0,1.74,2.44q8.07,8.39,16.21,16.7a11.83,11.83,0,0,0,1.8,2.59,58.35,58.35,0,0,0,7,5.34c6.58,4,13.18,7.94,20,11.51a74.8,74.8,0,0,0,12.11,4.75c4.07,1.28,8.29,2.11,12.46,3.05,2.05.46,4.14.75,6.23,1.07,3.92.6,7.85,1.66,11.78,1.65a232.8,232.8,0,0,0,25.62-1,84.28,84.28,0,0,0,16.43-3.31c5.09-1.62,10.26-3,15.09-5.26s9.38-4.55,13.9-7.11c3.1-1.75,5.93-4,8.87-6,.47-.07,1.06,0,1.39-.25,3.11-2.39,6.36-4.64,9.22-7.3,4.71-4.4,9.22-9,13.69-13.64a41.12,41.12,0,0,0,4.17-5.38c2.38-3.47,4.67-7,6.94-10.54a5,5,0,0,0,.34-1.7l.66-3.14,4.22-7.88,2.09-1.73.42,1.41c-1.49,3.82-2.74,7.75-4.54,11.42-3.6,7.34-7.06,14.81-11.38,21.73a151.4,151.4,0,0,1-58.12,54,155.52,155.52,0,0,1-88.26,17.92,147.81,147.81,0,0,1-64.73-21.37,8.06,8.06,0,0,1-1.06-.89,5.36,5.36,0,0,0-.41-1.08c-4.27-6.18-8.93-12.13-12.74-18.58a170.15,170.15,0,0,1-12-25.32,142.39,142.39,0,0,1-7.43-24.73c-1.3-6.91-2.56-13.87-3.19-20.86-.85-9.62.24-19.26,2.15-28.66a188.46,188.46,0,0,1,7.21-25.48,139.45,139.45,0,0,1,9-19.37A92,92,0,0,1,225.25,107c3.86-4,7.68-8,11.81-11.74a100.57,100.57,0,0,1,20.2-14A15.69,15.69,0,0,1,261.08,80.37Z" style="fill: #0994ba"/>
        <path d="M393,131.42a5.45,5.45,0,0,0,.32-1.78c-2.05-12.12-4.76-24-10-35.29a125.9,125.9,0,0,0-14.93-24.93,120.3,120.3,0,0,0-23.5-23,117.87,117.87,0,0,0-29.43-16,119.16,119.16,0,0,0-34.76-7.29A122.65,122.65,0,0,0,247,25.87,119,119,0,0,0,205.3,44c-5.84,4-11.07,9-16.44,13.64-3.31,2.87-6.37,6-9.53,9.07,4.32-5.47,8.32-11.25,13-16.37A157.26,157.26,0,0,1,392.72,25,156.14,156.14,0,0,1,451.6,93.35a148.07,148.07,0,0,1,11.33,38.45,11.48,11.48,0,0,1,0,1.57,15.38,15.38,0,0,1-1.92.23q-32.65-.06-65.32-.13C394.24,133.47,392.9,133.46,393,131.42Z" style="fill: #f74665"/>
        <path d="M453.41,209l-4.22,7.88c-.59,1.11-1.19,2.22-1.78,3.34-.06.14-.12.27-.19.41a8.55,8.55,0,0,0-1.78,1.27,14.77,14.77,0,0,0-2.11,3,13.88,13.88,0,0,0-.8,2.91,1.36,1.36,0,0,1-.17.39l-.9,1A120.26,120.26,0,0,1,412.76,258c-.54,0-1.28-.16-1.59.13a36.76,36.76,0,0,1-8.33,5.52,36,36,0,0,0-4.46,2.39c-5.49,3.92-12,5.46-18.09,8-2.69,1.13-5.69,1.5-8.54,2.25-3.21.84-6.38,2-9.64,2.52-4.16.71-8.4,1-12.8,1.43l1.87.31c-6.6.15-13.14-.21-19.68-.68-2.36-.16-4.7-.56-7-.91-4.16-.63-8.33-1.21-12.46-2a58.18,58.18,0,0,1-8.31-2.22c-3.77-1.35-7.44-3-11.14-4.51-8-3.33-15.56-7.28-22-13.16a6.73,6.73,0,0,0-1.09-.92q-4-2.28-8-4.52-8.12-8.34-16.21-16.7a19.25,19.25,0,0,1-1.74-2.44c0-.49.19-1.1,0-1.46-.72-1.16-1.75-2.13-2.35-3.33-1.79-3.59-4.74-6.41-6-10.46-1-3.18-3.73-5.77-5.2-8.86a129.77,129.77,0,0,1-4.73-12.11,65.67,65.67,0,0,1-1.56-6.43l1.42,1a.21.21,0,0,1,0,.26l.89,2.07c1.67,3.5,3.16,7.11,5,10.5,5.48,9.85,13.2,17.84,22,24.68a87.41,87.41,0,0,0,27.57,14.32,90.23,90.23,0,0,0,29,4.21c5.9-.11,11.82-1.29,17.67-2.35a76,76,0,0,0,31.89-14,120.71,120.71,0,0,0,15.77-14.4,74,74,0,0,0,13-19.53,155.83,155.83,0,0,0,5.6-14.6c.64-1.81,1.34-2.7,3.47-2.69,20.8.11,41.61.09,62.42.12,3.18,0,3.51.39,3,3.46-.27,1.63-.59,3.24-.88,4.86-1.29,3-2.64,6-3.86,9-1.53,3.78-2.95,7.6-4.38,11.41C453.16,208.36,453.35,208.72,453.41,209Z" style="fill: #f6ad42"/>
        <path d="M301.64,111.25c5.76,3,11.54,5.92,17.28,8.93,7.23,3.8,14.44,7.65,21.65,11.49,1.19.64,2.35,1.32,3.53,2-.42.16-.94.56-1.22.44-1.37-.62-2.61-1.53-4-2-.94-.34-2.41-.64-3-.17a12.38,12.38,0,0,0-3,3.68c-1.51,2.55-2.71,5.29-4.25,7.82-1.95,3.23-4.23,6.27-6.13,9.53-2,3.46-3.74,7.1-5.62,10.64-.37.7-.87,1.33-1.27,2-1.81,3-3.62,6.09-5.4,9.16-.83,1.43-1.53,2.95-2.42,4.35-2.92,4.62-5.86,9.23-8.88,13.79-1.72,2.58-3.66,5-5.43,7.55a12.63,12.63,0,0,0-1,2.28,14.32,14.32,0,0,0,2.88.38,26.17,26.17,0,0,0,3.57-.7c-5.32,2.82-10.57,5.76-16,8.37-1.86.9-4.12,1-6.21,1.44a4.36,4.36,0,0,1-5.19-3.06,54.41,54.41,0,0,1-1.75-7.57c0-.38-.05-.76-.08-1.13q.09-20.56.16-41.13c.33.6.9,1.17.95,1.79.13,1.7.05,3.41.05,5.11l.94.27c.35-.7.72-1.38,1.05-2.09a17.55,17.55,0,0,1,1.22-2.67,24.79,24.79,0,0,1,2.47-2.66c2.61-2.73,2.8-7,6.29-9.33,1.65-1.12,2.29-3.76,3.35-5.73,1.2-2.2,2.29-4.47,3.55-6.63,1.89-3.26,3.89-6.44,5.83-9.67.63-1.05,1.16-2.17,1.81-3.21,1-1.66,2.13-3.26,3.16-4.91a11.49,11.49,0,0,1,1.5-2.57c1.79-1.65,2-3.1,0-4.71C301.82,112.07,301.78,111.6,301.64,111.25Z" style="fill: #0994ba"/>
        <path d="M298.94,202.37a26.17,26.17,0,0,1-3.57.7,14.32,14.32,0,0,1-2.88-.38,12.63,12.63,0,0,1,1-2.28c1.77-2.54,3.71-5,5.43-7.55,3-4.56,6-9.17,8.88-13.79.89-1.4,1.59-2.92,2.42-4.35,1.78-3.07,3.59-6.12,5.4-9.16.4-.68.9-1.31,1.27-2,1.88-3.54,3.6-7.18,5.62-10.64,1.9-3.26,4.18-6.3,6.13-9.53,1.54-2.53,2.74-5.27,4.25-7.82a12.38,12.38,0,0,1,3-3.68c.62-.47,2.09-.17,3,.17,1.39.51,2.63,1.42,4,2,.28.12.8-.28,1.22-.44l1,.61c.05.28.09.56.13.84l.48-.08-.5-.7c4.78,2.43,9.58,4.83,14.33,7.33,2.15,1.13,4.18,2.46,6.27,3.71l3,2.93a5.2,5.2,0,0,0-1.08,1.18c-1.64,3.05-3.11,6.21-4.84,9.21-1.17,2-2.7,3.82-4,5.76-.7,1-1.23,2.18-2,3.19-1.46,2-3,4-4.5,5.93l-31.59,17.19q-10.17,5.52-20.35,11A13.44,13.44,0,0,1,298.94,202.37Z" style="fill: #0994ba"/>
        <path d="M261.08,80.37a15.69,15.69,0,0,0-3.82.92,100.57,100.57,0,0,0-20.2,14C232.93,99,229.11,103,225.25,107a92,92,0,0,0-14.84,20.46,139.45,139.45,0,0,0-9,19.37,188.46,188.46,0,0,0-7.21,25.48c-1.91,9.4-3,19-2.15,28.66.63,7,1.89,13.95,3.19,20.86a142.39,142.39,0,0,0,7.43,24.73,170.15,170.15,0,0,0,12,25.32c3.81,6.45,8.47,12.4,12.74,18.58a5.36,5.36,0,0,1,.41,1.08l-7.58-4.66a9.87,9.87,0,0,0-1.11-2c-3.47-3.88-7.25-7.52-10.44-11.62-3.5-4.52-6.56-9.4-9.65-14.22a58.2,58.2,0,0,1-5-9c-1.22-3-3.06-5.83-2.77-9.35.09-1.07-.69-2.19-1-3.3-1.26-4.22-2.15-8.58-3.83-12.62-1.41-3.38.26-7.41-2.52-10.37a1.16,1.16,0,0,1-.14-.69c-.34-9.58-.77-19.15-.93-28.74a52.44,52.44,0,0,1,1-10.06c.57-3.18,1.67-6.26,2.49-9.4.75-2.92,1.24-5.93,2.2-8.79,1.28-3.78,2.91-7.46,4.4-11.17.73-1.85,1.44-3.71,2.24-5.53.58-1.34,1.38-2.58,1.92-3.94,1.09-2.73,1.72-5.7,3.17-8.21,2.18-3.82,4.89-7.34,7.39-11a63.29,63.29,0,0,1,4.35-6.09,58.39,58.39,0,0,1,6.92-6.88c4.38-3.56,9-6.79,13.49-10.25,1.49-1.16,2.65-2.78,4.2-3.84a55.55,55.55,0,0,1,6.16-3.37c5.34-2.73,10.6-5.66,16.08-8.1a158.22,158.22,0,0,1,16.21-6.13c2.7-.86,5.7-.78,8.57-1.12Z" style="fill: #047493"/>
        <path d="M301.64,111.25c.14.35.18.82.44,1,2,1.61,1.76,3.06,0,4.71a11.49,11.49,0,0,0-1.5,2.57c-1,1.65-2.13,3.25-3.16,4.91-.65,1-1.18,2.16-1.81,3.21-1.94,3.23-3.94,6.41-5.83,9.67-1.26,2.16-2.35,4.43-3.55,6.63-1.06,2-1.7,4.61-3.35,5.73-3.49,2.37-3.68,6.6-6.29,9.33a24.79,24.79,0,0,0-2.47,2.66,17.55,17.55,0,0,0-1.22,2.67c-.33.71-.7,1.39-1.05,2.09l-.94-.27c0-1.7.08-3.41-.05-5.11-.05-.62-.62-1.19-.95-1.79a.35.35,0,0,1,0-.33q0-27.36,0-54.73c.7-3.29,3.32-5.25,7-5a10.59,10.59,0,0,1,4.15,1C288,103.78,294.79,107.54,301.64,111.25Z" style="fill: #0994ba"/>
        <path d="M122,524.45c0-4.22,0-8.44,0-12.66,0-3,1.28-3.85,3.86-2.5q12.14,6.37,24.23,12.87c3.19,1.72,3.22,3.55.11,5.25Q138.66,533.79,127,540c-3.55,1.88-4.89,1-4.92-3.13s0-8.28,0-12.42Z" style="fill: #f74665"/>
        <path d="M488.2,541h-5.51V518.91c2,.57,4.4-1.3,5.66,1.28,2-.61,4.13-1.75,6.19-1.7s3.86,1.37,6.23,2.29a7.73,7.73,0,0,1,8.28-2c2.57.86,4.39,2.63,4.48,5.33.2,5.56.06,11.13.06,16.86H507.9v-6.77c0-2.4,0-4.79,0-7.18-.05-2.08-1.35-3.45-3.16-3.45a3.38,3.38,0,0,0-3.6,3.36c-.11,4-.21,8,0,12,.13,2.67-1.5,2.23-3.07,2.27s-3.11.16-3-2.36c.21-3.82.07-7.65.05-11.48,0-2.49-1-3.65-3-3.73a3.63,3.63,0,0,0-3.75,3.79c-.09,4,0,8,0,12C488.3,539.78,488.24,540.26,488.2,541Z" style="fill: #919191"/>
        <path d="M177.38,539.11c0,3.14-.09,5.82,0,8.5.08,1.7-.55,2.19-2.2,2.18-3.76,0-3.77.05-3.76-3.71q0-12.32,0-24.64c0-1.12-.42-2.76,1.55-2.45,1.53.25,4.13-1.5,4.24,1.78,1.65-.8,3.23-2,5-2.35,4.23-.79,7.62,1.33,9.31,5.36a15.82,15.82,0,0,1-.27,13C189.1,541.62,183.25,543.79,177.38,539.11Zm9.6-9a22.33,22.33,0,0,0-.93-4.13,4.33,4.33,0,0,0-6.94-1.42c-2.54,2.47-2.59,8.5,0,10.88a4.34,4.34,0,0,0,2.28,1.06C184.84,536.91,186.77,534.58,187,530.08Z" style="fill: #919191"/>
        <path d="M33.73,534.5c1.33,0,2.68-.09,4,0a2.49,2.49,0,0,1,1.74.86A3.13,3.13,0,0,0,43.54,537a7.37,7.37,0,0,0,3-3,12,12,0,0,0,.91-3.44,33.2,33.2,0,0,1-5.61,1.08c-5.24.1-8.75-3.19-9.23-8.34-.5-5.48,2.72-10.13,7.68-11.06,6.73-1.26,11.78,2.36,12.8,9.19.8,5.37.76,10.66-2,15.57s-9.83,6.5-14.45,3.58A6.5,6.5,0,0,1,33.73,534.5Zm13.56-12.38c0-3.23-1.77-5.29-4.52-5.29s-4.38,2-4.36,5.16,1.75,5,4.53,5S47.29,525.13,47.29,522.12Z" style="fill: #919191"/>
        <path d="M76.46,519.59c-1.55,0-3,.06-4.38,0a1.74,1.74,0,0,1-1.26-.77,3,3,0,0,0-3.9-1.89,7,7,0,0,0-3.23,2.74,10.05,10.05,0,0,0-.91,3.39c2.61-.26,5-.93,7.37-.65,4.73.56,7.35,4.18,7.34,9.34s-3,9.09-7.55,9.93c-6.56,1.21-11-1.69-12.61-8.19A25.67,25.67,0,0,1,58,519.11a10.48,10.48,0,0,1,14.38-6.23C75.19,514.14,76.51,516.17,76.46,519.59Zm-9.38,7.35a4.49,4.49,0,0,0-4.33,5c.1,3.22,1.89,5.22,4.65,5.19s4.3-2.06,4.29-5.23C71.69,528.85,69.85,526.89,67.08,526.94Z" style="fill: #919191"/>
        <path d="M540.72,538.89c-.81,4-3.73,1.45-5.78,2.49V511.32h5.45v9.57a9.13,9.13,0,0,0,1.29-.65c4-3.09,8.39-2.65,11.65,1.17s3.49,12.9.29,16.91C550.17,542.66,545.15,543,540.72,538.89Zm9.33-8.83c0-4-1.4-6.25-4.08-6.56-2.92-.35-5,1.43-5.42,4.72-.6,4.4.91,7.81,3.7,8.3.16,0,.32,0,.48,0C548.2,536.83,550,534.59,550.05,530.06Z" style="fill: #919191"/>
        <path d="M322.49,525.74c-.27-3,.92-5.28,3.54-6.43a14.45,14.45,0,0,1,11.16-.1c2.53.93,3.63,2.93,3.62,5.6,0,3.51-.08,7,0,10.51a52.47,52.47,0,0,0,.73,5.39c-2.25,1.17-5.4.64-6.23-.89-2.66.67-5.15,1.66-7.71,1.85a5.43,5.43,0,0,1-5.9-4.78c-.71-4.3.36-6.9,3.63-8.12a46.26,46.26,0,0,1,5.55-1.33,16.24,16.24,0,0,0,3-.8,1.67,1.67,0,0,0,.37-3c-1.26-1.08-5.07-1-5.68.4-1,2.32-2.74,1.91-4.48,1.9A14,14,0,0,1,322.49,525.74Zm12.34,4.72c-1.85.47-3.71.9-5.53,1.43a2.62,2.62,0,0,0-2.12,3.24c.36,1.66,1.61,2.28,3.24,2.18C334,537.1,335.61,534.57,334.83,530.46Z" style="fill: #919191"/>
        <path d="M258.89,525.63c.11-3.71,1.44-6.15,4.69-6.68a27.89,27.89,0,0,1,9.6.18c3,.58,4,2.56,4,5.69s-.07,6.54.05,9.81c.08,2,.47,4,.73,6.12-2.6,1.08-5.38.59-6.2-.8-2.85.63-5.46,1.52-8.11,1.7s-4.71-1.8-5.42-4.52c-.82-3.08-.12-6.37,2.16-7.49a43.35,43.35,0,0,1,7.21-2.21c1.58-.45,3.84-.1,3.71-2.68-.07-1.55-2.58-2.33-4.87-1.64a3.75,3.75,0,0,0-1.45.77C262.54,526.21,262.55,526.22,258.89,525.63Zm12.29,5c-1.95.45-3.75.76-5.48,1.3a2.66,2.66,0,0,0-2,3.11c.2,1.7,1.36,2.22,2.82,2.32C270,537.55,272,534.82,271.18,530.59Z" style="fill: #919191"/>
        <path d="M208.87,518.26c7,0,11.17,4.44,11.17,11.76s-4.26,11.73-11.22,11.72S197.7,537.33,197.73,530,201.82,518.25,208.87,518.26ZM214.15,530a24.21,24.21,0,0,0-.93-3.91,4.79,4.79,0,0,0-7.92-1.32c-2.07,2.22-2.27,8.48,0,10.39a6.93,6.93,0,0,0,4.69,1.37C212.64,536.22,214,533.65,214.15,530Z" style="fill: #919191"/>
        <path d="M454.28,529.28c.07-5,2.28-8.68,6.49-10.31a12,12,0,0,1,13,2.72c3.21,3.54,3.59,11.7.74,15.71s-9.12,5.73-14.19,3.41C455.55,538.64,454.1,534.54,454.28,529.28Zm5.6.52a32.75,32.75,0,0,0,1,4.05,4.48,4.48,0,0,0,4.27,2.94,4.36,4.36,0,0,0,4.41-2.69c1.24-2.85,1.5-5.87-.24-8.48a5.65,5.65,0,0,0-4-2.29,6.18,6.18,0,0,0-4.05,2.28C460.38,526.66,460.31,528.39,459.88,529.8Z" style="fill: #919191"/>
        <path d="M403.59,519.16c6-.73,6-.73,6,4.68,0,4.55,0,9.09,0,13.64,0,4.23.32,3.64-3.77,3.58-.91,0-1.81-.69-3-1.17a25.45,25.45,0,0,1-5.06,1.66c-4.51.59-7.59-1.73-7.87-6.28-.33-5.31-.08-10.66-.08-15.91.25-.16.38-.31.51-.32,5.45-.5,5.45-.5,5.45,5,0,2.8,0,5.59,0,8.38,0,3,1,4.11,3.42,4.13a4.13,4.13,0,0,0,4.3-4.18c.11-3.66.05-7.34.06-11Z" style="fill: #919191"/>
        <path d="M367.56,541H361.8c0-3.8,0-7.52,0-11.24a22.88,22.88,0,0,0-.07-2.87c-.24-1.9-1-3.36-3.23-3.42s-4.17,1-4.34,3.19c-.28,3.57-.24,7.16-.32,10.74,0,1.11,0,2.22,0,3.53H348v-6.63c0-4.07-.06-8.13,0-12.2,0-1.09-.85-2.69,1.16-3.12,2.44-.51,4.09,0,4.75,1.23,2.45-.63,4.76-1.64,7.1-1.72a5.92,5.92,0,0,1,6.45,6C367.73,529.85,367.56,535.27,367.56,541Z" style="fill: #919191"/>
        <path d="M316.74,532.69c-.35,4.73-2.59,7.54-6.65,8.71s-8.74-.14-11-3.22c-3-4-3.15-11.75-.33-15.87,2.71-4,6.73-4.51,11-3.88a8.4,8.4,0,0,1,6.93,7,9,9,0,0,1,0,1.41c-1.66,0-3.24.08-4.8-.05-.44,0-1-.65-1.2-1.13a3.44,3.44,0,0,0-3.75-2.29,3.29,3.29,0,0,0-3.43,2.77,24.66,24.66,0,0,0,.15,7.72c.22,1.07,2,2.35,3.23,2.52a4,4,0,0,0,3.39-1.8c.67-1.83,1.7-2,3.23-1.89C314.55,532.75,315.58,532.69,316.74,532.69Z" style="fill: #919191"/>
        <path d="M449.32,526.84a40.71,40.71,0,0,1-4.58-.06,2.28,2.28,0,0,1-1.42-1.26c-.83-1.85-2.38-2.6-4.07-2-1.23.42-2.88,1.67-3,2.74a20.09,20.09,0,0,0,.2,7.92c.81,3,5.07,3.44,6.32.71,1.1-2.39,2.71-2.21,4.58-2.18.62,0,1.24.06,1.84.09a8.26,8.26,0,0,1-5.28,8.26c-6.57,2.51-12.5-.61-14.13-7.43-1.35-5.7.45-11.46,4.35-13.93,5.85-3.68,14-.75,15.22,5.49A9.94,9.94,0,0,1,449.32,526.84Z" style="fill: #919191"/>
        <path d="M98.32,517.86H84.76a3.2,3.2,0,0,1-.37-.79c-.34-4.32-.33-4.32,4-4.32s8.78,0,13.16,0c1.09,0,3.08.46,3.09.77.07,1.57.13,3.57-.74,4.68a41.55,41.55,0,0,0-8.36,16.49c-.16.69-.27,1.4-.4,2.1-.85,4.73-1.28,5-6.59,4C89,532.22,92.9,525.07,98.32,517.86Z" style="fill: #919191"/>
        <path d="M352.4,173.56c1.51-2,3-3.92,4.5-5.93.73-1,1.26-2.16,2-3.19,1.32-1.94,2.85-3.74,4-5.76,1.73-3,3.2-6.16,4.84-9.21a5.2,5.2,0,0,1,1.08-1.18l-3-2.93c4.1,1.44,7.71,3.55,10,7.44,2,3.35,1.3,7.16-2,9.13-5.23,3.1-10.63,5.94-16,8.86C356.05,171.76,354.22,172.64,352.4,173.56Z" style="fill: #0994ba"/>
        <path d="M253.62,541.15a50.87,50.87,0,0,1-5.69,0c-2.43-.28-3.26-2.11-3.31-4.29-.08-3.58-.14-7.18,0-10.76.06-2-.19-3.36-2.76-3v-4c4.77,0,1.75-3.84,3.34-6.1a21.21,21.21,0,0,1,3.68.07c.57.1,1,.95,1.47,1.53.16.2.06.62,0,.94-.35,2.35.14,4,3.24,3.38l.13,2.49c.07,1.21-.16,2.08-1.7,1.78-1.31-.25-1.68.48-1.67,1.65,0,3.27,0,6.55,0,9.81,0,.61.52,1.73.83,1.74C254.74,536.5,253.59,538.94,253.62,541.15Z" style="fill: #919191"/>
        <path d="M380.75,513.16c1.13,2.26-1.76,6.51,3.59,5.9V523a5.39,5.39,0,0,0-1.84.25c-.57.31-1.34.93-1.36,1.43-.11,3.43,0,6.85-.06,10.28,0,2.33,2.05,1.42,3.24,2v4.31a51,51,0,0,1-5.26,0c-2.34-.25-3.63-1.86-3.7-4.51-.09-3.59-.05-7.17-.07-10.76,0-2.53,0-2.53-2.7-2.93v-3.78l2.72-.51v-5.51Z" style="fill: #919191"/>
        <path d="M226,519.23c4.81-.77,5.21-.61,5.92,2.41,1.69-2.21,3.68-3.61,6.66-3.16v5.6c-.22.14-.34.28-.48.29-5.35.43-6.08,1.22-6.08,6.59,0,3.26,0,6.53,0,9.66-.3.22-.41.39-.55.4-5.47.49-5.47.49-5.47-4.94Z" style="fill: #919191"/>
        <path d="M562.19,519.16c5.11-.66,5.23-.6,5.47,2.89,1.92-2.33,3.85-4.18,7.16-3.51a23.83,23.83,0,0,1-.07,4.23,2.45,2.45,0,0,1-1.63,1.62c-4.18.53-5.28,1.81-5.12,6,.12,2.94,0,5.89.07,8.83,0,1.49-.54,2-2,1.89-1.25-.09-2.51,0-3.92,0Z" style="fill: #919191"/>
        <path d="M290.43,541h-5.54V511.32h5.54Z" style="fill: #919191"/>
        <path d="M225.09,190.83l-1.42-1a65.67,65.67,0,0,0,1.56,6.43A129.77,129.77,0,0,0,230,208.36c1.47,3.09,4.22,5.68,5.2,8.86,1.24,4.05,4.19,6.87,6,10.46.6,1.2,1.63,2.17,2.35,3.33.22.36,0,1,0,1.46-4.49-3.57-6.94-8.62-9.69-13.43-2-3.43-3.89-6.89-5.61-10.44a59.28,59.28,0,0,1-2.17-6.17c-1.26-3.55-2.71-7-3.78-10.63a70.88,70.88,0,0,1-2-9.34c-.48-3-.64-6.05-.94-9.08q2.35,7.05,4.72,14.11C224.41,188.59,224.74,189.72,225.09,190.83Z" style="fill: #919191"/>
        <path d="M85.09,534.78v6.16h-6c0-1.6-.1-3.23.06-4.84a1.87,1.87,0,0,1,1.24-1.26A46.47,46.47,0,0,1,85.09,534.78Z" style="fill: #919191"/>
        <path d="M417.16,534.52c2,.3,4.38,0,5.6,1,.86.73.85,4,0,4.84-1.12,1-3.49.69-5.59,1Z" style="fill: #919191"/>
        <path d="M526.92,540.86c-.25.13-.32.19-.39.19-6.72.06-5.61,1-5.23-6.09a7.92,7.92,0,0,1,1.1-.07C527.74,535.2,527.74,535.21,526.92,540.86Z" style="fill: #919191"/>
        <path d="M453.41,209c-.06-.3-.25-.66-.15-.91,1.43-3.81,2.85-7.63,4.38-11.41,1.22-3,2.57-6,3.86-9-.59,3-1,6.08-1.8,9-1.1,4-2.5,8-3.78,11.95l-.42-1.41Z" style="fill: #919191"/>
        <path d="M269.91,104.23q0,27.36,0,54.73a13.57,13.57,0,0,1-.31-2.08q0-25.41,0-50.82A11.66,11.66,0,0,1,269.91,104.23Z" style="fill: #919191"/>
        <path d="M226,193.16l-.89-2.07Z" style="fill: #919191"/>
        <path d="M178.86,67.43l-.55.69Z" style="fill: #f74665"/>
        <path d="M269.72,200.42c0,.37.06.75.08,1.13C269.78,201.17,269.75,200.8,269.72,200.42Z" style="fill: #919191"/>
        <path d="M261.47,251.61q4,2.25,8,4.52a6.73,6.73,0,0,1,1.09.92c6.43,5.88,14,9.83,22,13.16,3.7,1.55,7.37,3.16,11.14,4.51a58.18,58.18,0,0,0,8.31,2.22c4.13.8,8.3,1.38,12.46,2,2.34.35,4.68.75,7,.91,6.54.47,13.08.83,19.68.68l-1.87-.31c4.4-.47,8.64-.72,12.8-1.43,3.26-.55,6.43-1.68,9.64-2.52,2.85-.75,5.85-1.12,8.54-2.25,6.07-2.54,12.6-4.08,18.09-8a36,36,0,0,1,4.46-2.39,36.76,36.76,0,0,0,8.33-5.52c.31-.29,1.05-.1,1.59-.13,0,.29,0,.58,0,.86-2.94,2-5.77,4.26-8.87,6-4.52,2.56-9.19,4.89-13.9,7.11s-10,3.64-15.09,5.26a84.28,84.28,0,0,1-16.43,3.31,232.8,232.8,0,0,1-25.62,1c-3.93,0-7.86-1.05-11.78-1.65-2.09-.32-4.18-.61-6.23-1.07-4.17-.94-8.39-1.77-12.46-3.05a74.8,74.8,0,0,1-12.11-4.75c-6.81-3.57-13.41-7.53-20-11.51a58.35,58.35,0,0,1-7-5.34A11.83,11.83,0,0,1,261.47,251.61Z" style="fill: #919191"/>
        <path d="M412.78,258.85c0-.28,0-.57,0-.86a120.26,120.26,0,0,0,28.7-28.77l.9-1a1.36,1.36,0,0,0,.17-.39c1.56-2.39,3.12-4.79,4.69-7.18.07-.14.13-.27.19-.41l1.12-.2a5,5,0,0,1-.34,1.7c-2.27,3.54-4.56,7.07-6.94,10.54a41.12,41.12,0,0,1-4.17,5.38c-4.47,4.63-9,9.24-13.69,13.64-2.86,2.66-6.11,4.91-9.22,7.3C413.84,258.86,413.25,258.78,412.78,258.85Z" style="fill: #047493"/>
        <path d="M448.53,220l-1.12.2c.59-1.12,1.19-2.23,1.78-3.34Z" style="fill: #919191"/>
        <path d="M447.22,220.65c-1.57,2.39-3.13,4.79-4.69,7.18a13.88,13.88,0,0,1,.8-2.91,14.77,14.77,0,0,1,2.11-3A8.55,8.55,0,0,1,447.22,220.65Z" style="fill: #919191"/>
        <path d="M442.36,228.22l-.9,1Z" style="fill: #919191"/>
        <path d="M345.23,134.32l.5.7-.48.08c0-.28-.08-.56-.13-.84Z" style="fill: #864492"/>
      </g>
    </g>
  </g>
</svg>
