<svg xmlns="http://www.w3.org/2000/svg" viewBox="0 0 652.41 462.07">
  <g id="Camada_2" data-name="Camada 2">
    <g id="Camada_1-2" data-name="Camada 1">
      <g>
        <path d="M636.74,61.29c-1.13-8.07-2.2-16.15-3.48-24.2a6.42,6.42,0,0,0-2.14-3.52c-6.39-5.47-13-10.66-19.29-16.26-2.61-2.32-4.61-3-7.84-1.13C587.12,26.2,570.1,36,553.25,46a7.89,7.89,0,0,0-3.16,5C548.41,61.37,543.6,69.1,534,74.13Q433.14,126.9,332.46,180.06c-3.71,1.95-5.87,1.9-8.62-1.82-9-12.24-19.11-23.52-32-31.9-19.15-12.44-38.81-12.9-57.68-.34-12.83,8.54-24.64,18.68-36.48,28.62-12.87,10.81-27.29,15.26-44,13.79-15.57-1.37-31.21-2.3-46.84-2.67C94.57,185.45,83,189,72.35,195.12a22.78,22.78,0,0,1-3.16,1.49,11.44,11.44,0,0,1-2.7,0c.86-2.27,1-4.62,2.29-5.71,4.1-3.57,8.22-7.4,13-9.82,18.75-9.53,38.88-10.67,59.46-9,13.08,1,26.22,1.63,39.34,2,6,.15,11-2.76,15.73-6.64,13.5-11.07,26.77-22.54,41.13-32.39,14.81-10.15,31.47-15.23,49.77-10.08,12.7,3.57,23.17,10.89,32.29,20.1,6.77,6.83,13,14.23,19.91,21.92,7.25-3.76,15-7.73,22.75-11.78l163-85.67a18,18,0,0,1,2.67-1.34c6.47-2.16,9.11-6.59,9.21-13.4s5-11.09,10.44-14.31C569.69,27.27,592,14.3,614.18,1.17c3.25-1.93,5.42-1.41,8.29,1.12,7.21,6.36,14.92,12.13,22.3,18.31a7.8,7.8,0,0,1,2.34,4.34c1.69,9.47,2.89,19,4.83,28.45.83,4,.85,7.49-2.4,10a167.55,167.55,0,0,1-16.78,11.49c-18.86,10.92-37.93,21.47-56.82,32.35-3.25,1.88-6.21,2.46-9.34.51-8.59-5.36-15.88-3.77-24,2.06-14.07,10-29,18.85-43.59,28.2q-50.16,32.22-100.34,64.42c-2.56,1.63-5.38,2.86-9.19,4.86.68-6.69,4-10,8-12.64,14.9-9.75,29.91-19.32,44.9-28.94,37.42-24,74.92-47.88,112.17-72.13,6.5-4.23,12.71-5.19,19.14-1.64,5.53,3.05,9.93,2.63,15-.86,5.45-3.74,11.47-6.65,17.25-9.91,8.69-4.92,17.41-9.77,26-14.8,1.38-.81,2.33-2.36,3.48-3.58.41.1.83.21,1.24.33Z" style="fill: #813239"/>
        <path d="M231.14,410.46A26.22,26.22,0,0,1,229,414c-20.28,23.93-44.62,41.63-76.21,46.78-30.16,4.91-56.51-5-80.08-23.34-28-21.77-46.08-50.83-59.44-83.07C3.36,330.58-2.87,305.88,1.33,279.89c1.47-9.05,5.11-17.81,8.35-26.49,2-5.39,7.26-7.57,12.4-9.24,2.4-.78,4.41,0,2.94,2.93-14.25,29-9.6,58,.2,86.91,3.73,11,8.59,21.59,13,32.34.53,1.28,1.79,2.24,2.51,3.47,9.76,16.67,20.38,32.7,34.45,46.14,18.32,17.49,39,30.6,64.67,34.07,28.88,3.9,52.05-6.82,71.34-27.76A103.57,103.57,0,0,1,223.76,411c1.64-1.28,4.21-1.37,6.36-2Z" style="fill: #813239"/>
        <path d="M28.47,212.7c.58-1.06,1.15-3,1.76-3,10.67-.19,21.35-.14,32.31-.14-.11,2.09.25,3.5-.3,4.29-3.53,5.07-1.49,9.65.72,14.44,7.82,17,15.49,34,23.87,52.41,3.6-8.11,6.61-14.95,9.66-21.76,4.61-10.29,9.54-20.44,13.7-30.9,1.38-3.5,4.76-7.65.17-11.87-.61-.56,1.31-5.74,2.19-5.77,10.2-.43,20.42-.27,31.6-.27-3,5.82-5.61,10.66-8,15.62-6.27,13.19-12.35,26.48-18.68,39.65-3.31,6.89-7,13.6-10.49,20.39a35.21,35.21,0,0,0-3.63,2c-4.18,2.92-8,6.32-13.69,2.5-1.61-1.09-4.54-.54-6.82-.28-4.15.48-8.26,1.31-12.38,2a12.35,12.35,0,0,1-2.35-2.7c-.41-.9.2-2.28-.24-3.15C62.64,275.67,57.13,265.4,52,254.94c-6.16-12.52-11.92-25.23-18.16-37.7C32.86,215.31,30.29,214.2,28.47,212.7Z" style="fill: #d27334"/>
        <path d="M430.78,291.36q7.23-15.51,14.46-31c5.62-12,11.37-23.92,16.75-36a10.34,10.34,0,0,0,.12-7.11c-1.59-4.36-.12-7.42,4.45-7.45,9.45-.06,18.9,0,27.95,0,.56.91.95,1.27.88,1.45-3.61,9.27,1.72,16.51,5.49,24.06C509.23,252,517.66,268.7,526,285.42a9.24,9.24,0,0,1,.5,1.91c-1.06.41-2.94.67-3,1.25-.71,3.91-3.58,3.21-6.15,3.24-1.83,0-3.93-.56-5.43.14-2.46,1.15-3.57.4-5.16-1.44-4-4.69-8.25-8.08-15.59-7-8,1.17-16.26.27-24.42.24-2.26,0-4.61-.61-6.76-.17-5.75,1.18-11.36,3.16-17.14,3.94-1.41.19-5.51,3.63-5.91-1.74.11-.42.22-.84.34-1.26l-.35,1.25Zm44.35-47.31-.06,0q-6.26,13.43-12.52,26.84c9.54.23,19.08.69,28.61.52,2.24-.05,4.52-2.11,2.78-5.42-4.05-7.7-7.89-15.51-12-23.17-1-1.87-2.79-3.33-4.89-5.76L476,242.35Z" style="fill: #d27334"/>
        <path d="M407.77,363.93c-2-1.27-3.42-2.06-4.73-3-8.47-5.95-9-16.59-1.12-23.43.25-.22.48-.46.74-.67,10-8,36.25-8.29,46.61-.61,10.89,8.07,9.31,20-4,27.47,1.2.59,2.13,1.12,3.12,1.53,12.31,5.12,15,19.11,5.12,28.26a28,28,0,0,1-10.64,6.11,59.49,59.49,0,0,1-33.48-.1c-6.77-1.92-11.93-6-14.6-12.57C390.65,376.85,395,369,407.77,363.93ZM426,390.7c4.2-1,8.73-1.33,12.39-3.27,2.46-1.31,5.08-4.92,5.11-7.53s-2.43-6.59-4.86-7.75c-8-3.8-16.58-4.1-24.52.06-2.42,1.27-4.88,5.08-4.84,7.69s2.62,6.14,5.07,7.56C417.67,389.37,421.91,389.65,426,390.7Zm.42-32.22c3.42-.78,7.23-1,10.39-2.57,2.15-1.05,4.67-4,4.68-6s-2.36-5.33-4.49-6.27a26.06,26.06,0,0,0-21.32,0c-2.09.91-4.43,4.19-4.37,6.32s2.54,5,4.7,6.13C419,357.55,422.73,357.68,426.45,358.48Z" style="fill: #3a373a"/>
        <path d="M319.3,395.89l8.84-16.29c2.26,8.1,11.28,12.1,22.25,10.82,11.4-1.32,18.28-8.75,18.65-20.5-3.07,1.75-5.85,3.78-8.93,5a35.58,35.58,0,0,1-25.4.3c-9.91-3.41-15.46-11.1-15.55-20.92-.08-9.21,5.57-16.95,15.22-20.73a43.34,43.34,0,0,1,27.45-1.42c13.35,3.54,21.2,14.83,22,31,1.34,27.35-21.63,44.74-48.91,37-2.23-.64-4.36-1.67-6.59-2.28C325.59,397.17,322.8,396.66,319.3,395.89ZM349,366.34c3.59-.76,6.82-1,9.68-2.17,4.31-1.75,7.63-4.66,7.71-10,.07-5.49-3.12-8.74-7.72-10.5-6.44-2.46-13-2.5-19.27.92-7.8,4.26-8.15,14.06-.42,18.4C342.05,364.76,345.79,365.32,349,366.34Z" style="fill: #3a373a"/>
        <path d="M342.89,215.73a91.92,91.92,0,0,0-1.12,9.14c-.56,22.6-1,45.21-1.5,67.81q-.37-6.87-.76-13.75l-.8,0v13.62a44.61,44.61,0,0,1-5.12-.83c-5-1.47-9.85,2.69-14.79.12-.61-9.56-1.5-19.11-1.76-28.68-.31-11.45.2-22.93-.22-34.37-.2-5.6-1.71-11.15-2.63-16.72.5-.8,1-1.59,1.46-2.39h26.73c.55.75,1.11,1.5,1.69,2.24C343.69,213.17,343.29,214.45,342.89,215.73Z" style="fill: #d27334"/>
        <path d="M154.83,213.14c.78-1.17,1.53-3.34,2.33-3.36,8.75-.16,17.51,0,26.27.13.43,0,.86.4,1.54.74-.17,1.26.1,2.86-.57,3.75-3.94,5.14-2.69,11.06-2.74,16.74-.13,13.44-.07,26.88-.14,40.31a34.09,34.09,0,0,1-.57,4.35c-.33-1.33-.67-2.67-1-4l.15-.34-.17.31c-1.07,7.48-2.14,15-3,21.19l-13.3-1.69.69-.92L159,286.09c-.05-22.07-.15-44.13-.11-66.2C158.91,216.63,158.55,214,154.83,213.14Zm24.42,55.54.18.41.17-.4Z" style="fill: #d27334"/>
        <path d="M318.8,291.82c4.94,2.57,9.83-1.59,14.79-.12a44.61,44.61,0,0,0,5.12.83V278.91l.8,0q.39,6.87.76,13.75c1.5.48,3,1.36,4.49,1.37,18.49.12,37,.27,55.46-.05,3.16-.05,6.28-2.26,10.29-3.81,0,6.64,0,14.08,0,21.52-1.72.51-3.45,1.45-5.16,1.42-2.19,0-4.37-1.24-6.56-1.24-26-.1-51.92,0-77.87-.16-2.46,0-4.91-1.28-7.37-2l2-2.16Z" style="fill: #d27334"/>
        <path d="M277.22,369.08l-15.31,32.64c-5-11.18-9.54-21.34-14.46-32.37v32.16h-9.67V352h12.35c4,9.86,7.78,19.36,11.69,29.07,4.15-4,13-25,12.28-29h13.55v49.53H277.22Z" style="fill: #767678"/>
        <path d="M512.93,400.31h-18.2c.51-4.23,1.4-8.52,1.48-12.84.21-11.62.07-23.25.07-36.15L486.79,356V338.54c2.81,3.37,6.33,4,8.93.83.88-1.07-.94-4.38-1.62-7h18.48c-.53,3.76-1.55,7.86-1.61,12q-.3,23.22,0,46.45C511,393.88,512.22,397,512.93,400.31Z" style="fill: #3a373a"/>
        <path d="M194.5,250.83c3.35-13.16,9.58-24.63,20.62-33.16,16-12.35,33.61-15.54,53.09-8.92-12.25,7.1-24.21,14.36-37.1,20.4-12.6,5.91-23.62,15.21-35.33,23Z" style="fill: #813239"/>
        <path d="M436.93,285.79c.4,5.37,4.5,1.93,5.91,1.74,5.78-.78,11.39-2.76,17.14-3.94,2.15-.44,4.5.16,6.76.17,8.16,0,16.44.93,24.42-.24,7.34-1.08,11.56,2.31,15.59,7,1.59,1.84,2.7,2.59,5.16,1.44,1.5-.7,3.6-.12,5.43-.14,2.57,0,5.44.67,6.15-3.24.11-.58,2-.84,3-1.25l.12.17.36,1.24c3.5,8.13,6.67,16.48,15.65,21.69l-3.54.64c-4.81.53-9.64,1.55-14.44,1.45-6.54-.14-13.07-1.13-19.6-1.76.06-.65.13-1.31.2-2,4.85-1.58,5.67-3.76,3.19-7.88-1.79-3-3.75-5.93-4.85-9.17-1.31-3.88-3.82-5.09-7.49-5.08-12.8,0-25.59,0-38.39.07-1.39,0-3.48.28-4.06,1.19-3,4.72-6.95,9.15-6.62,15.35l.18,2.65c-.86,1.34-1.66,3.79-2.57,3.83-7.07.33-14.16.18-21.16.18.19-2.1.32-3.48.44-4.87q3.41-6.85,6.82-13.71l6.14-5.58Z" style="fill: #d27334"/>
        <path d="M230,311.5c1.7-1.09,2.94-2,4.32-2.75,10.26-5.3,20.75-10.22,30.78-15.94,7.72-4.39,14.8-9.91,22.32-14.67,5-3.18,10.34-5.92,15.7-8.95C301.15,297.32,265.26,325,230,311.5Z" style="fill: #813239"/>
        <path d="M194.48,351.2h38.29v9.1c-8.92,0-17.64-.07-26.36.12-.67,0-1.75,1.77-1.85,2.79a76.89,76.89,0,0,0-.09,7.88H224v9.56h-19v20.88H194.48Z" style="fill: #767678"/>
        <path d="M28.47,212.7c1.82,1.5,4.39,2.61,5.35,4.54,6.24,12.47,12,25.18,18.16,37.7,5.15,10.46,10.66,20.73,15.92,31.14.44.87-.17,2.25.24,3.15a12.35,12.35,0,0,0,2.35,2.7,9,9,0,0,0,.57,2.91c2.1,3.5,4.26,6.79,3,11.35-.23.84,2.49,3.49,4,3.59a174.1,174.1,0,0,0,18.42.1c1.34-.05,2.63-1.38,3.94-2.12l3.67,2.28c-1.3,1.78.08,5.4-3.72,5.46-7,.1-14,.3-20.92.24-4.21-.05-8.41-.52-14.38-.91,8.6-7.35,4.21-13.77,1.25-20.13C56.58,273.75,46.87,252.78,36.86,232c-2.61-5.43-6.37-10.3-9.33-15.57C27.09,215.58,28.12,214,28.47,212.7Z" style="fill: #767678"/>
        <path d="M100.42,307.76c-1.31.74-2.6,2.07-3.94,2.12a174.1,174.1,0,0,1-18.42-.1c-1.48-.1-4.2-2.75-4-3.59,1.23-4.56-.93-7.85-3-11.35a9,9,0,0,1-.57-2.91c4.12-.68,8.23-1.51,12.38-2,2.28-.26,5.21-.81,6.82.28,5.67,3.82,9.51.42,13.69-2.5a35.21,35.21,0,0,1,3.63-2c-2.29,5-4.86,9.82-6.72,14.93C99.53,302.74,100.33,305.38,100.42,307.76Z" style="fill: #d27334"/>
        <path d="M313.56,309.77c2.46.68,4.91,2,7.37,2,25.95.15,51.91.06,77.87.16,2.19,0,4.37,1.21,6.56,1.24,1.71,0,3.44-.91,5.16-1.42q-.56,3.45-1.1,6.9c-1.72-.54-3.41-1.2-5.17-1.6a28.46,28.46,0,0,0-6.25-1q-39.58-.09-79.18,0c-.83,0-1.67.08-2.49,0C311.59,315.61,310.84,313.91,313.56,309.77Z" style="fill: #767678"/>
        <path d="M159,286.09l5.25,4.26-.69.92,13.3,1.69c.9-6.24,2-13.71,3-21.19l0,0c.34,1.33.68,2.67,1,4l.09,16L181,304.77c.47,1,1,2,1.42,2.93-1.2.74-2.38,2.09-3.6,2.14-5.64.23-11.29.05-16.93.12-2.93,0-3-1.75-3-4C159,299.36,159,292.72,159,286.09Z" style="fill: #d27334"/>
        <path d="M159,286.09c-.05,6.63-.06,13.27-.17,19.91,0,2.21.06,4,3,4,5.64-.07,11.29.11,16.93-.12,1.22,0,2.4-1.4,3.6-2.14l3.78,1.41c-2.64,4.92-6.44,5.56-10.92,5.33-5.63-.28-11.3,0-16.95-.07-3.38-.05-4.85-2.71-3.91-5.66,1.17-3.63,2.48-7.45,2.49-11.19.06-20.43-.28-40.87-.47-61.31,0-4.15.2-8.33-.15-12.46-.2-2.29-1.57-4.46-2-6.77-.24-1.19.38-2.56.61-3.85,3.72.84,4.08,3.5,4.08,6.76C158.87,242,159,264,159,286.09Z" style="fill: #767678"/>
        <path d="M447.07,303.28c-.33-6.2,3.58-10.63,6.62-15.35.58-.91,2.67-1.18,4.06-1.19,12.8-.09,25.59-.05,38.39-.07,3.67,0,6.18,1.2,7.49,5.08,1.1,3.24,3.06,6.2,4.85,9.17,2.48,4.12,1.66,6.3-3.19,7.88.19-1.62,1-3.44.48-4.81-5-14-5-13.93-19.63-13.88-8.63,0-17.27.21-25.88-.15-4.44-.19-7.18,1.08-8.82,5.32C450.36,298.09,448.55,300.62,447.07,303.28Z" style="fill: #767678"/>
        <path d="M318.8,291.82l-3.27,15.79c0-5.28,0-10.55,0-15.82-.18-13.07-.51-26.14-.56-39.22,0-8.58.75-17.2.3-25.75-.22-4.17-2.27-8.29-3.81-12.31-1.41-3.68,0-3.63,2.75-2.47.94,5.58,2.45,11.13,2.65,16.73.42,11.44-.09,22.92.22,34.37C317.3,272.71,318.19,282.26,318.8,291.82Z" style="fill: #767678"/>
        <path d="M215.87,244.69c-.24,14.28-4.05,18.85-21.11,25.25-3.67-6.15-2.4-12.18,3.38-15.42s11.85-6.5,17.78-9.74Z" style="fill: #813239"/>
        <path d="M285.67,218c-6.29,3.65-11.69,6.85-17.16,9.92a3.71,3.71,0,0,1-2.72.33c-4.32-1.45-8.57-3.08-13.52-4.89,7.26-4.17,13.79-8.82,21-11.77C278.14,209.6,281.43,214.57,285.67,218Z" style="fill: #813239"/>
        <path d="M282,276.53c1.29-5.75,2.22-10.18,3.32-14.58a4.07,4.07,0,0,1,1.66-2.29c5.43-3.2,10.92-6.27,16.41-9.39,3.52,7.82,2.12,12.68-4.54,16.52Z" style="fill: #813239"/>
        <path d="M246.73,296.86c-7.3,4.23-13.95,8.5-21,11.9-1.64.79-4.82-1.18-7.07-2.31-1.85-.92-3.39-2.48-5.6-4.17,6.19-3.53,11.72-6.81,17.4-9.8,1-.55,2.78-.19,4.07.2C238.28,293.84,242,295.22,246.73,296.86Z" style="fill: #813239"/>
        <path d="M424,305.07c-.12,1.39-.25,2.77-.44,4.87,7,0,14.09.15,21.16-.18.91,0,1.71-2.49,2.57-3.83l4.75,2.93c-.79,6.52-4.51,7.65-10,7.24-6.62-.48-13.3,0-20-.19-2-.05-4-.86-5.93-1.32l-.79-1.74Z" style="fill: #767678"/>
        <path d="M270.87,231.66c5.44-3.38,10.25-6.59,15.32-9.31,1.1-.58,3.61.15,4.7,1.13,2.24,2,4,4.57,5.94,7-5.23,3-10.21,6-15.31,8.74-1,.53-2.94.77-3.57.19C275.5,237.12,273.39,234.48,270.87,231.66Z" style="fill: #813239"/>
        <path d="M202.17,289.87l17.27-10.11,8.35,9.27-18,10.4C207.34,296.31,204.93,293.3,202.17,289.87Z" style="fill: #813239"/>
        <path d="M217.47,276.14l-17.61,10.31c-.49-1.42-.69-2-.88-2.56-3.2-9.41-3.19-9.4,5.47-14.21,3-1.66,6-3.4,9.15-5.22Z" style="fill: #813239"/>
        <path d="M285.21,255.84c-1.34-4.26-2.47-7.84-3.81-12.11,4.86-2.4,9.56-5.08,14.56-7,1.22-.46,4.25,1.26,5,2.71,1,2.05,4.09,4.89.24,7.22C296.1,249.76,290.89,252.6,285.21,255.84Z" style="fill: #813239"/>
        <path d="M474.84,401.76a8.25,8.25,0,1,1-.15-16.49,8,8,0,0,1,8.26,8.16A8.17,8.17,0,0,1,474.84,401.76Z" style="fill: #3a373a"/>
        <path d="M505.09,310.76c6.53.63,13.06,1.62,19.6,1.76,4.8.1,9.63-.92,14.44-1.45.35,2.93-1.25,3.8-3.84,3.8q-13.2,0-26.38.05C506.09,314.93,504.36,314,505.09,310.76Z" style="fill: #767678"/>
        <path d="M342.38,209.66H315.65l-.9-.24c.06-.2.12-.56.18-.56q14-.06,28.07-.05c.14,0,.28.16.42.24Z" style="fill: #767678"/>
        <path d="M342.89,215.73c.4-1.28.8-2.56,1.18-3.83l1.14-.79.93.39q-1.36,2.49-2.74,5a2,2,0,0,1-.34-.3A1.74,1.74,0,0,1,342.89,215.73Z" style="fill: #767678"/>
        <path d="M181,304.77l.09-12.95Z" style="fill: #d27334"/>
        <path d="M527,288.74l-.36-1.24a5.59,5.59,0,0,1,.51.79C527.21,288.4,527.07,288.59,527,288.74Z" style="fill: #d27334"/>
        <path d="M215.92,244.78l.54-.46,0,.39h-.61Z" style="fill: #813239"/>
        <path d="M462.55,270.91h28.5c-4.52-9.63-8.68-18.55-12.94-27.42-.29-.58-1.42-.76-2.15-1.13l1.08-5.28c2.1,2.43,3.88,3.89,4.89,5.76,4.12,7.66,8,15.47,12,23.17,1.74,3.31-.54,5.37-2.78,5.42C481.63,271.6,472.09,271.14,462.55,270.91Z" style="fill: #767678"/>
        <path d="M436.92,285.78l.35-1.25c-.12.42-.23.84-.34,1.26Z" style="fill: #813239"/>
        <polygon points="475.13 244.05 475.26 244.23 475.07 244.07 475.13 244.05" style="fill: #767678"/>
        <polygon points="179.25 268.68 179.6 268.69 179.43 269.1 179.25 268.68" style="fill: #813239"/>
        <path d="M179.92,271.77l.17-.31-.15.34Z" style="fill: #813239"/>
      </g>
    </g>
  </g>
</svg>
