<svg xmlns="http://www.w3.org/2000/svg" viewBox="0 0 753.37 711.19">
  <g id="Camada_2" data-name="Camada 2">
    <g id="Camada_1-2" data-name="Camada 1">
      <g>
        <path d="M6.11,374.49a230.9,230.9,0,0,1,16.08-62.07C32.84,286.23,47.71,262.57,64.48,240c20-27,43.35-50.91,68.39-73.09a628.72,628.72,0,0,1,68.91-52.63A718.91,718.91,0,0,1,311.05,54.35c40.26-17.68,81.7-31.95,124.78-41.3A597,597,0,0,1,502.58,2.11,412.74,412.74,0,0,1,561.73.37c30.08,1.29,59.61,6,88,16.49,26.66,9.9,50.47,24.31,68.77,46.46,12.84,15.54,20.88,33.57,25.78,53.21,2.33,9.33,1.81,18.85,3.76,28.12-1,3.85-.17,7.8-.6,11.68,0,.8-.09,1.59-.14,2.39A203.25,203.25,0,0,1,744,180.27c-5.91,31.5-19.32,60-36.1,86.87-11.88,19.05-26.09,36.44-40.22,53.92-11.54,14.26-22.42,29-34.89,42.53a509.51,509.51,0,0,1-40.31,39.25C546.61,442.7,495.33,474.05,439.6,498c-59.05,25.37-120.24,43.25-184.44,49.64-41.48,4.13-82.8,3.76-123.81-4.8-23.65-4.93-46.26-13-66.94-25.28a112.62,112.62,0,0,1-40-39.8c-6.85-11.66-13.13-23.68-14.35-37.61C8.17,418.29,5.16,396.51,6.11,374.49ZM210.48,510.64a456.87,456.87,0,0,0,54.32-3.79C324,499,380.51,481.5,435,457.17c60.92-27.23,117.13-61.94,167.52-105.77,32.44-28.23,61.47-59.59,84.57-96.08,17-26.83,30.16-55.23,34.91-87,7.5-50.12-12.22-91.42-56-116.77-24.51-14.21-51.38-21.09-79.2-24.5-56.44-6.93-111.82.22-166.28,14.74A680.29,680.29,0,0,0,167,170.27C128.18,201.45,93.71,236.8,66.84,279c-18.31,28.74-32.54,59.18-36.19,93.61C27.86,399,32,423.93,46.87,446.5c14.39,21.81,34.75,36,58.42,46C138.94,506.58,174.39,510.48,210.48,510.64Zm265.11-36.05c-4.33.66-7.95,3.09-11.83,4.92-30,14.12-61,25.57-92.18,36.62-1.34.48-4.11,0-3.44,2.5s3,2.23,5,1.46c3.43-1.26,6.81-2.68,10.3-3.74C416,506.49,445.68,490.33,475.59,474.59Z" style="fill: #dbdbda"/>
        <path d="M747.4,156.33c.43-3.88-.44-7.83.6-11.68.48,5.66,3.39,10.76,4.32,16.13,1.35,7.78,1,15.9,1,23.87.17,19.76-5.16,38.59-11,57.13-4.59,14.54-11.62,28.14-18.8,41.68-7.49,14.16-17.87,26.35-25.55,40.36-4,7.31-10.37,13.37-15.92,19.78-9.7,11.19-19,22.71-28.45,34.07-13.51,16.2-27.57,31.94-43.08,46.42-12.66,11.81-25.58,23.27-39.05,34.09-9.71,7.8-20,14.9-30.3,21.94-14.28,9.76-28.94,19-44.11,27.25-19.26,10.52-38.91,20.29-59.13,28.92-15.17,6.48-30.91,11.44-46,18-13.38,5.8-27.47,8.64-41.31,12.62-25.8,7.42-52.22,11.18-78.77,14.74-16,2.14-32.08,3.35-48.1,4.93-17.66,1.74-35.59,1.27-53.38-.14-7.62-.6-15.25-1.27-22.82-2.33-16.31-2.3-32.47-5.77-47.89-11.43C82.43,566.3,65.83,558.19,51,546.9a131.52,131.52,0,0,1-26.88-27c-4.52-6.22-7.12-13.81-10.86-20.62C2,478.68,1.51,455.94.39,433.41a238.07,238.07,0,0,1,1-39.41c.11-.93-.25-2.05,1-2.73l1.38,2.49c2.89-6.3.77-13,2.37-19.27-1,22,2.06,43.8,4,65.65,1.22,13.93,7.5,25.95,14.35,37.61a112.62,112.62,0,0,0,40,39.8c20.68,12.28,43.29,20.35,66.94,25.28,41,8.56,82.33,8.93,123.81,4.8,64.2-6.39,125.39-24.27,184.44-49.64,55.73-23.94,107-55.29,152.91-95.15a509.51,509.51,0,0,0,40.31-39.25c12.47-13.51,23.35-28.27,34.89-42.53,14.13-17.48,28.34-34.87,40.22-53.92,16.78-26.9,30.19-55.37,36.1-86.87a203.46,203.46,0,0,0,3.23-21.54A2.09,2.09,0,0,0,747.4,156.33Z" style="fill: #593f61"/>
        <path d="M659.27,618.79c19.63-.81,33.09,9.9,42.37,28.49a39.91,39.91,0,0,1,2.89,27.63c-3.85,15.94-18.77,37.11-42.08,36.26-8.54-.31-17.12,1.15-25.39-3.3-11-5.92-19.37-14-23.32-25.81-9.29-27.7,1.32-50.21,27.91-61.77C646.76,618.06,652.2,619.45,659.27,618.79Zm-42.14,46c.24,23.36,17.87,41.15,40.63,41a40.32,40.32,0,0,0,40.5-40.73c-.15-23.35-18.15-41.06-41.41-40.75C634.88,624.63,616.9,642.94,617.13,664.79Z" style="fill: #dbdbda"/>
        <path d="M476.32,663.19c0-17.15,10.85-28.41,27.33-28.39,16.9,0,27.76,11.29,27.06,29.48-.61,16-9.62,26.36-26.88,26.9C485.41,691.75,475.63,676.69,476.32,663.19Zm43.43,0c.1-11.56-5.55-18.9-14.84-19.4-7-.37-12.26,2.35-15.42,8.7-3.53,7.1-2.47,19,2.09,24.16a14.62,14.62,0,0,0,6.87,4.71C510.42,684.93,519.63,677.12,519.75,663.21Z" style="fill: #dbdbda"/>
        <path d="M47.13,662.93c0-7.65.06-15.31,0-23,0-2.56.45-4.05,3.54-4,7.82.21,15.67-.22,23.46.31,10.85.73,16.85,6.22,17.34,14.93.35,6.18-2,11.41-7.66,14.47-3.24,1.74-3.64,3.4-1.41,6.46,3.48,4.79,6.4,10,9.76,14.88,1.45,2.12,1.35,2.75-1.33,2.91-5.39.34-10.11,0-12.68-6-1.55-3.62-4.41-6.67-6.11-10.26-2.39-5.05-6.52-4.92-11-4.49-2.19.22-2.55,1.75-2.55,3.58,0,4.32-.16,8.66.05,13,.25,5.45-3.67,3.85-6.53,4.14s-5.12,0-5-4C47.32,678.25,47.13,670.59,47.13,662.93Zm19.81-18.45v.14H61.46c-2,0-3.14.79-3.11,3,0,3.48,0,7,0,10.45,0,1.25.41,2.56,1.79,2.57,5.26,0,10.63,1.21,15.7-1.12,3.37-1.55,5.08-4.24,4.56-8s-3-5.88-6.56-6.52A61.4,61.4,0,0,0,66.94,644.48Z" style="fill: #dbdbda"/>
        <path d="M291.28,636.25c3.32,0,6.67-.23,10,0,19.31,1.55,30.34,23.16,21,40.27-4.66,8.52-11.83,12.18-20.85,12.85-6.78.5-13.62.18-20.43.31-2.68,0-3.93-1-3.92-3.79q.1-22.93,0-45.87c0-3.15,1.43-4.06,4.26-4,3.32.1,6.65,0,10,0Zm-3.36,26.69c0,4.83,0,9.65,0,14.47,0,1.55,0,3.37,1.95,3.46,6.44.28,13,1.17,18.61-3.45,7-5.84,5.9-13.52,4.71-21.14-.79-5-3.9-8.31-8.54-10.2s-9.5-1.28-14.3-1.18c-2.3.05-2.43,1.8-2.43,3.57C287.94,653.3,287.93,658.12,287.92,662.94Z" style="fill: #dbdbda"/>
        <path d="M183.14,681.38a43.69,43.69,0,0,1-5.49,0c-4.37-.57-7.33.45-8.35,5.38-.56,2.72-8.32,4.32-10.29,2.45-.93-.88-.43-1.76-.1-2.71,5.39-15.28,11-30.49,16-45.89,1.92-5.86,6.19-4.15,10.08-4.52s5.11,1.73,6.25,5c5.1,14.4,10.5,28.68,15.64,43.07.78,2.17,3.14,5.1-1,6.6-3.6,1.28-9.15-.55-9.19-3.57-.08-6.69-4.33-5.85-8.52-5.73C186.47,681.42,184.8,681.38,183.14,681.38Zm.51-34.38-1.12,0c-1.41,4.38-3.05,8.7-4.17,13.16-1,4.1-5.36,9.08-3.08,11.8,2.43,2.91,8.45.6,12.88,1,.33,0,.67,0,1,0,2.06,0,2.62-.87,2-2.82C188.6,662.38,186.14,654.69,183.65,647Z" style="fill: #dbdbda"/>
        <path d="M395.25,663.28c0-7.64.23-15.3-.1-22.93-.17-4,1.78-4.5,4.82-4.25,2.72.23,6.32-1.23,6.28,3.88q-.17,22.93,0,45.87c0,4.18-2.38,5-5.77,5s-5.56-.78-5.35-5.1c.37-7.46.1-15,.1-22.44Z" style="fill: #dbdbda"/>
        <path d="M182.89,632.54c-2.27-.09-3.43.25-4-.83s.49-1.74,1-2.52c2.94-4.16,6.09-7.85,12-6.67,1.26.24,2.9.72,1.51,1.88C189.81,627.47,187.24,632.31,182.89,632.54Z" style="fill: #dbdbda"/>
        <path d="M210.47,510.65c-36.08-.17-71.53-4.07-105.18-18.18-23.67-9.93-44-24.16-58.42-46C32,423.93,27.86,399,30.65,372.59,34.3,338.16,48.53,307.72,66.84,279,93.71,236.8,128.18,201.45,167,170.27A680.29,680.29,0,0,1,420.53,41.79C475,27.27,530.37,20.12,586.81,27.05c27.82,3.41,54.69,10.29,79.2,24.5,43.73,25.35,63.45,66.65,56,116.77-4.75,31.77-17.92,60.17-34.91,87-23.1,36.49-52.13,67.85-84.57,96.08C552.09,395.23,495.88,429.94,435,457.17,380.51,481.5,324,499,264.8,506.85A459,459,0,0,1,210.47,510.65Zm177.7-273.43c-1.49-.06-2.72.25-3,2-1.82-.31-2.95.77-4,2-1,.32-2.24.46-2,2-1.93-.54-3,.74-4,2a3.88,3.88,0,0,0-2.59,1.42l-4.91,3-3.08,2-3,1.94-7.87,5.07a8.22,8.22,0,0,0-3.58,2.53,4.12,4.12,0,0,0-3.06,1.94A5,5,0,0,0,344,265a4.7,4.7,0,0,0-3,2l-2.44,1.5-5.93,4-1.91,1.18-3.09,2a7.07,7.07,0,0,0-3.54,2.49,3.68,3.68,0,0,0-3,2l-1.31.69-3.11,1.84-3.06,1.94L301.2,292c-9.29,5.58-18.63,11.06-29.13,14.11-1.2.35-2.6,1.36-3.76.23s-.14-2.53.31-3.68a119.36,119.36,0,0,1,4.65-11.05c8.17-15.78,16.53-31.47,24.74-47.23,6.77-13,13.21-26.15,21.24-38.47,7.64-11.71,15.45-23.22,25.47-33.05,6.57-6.44,14.09-10.72,23.45-12.28,16.42-2.74,32.71-6.24,49.05-9.43q34.27-6.7,68.54-13.48c2.66-.53,4.07,0,5.66,2.42,2.5,3.86,5.77,7.22,8.82,10.71,1.7,1.95,3.38,1.55,5-.3,5.45-6.06,5.56-22.2.23-28.29-1.62-1.85-2.88-2.06-5-.48-4.1,3.09-8.9,4.58-15.18,5.12l9.26-4.07c2-.68,4.37-.78,5.73-3.42-3-.55-4.69,1.33-6.74,2.12-37.11,9.94-75,14.67-113.43,18.77a3.94,3.94,0,0,1,1.42-3.49c6.15-5.84,11.57-12.43,18.57-17.38,3.62-2.56,6.29-6.77,4.82-10.65-1.88-5-2.25-11.39-9.37-13.42-7.48-2.13-14-1.86-21,2.13-15,8.6-29.34,18.34-46.07,23.74-8.64,2.8-14.62,9.46-19.09,17.52-3.59,6.48-3.69,12.15,1.24,18,3.34,4,2.48,6.47-2.52,8.35-3.25,1.23-6.73,1.86-10.1,2.78-14.19,3.9-28,9-42.13,13.08-6.24,1.79-11.81,3.27-15.89,9-2.16,3-1.51,4.91.26,6.91a12.2,12.2,0,0,0,5,3.12c4.92,1.74,9.94,3.23,15,4.73a5.32,5.32,0,0,0,7.11-5.13c.05-1.5.32-3.14-.18-4.46-1.3-3.4.65-4.23,3.26-5.13,9.9-3.42,19.74-7.05,29.66-10.42,2.32-.79,4.2-3.45,7.16-2,0,.42.08.83-.08,1.06q-5.36,7.52-10.77,15l-2.46,3.4-.9,1.12A9.06,9.06,0,0,0,290,202l-.93,1.09a21.1,21.1,0,0,0-4.53,5.39A123.16,123.16,0,0,0,269,231.68c-11.18,21.56-18,44.71-24.72,67.9a27.54,27.54,0,0,0-.1,14.36c.78,3.07.89,6.95,5,8.14,0,.44-.28,1.05-.07,1.31,4.1,5.12,16.86,7.66,22.49,4.19s11.05-7.33,16.51-11.1c15.48-10.68,30.91-21.44,46.42-32.09,25.83-17.72,50.78-36.81,78.59-51.54a2.19,2.19,0,0,0,1.44-2.71c-5.34.45-10.81.51-16.1,1.51a13,13,0,0,0-8.29,4.63C389.21,235.9,388.46,236.06,388.17,237.22Zm163.93,4a27.47,27.47,0,0,0,2.9-1.92,577.56,577.56,0,0,0,58.57-58.6A660.09,660.09,0,0,0,654.72,127c4.86-7,9.18-14.3,13.79-21.43,1.87-2.88,2.06-5.11-1.07-7.54a157.06,157.06,0,0,1-12.21-11c-1.54-1.49-3-1.57-4.94-1.23Q620,91.12,589.72,96.22a7.5,7.5,0,0,0-5.77,4,626.76,626.76,0,0,1-42.35,63.82c-38.45,50.68-83.46,94.59-136,130.61-40.15,27.53-82.95,49.77-129.74,63.83-26.44,8-53.3,13.34-81.09,13-7-.08-13.87-.68-20.49-3.47-6.92-2.91-13.84-5.77-20.24-9.72-24.53-15.17-32.6-36.67-24.19-64.28,4.83-15.82,13-30,22.61-43.2,23.23-31.93,50.56-60,81.15-84.95.7-.57,2.05-1.08,1.12-2.24-.76-.94-1.82-.3-2.65.31-.4.3-.76.64-1.16.95-23,18.15-46.54,35.56-67.36,56.3-16.31,16.25-31.71,33.21-43.57,53.1a121.75,121.75,0,0,0-10.68,23.09c-10.09,29.69.22,54.85,28.22,69,21.8,11,45.34,14.14,69.29,14.6,51.41,1,100.77-9.85,148.75-27.37,55.62-20.31,108.09-46.92,156.6-81.05,13.88-9.76,27.59-19.8,40-31.45Z" style="fill: #593f61"/>
        <path d="M475.59,474.59c-29.91,15.74-59.58,31.9-92.11,41.76-3.49,1.06-6.87,2.48-10.3,3.74-2.08.77-4.39.9-5-1.46s2.1-2,3.44-2.5c31.18-11.05,62.21-22.5,92.18-36.62C467.64,477.68,471.26,475.25,475.59,474.59Z" style="fill: #593f61"/>
        <path d="M747.4,156.33a2.09,2.09,0,0,1-.14,2.4C747.31,157.92,747.35,157.13,747.4,156.33Z" style="fill: #4099ea"/>
        <path d="M552.19,241.16c-12.41,11.65-26.12,21.69-40,31.45-48.51,34.13-101,60.74-156.6,81.05-48,17.52-97.34,28.37-148.75,27.37-24-.46-47.49-3.59-69.29-14.6-28-14.14-38.31-39.3-28.22-69A121.75,121.75,0,0,1,120,274.35c11.86-19.89,27.26-36.85,43.57-53.1C184.4,200.51,208,183.1,230.94,165c.4-.31.76-.65,1.16-.95.83-.61,1.89-1.25,2.65-.31.93,1.16-.42,1.67-1.12,2.24-30.59,24.94-57.92,53-81.15,84.95-9.63,13.24-17.78,27.38-22.61,43.2-8.41,27.61-.34,49.11,24.19,64.28,6.4,3.95,13.32,6.81,20.24,9.72,6.62,2.79,13.44,3.39,20.49,3.47,27.79.31,54.65-5.08,81.09-13,46.79-14.06,89.59-36.3,129.74-63.83,52.52-36,97.53-79.93,136-130.61A626.76,626.76,0,0,0,584,100.26a7.5,7.5,0,0,1,5.77-4q30.3-5.13,60.57-10.43c2-.34,3.4-.26,4.94,1.23a157.06,157.06,0,0,0,12.21,11c3.13,2.43,2.94,4.66,1.07,7.54-4.61,7.13-8.93,14.46-13.79,21.43a660.09,660.09,0,0,1-41.15,53.72A577.56,577.56,0,0,1,555,239.33a27.47,27.47,0,0,1-2.9,1.92c-.57-2.57,1.69-3.44,3-4.7,7.86-7.42,15.72-14.85,23.79-22,6.59-5.88,9.93-14.05,15.27-20.75,8.11-10.16,15.07-21.12,22.83-31.51,3.21-4.3,4.2-9.15,4.77-14.59-35.09,53.27-79.37,97.6-130.84,135.69,2.78.78,3.85-.78,5.11-1.65,17.69-12.1,34.94-24.79,51.41-38.51C548.8,242.08,550,240.39,552.19,241.16Zm-64.09,45c.61,0,1.24,0,1.46-.75,0-.08-.16-.32-.24-.32-.73,0-1,.5-1.12,1.17l-.32.18Z" style="fill: #dbdbda"/>
        <path d="M390.22,236.28a13,13,0,0,1,8.29-4.63c5.29-1,10.76-1.06,16.1-1.51a2.19,2.19,0,0,1-1.44,2.71c-27.81,14.73-52.76,33.82-78.59,51.54-15.51,10.65-30.94,21.41-46.42,32.09-5.46,3.77-10.87,7.62-16.51,11.1s-18.39.93-22.49-4.19c-.21-.26,0-.87.07-1.31l-.09.11c1.36.5,1.93,2.59,4,2.22-6.8-14.13-6.93-15.48-2.42-30.68,2.18-7.33,4.31-14.68,6.78-21.92,6.23-18.26,12.73-36.41,23.76-52.53a323.27,323.27,0,0,1,24.25-31,29.74,29.74,0,0,0,6.68-12.12,123.23,123.23,0,0,1-14.74,18.34l-1.08-.92q5.4-7.49,10.77-15c.16-.23.06-.64.08-1.06-3-1.41-4.84,1.25-7.16,2-9.92,3.37-19.76,7-29.66,10.42-2.61.9-4.56,1.73-3.26,5.13.5,1.32.23,3,.18,4.46a5.32,5.32,0,0,1-7.11,5.13c-5-1.5-10-3-15-4.73a12.2,12.2,0,0,1-5-3.12c-1.77-2-2.42-3.91-.26-6.91,4.08-5.69,9.65-7.17,15.89-9,14.13-4,27.94-9.18,42.13-13.08,3.37-.92,6.85-1.55,10.1-2.78,5-1.88,5.86-4.37,2.52-8.35-4.93-5.88-4.83-11.55-1.24-18,4.47-8.06,10.45-14.72,19.09-17.52,16.73-5.4,31.09-15.14,46.07-23.74,7-4,13.51-4.26,21-2.13,7.12,2,7.49,8.46,9.37,13.42,1.47,3.88-1.2,8.09-4.82,10.65-7,5-12.42,11.54-18.57,17.38a3.94,3.94,0,0,0-1.42,3.49c38.39-4.1,76.32-8.83,113.43-18.77l1,1.3-9.26,4.07c6.28-.54,11.08-2,15.18-5.12,2.1-1.58,3.36-1.37,5,.48,5.33,6.09,5.22,22.23-.23,28.29-1.66,1.85-3.34,2.25-5,.3-3.05-3.49-6.32-6.85-8.82-10.71-1.59-2.44-3-3-5.66-2.42q-34.25,6.84-68.54,13.48c-16.34,3.19-32.63,6.69-49.05,9.43-9.36,1.56-16.88,5.84-23.45,12.28-10,9.83-17.83,21.34-25.47,33.05-8,12.32-14.47,25.47-21.24,38.47-8.21,15.76-16.57,31.45-24.74,47.23a119.36,119.36,0,0,0-4.65,11.05c-.45,1.15-1.52,2.51-.31,3.68s2.56.12,3.76-.23c10.5-3.05,19.84-8.53,29.13-14.11l12.43-7.43.83.94-15.81,10.91.55.83L395,236c-2.55-2-3.54,0-4.88.18Zm-61-111.13c-13.53,4.77-21.15,15.13-18.1,25.52A42.5,42.5,0,0,1,329.25,125.15Zm-68.71,58.67,11.8-4.67C268.21,180.08,263.7,179.81,260.54,183.82Zm-9.58.73c-5.29,1.55-7.24,4.22-8.4,9.15C246.32,191.09,248.37,188.51,251,184.55Z" style="fill: #dbdbda"/>
        <path d="M249.23,322.08c-4.12-1.19-4.23-5.07-5-8.14a27.54,27.54,0,0,1,.1-14.36c6.69-23.19,13.54-46.34,24.72-67.9a123.16,123.16,0,0,1,15.45-23.23l1,1c-6.33,9.39-12.63,18.78-17.62,29-9,18.48-14.95,38.08-21.4,57.51-3.07,9.26-2.95,17.95,2.66,26.2Z" style="fill: #dbdbda"/>
        <path d="M353.68,258.6l7.88-5.07.68.77a24.42,24.42,0,0,1-7.91,5.1Z" style="fill: #dbdbda"/>
        <path d="M284.49,208.45a21.1,21.1,0,0,1,4.53-5.39l1,.73-4.47,5.69Z" style="fill: #dbdbda"/>
        <path d="M332.63,272.48l5.93-4,.71.8a16.72,16.72,0,0,1-6.06,3.94Z" style="fill: #dbdbda"/>
        <path d="M493.6,121.51c2-.79,3.76-2.67,6.74-2.12-1.36,2.64-3.72,2.74-5.73,3.42Z" style="fill: #dbdbda"/>
        <path d="M367.68,249.62l4.91-3c.2.22.4.43.62.64a12.35,12.35,0,0,1-4.79,3.24Z" style="fill: #dbdbda"/>
        <path d="M290,202a9.06,9.06,0,0,1,3.08-3.9l.92.75-3.2,4Z" style="fill: #dbdbda"/>
        <path d="M293.93,197l2.46-3.4,1.08.92-2.71,3.38Z" style="fill: #dbdbda"/>
        <path d="M350.11,261.13a8.22,8.22,0,0,1,3.58-2.53l.64.8c-.84,1.34-2.23,1.85-3.58,2.44C350.53,261.61,350.32,261.37,350.11,261.13Z" style="fill: #dbdbda"/>
        <path d="M324.09,278.11a7.07,7.07,0,0,1,3.54-2.49l.79.87a6.44,6.44,0,0,1-3.61,2.41Z" style="fill: #dbdbda"/>
        <path d="M375.18,245.2c1.06-1.22,2.1-2.5,4-2l-.09-.09c-1.07,1.23-2,2.68-4,2Z" style="fill: #dbdbda"/>
        <path d="M381.18,241.2c1.07-1.2,2.2-2.28,4-2l-.09-.09c-1,1.35-2,2.61-4,2Z" style="fill: #dbdbda"/>
        <path d="M344,265a5,5,0,0,1,3.05-1.95l.7.75-3,2Z" style="fill: #dbdbda"/>
        <path d="M341,267a4.7,4.7,0,0,1,3-2l.79.83-3,2Z" style="fill: #dbdbda"/>
        <path d="M313.63,284.6l3.06-1.94.77.89a4.55,4.55,0,0,1-3,2Z" style="fill: #dbdbda"/>
        <path d="M316.69,282.66l3.11-1.84.72.74a4.3,4.3,0,0,1-3.06,2Z" style="fill: #dbdbda"/>
        <path d="M327.63,275.62l3.09-2,.7.83a4.39,4.39,0,0,1-3,2Z" style="fill: #dbdbda"/>
        <path d="M347.05,263.07a4.12,4.12,0,0,1,3.06-1.94c.21.24.42.48.64.71l-3,2Z" style="fill: #dbdbda"/>
        <path d="M321.11,280.13a3.68,3.68,0,0,1,3-2l.72.79a5,5,0,0,1-3.08,2Z" style="fill: #dbdbda"/>
        <path d="M361.56,253.53l3-1.94.76.85a5,5,0,0,1-3.12,1.86Z" style="fill: #dbdbda"/>
        <path d="M364.6,251.59l3.08-2,.74.88-3.06,1.94Z" style="fill: #dbdbda"/>
        <path d="M385.2,239.23c.25-1.76,1.48-2.07,3-2l-.07-.09a3,3,0,0,1-3,2Z" style="fill: #dbdbda"/>
        <path d="M372.59,246.62a3.88,3.88,0,0,1,2.59-1.42l-.09-.08c.51,1.72-.92,1.73-1.88,2.14C373,247.05,372.79,246.84,372.59,246.62Z" style="fill: #dbdbda"/>
        <path d="M338.56,268.52,341,267l.78.82-2.51,1.48C339,269.05,338.8,268.78,338.56,268.52Z" style="fill: #dbdbda"/>
        <path d="M379.21,243.24c-.27-1.58,1-1.72,2-2l-.09-.07c.33,1.63-.94,1.71-2,2Z" style="fill: #dbdbda"/>
        <path d="M330.72,273.66l1.91-1.18.58.78-1.79,1.23Z" style="fill: #dbdbda"/>
        <path d="M388.17,237.22c.29-1.16,1-1.32,2.05-.94l-.11-.13a1.83,1.83,0,0,1-2,1Z" style="fill: #dbdbda"/>
        <path d="M289,203.06,290,202l.8.87-.78.95Z" style="fill: #dbdbda"/>
        <path d="M293,198.07l.9-1.12.83.9-.81,1Z" style="fill: #dbdbda"/>
        <path d="M319.8,280.82l1.31-.69.62.74-1.21.69Z" style="fill: #dbdbda"/>
        <path d="M652.05,671.3c0-2.66-.12-5.33,0-8,.19-3.2-.09-5.66-4.36-5.24-2.18.22-2.69-1.47-2.67-3.35s.18-3.8,2.4-3.59c5,.47,4.83-2.66,4.61-6-.06-1,.1-2,0-3-.51-4,1.62-4.75,5.05-4.7,3.24.05,5.18.86,4.71,4.55-.15,1.15.11,2.35-.07,3.49-.58,3.81.21,6.21,4.84,5.56,2.22-.3,3.32.91,3.35,3.25s-.68,4.11-3.32,3.82c-4.26-.47-5.06,1.69-4.88,5.33.22,4.31.11,8.65,0,13-.09,3.45.76,6,4.83,6,3.08,0,3.41,1.89,3.38,4.31,0,2.6-1.5,3.35-3.8,3.6-9.72,1.05-13.78-2.55-13.94-12.5,0-2.16,0-4.33,0-6.49Z" style="fill: #dbdbda"/>
        <path d="M552.19,241.16c-2.19-.77-3.39.92-4.73,2-16.47,13.72-33.72,26.41-51.41,38.51-1.26.87-2.33,2.43-5.11,1.65,51.47-38.09,95.75-82.42,130.84-135.69-.57,5.44-1.56,10.29-4.77,14.59-7.76,10.39-14.72,21.35-22.83,31.51-5.34,6.7-8.68,14.87-15.27,20.75-8.07,7.18-15.93,14.61-23.79,22-1.33,1.26-3.59,2.13-3,4.7Z" style="fill: #593f61"/>
        <path d="M488.2,286.21c.08-.67.39-1.14,1.12-1.17.08,0,.26.24.24.32-.22.74-.85.73-1.46.75Z" style="fill: #593f61"/>
        <polygon points="488.1 286.11 487.88 286.39 488.2 286.21 488.1 286.11" style="fill: #593f61"/>
        <path d="M294,198.82l.81-1,2.71-3.38a123.23,123.23,0,0,0,14.74-18.34,29.74,29.74,0,0,1-6.68,12.12,323.27,323.27,0,0,0-24.25,31c-11,16.12-17.53,34.27-23.76,52.53-2.47,7.24-4.6,14.59-6.78,21.92-4.51,15.2-4.38,16.55,2.42,30.68-2.09.37-2.66-1.72-4-2.22-5.61-8.25-5.73-16.94-2.66-26.2,6.45-19.43,12.38-39,21.4-57.51,5-10.22,11.29-19.61,17.62-29l4.47-5.69.78-.95Z" style="fill: #593f61"/>
        <path d="M320.52,281.56l1.21-.69a5,5,0,0,0,3.08-2,6.44,6.44,0,0,0,3.61-2.41,4.39,4.39,0,0,0,3-2l1.79-1.23a16.72,16.72,0,0,0,6.06-3.94l2.51-1.48,3-2,3-2,3-2c1.35-.59,2.74-1.1,3.58-2.44a24.42,24.42,0,0,0,7.91-5.1,5,5,0,0,0,3.12-1.86l3.06-1.94a12.35,12.35,0,0,0,4.79-3.24c1-.41,2.39-.42,1.88-2.14,2,.71,3-.74,4-2,1-.31,2.3-.39,2-2,2,.62,3-.64,4-2a3,3,0,0,0,3-2,1.83,1.83,0,0,0,2-1c1.34-.19,2.33-2.15,4.88-.18L299.2,297.28l-.55-.83,15.81-10.91a4.55,4.55,0,0,0,3-2A4.3,4.3,0,0,0,320.52,281.56Z" style="fill: #593f61"/>
        <path d="M329.25,125.15a42.5,42.5,0,0,0-18.1,25.52C308.1,140.28,315.72,129.92,329.25,125.15Z" style="fill: #593f61"/>
        <path d="M260.54,183.82c3.16-4,7.67-3.74,11.8-4.67Z" style="fill: #593f61"/>
        <path d="M251,184.55c-2.59,4-4.64,6.54-8.4,9.15C243.72,188.77,245.67,186.1,251,184.55Z" style="fill: #593f61"/>
      </g>
    </g>
  </g>
</svg>
