<svg xmlns="http://www.w3.org/2000/svg" viewBox="0 0 594.84 862.61">
  <g id="Camada_2" data-name="Camada 2">
    <g id="Camada_1-2" data-name="Camada 1">
      <g>
        <path d="M146,736.94v-8.31q-.09-83.55-.17-167.09c0-39.68,22.67-62.38,62.48-62.39H321.28v-9c0-31.46-.1-62.92.06-94.38.1-19.11,13.57-32.73,31.78-32.64,17.16.08,31,13.41,31.06,30.66.13,94.89.36,189.78-.11,284.67-.12,25.25-13.34,43.41-36.57,53.23a67.31,67.31,0,0,1-25,5.47c-57.51.46-115,.23-172.52.2C149,737.39,148,737.17,146,736.94Zm175.5-175H209.18v112H321.53Z" style="fill: #95067c"/>
        <path d="M414.6,499.19H538.91c26.47,0,39.86,9.23,48.37,34.42,2.92,8.65,4.36,17.81,6.8,28.06H476.43V674.28H592.37v62.77c-2.72.13-5.21.36-7.71.36-36.33,0-72.67.35-109-.2a140.6,140.6,0,0,1-31.47-4.58c-14.51-3.61-29.41-22.39-29.47-37.17C414.45,630.42,414.6,565.38,414.6,499.19Z" style="fill: #95067c"/>
        <path d="M306.53,4.72c7.68-1.18,15.34-2.84,23.07-3.44C340.38.45,351.24-.29,362,.12,448.57,3.41,523.28,34.8,585.7,95.07c6.74,6.52,10.65,14,8.59,23.48-4,18.37-25.41,24.85-39.2,11.62-18.67-17.92-38.69-34-61.33-46.61C438,52.5,378.46,40.88,315,49.17c-33.34,4.36-64.57,14.68-94.5,29.71-25.3,12.7-47.15,30-67.37,49.48-6.09,5.88-12.73,9.71-21.33,8.61-9.52-1.21-16.37-6.41-19.28-15.61-3.07-9.68-.52-18.26,6.81-25.39a340.19,340.19,0,0,1,76.82-56.73A328.16,328.16,0,0,1,297.28,4.74c3-.51,6.09-.67,9.13-1Z" style="fill: #95067c"/>
        <path d="M.77,499.34c27.17,0,54.2-.84,81.14.32,15.29.65,27.59,9.2,33.5,23.81,4.85,12,7.89,24.65,12.17,38.45H63.47V736.75H.77Z" style="fill: #95067c"/>
        <path d="M353.63,93.32c60.57.91,113.62,21.88,158.33,63.87,8.26,7.76,12.24,16.54,8.52,27.65-5.26,15.72-25.29,20.44-38,8.55-14.94-14-31-26.31-49.54-35.19-69-33.1-151-20.9-207,32.73a34.17,34.17,0,0,1-15,8.48,22,22,0,0,1-24.58-11.95c-4.59-9.19-2.46-20.42,5.69-28.28C237,115.9,290.64,94.06,353.63,93.32Z" style="fill: #95067c"/>
        <path d="M255.31,238.18c3.38-5.45,5.83-11.86,10.29-16.22,48-47,126.26-47.13,174.7-.55,11,10.58,11.74,24.06,1.91,34.93-8.39,9.27-22.65,8.37-34-.74-9.34-7.51-19-16.86-30-19.61-19-4.79-39.45-5.77-57.92,4.2-8.5,4.59-16.34,10.57-24,16.56-8.05,6.31-16.54,8.44-25.88,4.23-9.09-4.1-13.48-11.58-13.32-21.61Z" style="fill: #95067c"/>
        <path d="M348.86,274.81c19.22.29,32.52,4.65,42.35,16.75,8.12,10,7.66,23.11-.88,31.63-5.57,5.56-12.25,6.76-19,3.35-12.65-6.35-24.54-5.75-37.45.06-4.54,2-12.23.28-17.11-2.32-7.12-3.79-8.88-11.64-7.91-19.51,1.08-8.74,6.3-15.1,13.16-20.06C331.18,278.05,341.55,274.62,348.86,274.81Z" style="fill: #95067c"/>
        <path d="M86.66,838.39c6.13-15,11.53-28.29,17-41.55,4.42-10.74,7.86-13,18.56-11.7,1.79.22,3.42,1.84,5.49,3-8.79,21.91-17.48,43.56-26.16,65.22a7.66,7.66,0,0,1-.27.72c-2.32,4.12-27.08,4.65-28.86.31-9.25-22.54-18.18-45.22-27.23-67.89C59.77,782,65,784.44,70.33,797.75,75.51,810.62,80.68,823.5,86.66,838.39Z" style="fill: #95067c"/>
        <path d="M24.21,785c13.55,1.32,17.5,5.67,18.42,19.38H24.42v52.38H5.2c0-14.84.09-29.42-.08-44,0-3.18,1.59-6.75-3.47-8.93-3.34-1.43-1.09-15.52,2.14-18.55a6.64,6.64,0,0,0,1.61-3.86,64,64,0,0,0,.07-6.93c0-14.79,3-18.33,18.74-20.9Z" style="fill: #95067c"/>
        <path d="M317.76,847.35V827l2.5,0v30.27c-9.1-3.9-12.36-13.86-21.89-20.31-.34,7.3-.63,13.48-.94,20-4.39-2.58-5.22-11.37-3.08-32.28l21.28,22.79Z" style="fill: #181818"/>
        <path d="M530.09,857.62l10.18,2c-3.57,1.52-5.94,3.46-7.17,2.89-7.35-3.36-15.32-6.26-21.37-11.34-6.32-5.3-4.51-15.79,1.95-21.09,6.06-5,17.24-4.37,22.63,1.23,5.58,5.8,5.43,15.82-.41,21.58C534.52,854.25,532.89,855.35,530.09,857.62Zm-5.82-4.77c6.48,0,11.41-4.67,11.43-10.88a11.33,11.33,0,0,0-22.65-.08C513,848.23,517.71,852.83,524.27,852.85Z" style="fill: #181818"/>
        <path d="M282.59,800.66c-.1,8.88-6.63,14.9-16.11,14.86s-15.69-6.09-15.66-15.18c0-9.39,6.63-15.53,16.4-15.28C276.56,785.3,282.7,791.53,282.59,800.66Zm-4.64-.6a11.29,11.29,0,0,0-22.56.61,11.28,11.28,0,0,0,22.56-.61Z" style="fill: #181818"/>
        <path d="M172.57,800.29c0,9.06-6.23,15.1-15.71,15.23s-16-5.85-16.12-14.83c-.15-9.35,6.45-15.78,16.1-15.68C166.16,785.1,172.56,791.32,172.57,800.29Zm-15.86-11c-6.42,0-11.47,4.89-11.48,11a11.6,11.6,0,0,0,11.4,11.23,11.08,11.08,0,0,0,11.26-11.14A10.85,10.85,0,0,0,156.71,789.33Z" style="fill: #181818"/>
        <path d="M265.73,857.25c-9-.07-15.83-6.79-15.68-15.52.15-8.9,6.69-14.89,16.17-14.8s16,6,16.08,14.85C282.38,850.8,275.38,857.34,265.73,857.25Zm11.85-14.93a11.45,11.45,0,0,0-11-11.57c-5.89-.23-11.58,5-11.81,10.79-.25,6.22,4.57,11.15,11,11.3S277.41,848.48,277.58,842.32Z" style="fill: #181818"/>
        <path d="M443.77,816.69,423,793.07v22.38c-4.88-2.13-5.89-11.86-3.74-30.75,9.64,5,13.66,15.1,22,21.6,2.42-6.91-1.11-14.84,2.14-21.15l2.55.51v28.92Z" style="fill: #181818"/>
        <path d="M328.17,801.21l10-1v12.72c-12,5.1-21.74,2.64-25.74-6.48a15.32,15.32,0,0,1,7.77-20c6.74-3.07,14.88-1.21,17.91,4.73-3.75-.74-7-1.77-10.34-2a10.9,10.9,0,0,0-11.74,10.59c-.28,6.06,3.8,11.3,9.87,11.55,2.64.11,5.36-1.7,8-2.64Z" style="fill: #181818"/>
        <path d="M553.63,826.67c.61,1.42,1.67,2.83,1.75,4.28.27,4.87,0,9.76.26,14.63.24,5.44,3.78,7.87,8.7,7.61,4.51-.23,7.74-2.7,7.79-7.82,0-4.88-.15-9.77.17-14.63.08-1.27,1.66-2.44,2.55-3.66.65,1.18,1.82,2.33,1.87,3.53.2,4.87.23,9.77,0,14.63-.41,8.22-5.18,12.29-13.65,12-7.9-.28-11.77-4.4-11.88-12.79-.08-5.62,0-11.25,0-16.87Z" style="fill: #181818"/>
        <path d="M380.49,813.92c3.52-8.25,7-16.53,10.62-24.73.63-1.43,2-2.53,3-3.78,1.19,1.13,2.84,2.05,3.48,3.44a161.48,161.48,0,0,1,10.14,26.7c-1.52-1.13-3.89-2-4.39-3.44-1.57-4.65-4.28-6-9.14-6s-6.92,1.76-8.36,6c-.51,1.5-2.64,2.45-4,3.65Z" style="fill: #181818"/>
        <path d="M502.19,856.9c-8.1.35-6.19-10.17-15-9.59-7.85.51-6.84,8.91-14.77,10.5,4.63-10.89,8.53-20.14,12.7-29.26.1-.21,4.43.52,5,1.68C494.26,838.7,498,847.4,502.19,856.9Z" style="fill: #181818"/>
        <path d="M216.65,801.73,225.4,815c-10.16,1.44-8.52-13.08-18.23-12.08q-.27,5.91-.53,11.86l-1.57.84c-.89-1.34-2.53-2.65-2.57-4-.24-8.43-.12-16.87-.12-27.78,6,2,11.9,2.81,16,5.9,1.78,1.34,0,7.45-.21,11.39Zm-7.48-13.4-1.73,1.8v10.32l7.71-6.3Z" style="fill: #181818"/>
        <path d="M423.16,857.69c5-11.62,9.21-21.43,13.42-31.24l2.69,0,13.47,29.89c-8,2-5.67-9.16-14-9.08C430.23,847.33,431.23,856.14,423.16,857.69Z" style="fill: #181818"/>
        <path d="M459,815.12v-29.7c8.72.6,18.26-2.65,24.65,6.51a13.8,13.8,0,0,1,.5,16C478.23,817.5,468.63,815,459,815.12Zm4.6-25.35v21.49c6.45.53,12.83.78,16-5.25,1.6-3,1.66-8.33.05-11.34C476.45,788.72,470.14,788.74,463.59,789.77Z" style="fill: #181818"/>
        <path d="M355.82,800.23c-.37,6.73-.6,10.68-.83,14.77-4.72-1.79-4.72-1.8-3.7-30.79,5.49,1.59,11.44,1.93,15.2,5,2.05,1.65.37,7.91.37,12.08l-2.13.07,8.79,13.16-1.88,1.87Zm-.2-2.85,1.95,1.82,5.85-5.71-7.8-6Z" style="fill: #181818"/>
        <path d="M387,833c-7.69-2-16-4.94-20.28,4.2-1.48,3.18-.75,9.19,1.45,11.9,5,6.18,12.06,3.81,18.5,1.37.16,5.06-.62,5.78-7,6.53-9.86,1.17-17.39-3.52-18.86-11.73-1.42-8,2.88-15.62,10-17.83S384.88,827.35,387,833Z" style="fill: #181818"/>
        <path d="M334,856.27V827.92h16.59c.06.76.11,1.52.17,2.28l-12.19,1.28v7.95l11.36.7c.23.86.46,1.71.68,2.56L338.51,845c-.1,2-.23,4.36-.35,6.67l13,2.15-.42,2.49Z" style="fill: #181818"/>
        <path d="M240.27,833.6c-7.88-2.81-15.24-5.13-19.82,2.15-1.89,3-2.18,8.93-.44,11.92,4.75,8.18,12.66,5.21,20,2.75-1.35,5.83-4.34,7.33-12.21,6.76s-13.61-5.92-14.31-13.5c-.71-7.77,3.94-14.66,11.06-16.37C232.08,825.51,237.74,827.38,240.27,833.6Z" style="fill: #181818"/>
        <path d="M185.16,842.74,172.77,845v6.82l13.17,1.65-.25,2.54H168.4V827.77h16.5c.09.77.17,1.53.25,2.3l-12.24,1.51c-.15,2.31-.3,4.79-.49,7.84l12.21.72C184.81,841,185,841.88,185.16,842.74Z" style="fill: #181818"/>
        <path d="M502.3,803v8.23l13,.75-.12,2.32H498.06V786.07h16.43c.08.78.17,1.56.26,2.33l-12.55,1.46v8.33h13C511.73,804.93,506.24,800.68,502.3,803Z" style="fill: #181818"/>
        <path d="M155.22,832.71c-1.64-.65-3.33-1.91-4.91-1.8a7.75,7.75,0,0,0-4.91,2.52c-.45.53.83,3.26,2,4.26,2.28,2,6.08,3,7.28,5.38,1.51,3,2.53,8,1,10.29s-6.41,3.19-9.86,3.3c-1.94.06-4-2.7-6-4.19l1.57-2.21c.91.54,1.82,1.55,2.72,1.55,2.77,0,5.54-.41,8.31-.66-1.32-2.37-2.32-5-4.05-7s-5.21-3.1-6.28-5.36-1.52-7.15-.13-8.27c2.6-2.12,6.69-2.85,10.24-3.15,1.43-.11,3.08,2.44,4.63,3.77Z" style="fill: #181818"/>
        <path d="M410.87,831.65v24.83c-4.6-1.12-4.59-1.12-4.59-11.1V831.63l-10.19-1.52.3-2.15h24.87l.3,2.13Z" style="fill: #181818"/>
        <path d="M237.08,815.73c-.83-1.61-2.29-3.17-2.4-4.83-1.23-18.12-.36-23.7,4.11-25.46v29.43Z" style="fill: #181818"/>
        <path d="M588.46,841.3a106.59,106.59,0,0,1,.12-10.73c.12-1.22,1.65-2.31,2.54-3.46.74,1.06,2.1,2.09,2.12,3.16.19,7.67.22,15.35,0,23,0,1.2-1.66,2.35-2.55,3.52-.74-1.33-2-2.63-2.11-4C588.27,849,588.46,845.14,588.46,841.3Z" style="fill: #181818"/>
      </g>
    </g>
  </g>
</svg>
