<svg xmlns="http://www.w3.org/2000/svg" viewBox="0 0 965.09 880.59">
  <g id="Camada_2" data-name="Camada 2">
    <g id="Camada_1-2" data-name="Camada 1">
      <g>
        <path d="M477.82,0c.07,1.38.19,2.76.18,4.14q-.12,159.39-.19,318.77c0,3.36-.66,5.3-4.16,6.49-2.8,1-5.18,3.18-8.14,5.09L189.45,173.79l.41-.93L435.42,273.71Q456.54,136.55,477.55,0Z" style="fill: #fbc802"/>
        <path d="M459.61,345c-2.1,5.78-3.75,10.83-5.81,15.7-.58,1.35-2.2,2.44-3.58,3.24-12,6.87-24,13.58-35.94,20.47-10.45,6-20.76,12.26-31.2,18.27q-30.74,17.67-61.55,35.17Q254.29,476.21,187,514.55a7.55,7.55,0,0,1-4.5,1.15L392.42,356.13,184.1,187l.25-.67a25.93,25.93,0,0,1,3.75,1.43q54.15,31.13,108.27,62.31,63.38,36.51,126.74,73.06c11.19,6.46,22.32,13,33.46,19.59A26.42,26.42,0,0,1,459.61,345Z" style="fill: #fbc802"/>
        <path d="M486.7,325.4V3.32l.38-.07,41.65,270.88L773,173.78l.52,1c-1,.61-2,1.24-3,1.82Q659.13,241.5,547.67,306.39c-11.58,6.74-23.2,13.4-34.93,19.86-1.61.89-4,.61-6,.49-5.29-.34-10.56-.9-15.84-1.32C489.66,325.32,488.4,325.4,486.7,325.4Z" style="fill: #fbc802"/>
        <path d="M436,431.09,190,528.41l-.48-1.12L444.44,379.06c.58,1.72,1,2.84,1.33,4,4.13,15.26,13.13,26.54,27.52,33.22,2.55,1.19,3.27,2.53,3.27,5.15,0,32.29.15,64.58.12,96.86q-.07,88-.31,176a16,16,0,0,1-.56,5.08C462.58,610.11,449.35,520.88,436,431.09Z" style="fill: #fbc802"/>
        <path d="M779.18,188.12,571.67,356.54l209.49,159.2-.78,1.13L537.74,378.27c2.43-17.29-3.9-31-17.11-42.94L778.38,186.75Z" style="fill: #fbc802"/>
        <path d="M528.1,431.49q-19.86,134.09-39.58,267.35l-.69,0v-286c7.47,1.66,14.53.23,21.47-2.14,9.28-3.17,16.08-9.46,21.31-17.48,3.27-5,3.09-5.24,8.5-2.12q43.51,25.06,87,50.21,54.43,31.56,108.77,63.27,19,11,38,22.12a3.24,3.24,0,0,1,1.74,2.28Z" style="fill: #fbc802"/>
        <path d="M694.34,874.42c-.36-11.78-1-22.87-1-34-.07-25.22.14-50.43.23-75.65,0-1.38,0-2.77,0-4.37,1.09-.1,1.83-.22,2.56-.22,23.81,0,47.61-.22,71.41.09,15.23.19,28.76,5.21,39.48,16.48,7.7,8.09,11.64,17.92,13.54,28.86,2.08,12,3,23.89-2.12,35.2-4.18,9.25-7.9,18.94-15.6,26.13A28.32,28.32,0,0,1,797,871.2c-8.09,4.31-16.65,7-25.91,7-20.2,0-40.41.08-60.61-.09-1.9,0-3.81-1.44-5.7-2.24-1.1-.46-2.14-1.29-3.27-1.43A65.16,65.16,0,0,0,694.34,874.42Zm32.51-38.31a11.4,11.4,0,0,0,1.61.25c14.4.37,28.8.76,43.2,1a20.49,20.49,0,0,0,6.05-1c13.18-3.94,18.67-22.42,11.22-31-4.44-5.15-9.94-8.14-16.75-8.2-13.89-.12-27.78,0-41.67,0-1.12,0-2.24.19-3.66.31Z" style="fill: #2370ae"/>
        <path d="M.27,760.19h11c25.85,0,51.71-.06,77.56,0,11.19,0,21.35,3.24,29.41,11.37,5.22,5.25,8.4,11.54,8.62,19.18.07,2.25,1.11,4.46,1.35,6.72,1.79,16.67-8.19,28.19-22.5,33.73-1.54.59-3.1,1.12-5,1.81,9.18,11,18.13,21.63,27.44,32.73l-5.46.44,6.45,7.84-7.37.49c-1.48,4.86-5.83,7-12,5.69-6.44-1.31-11.84-4.18-15.94-9.72-6.79-9.18-14.09-18-21.11-27a7,7,0,0,0-6.22-3c-12.08.14-24.16.06-36.73.06-.3,4.54-.72,8.84-.85,13.14-.14,5.14,0,10.29,0,15.43,0,8-6.58,12.23-13.82,8.75-2-1-3.72-2.78-5.81-3.35s-4.55-.13-7.25-.13C1.26,867.57.05,861.15,0,854.71c-.1-30,.13-59.93.24-89.89C.27,763.42.27,762,.27,760.19ZM28.8,791c0,4.76.1,8.85,0,12.94-.08,2.42.95,3.07,3.21,3.07,18.89,0,37.79.11,56.69,0a12.36,12.36,0,0,0,11.23-6.31c2-3.49,1.69-5.81-1.91-7.67a18.48,18.48,0,0,0-8-2.06c-18.89-.14-37.79,0-56.69,0Z" style="fill: #2370ae"/>
        <path d="M964.15,865.72l-3.51.59c1.49,2.6,2.86,5,4.45,7.8-3.26.07-6,.19-7.31,3.72-.43,1.17-2.7,2.19-4.22,2.34-9.07.91-18.09.87-25.14-6.16-1.84-1.83-3-4.46-4.08-6.91-1.78-4.08-4.27-5.8-9.07-5.71-18.13.35-36.27.21-54.41.09-2.73,0-4.59.69-5.18,3.35-2,8.93-7.75,10.81-16.15,10s-16.83-.17-26.29-.17l4.63-8.48-6.11-.31c.77-1.51,1.3-2.73,2-3.85q30.12-49.51,60.21-99a5.13,5.13,0,0,1,5.22-2.87c6,.18,12.09-.09,18.13.16a5.9,5.9,0,0,1,4.24,2.21q27.81,45.78,55.38,91.72C959.17,857.94,961.54,861.57,964.15,865.72Zm-61.1-37L889.29,807l-13.87,21.77Z" style="fill: #2370ae"/>
        <path d="M242.36,874.45c-.48-9.68-1.27-18.67-1.31-27.67-.09-27.4.11-54.81.19-82.21v-4.06c1.11-.12,2-.3,2.8-.3,23.68,0,47.35-.23,71,.09,16.1.22,30.2,5.7,41.1,18.07,8.34,9.46,11.23,21,13,33.11,2.34,16.25-1.64,30.49-10.91,44-3.66,5.34-7.15,10.53-12.44,14a46.51,46.51,0,0,1-26,8q-30.1,0-60.21,0c-2.44,0-4.87.3-6.51-2.28-.39-.62-1.82-.75-2.78-.8C248,874.38,245.68,874.45,242.36,874.45Zm21.22-30.7c.52.25.74.45,1,.45,18.5,0,37,.71,55.49-.17,15.09-.71,27.7-12.68,30.9-27,1.07-4.79,1-9.28-2.17-13.55-6.24-8.5-15-12.11-25-12.3-19-.37-38.05-.09-57.08-.06a28.58,28.58,0,0,0-3.14.36Z" style="fill: #2370ae"/>
        <path d="M155.49,790.86V802.4H216c.72,9.73,1.4,18.91,2.12,28.76H155.6V844.4h72.76c.64,9.08,1.29,17.35,1.79,25.64.21,3.62-3.33,7.48-7,7.49q-36.66.09-73.31,0c-.64,0-1.54.09-1.86-.26-3.44-3.82-8.22-2.63-13.18-3.21-.51-8.83-1.41-17.42-1.44-26-.11-27.78.11-55.56.2-83.33V760.4h95.21c.63,10,1.24,19.88,1.9,30.46Z" style="fill: #2370ae"/>
        <path d="M378.73,874c-.41-10.36-1.11-20.47-1.14-30.59-.09-26.24.12-52.49.21-78.74,0-1.27,0-2.55,0-4.15h95.69c.29,9.07.57,18.21.91,27.34.12,3.16-2.12,2.63-4,2.64q-32.24,0-64.47.09c-2,0-4,.31-6.31.5v11.36H460.4c.66,9.6,1.3,18.82,2,28.73H400.32c-.24,4.55-.44,8.48-.69,13.25h73.69c.54,8.79,1.11,16.77,1.51,24.75.26,5.25-3,8.37-8.42,8.38-21.74,0-43.49.08-65.24-.07-4.11,0-8.36,1.23-12.25-2.53C387.23,873.32,383,874.29,378.73,874Z" style="fill: #2370ae"/>
        <path d="M558.9,825.87c7.93-13.87,15.57-27.22,23.21-40.56,4.34-7.58,8.63-15.19,13.08-22.71.61-1,2-2.28,3-2.3,12.31-.16,24.63-.1,37.34-.1l-4.41,8.28,6,.51c-6.56,10.7-12.92,21.13-19.34,31.53q-22.06,35.75-44.25,71.41a6.42,6.42,0,0,1-4.44,2.63c-5.38.28-10.8-.1-16.19,0-2.92.08-4.65-1-6.2-3.49q-23.65-38.18-47.53-76.23c-5.27-8.43-10.62-16.82-16.1-25.49l3-1.26-4.47-7.74c1.5-.08,2.58-.19,3.66-.19,10.42,0,20.84.08,31.26-.07a5.08,5.08,0,0,1,5.15,2.9c11.55,19.72,23.23,39.37,34.87,59C557.27,823.16,557.94,824.26,558.9,825.87Z" style="fill: #2370ae"/>
        <path d="M646.6,874.44c-4.17-16.23-2.18-32.06-2.4-47.77-.29-20.57-.12-41.15-.14-61.73v-4.47h32.18c.57,5.7,1.63,11.56,1.67,17.43.2,30.88.14,61.76.16,92.64a7.36,7.36,0,0,1-6.9,7c-3.73.06-7.46,0-11.19,0a5.49,5.49,0,0,1-2.27-.27c-1.74-.85-3.29-2.28-5.1-2.73S648.53,874.44,646.6,874.44Z" style="fill: #2370ae"/>
        <path d="M453,374.49c1.72,5.07,3,10,5,14.63,2.92,6.74,7.88,11.89,14,15.91,4.86,3.19,5,3.48,3.72,10.85-3.63-2.1-7.13-3.75-10.21-6a46.2,46.2,0,0,1-17.05-24C446.13,378.54,446.08,378.56,453,374.49Z" style="fill: #fbc802"/>
      </g>
    </g>
  </g>
</svg>
