<svg xmlns="http://www.w3.org/2000/svg" viewBox="0 0 558.88 345.98">
  <g id="Camada_2" data-name="Camada 2">
    <g id="Camada_1-2" data-name="Camada 1">
      <g>
        <path d="M173.68,123.07c-.7-41,32.69-77.64,75-79.1,23.22-.8,43.67,6.67,60.43,23.27,15.65,15.51,23.72,34.43,23.62,56.23-.21,44.94-35.79,79-79.06,79.3C206.6,203.13,172.66,164.05,173.68,123.07ZM279.54,81c-.7,4.52,1.89,6.89,5.15,8.26,3.42,1.43,7.29,1.79,10.74,3.17,4.46,1.8,7.71-1.53,9.38-3.67,2-2.63,3-7.66,2-10.81-2.65-7.87-7.84-13.58-16.91-15.29-7.21-1.35-10.74.7-10.84,8.3C279,74.41,279.37,77.86,279.54,81Zm-23.87-3.89c4.82-.06,9.33-4.14,9.3-8.42,0-3.32-5.54-7.69-9.57-7.59-4.78.12-9.28,4.19-9.28,8.41C246.12,74.05,250.05,77.19,255.67,77.12Z" style="fill: #094a7c"/>
        <path d="M254.15,25.59V0L464.78,123.78,253.56,245V219.2c32.09-3.72,60.83-14.46,79.59-42.73,12.75-19.2,17.44-40.86,15.64-63.73C345.14,66.36,312.21,33.31,254.15,25.59Z" style="fill: #fbe553"/>
        <path d="M297.41,289.18c6.37,3.52,8.17,7.55,6.81,15-1.14,6.21-4.13,9.53-11.22,9.78-13.74.48-27.5.14-41.6.14V262c13.42,0,26.82-.36,40.19.15,6.55.26,10.85,4.56,12.37,11.12C305.65,280.61,304,284.71,297.41,289.18Zm-32.15,4.61c0,3-.36,5.55.14,7.9.28,1.33,1.88,3.27,3,3.37,4.61.39,9.37.72,13.89,0,3.38-.55,8.22-1.23,7.95-6.26-.25-4.52-4.4-4.85-7.92-5C276.88,293.67,271.42,293.79,265.26,293.79Zm.26-9.57c6.5,0,12.61.13,18.7-.06,3.16-.1,6.59-1.45,5.92-5.05-.36-2-3.52-4.64-5.65-4.86-6.17-.66-12.46-.23-19-.23Z" style="fill: #094a7c"/>
        <path d="M230.87,261.91v11.9c-10.1,0-20-.07-29.94,0-6.31.06-8.33,1.93-8.68,8h38.51v11.9H192.45c-.33,6.1,1.76,8.55,7.62,8.67,8.15.16,16.29,0,24.44,0,6.51,0,6.5,0,6.49,6.61v4.75c-14.34,0-28.25.35-42.13-.15-6.88-.25-10.52-4.54-10.75-11.42-.3-9.29-.28-18.61,0-27.9.21-7,3.53-11.09,10.55-11.61,10.57-.78,21.23-.59,31.85-.77C223.8,261.86,227.1,261.91,230.87,261.91Z" style="fill: #094a7c"/>
        <path d="M72.39,293.66c.4,6.76,2.45,8.7,8.9,8.75,9.8.08,19.59,0,29.69,0v11.29c-14.2,0-28.29.34-42.36-.16-6.38-.22-10-4.7-10.27-11.42-.34-9.3-.36-18.63,0-27.93.26-7.18,3.79-11.29,11.17-11.59,13.73-.56,27.51-.16,41.52-.16v11.35c-9.34,0-18.76-.05-28.17,0-2.13,0-4.64-.12-6.29.92-2.07,1.3-3.44,3.73-5.11,5.67l1,1.28h38.51v12Z" style="fill: #094a7c"/>
        <path d="M38,296.14,51.26,311.7c-3.28,3.19-12.89,3.11-15.66,0-3.2-3.6-6.65-7-9.36-11-3.12-4.52-6.95-5.66-12.54-4v17.08H0V262c13.42,0,26.68-.42,39.91.14,8.82.38,12.22,4.76,12.44,13.54,0,2.16.07,4.32,0,6.48C52.11,291.48,48.51,295.24,38,296.14ZM14,286.06l19.49-2.17c3-.33,5.58-1.69,4.78-4.9-.47-1.9-2.82-4.57-4.51-4.71-6.63-.55-13.33-.22-19.76-.22Z" style="fill: #094a7c"/>
        <path d="M364.47,314.13a9.64,9.64,0,0,1-1.28.35c-14.38.4-14.38.4-25.3-12.61-4.9-5.84-4.9-5.84-13-5.15v17.49H310.69v-51.8c14.53,0,28.61-.18,42.68.09,5.75.11,9.24,3.93,9.91,9.44a52.49,52.49,0,0,1,0,14.33c-1.06,6.59-3.61,8.24-13.37,10.74ZM325.09,286c6.85-.67,13-1.19,19.14-1.89,3-.34,6.18-1.67,5.21-5.09a8.17,8.17,0,0,0-5.7-4.77c-6.16-.64-12.43-.23-18.65-.23Z" style="fill: #094a7c"/>
        <path d="M425,314.52V301.59h40.45l.38-1.49A42.71,42.71,0,0,0,462,298c-8.37-3.58-16.7-7.25-25.17-10.6-4.89-1.94-7.53-4.89-7.38-10.4.15-5.89,1.45-11.08,7.45-13.34a31.38,31.38,0,0,1,10.18-1.85c10.63-.23,21.28.17,31.91-.2,5-.17,6.65,1.52,6.07,6.25a62.94,62.94,0,0,0,0,6.93H444.91l-.38,1.19a20.83,20.83,0,0,0,2.87,1.84c8.51,3.67,17,7.28,25.56,10.9,6.53,2.77,8.34,5.78,7.76,13-.52,6.33-4,10.88-10.13,11.88a101.06,101.06,0,0,1-14.88,1C445.61,314.61,435.5,314.52,425,314.52Z" style="fill: #094a7c"/>
        <path d="M423.07,314.35H409V294.09H384.15v20.16H369.78c0-7.49,0-15.06,0-22.63,0-5.32-.11-10.64,0-15.95.26-8.38,3.4-12.71,11.7-13.28a236.62,236.62,0,0,1,31.28.19c6.59.43,9.76,4.71,10.15,11.42.18,3.14.09,6.31.1,9.46C423.08,293.59,423.07,303.72,423.07,314.35Zm-39.21-32.82h24.8c.52-4.58-1.86-7.17-5.74-7.38-10-.55-16.63-1.34-18.36,4.42C384.33,279.35,384.19,280.15,383.86,281.53Z" style="fill: #094a7c"/>
        <path d="M118.29,313.78V261.91c2.48,0,4.91,0,7.34,0,11.63.19,23.28,0,34.88.76,6.84.43,10.36,4.76,10.54,11.67q.36,13.71,0,27.43c-.19,7.13-3.83,11.59-10.9,11.86C146.39,314.14,132.6,313.78,118.29,313.78Zm14-9.89c6.61-.56,12.65-.88,18.64-1.64,3.63-.47,6-2.78,6.14-6.68.12-5,.14-9.95,0-14.91-.12-3.56-2.14-6.28-5.67-6.49-6.35-.39-12.74-.11-19.08-.11Z" style="fill: #094a7c"/>
        <path d="M558.88,302.32v12.2c-5.84,0-11.6.07-17.35,0-8-.12-16,0-23.89-.68-8.21-.75-11.74-4.77-11.91-13.13-.27-12.77-.07-25.56-.07-38.67H520c0,10.14,0,20.23,0,30.31,0,8,2,10,10,10C539.47,302.35,548.92,302.32,558.88,302.32Z" style="fill: #094a7c"/>
        <path d="M501.09,314.32H487.6v-52.5h13.49Z" style="fill: #094a7c"/>
        <path d="M246.71,326.67v16.1l-1.66.21c-.17-3.77-.34-7.53-.56-12.34l-5.86,7.79-5.16-7-1,.24v10.5h-1.22V327l1.48-1.52c.9,1.55,1.74,3.13,2.7,4.64s2,2.93,3.22,4.64l6.78-9.25Z" style="fill: #094a7c"/>
        <path d="M281.37,342.75V326.42l1.19-.83L293.49,339V326.34H295v17.83l-10.59-12.94-1.23.16v11.53Z" style="fill: #094a7c"/>
        <path d="M146.52,326.44h11.26l.09.94-8.94.64v6.43h7.53l.06.94h-7.17c-.9,4.12-.9,4.12,10.13,7.2h-13Z" style="fill: #094a7c"/>
        <path d="M414.54,334.81a8.58,8.58,0,0,1,8.49-9.12,8.89,8.89,0,0,1-.06,17.77A8.47,8.47,0,0,1,414.54,334.81Zm15.09-.3a6.89,6.89,0,0,0-6.6-6.78c-3.59,0-6.34,3.07-6.29,6.94a6.5,6.5,0,0,0,6.47,6.73A6.8,6.8,0,0,0,429.63,334.51Z" style="fill: #094a7c"/>
        <path d="M212.13,343.46a8.52,8.52,0,0,1-8.42-9.15,8.64,8.64,0,0,1,9-8.62,8.89,8.89,0,0,1-.6,17.77Zm6.67-8.82a7,7,0,0,0-6.46-6.93c-3.55-.06-6.35,2.94-6.37,6.83s2.61,6.8,6.3,6.86A6.7,6.7,0,0,0,218.8,334.64Z" style="fill: #094a7c"/>
        <path d="M122.23,326.15c5,.17,10.52-1.36,13.17,3.89a11.55,11.55,0,0,1-.08,9.15c-2.7,5.26-8.17,3.6-13.09,3.77Zm2.13,16.62c3.88-2,7.19-3,9.39-5.2,1.07-1.05.94-5.17-.2-6.22-2.23-2.06-5.55-2.94-9.19-4.67Z" style="fill: #094a7c"/>
        <path d="M353.22,338.7c-4.12,0-9-1.54-11.11,4.86L341,342.48l7.52-16.71,1.5-.23,7.89,16.78-1,.79Zm-7.31-2.38h6.91c-1.22-2.62-2.25-4.85-3.46-7.46C348.16,331.47,347.12,333.69,345.91,336.32Z" style="fill: #094a7c"/>
        <path d="M380.59,329.91c-3.88-2.13-8.16-4-10.76.79a9.56,9.56,0,0,0,.24,8.08c2.68,4.42,6.76,2.64,10.43.43l.67,1L373.35,346c-1.24-1.4-3-2.66-3.75-4.37-1.34-2.95-2.85-6.17-2.87-9.28,0-3.95,3.35-6.19,7-6.4,2.51-.14,5.09,1.22,7.64,1.91C381.13,328.53,380.86,329.22,380.59,329.91Z" style="fill: #094a7c"/>
        <path d="M195.43,339.74c-2.22,3.51-5.35,4.5-9.2,3.09-4.21-1.54-5.7-4.73-5.48-9,.24-4.49,2.81-7,6.95-7.9,3.08-.63,6.07-.19,8.36,4.19-4.85-2-9.4-4.41-11.93.71a9.77,9.77,0,0,0,.5,8.18C187.4,343.34,191.52,341.08,195.43,339.74Z" style="fill: #094a7c"/>
        <path d="M389.23,342.43l7.62-16.76,1.42-.14q3.9,8.43,7.81,16.84l-.91.61c-1.61-1.45-3-3.52-4.88-4.19-2.07-.73-4.6-.17-6.84-.17-1,1.59-1.9,3-2.8,4.5Zm5-6.12h6.85l-3.48-7.53Z" style="fill: #094a7c"/>
        <path d="M332.89,339.79c-2.1,3.26-5,4.3-8.58,3.29a8.08,8.08,0,0,1-6.38-8.38c0-4.18,2-7.23,6.2-8.52,3.6-1.1,6.42-.09,8.71,3.17-4.44-1.78-9-3.38-11.62,1.81a8.92,8.92,0,0,0,.32,7.32C324.39,343.44,328.78,341,332.89,339.79Z" style="fill: #094a7c"/>
        <path d="M259,326.21c0,3,0,6,0,9,0,3.45,1.21,6,4.94,6.11s5.07-2.48,5-6c-.06-3,0-6.06,0-10.42,2.84,4.61,3,13.92.5,15.91-1.85,1.45-4.94,2.6-7.05,2.1a8.16,8.16,0,0,1-5.14-5.08c-.83-3.71-.23-7.73-.23-11.63Z" style="fill: #094a7c"/>
        <path d="M306.45,342.75V326.33h1.08v16.52Z" style="fill: #094a7c"/>
      </g>
    </g>
  </g>
</svg>
