<svg xmlns="http://www.w3.org/2000/svg" viewBox="0 0 942.33 931.96">
  <g id="Camada_2" data-name="Camada 2">
    <g id="Camada_1-2" data-name="Camada 1">
      <g>
        <path d="M0,333.85c1.15-2,3-3.88,3.34-6,3.83-22.26,7-44.63,11.18-66.83,7.11-38.07,19.92-74.45,35.08-109.93C70,103.41,95,58.34,128.09,18.14c16.44-20,16.58-19.91,38.75-7.34,32.41,18.38,66.58,32.57,103.33,38.86a232.83,232.83,0,0,0,98.21-4.26c35.47-9.17,68.25-24.29,99.1-43.91C469.82,0,474.65-.08,477,1.36c36.33,22.32,74.59,40.15,116.75,47.74a230.71,230.71,0,0,0,87.12-1c39.95-8,76.2-24.35,110.14-46.26,6.68-4.31,9.73-.43,13.3,3.53,28.94,32.07,52.15,68,71.8,106.37a641.79,641.79,0,0,1,52.06,139.68c11.89,48.27,15.89,97.32,13.52,147-3,63-17.17,123.32-41.67,181.41-40.7,96.47-100.31,178.58-183.67,242.59-52.66,40.44-109.48,73.75-172.3,96-37.76,13.39-76.4,18.23-115.83,8-35.34-9.15-68.82-23.19-101-40.32-50.74-27-97.64-59.46-139.91-98.57-39.77-36.79-72.46-79.22-101-125A576,576,0,0,1,33.85,555C16.29,506.88,6.68,457.18,2.63,406.27c-.22-2.78-1.72-5.46-2.63-8.19Zm26.5,51.21c1.8,16.57,3.59,47.74,8.93,78.3,5.92,33.83,15.14,67,30.13,98.35,10.62,22.18,18.82,45.64,30.79,67,36.92,66,83.17,124.37,143.67,170.72,55.38,42.42,114.41,78.07,181.23,99.6,31,10,62.17,11.52,93.74,2.54,37.81-10.75,73.27-26.82,107.23-46.42,54.58-31.52,105.2-68.23,147.51-115.3a599.65,599.65,0,0,0,95.92-144.57A526.08,526.08,0,0,0,911.14,447.6c6.72-44.37,8.73-88.81,2.64-133.47A588.23,588.23,0,0,0,868.54,155.5c-18.76-42.56-41.1-83-70.64-119.22-3.9-4.77-6.55-5.15-11.65-2.17-8.37,4.89-17.2,9-26,13.21C725.44,64,688.9,74.69,650.24,76.88c-60.91,3.45-116.34-14.7-168.46-44.51-7-4-11.77-3.8-18.58.16-45.4,26.41-93.87,43.16-146.9,44.59-54.15,1.47-103.86-14.28-151.14-39.26-15.12-8-15-8-25.11,5.35-33.68,44.34-58.46,93.44-77.9,145.4C40.21,247.26,27.16,307.65,26.5,385.06Z" style="fill: #f3680d"/>
        <path d="M26.5,385.06c.66-77.41,13.71-137.8,35.65-196.45,19.44-52,44.22-101.06,77.9-145.4,10.15-13.36,10-13.34,25.11-5.35,47.28,25,97,40.73,151.14,39.26,53-1.43,101.5-18.18,146.9-44.59,6.81-4,11.58-4.17,18.58-.16,52.12,29.81,107.55,48,168.46,44.51,38.66-2.19,75.2-12.9,110-29.56,8.77-4.19,17.6-8.32,26-13.21,5.1-3,7.75-2.6,11.65,2.17,29.54,36.22,51.88,76.66,70.64,119.22a588.23,588.23,0,0,1,45.24,158.63c6.09,44.66,4.08,89.1-2.64,133.47a526.08,526.08,0,0,1-45.49,147.71,599.65,599.65,0,0,1-95.92,144.57C727.42,787,676.8,823.66,622.22,855.18c-34,19.6-69.42,35.67-107.23,46.42-31.57,9-62.78,7.43-93.74-2.54C354.43,877.53,295.4,841.88,240,799.46c-60.5-46.35-106.75-104.75-143.67-170.72-12-21.39-20.17-44.85-30.79-67-15-31.31-24.21-64.52-30.13-98.35C30.09,432.8,28.3,401.63,26.5,385.06ZM434.43,510.44c29.82-2.45,55.95-13.86,80.11-30.05,10.38-6.95,21.12-10.8,33.5-10.27L614,473c10.21.45,19.09-5.26,20.32-13.07,1.17-7.47-3.9-13.93-14.21-17.19-28.2-8.89-56.71-16.22-86.66-15.47-2.44.06-4.9-.62-7.36-1,3.48-3.15,6.91-5.33,10.42-5.48,16.88-.72,33.84-1.87,50.67-1,18.47.95,36.83,4.08,55.26,6,6.72.68,12.85-1.27,15-8.5,2.12-7.06,0-13.08-6.67-16.92a38,38,0,0,0-7.62-3.57c-19.82-6-39.7-11.76-59.53-17.68-7.9-2.35-15.74-4.89-23.6-7.35a6.23,6.23,0,0,1,5.14-1.82c23.83,1.67,47.63,3.63,71.48,4.9,7.32.39,14.78-1.16,17.12-10,2.2-8.39-2.79-13.51-9.34-16.47-17.1-7.71-34.06-16.12-51.88-21.71-37.29-11.7-74.84-3.16-112.14,1.62-23.17,3-46.21,5.83-69.5,1.63-16.77-3-25.26-9.81-27-23.06h509C876.69,214.23,843.5,130.93,788.85,56.14c-3.44,1.1-6.27,1.59-8.69,2.85-33.11,17.21-67.89,29-104.95,34.4a281.19,281.19,0,0,1-113-6.6A368.5,368.5,0,0,1,477.8,52.7c-2.52-1.39-7-1.76-9.42-.45-37.51,20.33-76.74,35.28-119.3,41.16-38.85,5.38-77.33,4-114.72-7.57-24.43-7.57-47.92-18.19-71.78-27.58-4.52-1.77-7.79-2.18-11.22,2.53-36.72,50.59-62.23,106.69-81.44,165.82-4.9,15.06-8.47,30.58-12.05,46-2.52,10.88-4,22-6.23,34.35H64.71q149.22,0,298.45-.1c6.47,0,9.6,1.26,12,8.31,2.1,6.28,7.43,13.18,13.21,16.14A89.92,89.92,0,0,0,419.38,341c29.92,3.06,59.69-.68,89.19-5.74,44.68-7.66,86.93-1.71,126.35,21.3,1.82,1.07,3.28,2.76,6.75,5.75-6.18,0-9.6.23-13,0-22.87-1.82-45.72-3.89-68.6-5.54-7.34-.53-14.09,1.44-16.21,9.7-2.34,9.18,2.81,14.52,10.76,17.16,15.47,5.13,31.1,9.76,46.67,14.58q14.19,4.41,28.39,8.77a25.62,25.62,0,0,1-12.94,1.92c-17.5-1.77-35-4.17-52.47-5.55-17.18-1.35-33.83,1.38-49.25,9.63-6.45,3.46-11,8.56-10.21,16.24.8,8.18,6.66,11.8,14.21,12.62A160.52,160.52,0,0,0,539.68,443c18.36-.39,35.82,3.66,53.08,9.74a16.9,16.9,0,0,1-7,1.36c-14.79-.14-29.59-.21-44.37-.62-12.49-.35-23.18,4.23-33.57,10.61-10.11,6.2-20.4,12.19-31,17.44-18.23,9-38.44,8.43-58,11.07-11.74,1.59-20,10.15-19.45,19.42.54,8.72,8.48,15.47,19.93,16.42,33.91,2.83,67.7,3.76,101.65-1.09,26.33-3.77,51.55,1.66,74.54,15.66,11,6.69,21.34,14.69,32.93,20,23.7,10.93,35.77,29.7,39.67,54.44,4.19,26.58,20.54,40.39,45.8,45.47,14.52,2.92,29.06,5.77,44.42,8.81-19.81,6.64-70-4.62-86.33-23-31.55-35.61-72.82-52.43-119.88-55.07-25.36-1.42-50.59-.1-72.26,15.58C466.43,619,453.07,629,440.78,640.11c-17.86,16.12-32.19,34.25-30.15,60.94.36,4.61-5.31,12.49-9.9,14.15a445.1,445.1,0,0,1-52.15,15c-17.07,3.9-35,4.81-50.05,15-10,6.73-13.56,17.62-10.4,28.91,2.95,10.56,10.79,17.18,22.72,18a185.1,185.1,0,0,0,27.36.06c40.21-3.3,78.85-11.4,112.3-36.17,19.62-14.53,39.18-29.38,60.11-41.85,23.26-13.85,46.13-7.94,61.74,13.35,7.63,10.4,16.81,18.47,29.23,22.66,3.14,1.07,5.9,3.26,8.83,4.93-20.28,2.53-39.47,2.22-56.76-9-8.95-5.82-18.56-8.57-29.47-6.69-21.16,3.63-32.8,18.76-40.14,36.27-12.21,29.14-22.58,59.1-32.71,89.06-7.79,23-6.11,24.41,18.72,24.4,5.72,0,8.35-2.15,10-7.56,7.73-25.1,15.22-50.31,24.06-75,3.78-10.56,10.28-20.23,16.23-29.88,4.55-7.38,10.51-7.73,18.53-3.53,9.6,5,20.06,10.27,30.56,11.3,22.42,2.19,45.12,2.31,67.68,2,7.16-.1,14.57-3.6,21.3-6.76C667.12,775.57,671,768,671,758.24c0-9.31-4.5-15.68-12.48-19.33-7.37-3.38-15.14-5.91-22.82-8.56-15.55-5.35-32.36-7.74-42.21-23.91-14.06-23.07-36.53-29.17-61.81-27.63-28.15,1.72-50.1,17.12-71.12,33.84-28.82,22.93-58.16,44.59-96.3,49.09-13.83,1.63-27.69,3-41.53,4.56l-.52-3.67c8.39-1.84,16.85-3.41,25.16-5.58,21.18-5.53,42.79-10,63.27-17.47,16.52-6.05,26.85-19.45,25.55-38.36-.93-13.36,3.88-23.9,12.69-33.1,6.29-6.57,12.44-13.38,19.48-19.07,16.25-13.12,31.67-28.23,54.07-30.24,10.62-.95,21.4-1.77,32-1,36.2,2.56,68.05,15.43,95,40.44,10.46,9.7,21.78,19.64,34.54,25.45a141,141,0,0,0,80.15,11.1c11.74-1.74,20.39-10,21.09-20.59.71-10.71-7.43-20.79-19.41-23.2-10.75-2.15-21.67-3.41-32.43-5.49-35.16-6.79-40.15-8.34-46.78-40-5.38-25.73-19.23-45-43.3-57-12.3-6.12-23.66-14.13-35.48-21.24-31.6-19-65.22-22.65-101.58-17.45C482.76,513.16,458.4,510.44,434.43,510.44Zm-83,57.65h.32q0-17,0-34c0-1.57-.11-3.14-.21-4.71-1-16.1-9.95-24.88-25.44-25.73-25.74-1.42-33,7.82-34.1,23.27-2,26.92-1.26,54.11-.27,81.13.58,15.66,13,24.43,30.4,24.1,17.74-.34,28.45-9.26,29.19-25.37C351.88,593.92,351.41,581,351.41,568.09Zm-94.72,8.77c0,9.15.33,18-.09,26.73-.38,7.91-5.92,12.74-12.23,9.9-3.2-1.44-6.05-6.77-6.49-10.63-1.09-9.74-8-5.73-12.85-6.41-6-.84-6.39,3-6.33,7.66.18,16.37,10.54,27.36,26.71,28.06,18.36.8,30-8.1,30.59-25.54.82-26.06.66-52.17,0-78.24-.37-14.9-9.61-23.75-23.24-24.65-21.29-1.41-32.26,4.11-34.72,20.33-2,13.18-1.74,26.88-.89,40.25.67,10.5,10.45,18.59,20.71,17.95C243.85,581.9,249.67,579,256.69,576.86Zm37.59-180.29c23.15,3,25.64.12,19.88-20.3-.09-.3-.12-.62-.21-.92-4.18-14.68-16.24-22.88-32.08-21.85-17.38,1.14-29.58,10.79-30.14,26.54-.9,25.45-.65,51,.07,76.43.35,12.81,10.56,22.52,23.33,24.74,18,3.12,32.2-1.68,36.85-14.87,3.09-8.78,2.52-18.86,3.59-28.36-6.32-.6-12.63-1.23-18.95-1.75-.45,0-1,.71-2.24,1.72,0,4.06,0,8.74,0,13.42-.05,7-3.06,11.55-10.56,11.58s-10.65-4.49-10.67-11.52q-.08-33.51,0-67c0-6.44,2.36-11.21,9.63-11.47,7.55-.26,10.47,4.86,11.42,11.21C294.77,388.09,294.28,392.2,294.28,396.57Zm-58.91-13.2c-.58-3.67-.87-6.44-1.49-9.13A18.63,18.63,0,0,0,232,370c-8.35-16-27.29-21.35-44.7-12.68-13.7,6.83-20.26,27.79-11.4,42.76,5.75,9.7,14.83,17.43,22.48,26,5.18,5.8,11.32,10.95,15.5,17.38,4.63,7.11,1.8,16.14-4.36,18.7-7.15,3-13.81-.48-16.62-9.1-1.38-4.22-1.48-9.07-8.07-7.65-4.28.92-8.68,1.33-12.85,2.59-.84.25-1.73,3.69-1.12,4.92,3.87,7.65,6.69,16.64,12.63,22.26,11.62,11,33.43,9.11,44.64-2,10.62-10.55,12.18-31.7,1.83-44.24-8.12-9.83-18.21-18-27-27.32-3.55-3.76-7.14-8.26-8.53-13.06-1.61-5.53-1.95-12.47,5.66-15,7-2.28,10.92,1.43,14.17,7.48,1.32,2.45,5.28,4.64,8.16,4.8C226.54,386.07,230.78,384.34,235.37,383.37ZM188.08,564.06c11.5-12.06,13.88-26,8.67-41.57-5.11-15.28-18.8-22.53-35.3-18.28-14.09,3.62-21.94,17.64-18.4,33.07h18.44c.17-3-.42-5.55.56-7.21,2-3.36,4.26-7.9,7.4-8.91,5.63-1.81,8.12,2.88,9.31,8,3.35,14.4-1.35,22.77-16,27.83v12.65c6.45,4.76,14,7.45,15.31,11.93,2.32,8.13,1.55,17.4.57,26-.28,2.43-5.65,5.68-8.89,5.93-2.51.19-6.1-3.22-7.8-5.92-1.54-2.42-.2-6.82-1.88-9-2-2.53-5.88-4.93-9-4.93-3.57,0-9.57,1.91-10.3,4.28-3.78,12.36,5.16,28.41,16.74,32.11,17.31,5.53,34.23.1,39.23-13.94C203.38,597.74,205.29,579.4,188.08,564.06Z" style="fill: #0b0504"/>
        <path d="M434.43,510.44c24,0,48.33,2.72,71.81-.64,36.36-5.2,70-1.59,101.58,17.45,11.82,7.11,23.18,15.12,35.48,21.24,24.07,12,37.92,31.23,43.3,57,6.63,31.71,11.62,33.26,46.78,40,10.76,2.08,21.68,3.34,32.43,5.49,12,2.41,20.12,12.49,19.41,23.2-.7,10.54-9.35,18.85-21.09,20.59A141,141,0,0,1,684,683.68c-12.76-5.81-24.08-15.75-34.54-25.45-27-25-58.82-37.88-95-40.44-10.59-.75-21.37.07-32,1-22.4,2-37.82,17.12-54.07,30.24-7,5.69-13.19,12.5-19.48,19.07-8.81,9.2-13.62,19.74-12.69,33.1,1.3,18.91-9,32.31-25.55,38.36-20.48,7.5-42.09,11.94-63.27,17.47-8.31,2.17-16.77,3.74-25.16,5.58l.52,3.67c13.84-1.51,27.7-2.93,41.53-4.56,38.14-4.5,67.48-26.16,96.3-49.09,21-16.72,43-32.12,71.12-33.84,25.28-1.54,47.75,4.56,61.81,27.63,9.85,16.17,26.66,18.56,42.21,23.91,7.68,2.65,15.45,5.18,22.82,8.56,8,3.65,12.48,10,12.48,19.33,0,9.75-3.88,17.33-12.57,21.4-6.73,3.16-14.14,6.66-21.3,6.76-22.56.32-45.26.2-67.68-2-10.5-1-21-6.28-30.56-11.3-8-4.2-14-3.85-18.53,3.53-6,9.65-12.45,19.32-16.23,29.88-8.84,24.72-16.33,49.93-24.06,75-1.66,5.41-4.29,7.56-10,7.56-24.83,0-26.51-1.37-18.72-24.4,10.13-30,20.5-59.92,32.71-89.06,7.34-17.51,19-32.64,40.14-36.27,10.91-1.88,20.52.87,29.47,6.69,17.29,11.22,36.48,11.53,56.76,9-2.93-1.67-5.69-3.86-8.83-4.93-12.42-4.19-21.6-12.26-29.23-22.66-15.61-21.29-38.48-27.2-61.74-13.35-20.93,12.47-40.49,27.32-60.11,41.85-33.45,24.77-72.09,32.87-112.3,36.17a185.1,185.1,0,0,1-27.36-.06c-11.93-.8-19.77-7.42-22.72-18-3.16-11.29.44-22.18,10.4-28.91,15.07-10.18,33-11.09,50.05-15a445.1,445.1,0,0,0,52.15-15c4.59-1.66,10.26-9.54,9.9-14.15-2-26.69,12.29-44.82,30.15-60.94C453.07,629,466.43,619,479.86,609.3c21.67-15.68,46.9-17,72.26-15.58,47.06,2.64,88.33,19.46,119.88,55.07,16.3,18.4,66.52,29.66,86.33,23-15.36-3-29.9-5.89-44.42-8.81-25.26-5.08-41.61-18.89-45.8-45.47-3.9-24.74-16-43.51-39.67-54.44-11.59-5.35-22-13.35-32.93-20-23-14-48.21-19.43-74.54-15.66-34,4.85-67.74,3.92-101.65,1.09-11.45-1-19.39-7.7-19.93-16.42-.57-9.27,7.71-17.83,19.45-19.42,19.55-2.64,39.76-2.05,58-11.07,10.62-5.25,20.91-11.24,31-17.44,10.39-6.38,21.08-11,33.57-10.61,14.78.41,29.58.48,44.37.62a16.9,16.9,0,0,0,7-1.36C575.5,446.7,558,442.65,539.68,443A160.52,160.52,0,0,1,519,441.8c-7.55-.82-13.41-4.44-14.21-12.62-.75-7.68,3.76-12.78,10.21-16.24,15.42-8.25,32.07-11,49.25-9.63,17.52,1.38,35,3.78,52.47,5.55a25.62,25.62,0,0,0,12.94-1.92q-14.19-4.38-28.39-8.77c-15.57-4.82-31.2-9.45-46.67-14.58-8-2.64-13.1-8-10.76-17.16,2.12-8.26,8.87-10.23,16.21-9.7,22.88,1.65,45.73,3.72,68.6,5.54,3.39.27,6.81,0,13,0-3.47-3-4.93-4.68-6.75-5.75-39.42-23-81.67-29-126.35-21.3-29.5,5.06-59.27,8.8-89.19,5.74a89.92,89.92,0,0,1-31.05-9.66c-5.78-3-11.11-9.86-13.21-16.14-2.36-7.05-5.49-8.32-12-8.31q-149.22.23-298.45.1H51.64c2.2-12.37,3.71-23.47,6.23-34.35,3.58-15.45,7.15-31,12.05-46,19.21-59.13,44.72-115.23,81.44-165.82,3.43-4.71,6.7-4.3,11.22-2.53,23.86,9.39,47.35,20,71.78,27.58,37.39,11.58,75.87,13,114.72,7.57,42.56-5.88,81.79-20.83,119.3-41.16,2.41-1.31,6.9-.94,9.42.45a368.5,368.5,0,0,0,84.38,34.09,281.19,281.19,0,0,0,113,6.6C712.27,88,747.05,76.2,780.16,59c2.42-1.26,5.25-1.75,8.69-2.85,54.65,74.79,87.84,158.09,104.09,250.66H384c1.72,13.25,10.21,20,27,23.06,23.29,4.2,46.33,1.34,69.5-1.63,37.3-4.78,74.85-13.32,112.14-1.62,17.82,5.59,34.78,14,51.88,21.71,6.55,3,11.54,8.08,9.34,16.47-2.34,8.89-9.8,10.44-17.12,10-23.85-1.27-47.65-3.23-71.48-4.9a6.23,6.23,0,0,0-5.14,1.82c7.86,2.46,15.7,5,23.6,7.35,19.83,5.92,39.71,11.71,59.53,17.68a38,38,0,0,1,7.62,3.57c6.66,3.84,8.79,9.86,6.67,16.92-2.18,7.23-8.31,9.18-15,8.5-18.43-1.88-36.79-5-55.26-6-16.83-.87-33.79.28-50.67,1-3.51.15-6.94,2.33-10.42,5.48,2.46.34,4.92,1,7.36,1,29.95-.75,58.46,6.58,86.66,15.47,10.31,3.26,15.38,9.72,14.21,17.19-1.23,7.81-10.11,13.52-20.32,13.07l-66-2.87c-12.38-.53-23.12,3.32-33.5,10.27C490.38,496.58,464.25,508,434.43,510.44ZM181.37,284.21c-3.67-7.25-6.89-13.63-10.12-20-2.71-5.36-3.85-9.39,2.53-14.21,10.53-8,6.11-30-6.74-32.14-12-2.05-24.66-.44-37.28-.44v66.73c12.08,2.65,12.77,2.15,12.85-8.72,0-3.45-.48-7,.15-10.33.49-2.63,2.76-7.26,3.51-7.12,3.5.67,7.84,1.83,9.84,4.4,3.18,4.08,5.12,9.3,6.88,14.28C166,285.17,171.58,287.35,181.37,284.21Zm262.38-119c7.38-2.83,11.81-1.25,14.42,5.34,1.73,4.36,4.56,8.35,5.84,12.81,2.68,9.27,8.71,10.24,18,7.76-3.82-8-7.07-15.66-11.14-22.89-2.48-4.39-2.58-6.77,2-9.8,7.63-5,8.07-13,6.51-21.07s-7.38-13.2-14.75-14c-11-1.19-22.25-.31-33.39-.31v68.5h12.5Zm-25.69,25.63-13.57-28.77c10.55-7.31,13.27-13.24,11.37-24.05-1.51-8.54-7.33-13.83-15.15-14.65-11-1.15-22.29-.29-33.66-.29v68.06c12.32,2,12.48,1.91,12.63-9.22,0-3.45-.48-7,.14-10.33.5-2.67,2.75-7.36,3.51-7.22,3.47.64,7.71,1.83,9.77,4.36,3.06,3.74,4.94,8.65,6.55,13.32C402.53,190.47,407.29,194.73,418.06,190.88Zm159.36-68.21v68.81c28,3.27,40.71,0,47.9-11.82,8.42-13.9,8.3-33.88-1.41-46.19C611.52,117.78,594,123.4,577.42,122.67ZM219.4,250.8c0,17.95,7.11,30.4,19.55,34.16,21.18,6.39,36.33-3.89,39.26-28.89,2.83-24.19-10-47.42-39.11-39.4C226.94,220,219.41,233.11,219.4,250.8Zm283.21,5a90.88,90.88,0,0,0,7.24-6.47c9-9.94,3.81-29.68-9.09-31.82-10.43-1.74-21.32-1-32-.67-1.49.05-3.95,4.23-4.07,6.59-.47,10.05-.23,20.14-.24,30.21,0,10.26,0,20.53,0,31h13.1c0-6.7-.43-12.94.19-19.07.29-2.84,2.65-5.46,4.07-8.17,3.34,2,7.5,3.25,9.83,6.06A32.17,32.17,0,0,1,498,276c2.46,10,8.83,10.43,17.87,8.4C511.24,274.49,507,265.22,502.61,255.81Zm-189.9,28.66c11.83,0,22.88,1.8,32.91-.62,6.92-1.67,15.24-8,17.87-14.37,3.48-8.43,3.48-19.09,2.3-28.45-1.4-11.1-6.64-21.22-19.82-22.74-9.57-1.11-19.25-1.43-28.89-1.65-1.43,0-4.17,2.4-4.18,3.72C312.63,241.64,312.71,262.92,312.71,284.47Zm323-127,.64.13c0,1.88.11,3.77,0,5.65-1,13.84,8.23,26.46,21.24,29.06,16.47,3.3,30.26-3,33.55-17.78a86.93,86.93,0,0,0,.59-32.36c-2.25-13.44-12.12-19.84-25.77-20-15.12-.2-23.39,5.22-27.58,19C636.74,146.36,636.53,152,635.69,157.47ZM710.21,259c9-3.21,13.48-.66,16,6.75,1.4,4.12,4.38,7.72,5.62,11.86,2.81,9.35,8.87,8.46,16.84,6.2-4.67-9.84-9-19-13.55-28.6,1.27-.87,2.06-1.38,2.83-1.93,7.93-5.63,11.9-12.86,8.62-22.66s-9-13.71-20.74-14c-6.9-.18-13.83.18-20.72-.19-5.67-.29-7.77,1.74-7.68,7.54.26,17,0,33.92,0,50.88,0,11.29.21,11.45,12.75,9.12Zm45.94-8.52c.89,5.53,1.33,11.19,2.77,16.58,3,11.11,10.81,17.54,21.89,19.22,10.46,1.59,20.69-.67,26.84-9.76,8.07-12,8.42-25.17,5.56-39.56-4.21-21.22-29.37-27.52-44.47-16.68C758.47,227.59,756.77,238.7,756.15,250.43Zm-325.43.38c-1.06-5.51-1.8-11.11-3.25-16.52-6.13-22.71-35.46-23.54-46.31-11.47-10.11,11.25-10.93,24.5-8.28,38.71,2,10.9,6.29,19.85,17.58,23.18C414,291.68,430.14,277.78,430.72,250.81Zm-75.58-59c2.86-7.73.27-10.57-7-10.33-6.59.23-13.28.64-19.74-.32-2.55-.37-6.21-4-6.57-6.53-1.72-11.95-.55-12.89,11.56-12.93,2.82,0,6,.71,8.36-.35,2-.88,3.84-3.78,4.11-6,.16-1.37-2.56-4.2-4.29-4.47-4.3-.69-8.76-.32-13.16-.3-6,0-7.05-3.36-7-8.59s1.37-8.46,7.27-8.36c6.6.12,13.26.51,19.76-.27,2.3-.28,4.22-3.66,6.32-5.62-2-1.76-3.86-5-5.87-5-12.83-.46-25.69-.23-39.16-.23v69.33ZM247,177.11c3.78,10,10.93,13.88,19.66,15.48C281,195.21,292,190,295.19,179.33c3.83-12.69-1.09-20.7-16.37-27.07a87.72,87.72,0,0,1-14.23-7c-1.91-1.25-3.78-4.76-3.38-6.79s3.56-5.08,5.61-5.16c4.1-.16,9.79,0,12.11,2.53,5.62,6.1,9.9,4.93,15.61-.38-2.51-2.83-4.58-6.07-7.46-8.25-8.48-6.45-18-6.88-27.59-3-7.82,3.2-11.51,9.53-11,17.95.64,10.64,8.81,14.32,17.05,17.89,4.3,1.86,9,3.32,12.52,6.23,2.68,2.24,5.9,7.39,5,9.57-1.35,3.13-6.71,7.09-9.53,6.53-6.55-1.29-12.61-5.07-20.4-8.52Zm330.9,107.41c-6.29-21.72-12.22-43.07-19-64.15-.69-2.14-6.46-3.69-9.83-3.61-2.94.07-7.68,2.24-8.41,4.5-6,18.8-11.38,37.8-16.52,56.85-.56,2.1,1.62,4.94,2.53,7.43,3.14-1.31,6.62-2.16,9.27-4.13,1.38-1,1.09-4.12,1.91-6.14,3.33-8.24,10.75-5,16.37-4.86,2.91.06,7.83,3.69,8.24,6.28C564,286.34,569.58,286.24,577.87,284.52Zm52.51-54.19c-5.69-14.75-23.17-18.7-36.08-12.4C581.82,224,581,241,592.83,248.6c6,3.84,12.9,6.25,19.3,9.49,5,2.53,10,6,7,12.32-3.17,6.76-9.48,8.15-15.93,4.8-4.29-2.23-7.88-5.79-12.11-9l-7.88,4.46c5.78,12,16.81,17.66,30.18,15.68,10.88-1.6,17.53-7.78,19-17.67,1.38-9.12-3.3-16.8-13.26-21.44-5.67-2.65-11.73-4.59-17-7.81-2.42-1.47-5.43-6.19-4.68-7.76,1.33-2.78,5.12-5.26,8.3-6,2.61-.59,7,.62,8.58,2.63C619.11,234.39,624.16,233.38,630.38,230.33ZM488.46,190l1.86,3.27c3.69-1.54,10.36-2.73,10.59-4.69,1.69-13.91,11.67-11.66,20.35-11,2.62.2,6.85,3.51,7.16,5.83,1.38,10.24,7.25,9.91,15.26,7.74-6.21-21.66-12.1-43-18.71-64.1-.68-2.17-5.68-4.25-8.6-4.15-3.38.12-8.91,2-9.65,4.33C500.15,148,494.43,169,488.46,190Zm169.59,37.47v57.9l12.52-.84V228.08l16.81-1.21V216.51c-14.93,0-29.28-.17-43.62.23-1.69,0-4.92,3.75-4.58,4.91.66,2.25,3.1,5,5.28,5.53C648.22,228.08,652.35,227.43,658.05,227.43ZM207.81,216.88c-6.18.33-12.94-3.85-13,5.67-.16,19.11-.22,38.22.26,57.31,0,2,4.06,5.31,6.26,5.33s6.17-3.35,6.21-5.31C208,259.28,207.81,238.67,207.81,216.88Z" style="fill: #f3680d"/>
        <path d="M351.41,568.09c0,12.9.47,25.83-.12,38.7-.74,16.11-11.45,25-29.19,25.37-17.36.33-29.82-8.44-30.4-24.1-1-27-1.69-54.21.27-81.13,1.13-15.45,8.36-24.69,34.1-23.27,15.49.85,24.43,9.63,25.44,25.73.1,1.57.21,3.14.21,4.71q0,17,0,34Zm-19.55-.41c0-11-.07-22,0-32.94.07-7.26-1.51-13.63-10.16-13.93-9.3-.32-10.06,6.77-10.08,13.69-.08,22.28,0,44.55,0,66.83,0,6.89,1.22,12.83,9.84,12.79,9,0,10.43-6.29,10.41-13.5Q331.83,584.15,331.86,567.68Z" style="fill: #f3680d"/>
        <path d="M256.69,576.86c-7,2.11-12.84,5-18.81,5.41-10.26.64-20-7.45-20.71-17.95-.85-13.37-1.11-27.07.89-40.25,2.46-16.22,13.43-21.74,34.72-20.33,13.63.9,22.87,9.75,23.24,24.65.64,26.07.8,52.18,0,78.24-.55,17.44-12.23,26.34-30.59,25.54-16.17-.7-26.53-11.69-26.71-28.06-.06-4.62.33-8.5,6.33-7.66,4.87.68,11.76-3.33,12.85,6.41.44,3.86,3.29,9.19,6.49,10.63,6.31,2.84,11.85-2,12.23-9.9C257,594.82,256.69,586,256.69,576.86Zm2-32.59-2.08-.7c0-4.37.36-8.78-.09-13.11-.62-6-4.18-10.87-10.3-9.29-3.74,1-8.48,5.66-9.14,9.33-1.41,7.87-1,16.21-.36,24.29.67,9.1,8.63,13.17,15,7C255.85,557.75,256.52,550.22,258.72,544.27Z" style="fill: #f3680d"/>
        <path d="M294.28,396.57c0-4.37.49-8.48-.11-12.43-.95-6.35-3.87-11.47-11.42-11.21-7.27.26-9.62,5-9.63,11.47q0,33.51,0,67c0,7,3.14,11.55,10.67,11.52s10.51-4.57,10.56-11.58c0-4.68,0-9.36,0-13.42,1.28-1,1.79-1.76,2.24-1.72,6.32.52,12.63,1.15,18.95,1.75-1.07,9.5-.5,19.58-3.59,28.36-4.65,13.19-18.86,18-36.85,14.87-12.77-2.22-23-11.93-23.33-24.74-.72-25.46-1-51-.07-76.43.56-15.75,12.76-25.4,30.14-26.54,15.84-1,27.9,7.17,32.08,21.85.09.3.12.62.21.92C319.92,396.69,317.43,399.53,294.28,396.57Z" style="fill: #f3680d"/>
        <path d="M235.37,383.37c-4.59,1-8.83,2.7-13,2.46-2.88-.16-6.84-2.35-8.16-4.8-3.25-6-7.21-9.76-14.17-7.48-7.61,2.5-7.27,9.44-5.66,15,1.39,4.8,5,9.3,8.53,13.06,8.78,9.32,18.87,17.49,27,27.32,10.35,12.54,8.79,33.69-1.83,44.24-11.21,11.14-33,13-44.64,2-5.94-5.62-8.76-14.61-12.63-22.26-.61-1.23.28-4.67,1.12-4.92,4.17-1.26,8.57-1.67,12.85-2.59,6.59-1.42,6.69,3.43,8.07,7.65,2.81,8.62,9.47,12.08,16.62,9.1,6.16-2.56,9-11.59,4.36-18.7-4.18-6.43-10.32-11.58-15.5-17.38-7.65-8.56-16.73-16.29-22.48-26-8.86-15-2.3-35.93,11.4-42.76,17.41-8.67,36.35-3.3,44.7,12.68a18.63,18.63,0,0,1,1.9,4.24C234.5,376.93,234.79,379.7,235.37,383.37Z" style="fill: #f3680d"/>
        <path d="M188.08,564.06c17.21,15.34,15.3,33.68,8.75,52.08-5,14-21.92,19.47-39.23,13.94-11.58-3.7-20.52-19.75-16.74-32.11.73-2.37,6.73-4.28,10.3-4.28,3.07,0,7,2.4,9,4.93,1.68,2.14.34,6.54,1.88,9,1.7,2.7,5.29,6.11,7.8,5.92,3.24-.25,8.61-3.5,8.89-5.93,1-8.63,1.75-17.9-.57-26-1.27-4.48-8.86-7.17-15.31-11.93V557c14.61-5.06,19.31-13.43,16-27.83-1.19-5.09-3.68-9.78-9.31-8-3.14,1-5.42,5.55-7.4,8.91-1,1.66-.39,4.24-.56,7.21H143.05c-3.54-15.43,4.31-29.45,18.4-33.07,16.5-4.25,30.19,3,35.3,18.28C202,538.08,199.58,552,188.08,564.06Z" style="fill: #f3680d"/>
        <path d="M181.37,284.21c-9.79,3.14-15.36,1-18.38-7.55-1.76-5-3.7-10.2-6.88-14.28-2-2.57-6.34-3.73-9.84-4.4-.75-.14-3,4.49-3.51,7.12-.63,3.34-.12,6.88-.15,10.33-.08,10.87-.77,11.37-12.85,8.72V217.42c12.62,0,25.26-1.61,37.28.44C179.89,220,184.31,242,173.78,250c-6.38,4.82-5.24,8.85-2.53,14.21C174.48,270.58,177.7,277,181.37,284.21Zm-39.92-38c9.82.21,18.68,3.65,23.59-5.49,1.4-2.6-.11-9.87-1.89-10.51-5.81-2.07-13.94-4.64-18.15-2.07C141.59,230.25,142.55,239.47,141.45,246.23Z" style="fill: #0b0504"/>
        <path d="M443.75,165.25V191.6h-12.5V123.1c11.14,0,22.37-.88,33.39.31,7.37.79,13.19,6,14.75,14s1.12,16.08-6.51,21.07c-4.62,3-4.52,5.41-2,9.8,4.07,7.23,7.32,14.93,11.14,22.89-9.26,2.48-15.29,1.51-18-7.76-1.28-4.46-4.11-8.45-5.84-12.81C455.56,164,451.13,162.42,443.75,165.25Zm.31-9.78c8.45-2.83,15.3-4.51,21.38-7.67,1.31-.68,1.21-7.9-.63-10.07-5.57-6.59-13.21-4.68-20.75-3.34Z" style="fill: #0b0504"/>
        <path d="M418.06,190.88c-10.77,3.85-15.53-.41-18.41-8.79-1.61-4.67-3.49-9.58-6.55-13.32-2.06-2.53-6.3-3.72-9.77-4.36-.76-.14-3,4.55-3.51,7.22-.62,3.34-.1,6.88-.14,10.33-.15,11.13-.31,11.25-12.63,9.22V123.12c11.37,0,22.62-.86,33.66.29,7.82.82,13.64,6.11,15.15,14.65,1.9,10.81-.82,16.74-11.37,24.05ZM389.34,153c7.24.1,13.53-.89,14.27-9.2.6-6.74-5.79-10.19-15.88-10.62-9.17-.39-7.74,5.41-8.22,11.1C378.82,152.57,383.25,153.89,389.34,153Z" style="fill: #0b0504"/>
        <path d="M577.42,122.67c16.56.73,34.1-4.89,46.49,10.8,9.71,12.31,9.83,32.29,1.41,46.19-7.19,11.86-19.94,15.09-47.9,11.82Zm12.21,34.63c0,6-.8,12.08.36,17.8.54,2.63,4.94,6.34,7.58,6.33,8.48,0,15.89-2.84,18.65-12.46,3.52-12.29,1.68-27.33-5.81-31.27-5.15-2.71-11.84-3.22-17.78-3-1.16,0-2.32,7.92-2.93,12.27C589.23,150.35,589.61,153.85,589.63,157.3Z" style="fill: #0b0504"/>
        <path d="M219.4,250.8c0-17.69,7.54-30.78,19.7-34.13,29.09-8,41.94,15.21,39.11,39.4-2.93,25-18.08,35.28-39.26,28.89C226.51,281.2,219.38,268.75,219.4,250.8Zm46.32.1-.86-.22c-.25-3.74-.05-7.58-.84-11.21-1.69-7.85-6.63-12.78-14.87-13-7.9-.22-13.59,4.25-14.57,11.76-1.12,8.53-1.62,17.66.34,25.88,1.07,4.45,7.48,9.95,12.08,10.58s11.36-3.17,14.34-7.15C264.53,263.29,264.4,256.55,265.72,250.9Z" style="fill: #0b0504"/>
        <path d="M502.61,255.81c4.34,9.41,8.63,18.68,13.21,28.59-9,2-15.41,1.64-17.87-8.4a32.17,32.17,0,0,0-6.29-12.53c-2.33-2.81-6.49-4.1-9.83-6.06-1.42,2.71-3.78,5.33-4.07,8.17-.62,6.13-.19,12.37-.19,19.07h-13.1c0-10.47,0-20.74,0-31,0-10.07-.23-20.16.24-30.21.12-2.36,2.58-6.54,4.07-6.59,10.66-.36,21.55-1.07,32,.67,12.9,2.14,18.07,21.88,9.09,31.82A90.88,90.88,0,0,1,502.61,255.81Zm-16.86-8.91c8.18-.21,14.83-.94,15.1-10.18.22-7.45-4-9.6-15.75-10.06-8.94-.35-7.09,5.4-7.55,10.62C476.92,244.47,479,248.34,485.75,246.9Z" style="fill: #0b0504"/>
        <path d="M312.71,284.47c0-21.55-.08-42.83.19-64.11,0-1.32,2.75-3.75,4.18-3.72,9.64.22,19.32.54,28.89,1.65,13.18,1.52,18.42,11.64,19.82,22.74,1.18,9.36,1.18,20-2.3,28.45-2.63,6.35-10.95,12.7-17.87,14.37C335.59,286.27,324.54,284.47,312.71,284.47Zm12.69-33.76h.11c0,6-.19,11.91.12,17.84.1,1.88,1,4.57,2.46,5.4,6.47,3.77,21.54-1.61,22.86-9.22a85.11,85.11,0,0,0,.1-27.54c-1.22-7.59-11.7-11.9-20.9-10-8.19,1.72-3.76,8.6-4.63,13.18C324.89,243.72,325.4,247.26,325.4,250.71Z" style="fill: #0b0504"/>
        <path d="M635.69,157.47c.84-5.46,1-11.11,2.65-16.33,4.19-13.76,12.46-19.18,27.58-19,13.65.17,23.52,6.57,25.77,20a86.93,86.93,0,0,1-.59,32.36c-3.29,14.78-17.08,21.08-33.55,17.78-13-2.6-22.22-15.22-21.24-29.06.13-1.88,0-3.77,0-5.65Zm45.2.15-.82-.06c0-3.14.24-6.31-.05-9.42-.85-9.14-5.92-14.52-13.85-15-8.82-.55-15,4-16.08,13.45a102.57,102.57,0,0,0,.19,23.43c.87,7.15,5.83,11.61,13.27,12.39,7.65.79,12.83-3.15,15.11-10C680.22,167.74,680.21,162.57,680.89,157.62Z" style="fill: #0b0504"/>
        <path d="M710.21,259v25c-12.54,2.33-12.75,2.17-12.75-9.12,0-17,.22-33.92,0-50.88-.09-5.8,2-7.83,7.68-7.54,6.89.37,13.82,0,20.72.19,11.72.3,17.43,4.11,20.74,14s-.69,17-8.62,22.66c-.77.55-1.56,1.06-2.83,1.93,4.55,9.6,8.88,18.76,13.55,28.6-8,2.26-14,3.15-16.84-6.2-1.24-4.14-4.22-7.74-5.62-11.86C723.69,258.29,719.19,255.74,710.21,259Zm.66-9.22c8.79-3.41,15.77-5.52,22-9,1.28-.72.61-9.16-.93-9.8-6.39-2.65-13.46-3.68-21-5.48Z" style="fill: #0b0504"/>
        <path d="M756.15,250.43c.62-11.73,2.32-22.84,12.59-30.2,15.1-10.84,40.26-4.54,44.47,16.68,2.86,14.39,2.51,27.61-5.56,39.56-6.15,9.09-16.38,11.35-26.84,9.76-11.08-1.68-18.91-8.11-21.89-19.22C757.48,261.62,757,256,756.15,250.43Zm13.68-2.69c.44,6.76.28,11.23,1.1,15.51,1.42,7.35,6.43,11.58,13.73,12.11,6.87.49,13.65-2.57,14.32-9.47a116,116,0,0,0-1.34-32c-.6-3.21-8.16-7.19-12.44-7.08s-9.8,4-12.31,7.87C770.21,238.81,770.43,244.79,769.83,247.74Z" style="fill: #0b0504"/>
        <path d="M430.72,250.81c-.58,27-16.73,40.87-40.26,33.9-11.29-3.33-15.55-12.28-17.58-23.18-2.65-14.21-1.83-27.46,8.28-38.71,10.85-12.07,40.18-11.24,46.31,11.47C428.92,239.7,429.66,245.3,430.72,250.81Zm-14.41,0c-.19-3.45-.19-6.92-.6-10.35-1-8.15-5.3-13.4-13.81-14.05-8-.61-14.19,3.48-15.37,10.91a89.46,89.46,0,0,0,0,27C387.62,272,394,276,401.83,275.28c8.29-.72,12.92-5.82,13.87-14.07C416.09,257.78,416.11,254.31,416.31,250.85Z" style="fill: #0b0504"/>
        <path d="M355.14,191.81H309.72V122.48c13.47,0,26.33-.23,39.16.23,2,.08,3.91,3.28,5.87,5-2.1,2-4,5.34-6.32,5.62-6.5.78-13.16.39-19.76.27-5.9-.1-7.24,3-7.27,8.36s1.06,8.62,7,8.59c4.4,0,8.86-.39,13.16.3,1.73.27,4.45,3.1,4.29,4.47-.27,2.21-2.14,5.11-4.11,6-2.36,1.06-5.54.34-8.36.35-12.11,0-13.28,1-11.56,12.93.36,2.54,4,6.16,6.57,6.53,6.46,1,13.15.55,19.74.32C355.41,181.24,358,184.08,355.14,191.81Z" style="fill: #0b0504"/>
        <path d="M247,177.11l6.13-3.18c7.79,3.45,13.85,7.23,20.4,8.52,2.82.56,8.18-3.4,9.53-6.53.93-2.18-2.29-7.33-5-9.57-3.48-2.91-8.22-4.37-12.52-6.23-8.24-3.57-16.41-7.25-17.05-17.89-.51-8.42,3.18-14.75,11-17.95,9.59-3.93,19.11-3.5,27.59,3,2.88,2.18,4.95,5.42,7.46,8.25-5.71,5.31-10,6.48-15.61.38-2.32-2.52-8-2.69-12.11-2.53-2.05.08-5.19,3-5.61,5.16s1.47,5.54,3.38,6.79a87.72,87.72,0,0,0,14.23,7c15.28,6.37,20.2,14.38,16.37,27.07C292,190,281,195.21,266.63,192.59,257.9,191,250.75,187.11,247,177.11Z" style="fill: #0b0504"/>
        <path d="M577.87,284.52c-8.29,1.72-13.89,1.82-15.43-7.83-.41-2.59-5.33-6.22-8.24-6.28-5.62-.11-13-3.38-16.37,4.86-.82,2-.53,5.11-1.91,6.14-2.65,2-6.13,2.82-9.27,4.13-.91-2.49-3.09-5.33-2.53-7.43,5.14-19.05,10.53-38.05,16.52-56.85.73-2.26,5.47-4.43,8.41-4.5,3.37-.08,9.14,1.47,9.83,3.61C565.65,241.45,571.58,262.8,577.87,284.52Zm-26.43-51.59-2.73.36-6.19,25.44h15.32Z" style="fill: #0b0504"/>
        <path d="M630.38,230.33c-6.22,3-11.27,4.06-16.09-2-1.58-2-6-3.22-8.58-2.63-3.18.73-7,3.21-8.3,6-.75,1.57,2.26,6.29,4.68,7.76,5.31,3.22,11.37,5.16,17,7.81,10,4.64,14.64,12.32,13.26,21.44-1.5,9.89-8.15,16.07-19,17.67-13.37,2-24.4-3.66-30.18-15.68l7.88-4.46c4.23,3.22,7.82,6.78,12.11,9,6.45,3.35,12.76,2,15.93-4.8,3-6.35-2-9.79-7-12.32-6.4-3.24-13.3-5.65-19.3-9.49C581,241,581.82,224,594.3,217.93,607.21,211.63,624.69,215.58,630.38,230.33Z" style="fill: #0b0504"/>
        <path d="M488.46,190c6-21,11.69-42,18.26-62.78.74-2.33,6.27-4.21,9.65-4.33,2.92-.1,7.92,2,8.6,4.15,6.61,21.11,12.5,42.44,18.71,64.1-8,2.17-13.88,2.5-15.26-7.74-.31-2.32-4.54-5.63-7.16-5.83-8.68-.65-18.66-2.9-20.35,11-.23,2-6.9,3.15-10.59,4.69Zm35.86-23.37c-2.39-8.54-4.32-15.46-6.26-22.37l-4.13.28c-2,7.06-4,14.12-6.19,22.09Z" style="fill: #0b0504"/>
        <path d="M658.05,227.43c-5.7,0-9.83.65-13.59-.25-2.18-.52-4.62-3.28-5.28-5.53-.34-1.16,2.89-4.86,4.58-4.91,14.34-.4,28.69-.23,43.62-.23v10.36l-16.81,1.21v56.41l-12.52.84Z" style="fill: #0b0504"/>
        <path d="M207.81,216.88c0,21.79.17,42.4-.29,63,0,2-4.06,5.33-6.21,5.31s-6.21-3.36-6.26-5.33c-.48-19.09-.42-38.2-.26-57.31C194.87,213,201.63,217.21,207.81,216.88Z" style="fill: #0b0504"/>
        <path d="M331.85,567.68q0,16.47,0,32.94c0,7.21-1.41,13.45-10.41,13.5-8.62,0-9.86-5.9-9.84-12.79,0-22.28,0-44.55,0-66.83,0-6.92.78-14,10.08-13.69,8.65.3,10.23,6.67,10.16,13.93C331.79,545.72,331.86,556.7,331.85,567.68Z" style="fill: #0b0504"/>
        <path d="M258.72,544.27c-2.2,6-2.87,13.48-7,17.49-6.36,6.2-14.32,2.13-15-7-.6-8.08-1.05-16.42.36-24.29.66-3.67,5.4-8.36,9.14-9.33,6.12-1.58,9.68,3.28,10.3,9.29.45,4.33.09,8.74.09,13.11Z" style="fill: #0b0504"/>
        <path d="M141.45,246.23c1.1-6.76.14-16,3.55-18.07,4.21-2.57,12.34,0,18.15,2.07,1.78.64,3.29,7.91,1.89,10.51C160.13,249.88,151.27,246.44,141.45,246.23Z" style="fill: #f3680d"/>
        <path d="M444.06,155.47V134.39c7.54-1.34,15.18-3.25,20.75,3.34,1.84,2.17,1.94,9.39.63,10.07C459.36,151,452.51,152.64,444.06,155.47Z" style="fill: #f3680d"/>
        <path d="M389.34,153c-6.09.9-10.52-.42-9.83-8.72.48-5.69-.95-11.49,8.22-11.1,10.09.43,16.48,3.88,15.88,10.62C402.87,152.1,396.58,153.09,389.34,153Z" style="fill: #f3680d"/>
        <path d="M589.62,157.3c0-3.45-.39-7,.08-10.33.61-4.35,1.77-12.23,2.93-12.27,5.94-.22,12.63.29,17.78,3,7.49,3.94,9.33,19,5.81,31.27-2.76,9.62-10.17,12.42-18.65,12.46-2.64,0-7-3.7-7.58-6.33C588.83,169.38,589.63,163.26,589.62,157.3Z" style="fill: #f3680d"/>
        <path d="M265.72,250.9c-1.32,5.65-1.19,12.39-4.38,16.63-3,4-9.81,7.77-14.34,7.15s-11-6.13-12.08-10.58c-2-8.22-1.46-17.35-.34-25.88,1-7.51,6.67-12,14.57-11.76,8.24.23,13.18,5.16,14.87,13,.79,3.63.59,7.47.84,11.21Z" style="fill: #f3680d"/>
        <path d="M485.75,246.9c-6.74,1.44-8.83-2.43-8.2-9.62.46-5.22-1.39-11,7.55-10.62,11.71.46,16,2.61,15.75,10.06C500.58,246,493.93,246.69,485.75,246.9Z" style="fill: #f3680d"/>
        <path d="M325.4,250.71c0-3.45-.51-7,.12-10.31.87-4.58-3.56-11.46,4.63-13.18,9.2-1.93,19.68,2.38,20.9,10a85.11,85.11,0,0,1-.1,27.54c-1.32,7.61-16.39,13-22.86,9.22-1.43-.83-2.36-3.52-2.46-5.4-.31-5.93-.12-11.89-.12-17.84Z" style="fill: #f3680d"/>
        <path d="M680.89,157.62c-.68,4.95-.67,10.12-2.23,14.78-2.28,6.85-7.46,10.79-15.11,10-7.44-.78-12.4-5.24-13.27-12.39a102.57,102.57,0,0,1-.19-23.43c1-9.43,7.26-14,16.08-13.45,7.93.49,13,5.87,13.85,15,.29,3.11.05,6.28.05,9.42Z" style="fill: #f3680d"/>
        <path d="M710.87,249.73V225.41c7.56,1.8,14.63,2.83,21,5.48,1.54.64,2.21,9.08.93,9.8C726.64,244.21,719.66,246.32,710.87,249.73Z" style="fill: #f3680d"/>
        <path d="M769.83,247.74c.6-3,.38-8.93,3.06-13,2.51-3.85,8-7.76,12.31-7.87s11.84,3.87,12.44,7.08a116,116,0,0,1,1.34,32c-.67,6.9-7.45,10-14.32,9.47-7.3-.53-12.31-4.76-13.73-12.11C770.11,259,770.27,254.5,769.83,247.74Z" style="fill: #f3680d"/>
        <path d="M416.3,250.86c-.19,3.45-.21,6.92-.6,10.35-.95,8.25-5.58,13.35-13.87,14.07C394,276,387.62,272,386.48,264.4a89.46,89.46,0,0,1,0-27c1.18-7.43,7.38-11.52,15.37-10.91,8.51.65,12.81,5.9,13.81,14.05C416.12,243.93,416.12,247.4,416.3,250.86Z" style="fill: #f3680d"/>
        <path d="M551.44,232.93l6.4,25.8H542.52l6.19-25.44Z" style="fill: #f3680d"/>
        <path d="M524.32,166.59H507.74c2.23-8,4.21-15,6.19-22.09l4.13-.28C520,151.13,521.93,158.05,524.32,166.59Z" style="fill: #f3680d"/>
      </g>
    </g>
  </g>
</svg>
