<svg xmlns="http://www.w3.org/2000/svg" viewBox="0 0 1028.93 864.72">
  <g id="Camada_2" data-name="Camada 2">
    <g id="Camada_1-2" data-name="Camada 1">
      <g>
        <path d="M0,765.65V99.12c1.28-2.83,3-5.54,3.77-8.5C17.64,37.89,65.05.18,119.2.15q395.43-.27,790.86,0c65.64.06,118.86,54.36,118.87,119.88q0,312,0,624c0,56-36.86,103.32-91.22,117.32-2.73.7-5.25,2.21-7.87,3.33H99.11c-2-1-4-2.36-6.13-3Q22.17,842.41,3.17,771.56C2.61,769.45,1.08,767.61,0,765.65ZM514.93,834q193.71,0,387.43,0c58,0,95.85-37.94,95.85-96q0-305.32,0-610.67c0-58.43-38-96.37-96.48-96.37H126.88c-57.7,0-95.95,38.3-95.95,96.08q0,305.34,0,610.67c0,58.36,38,96.27,96.57,96.27Q321.22,834,514.93,834Z" style="fill: #fcb813"/>
        <path d="M514.93,834q-193.71,0-387.43,0C69,834,30.93,796.08,30.93,737.72q0-305.34,0-610.67C30.93,69.27,69.18,31,126.88,31H901.73c58.49,0,96.48,37.94,96.48,96.37q0,305.34,0,610.67c0,58-37.89,96-95.85,96Q708.64,834,514.93,834ZM675.79,428.74c-2.14,9.5-5.41,18.92-6.08,28.53-.54,7.7-2.33,11.28-10.31,10-7.74-1.22-10.23,2.48-9.28,9.69a27,27,0,0,1,0,7.18c-1,7.29,2.3,9.94,9.17,8.92,7.85-1.17,10.36,1.94,10.25,9.94-.44,29.37-.2,58.76-.14,88.13,0,3.44.46,6.87.75,11,9.06,0,17.15-.41,25.17.12,7.34.49,9.89-1.87,9.78-9.5-.4-28.48-.17-57-.15-85.44,0-16.38-.86-14,13.77-14.32,2.73-.07,7.69-1.21,7.78-2.22.67-7.08,1-14.39-.26-21.29-.28-1.45-7.92-1.65-12.2-2.15s-9.49,1.37-9.36-6.09c.12-6.53.92-11.86,9.11-12.83,13.71-1.62,13.68-1.82,13.68-15.42a37.26,37.26,0,0,1,0-5.39c1.14-7.45-2.78-9-9.32-9.29-15.3-.66-29.82,1-42.5,10.55.41-1.78.29-4,1.32-5.28,9.12-11.5,13-24.8,14.25-39.16,3.24-37.34-19.76-66.33-57.06-69.28-13.19-1.05-26.73,2.55-40.42,4.07.82-6.87,2.15-15.72,2.88-24.61.54-6.56,3.06-9.21,10.1-9.08,22.51.43,45,0,67.54.25,6,.06,8.94-1.55,8.44-8.1a125.74,125.74,0,0,1,0-18c.4-6.12-2.3-7.59-8-7.56-32.42.2-64.84.26-97.26,0-6.36-.06-8.12,2.46-8.74,8.21-2.08,19.39-4.59,38.73-7,58.08-1.55,12.7-3.1,25.4-4.85,39.68,16.25-1.87,32.54,7.83,45.49-7.63,1.37-1.64,4.22-2.22,6.49-2.9,25.89-7.82,46,13,40.84,42.17-2.93,16.52-12.49,25.51-28.18,26.54-16.91,1.1-25.83-5.13-31.65-21.59-.73-2.06-3.11-4.95-4.83-5-11-.46-22.05-.24-32.85-.24-3.26,19,8.59,40,27.59,50.35,26,14.14,65.4,10.67,88.67-7.65C670.55,430.47,673.35,429.83,675.79,428.74ZM184.22,398.23a70.91,70.91,0,0,0,.45,7.84c3.75,20.87,19,36.06,40.72,40.63,43.44,9.16,77.72-12.06,89.4-55.94a180,180,0,0,0,1.64-86.49C307.15,262.78,279.17,242.9,237,247c-26.62,2.6-47.74,19.69-55.31,44.77-8.76,29-1.11,58.74,18.91,74.91,19.43,15.7,55.63,17.33,72.92,4.17,1-.73,2.51-.69,7.14-1.84-4,13.14-6.41,24.55-11.07,34.93-4.29,9.54-13.49,13.05-24,12.55-9.83-.47-17.34-4-21.06-13.86-.68-1.81-3.09-4.16-4.77-4.22C208.13,398.05,196.51,398.23,184.22,398.23ZM471.6,297.1c1.61-20.4-12-39.14-32.81-46.59-39.14-14-78.86,3.74-93.25,42.69-12.31,33.31-12.84,67.73-4.17,101.84C352.28,438,389,457.88,431.72,445.49c31.29-9.07,48.29-36.3,45.9-73.5-2.09-32.6-25.93-55.56-58.51-56.86-14.45-.57-27.78,2.49-41.06,11.62.19-14.27,2.05-26.29,9-36.84,11.52-17.51,35.43-15.67,45,3,1,1.88,3.75,3.89,5.76,4C448.88,297.3,459.94,297.1,471.6,297.1Zm309.76,305c0-4.55,0-8.07,0-11.59,0-24-.25-48,.15-72,.26-14.9,9.41-23.66,22.93-23.25,12.45.39,18.57,7.94,18.66,23.56.12,21.3,0,42.6,0,63.91,0,19.45,0,19.55,19.33,19.42,17.89-.12,15.68,2.33,15.89-15.71.27-23.69-.19-47.41,1.06-71,.73-13.72,10.85-21.05,23.9-20.1,11.8.86,17.67,8.19,17.73,22.6.1,24.6,0,49.2.05,73.8,0,3.2.3,6.39.5,10.43,10.73,0,20.59.33,30.4-.31,1.78-.11,4.72-4.2,4.74-6.47.29-30.6.72-61.22-.05-91.8-.56-22.21-14.87-36.74-36.87-39.63-18-2.37-32.95,3.83-44.68,17.43-29.49-23.59-39.66-24-73-3.86-2.11-3.35-3.92-9.27-6.37-9.55-9.67-1.11-19.55-.45-30.3-.45,0,13.52,0,25.77,0,38q0,44.1,0,88.21c0,3.67-1.09,8.38,5.12,8.39C760.46,602.08,770.29,602.06,781.36,602.06ZM375,655.64v-66.2l2.83-2c.66,1.65.89,3.73,2,4.89a48.65,48.65,0,0,0,70.05-.68c25.71-26.92,26.85-83.79,2.24-111.75-19.71-22.4-52.83-23.1-73.14-1.56-1.13,1.2-2.38,2.28-4.5,4.31-.61-5.86-1.08-10.39-1.52-14.63H339.89V655.64ZM271.45,467.74c0,3.27,0,6.45,0,9.63-.18,24.59.37,49.22-.81,73.76-.77,16.23-12.46,24.84-28.87,23.9-13.1-.75-18.36-7.73-18.5-25.54-.19-24,0-48,0-72v-9.37H187.4c0,34-.44,67.24.22,100.49.27,13.46,6.16,25,18.83,31.77,17.36,9.28,43.46,6.34,58.47-6.51,1.91-1.64,3.88-3.21,6.65-5.5.34,5.28.6,9.28.84,13h34.27V467.74ZM93.1,467.5v25l17.07.9c0,18.66-.18,36.63.07,54.6.16,11.67.48,23.39,1.62,35,.81,8.14,4.93,14.74,13.26,17.78,13.7,5,27.55,2.48,41.44,2.37V576.39L159,576c-11.71-.68-12.75-1.76-12.77-13.34,0-11.1,0-22.21,0-33.32V492.79h20.2V467.87l-20.59-1.05V431H110.12V467.5ZM530.45,601.69V468.17h-35V601.69Zm-16.71-209a26.15,26.15,0,0,0,.55,52.3,26.15,26.15,0,1,0-.55-52.3ZM627.2,577.7a26.21,26.21,0,1,0-26.45,25.95A26.14,26.14,0,0,0,627.2,577.7Z" style="fill: #d61a21"/>
        <path d="M184.22,398.23c12.29,0,23.91-.18,35.52.19,1.68.06,4.09,2.41,4.77,4.22,3.72,9.85,11.23,13.39,21.06,13.86,10.55.5,19.75-3,24-12.55,4.66-10.38,7-21.79,11.07-34.93-4.63,1.15-6.18,1.11-7.14,1.84-17.29,13.16-53.49,11.53-72.92-4.17-20-16.17-27.67-45.9-18.91-74.91C189.28,266.7,210.4,249.61,237,247c42.15-4.11,70.13,15.77,79.41,57.26a180,180,0,0,1-1.64,86.49c-11.68,43.88-46,65.1-89.4,55.94-21.7-4.57-37-19.76-40.72-40.63A70.91,70.91,0,0,1,184.22,398.23Zm95.39-83.94c-2.48-7.56-3.71-15.87-7.68-22.54-10.09-16.93-35.65-17.87-46.78-2.45-8.46,11.74-9.81,34.92-.61,46,4.71,5.66,12.79,10.48,20,11.68C264.85,350.32,277.93,336.92,279.61,314.29Z" style="fill: #fdc709"/>
        <path d="M471.6,297.1c-11.66,0-22.72.2-33.76-.19-2-.07-4.8-2.08-5.76-4-9.6-18.71-33.51-20.55-45-3-6.95,10.55-8.81,22.57-9,36.84,13.28-9.13,26.61-12.19,41.06-11.62,32.58,1.3,56.42,24.26,58.51,56.86,2.39,37.2-14.61,64.43-45.9,73.5C389,457.88,352.28,438,341.37,395c-8.67-34.11-8.14-68.53,4.17-101.84,14.39-38.95,54.11-56.71,93.25-42.69C459.59,258,473.21,276.7,471.6,297.1ZM378.14,380c-.09,19.19,8.69,32.41,23.68,35.65,17.16,3.71,30.48-5,34.62-22.72,5.21-22.29-3.09-40.57-20.27-44.59a28,28,0,0,0-3.54-.56C391.22,345.59,378.25,357.71,378.14,380Z" style="fill: #fdc709"/>
        <path d="M781.36,602.06c-11.07,0-20.9,0-30.73,0-6.21,0-5.11-4.72-5.12-8.39q-.1-44.11,0-88.21c0-12.25,0-24.5,0-38,10.75,0,20.63-.66,30.3.45,2.45.28,4.26,6.2,6.37,9.55,33.33-20.14,43.5-19.73,73,3.86,11.73-13.6,26.63-19.8,44.68-17.43,22,2.89,36.31,17.42,36.87,39.63.77,30.58.34,61.2.05,91.8,0,2.27-3,6.36-4.74,6.47-9.81.64-19.67.31-30.4.31-.2-4-.49-7.23-.5-10.43,0-24.6,0-49.2-.05-73.8-.06-14.41-5.93-21.74-17.73-22.6-13-.95-23.17,6.38-23.9,20.1-1.25,23.64-.79,47.36-1.06,71-.21,18,2,15.59-15.89,15.71-19.33.13-19.33,0-19.33-19.42,0-21.31.09-42.61,0-63.91-.09-15.62-6.21-23.17-18.66-23.56-13.52-.41-22.67,8.35-22.93,23.25-.4,24-.14,48-.15,72C781.35,594,781.36,597.51,781.36,602.06Z" style="fill: #fdc709"/>
        <path d="M675.79,428.74c-2.44,1.09-5.24,1.73-7.27,3.33-23.27,18.32-62.65,21.79-88.67,7.65-19-10.33-30.85-31.31-27.59-50.35,10.8,0,21.84-.22,32.85.24,1.72.07,4.1,3,4.83,5,5.82,16.46,14.74,22.69,31.65,21.59,15.69-1,25.25-10,28.18-26.54,5.19-29.16-14.95-50-40.84-42.17-2.27.68-5.12,1.26-6.49,2.9-13,15.46-29.24,5.76-45.49,7.63,1.75-14.28,3.3-27,4.85-39.68,2.36-19.35,4.87-38.69,7-58.08.62-5.75,2.38-8.27,8.74-8.21,32.42.3,64.84.24,97.26,0,5.66,0,8.36,1.44,8,7.56a125.74,125.74,0,0,0,0,18c.5,6.55-2.42,8.16-8.44,8.1-22.51-.24-45,.18-67.54-.25-7-.13-9.56,2.52-10.1,9.08-.73,8.89-2.06,17.74-2.88,24.61,13.69-1.52,27.23-5.12,40.42-4.07,37.3,2.95,60.3,31.94,57.06,69.28-1.25,14.36-5.13,27.66-14.25,39.16-1,1.3-.91,3.5-1.32,5.28Z" style="fill: #fdc709"/>
        <path d="M375,655.64H339.89V468H373c.44,4.24.91,8.77,1.52,14.63,2.12-2,3.37-3.11,4.5-4.31,20.31-21.54,53.43-20.84,73.14,1.56,24.61,28,23.47,84.83-2.24,111.75a48.65,48.65,0,0,1-70.05.68c-1.15-1.16-1.38-3.24-2-4.89l-2.83,2Zm-1.19-121.57c1.34,7.45,1.93,14.7,4,21.48,4,12.75,13.37,19.37,26.07,19.53,12.4.15,21.58-5.89,26.08-18.22a63.35,63.35,0,0,0-.6-45.77c-4.47-11.55-13.71-17.25-26-17.08-11.85.16-20.69,5.86-24.68,17.43C376.24,518.7,375.39,526.53,373.81,534.07Z" style="fill: #fdf9f8"/>
        <path d="M271.45,467.74h35.23V601.42H272.41c-.24-3.77-.5-7.77-.84-13-2.77,2.29-4.74,3.86-6.65,5.5-15,12.85-41.11,15.79-58.47,6.51-12.67-6.78-18.56-18.31-18.83-31.77-.66-33.25-.22-66.52-.22-100.49h35.81v9.37c0,24-.14,48,0,72,.14,17.81,5.4,24.79,18.5,25.54,16.41.94,28.1-7.67,28.87-23.9,1.18-24.54.63-49.17.81-73.76C271.47,474.19,271.45,471,271.45,467.74Z" style="fill: #fdf9f8"/>
        <path d="M675.67,428.86c12.68-9.51,27.2-11.21,42.5-10.55,6.54.28,10.46,1.84,9.32,9.29a37.26,37.26,0,0,0,0,5.39c0,13.6,0,13.8-13.68,15.42-8.19,1-9,6.3-9.11,12.83-.13,7.46,5.17,5.6,9.36,6.09s11.92.7,12.2,2.15c1.31,6.9.93,14.21.26,21.29-.09,1-5,2.15-7.78,2.22-14.63.35-13.75-2.06-13.77,14.32,0,28.48-.25,57,.15,85.44.11,7.63-2.44,10-9.78,9.5-8-.53-16.11-.12-25.17-.12-.29-4.11-.75-7.54-.75-11-.06-29.37-.3-58.76.14-88.13.11-8-2.4-11.11-10.25-9.94-6.87,1-10.19-1.63-9.17-8.92a27,27,0,0,0,0-7.18c-1-7.21,1.54-10.91,9.28-9.69,8,1.26,9.77-2.32,10.31-10,.67-9.61,3.94-19,6.08-28.53Z" style="fill: #fdc709"/>
        <path d="M93.1,467.5h17V431h35.73v35.8l20.59,1.05v24.92h-20.2v36.52c0,11.11,0,22.22,0,33.32,0,11.58,1.06,12.66,12.77,13.34l7.54.42v26.72c-13.89.11-27.74,2.63-41.44-2.37-8.33-3-12.45-9.64-13.26-17.78-1.14-11.61-1.46-23.33-1.62-35-.25-18-.07-35.94-.07-54.6l-17.07-.9Z" style="fill: #fdf9f8"/>
        <path d="M530.45,601.69h-35V468.17h35Z" style="fill: #fdf9f8"/>
        <path d="M513.74,392.65A26.15,26.15,0,1,1,488,419,25.63,25.63,0,0,1,513.74,392.65Z" style="fill: #fdf9f8"/>
        <path d="M627.2,577.7a26.21,26.21,0,1,1-25.92-26.51A26.12,26.12,0,0,1,627.2,577.7Z" style="fill: #fdf9f8"/>
        <path d="M279.61,314.29c-1.68,22.63-14.76,36-35.05,32.66-7.23-1.2-15.31-6-20-11.68-9.2-11-7.85-34.23.61-46,11.13-15.42,36.69-14.48,46.78,2.45C275.9,298.42,277.13,306.73,279.61,314.29Z" style="fill: #d61a21"/>
        <path d="M378.14,380c.11-22.28,13.08-34.4,34.49-32.22a28,28,0,0,1,3.54.56c17.18,4,25.48,22.3,20.27,44.59-4.14,17.69-17.46,26.43-34.62,22.72C386.83,412.4,378.05,399.18,378.14,380Z" style="fill: #d61a21"/>
        <path d="M373.81,534.07c1.58-7.54,2.43-15.37,4.93-22.63,4-11.57,12.83-17.27,24.68-17.43,12.26-.17,21.5,5.53,26,17.08a63.35,63.35,0,0,1,.6,45.77c-4.5,12.33-13.68,18.37-26.08,18.22-12.7-.16-22.12-6.78-26.07-19.53C375.74,548.77,375.15,541.52,373.81,534.07Z" style="fill: #d61a21"/>
      </g>
    </g>
  </g>
</svg>
