<svg xmlns="http://www.w3.org/2000/svg" viewBox="0 0 975.52 1048.68">
  <g id="Camada_2" data-name="Camada 2">
    <g id="Camada_1-2" data-name="Camada 1">
      <g>
        <path d="M0,1048.68V0H975.52V1048.68Zm602.65-87.74-1.56-1.87c-8-15.59-8.73-31.23,2-45.64,10.87-14.64,25.2-13.7,41.39-9.13,5.45,1.54,13.16-4.9,19.84-7.7q-1-5.77-2-11.54l.08.17c-6.54-5.29-12.3-13.26-19.74-15.43-40-11.62-78.66,16.3-80.7,57.94-1.37,27.81,4.65,53,31.47,68.16,16.7,12.94,35.73,9.46,53.91,6.09,14.69-2.72,22.18-17.9,16.55-28.72-2.47-8.4-8.88-11.08-16-7.9-14.22,6.38-28,5.44-42.2.72l-.12-.15c-.76-1.4-1.52-2.81-2.29-4.21ZM176.8,998.33l-.19.15c1.06,1.08,2.13,2.15,3.2,3.23,21.7-2.06,23.51-5.11,23-40,5.61-.93,11.54-3.19,17.17-2.6,26.17,2.73,50.6-22.83,44.86-54.25-3.41-17.55-15.65-30.54-34-32.88-13.47-1.71-27.31-1.23-40.95-.64-12.13.53-19.24,8.3-19.34,20.43q-.37,46.69.12,93.38c0,3.49,2.64,7,4,10.43l0-.14Zm638.75-98.79.23.2-13-13.85-.28-.21c-6-3.85-11.62-10.34-17.95-11.08-18.76-2.19-37.77-2.45-56.69-2.6-3,0-6.07,4.44-9.1,6.83-1.1,4.63-3.12,9.24-3.17,13.88q-.45,41.63,0,83.25c0,4.62,2,9.23,3.1,13.84,1.78,2.06,3.56,4.13,5.35,6.19l.61-.11-.62,0,3.12,3.41c30.81,5.7,60.05,4.54,84.65-18.54,1.87-1.76,5.43-1.73,8.21-2.53-3,6.86-5.62,13.61,4,17.57v-.17l5.38,5.73c4.27-1.52,9.89-1.81,12.58-4.77,17.24-19,17-19.22,43.49-19.29,3.63,0,7.31.34,10.89-.09,10.52-1.26,18.9.47,23,12.07,1.37,3.84,5.14,8.16,8.82,9.5a24,24,0,0,0,15.31.11c2.78-1,4.61-6.49,5.5-10.29.79-3.36.72-7.65-.73-10.7-15-31.64-30.43-63.12-45.73-94.64l-7.26-6.83-.61-.35c-11.75-9.95-24.45-8.23-31.72,6-9.63,18.79-17.64,38.4-26.56,57.56-2.61,5.59-6,10.83-9,16.23-.68-2.94-2.51-6.19-1.83-8.77,3.63-13.87,1.5-26.88-4.49-39.56ZM849,576.79l.12-.26q8.31-21.88,16.64-43.79a2,2,0,0,0,.19-2.1c0-.93-.07-1.85-.11-2.78a5.92,5.92,0,0,0,.29-1.92c1.86-3.36,4.54-6.51,5.45-10.12C882,475,886.86,433.64,882.72,391.5c-.78-10.06-1.17-20.17-2.41-30.18-9.87-79.51-45-147.63-97.38-206.69C750.25,117.74,711,88.34,666.4,66,630,47.7,591.8,35.94,552.27,28.8c-48.16-8.69-96.89-6.74-144.31,4.44C277.08,64.09,183.77,141.79,130.29,265.12c-37.51,86.51-41.06,176.14-13.37,266.1C146,625.63,203.73,699,287.78,750.61c23.88,14.65,51,24,76.66,35.79,66.21,24.81,134.43,28.78,203,14.72C683.5,777.31,772.23,714,831.54,610.59Q837.78,599,844,587.46,846.5,582.12,849,576.79Zm-172.69,304c-.44.67-1.26,1.34-1.27,2q-.3,50.79-.41,101.59c0,1,1.17,2,1.8,3l9.62,14.68c19.34-3.34,21.84-5.92,21.86-24.36,0-28.32,0-56.65-.39-85-.19-14.29-4.38-18.53-19-21.22ZM488.61,995.45l4.95,3.86c14.78.84,29.6,2.71,44.32,2.05,6.65-.3,13.07-5.64,19.6-8.7,4-15.14-.13-21.18-15.2-21.72-7.24-.26-14.5.13-21.74.23-11.5-3.3-6.06-11.69-6.63-18.12,9.74-1.43,18.41-2.56,27-4,13.83-2.34,15.79-5.51,12.7-19.73-3.38-2.8-6.37-7.18-10.2-8.09-9.43-2.27-19.25-2.94-29.34-4.31V903h13.73c4.45,0,9,.55,13.31-.21,8.54-1.5,16.65-4.67,17.78-14.72,1-8.89-6.5-16.18-17-16.61-13.71-.55-27.47-.59-41.19-.18-10.27.3-16.68,5.49-16.69,16.61,0,31.51-.19,63,.18,94.53.05,4.4,2.84,8.76,4.37,13.14Zm-37.24-46.71c3-2.11,5.35-3.06,6.73-4.77,6.53-8.14,16.58-15.7,18.46-24.88,5.3-26-12.18-46-38.77-47.64-10.5-.63-21.05-.43-31.58-.3-13.43.15-20.26,5.28-20.57,18.46q-1.15,48-.16,96c.27,13.56,5.95,16.51,19.47,14.87,11.41-1.38,11.26-10.29,12.33-17.77s.23-15.32.23-26.2c12.92,15.6,22.88,28.34,33.64,40.37,8.07,9,14.85,8.62,23.33,0,8-8.19,4.87-16.69-.81-24C467.31,964.72,459.65,957.58,451.37,948.74ZM70.45,977.26c10.9,0,23.12.88,35.16-.23,14.3-1.33,24.83,1,30.23,16.51,1.46,4.2,9.53,9,14,8.51,5.06-.59,11.45-6,13.6-10.86s1.61-12.67-.56-18C156.66,957.78,149.06,943,142,928c-6.9-14.65-13.31-29.56-20.89-43.85-9.22-17.39-23.63-19.1-37.28-4.91a46.86,46.86,0,0,0-8,12Q58.35,927.32,41.31,963.6C38,970.54,34,977.43,32.53,984.79c-.84,4.27,1.42,11.12,4.72,13.71s11.46,3.45,14.19,1.15C58.39,993.82,63.49,985.79,70.45,977.26Zm310.71,9.91-2.76-2.71c-.62-3.87-.41-8.12-2-11.54-13.25-28.86-26.85-57.55-40.3-86.32-4.15-8.88-9.78-16.38-20.44-16.56-11.13-.19-17.31,7.27-21.77,16.56-8.24,17.12-16.64,34.16-24.85,51.29-6.64,13.85-13.54,27.6-19.46,41.76-3.32,8-2.87,16.32,6.07,21.05,8.36,4.43,16.89,1.33,19.34-6.43,5.62-17.83,18.39-18.21,33-17.08a91.26,91.26,0,0,0,18.18-.08c11.85-1.48,19.95,1.57,24.17,14,2,5.89,6,14.29,14.76,9.88C371.22,997.91,375.86,991.88,381.16,987.17Z" style="fill: transparent"/>
        <path d="M364.44,786.4c-25.65-11.79-52.78-21.14-76.66-35.79-84-51.58-141.8-125-170.86-219.39-27.69-90-24.14-179.59,13.37-266.1C183.77,141.79,277.08,64.09,408,33.24c47.42-11.18,96.15-13.13,144.31-4.44C591.8,35.94,630,47.7,666.4,66c44.58,22.39,83.85,51.79,116.53,88.68,52.33,59.06,87.51,127.18,97.38,206.69,1.24,10,1.63,20.12,2.41,30.18-8.57-26.28-16.44-52.82-25.87-78.79-17.32-47.7-41.49-91.38-74.5-130.49-31.76-37.62-70.36-66.1-112.52-90A245.49,245.49,0,0,0,613,69c-28.63-7.69-58.37-11.14-87.2-18.21-25-6.13-50-4.33-74.47-1.24-50.64,6.39-98.82,21-143.31,47.82a383.38,383.38,0,0,0-106.77,94.84c-2.2,2.83-3,6.77-5.19,12.09,10.4-1.18,18.34-1.65,26.11-3q63.24-11.16,126.41-22.73c12.45-2.28,24.8-5.05,37.43-7.64-7.21,15.57-14.93,31.92-22.38,48.39-30.16,66.66-60.1,133.42-90.38,200q-40.4,88.83-81.41,177.38c-3.35,7.24-1.86,11.48,5.23,14.29,7.69,9.64,14.79,19.84,23.22,28.79,10,10.62,15.07,9,20.34-5Q283,521.56,325.27,408.39C360.52,314,396.67,220,430.56,125.18c14.45-40.45,62.21-54.81,92.82-33.7-4.69-.51-9.6-.33-14.05-1.66-27.4-8.2-56.76,3.28-68.5,29.12-6.57,14.47-9.8,30.45-14.6,45.73-6.54,20.79-13.32,41.5-19.7,62.33-20.78,67.92-41.33,135.91-62.16,203.81-14.3,46.58-28.93,93.06-43.38,139.6-10.41,33.51-20.49,67.14-31.36,100.5C267,678.83,268,684,275.05,688.15c21.31,22.28,48.58,34.83,76.39,46.26,10.27,4.22,13.47-2.89,14.88-11.6q10.11-62.28,20.41-124.53,20-121.6,40.12-243.2l3.51-14.58-.15,0q1.31-7.28,2.62-14.55l-.13,0,2.52-14.6-.14,0,2.58-14.56-.14,0c3.35-10.89,7.67-21.59,9.88-32.7,5.07-25.59,9.12-51.38,13.68-77.07,0-.21,1.38-.18,3.28-.4a94.43,94.43,0,0,1,0,9.53c-1.44,14-3.1,28-4.58,42-1.95,18.42-3.75,36.85-5.7,55.26q-4.4,41.42-8.91,82.82c-2.85,26.42-5.49,52.86-8.68,79.23-3.32,27.53-7.41,55-10.72,82.49-1.9,15.73-2.44,31.62-4.47,47.32-3,23-7.37,45.83-10,68.87-3,26.72-4.88,53.58-6.75,80.41-.23,3.21,2.68,6.65,4.14,10l.15.3,1.39,2.21c7,3.77,13.69,9.65,21.15,11a351,351,0,0,0,123.3.29c19.07-3.39,23-10.6,20.73-30q-10.57-91.77-20.93-183.57-15.83-139.42-31.61-278.85c-3.37-29.71-6.56-59.44-10.26-89.1-1.78-14.3-4.55-28.48-6.87-42.72-2.28-3.17-3.87-7.57-6.95-9.32-13.45-7.62-21.9,1.9-30.37,12.75-.93-4.24-1.27-5.77-1.61-7.31,5-14.55,17.59-15.06,29.34-14.3,10.11.66,19.17,5.42,22.21,16.78-.05,2.83-.56,5.74-.09,8.49C525,180.7,532,220.33,538.62,260c5.55,33.18,10.46,66.46,16.19,99.6,3.28,18.92,7.65,37.65,11.52,56.47l.45,2.51c.53,6.81.59,13.69,1.67,20.41,6.62,41.3,13.28,82.6,20.32,123.82,3.43,20.11,7.73,40.06,11.63,60.08.15.84.3,1.69.44,2.53q1,6,2,12.06c.15.84.29,1.69.43,2.53,4.25,30,8.46,59.9,12.88,89.82.16,1.07,2.32,1.85,3.54,2.76,5.69.13,12.3,2.22,16.91,0,19.74-9.31,39.28-19.2,58.14-30.16,16.83-9.78,18.34-15.7,12.62-34.18q-35.49-114.7-71-229.39c-14.48-47-28.66-94-43-141.07l-2-6q-3.86-12.74-7.73-25.47l.24-8.39c4.88,13.81,11.29,27.3,14.28,41.52,4.58,21.73,17.82,37.67,31.37,53.72,1.9,2.25,5.33,3.21,8.06,4.77,4.43,9.63,9.44,19,13.19,28.93Q698.87,513.36,746.35,640c3.62,9.68,8.49,8.92,14,3.68,7.3-6.94,13.78-14.8,20.17-22.62,7.29-8.92,8.35-18.26,2.94-29.19-10.41-21-19.75-42.61-29.48-64q-67.62-148.48-135.2-297c-7.63-16.78-15-33.68-22.44-50.53,1.9.34,5.16.18,5.51,1.11,4.66,12.46,15.2,12.21,25.87,13.37,11.63,1.27,23.14,4,34.58,6.7,13.09,3,26,7,39.08,10,12.85,3,26.11,4.47,38.71,8.22,17.5,5.21,34.6,11.8,51.79,18a52.47,52.47,0,0,1,12.86,6.37c21.23,15.39,30,39,36.41,62.4,7.37,27,10.8,55.05,15.19,82.77,6.75,42.67.15,84.39-11.69,125.28-14.53,50.21-38.27,95.62-72.31,135.76-34.53,40.73-75.55,72.73-123.64,95.48-33.28,15.73-68,28.89-104.84,31.32a696.18,696.18,0,0,1-103.54-.55c-24.58-2.07-48.58-10.78-72.91-16.21-12.46-2.77-25.06-4.85-37.6-7.24l-2,4.74c2.47,2.73,4.49,6.16,7.49,8,5.41,3.41,11.76,5.37,17,9C356.89,778,360.45,782.54,364.44,786.4ZM108.24,445.92c-3.18,64.85,37.25,160.31,73.31,196.78C145.44,581.42,116.6,517.45,108.24,445.92Z" style="fill: #fac233"/>
        <path d="M197.07,610.94c-7.09-2.81-8.58-7.05-5.23-14.29q41-88.56,81.41-177.38c30.28-66.6,60.22-133.36,90.38-200,7.45-16.47,15.17-32.82,22.38-48.39-12.63,2.59-25,5.36-37.43,7.64Q285.42,190,222.17,201.23c-7.77,1.37-15.71,1.84-26.11,3,2.22-5.32,3-9.26,5.19-12.09A383.38,383.38,0,0,1,308,97.32c44.49-26.77,92.67-41.43,143.31-47.82,24.44-3.09,49.5-4.89,74.47,1.24C554.63,57.81,584.37,61.26,613,69a245.49,245.49,0,0,1,56.83,23.26c42.16,23.91,80.76,52.39,112.52,90,33,39.11,57.18,82.79,74.5,130.49,9.43,26,17.3,52.51,25.87,78.79,4.14,42.14-.75,83.5-11.14,124.32-.91,3.61-3.59,6.76-5.45,10.12V508.58a11.17,11.17,0,0,0-5.32,5.71c-12,26.35-23.77,52.81-36,79-4.09,8.74.81,13,6.76,17.26C772.23,714,683.5,777.31,567.39,801.12c-68.52,14.06-136.74,10.09-202.95-14.72-4-3.86-7.55-8.36-12.08-11.43-5.27-3.58-11.62-5.54-17-9-3-1.89-5-5.32-7.49-8l2-4.74c12.54,2.39,25.14,4.47,37.6,7.24,24.33,5.43,48.33,14.14,72.91,16.21a696.18,696.18,0,0,0,103.54.55c36.89-2.43,71.56-15.59,104.84-31.32,48.09-22.75,89.11-54.75,123.64-95.48,34-40.14,57.78-85.55,72.31-135.76,11.84-40.89,18.44-82.61,11.69-125.28-4.39-27.72-7.82-55.81-15.19-82.77-6.39-23.41-15.18-47-36.41-62.4a52.47,52.47,0,0,0-12.86-6.37c-17.19-6.24-34.29-12.83-51.79-18-12.6-3.75-25.86-5.23-38.71-8.22-13.1-3-26-7-39.08-10-11.44-2.66-22.95-5.43-34.58-6.7-10.67-1.16-21.21-.91-25.87-13.37-.35-.93-3.61-.77-5.52-1.11-11.49-24-22.56-48.17-34.57-71.89-14-27.62-37.42-41.76-67.95-42.67-31.38-.94-56.95,13.55-70.16,40.82-38.07,78.56-73.74,158.3-110,237.72Q257.52,467.07,202.15,590.1C199.26,596.51,198.71,604,197.07,610.94Z" style="fill: #e9b12f"/>
        <path d="M451.37,948.74c8.28,8.84,15.94,16,22.3,24.13,5.68,7.28,8.84,15.78.81,24-8.48,8.65-15.26,9-23.33,0-10.76-12-20.72-24.77-33.64-40.37,0,10.88.84,18.67-.23,26.2s-.92,16.39-12.33,17.77c-13.52,1.64-19.2-1.31-19.47-14.87q-.94-48,.16-96c.31-13.18,7.14-18.31,20.57-18.46,10.53-.13,21.08-.33,31.58.3,26.59,1.61,44.07,21.67,38.77,47.64-1.88,9.18-11.93,16.74-18.46,24.88C456.72,945.68,454.41,946.63,451.37,948.74Zm-35-22.17c.54,2.23.34,5.56,1.75,6.52,10.06,6.83,29.73-1.47,31.35-13.44.38-2.85-2.84-6.2-4.4-9.32-8.08-9.15-18.07-8.55-28.7-6.27Z" style="fill: #e9b12f"/>
        <path d="M70.45,977.26c-7,8.53-12.06,16.56-19,22.39-2.73,2.3-10.93,1.41-14.19-1.15s-5.56-9.44-4.72-13.71c1.46-7.36,5.5-14.25,8.78-21.19q17.11-36.26,34.53-72.36a46.86,46.86,0,0,1,8-12c13.65-14.19,28.06-12.48,37.28,4.91,7.58,14.29,14,29.2,20.89,43.85,7.08,15,14.68,29.82,20.88,45.19,2.17,5.37,2.78,13,.56,18s-8.54,10.27-13.6,10.86c-4.45.51-12.52-4.31-14-8.51-5.4-15.49-15.93-17.84-30.23-16.51C93.57,978.14,81.35,977.26,70.45,977.26Zm33.87-54.88-2.25-4.94c-2.74.91-6.93,1-8,2.87-4.25,7.53-7.54,15.6-11.19,23.47,2.21,2.53,4,6.48,6.7,7.25,4.52,1.29,9.62.65,14.48.62,4.5,0,9-.31,13.5-.48l-6.45-14,.16.12-4.74-10,.09.08-2.36-5Z" style="fill: #e9b12f"/>
        <path d="M381.16,987.17c-5.3,4.71-9.94,10.74-16.06,13.81-8.78,4.41-12.75-4-14.76-9.88-4.22-12.42-12.32-15.47-24.17-14a91.26,91.26,0,0,1-18.18.08c-14.59-1.13-27.36-.75-33,17.08-2.45,7.76-11,10.86-19.34,6.43-8.94-4.73-9.39-13.1-6.07-21.05,5.92-14.16,12.82-27.91,19.46-41.76,8.21-17.13,16.61-34.17,24.85-51.29,4.46-9.29,10.64-16.75,21.77-16.56,10.66.18,16.29,7.68,20.44,16.56,13.45,28.77,27.05,57.46,40.3,86.32,1.57,3.42,1.36,7.67,2,11.54Zm-55.61-52.6.11.06q-3.84-8.43-7.7-16.87L313,912,298.9,944.13h29.62c.32.2.63.53,1,.56s.64-.28,1-.43Zm-23.68,15.57-.06.74,27.55,1.33c0-.69.05-1.38.08-2.07Z" style="fill: #e9b12f"/>
        <path d="M821.11,907.46c6,12.68,8.12,25.69,4.49,39.56-.68,2.58,1.15,5.83,1.83,8.77.51,8.46,3.63,17.77-7.41,22.41-2.78.8-6.34.77-8.21,2.53-24.6,23.08-53.84,24.24-84.65,18.54L724,995.86l.62,0-.6.1c-.5-6-1.4-11.94-1.43-17.91-.16-27.51-.1-55-.06-82.54,0-14.14,2.73-16.83,17-17.12,21.33-.44,42.71-1.26,63,7.27l.28.21,13,13.85-.23-.2Q818.33,903.52,821.11,907.46Zm-41.53,55.61c1.87-2.63,4.15-5.05,5.54-7.91,7.07-14.59,9-30.08-.74-43.49-8.28-11.41-21.8-9-34.73-8.23v64.47c.36,2.34-.09,6.05,1.2,6.8,8.83,5.17,29.53-.33,36.75-9.89Z" style="fill: #e9b12f"/>
        <path d="M902.58,883.23c15.3,31.52,30.69,63,45.73,94.64,1.45,3,1.52,7.34.73,10.7-.89,3.8-2.72,9.27-5.5,10.29a24,24,0,0,1-15.31-.11c-3.68-1.34-7.45-5.66-8.82-9.5-4.14-11.6-12.52-13.33-23-12.07-3.58.43-7.26.08-10.89.09-26.46.07-26.25.26-43.49,19.29-2.69,3-8.31,3.25-12.57,4.78L824,995.6a.78.78,0,0,0,0,.16c1.13-5.07,1.41-10.53,3.5-15.16,12.9-28.48,26.56-56.61,39.21-85.19,5.61-12.66,13.16-20.79,28-19.36l.6.35Q899,879.81,902.58,883.23Zm0,60.82c-3-5,2.69-15.68-9.61-14.45-2.52-4.71-5.05-9.41-8.3-15.46L870.38,945l27.27-1.33,4.88.37c-3,1.63-6,4.32-9.14,4.68-6.54.73-13.22.22-19.84.22l-.09,3.15L908.64,954l1.19-3.75Z" style="fill: #e9b12f"/>
        <path d="M663.88,973.27c5.63,10.82-1.86,26-16.55,28.72-18.18,3.37-37.21,6.85-53.91-6.09-1.85-2.56-3.28-5.63-5.63-7.61-25.09-21.07-25.14-56.13-12.3-82.32,14.66-29.93,52.51-40.6,86.9-20.74l-.08-.17q1,5.78,2,11.54c-6.68,2.8-14.39,9.24-19.84,7.7-16.19-4.57-30.52-5.51-41.39,9.13-10.69,14.41-10,30.05-2,45.64.52.62,1,1.25,1.57,1.87l.67.79c.76,1.4,1.53,2.8,2.29,4.21l.12.15c6,11.24,18.61,14.86,34.47,10.84C647.91,975,656,974.44,663.88,973.27Z" style="fill: #e9b12f"/>
        <path d="M264.83,904.84c5.74,31.42-18.69,57-44.86,54.25-5.63-.59-11.56,1.67-17.17,2.6.52,34.91-1.29,38-23,40-1.06-1.08-2.13-2.15-3.2-3.23l.2-.16-2.11-2.9,0,.13q.22-35.1.43-70.19c.07-14.39,12.88-27.2,27.39-27.65,6-.19,11.95-1,17.89-1.72,9.23-1.14,10,2.57,5.63,9.44L202.76,902v27.07c1.11,2.5,2.05,7.06,3.38,7.18,9.12.81,19.45,2.94,25.13-7,7.22-12.61,19.56-23.25,15.69-40.57l3.23-1.56Z" style="fill: #e9b12f"/>
        <path d="M488.55,995.53c-1.53-4.38-4.32-8.74-4.37-13.14-.37-31.51-.19-63-.18-94.53,0-11.12,6.42-16.31,16.69-16.61,13.72-.41,27.48-.37,41.19.18,10.53.43,18,7.72,17,16.61-1.13,10.05-9.24,13.22-17.78,14.72-4.31.76-8.86.19-13.31.21H514.09V916.9c10.09,1.37,19.91,2,29.34,4.31,3.83.91,6.82,5.29,10.2,8.09-2,.23-4.88-.31-5.86.8-7.44,8.43-15.35,9-25.74,5-3.89-1.49-13.5,2.18-14.94,5.75C499.89,958.68,494.55,977.23,488.55,995.53Z" style="fill: #fac233"/>
        <path d="M264.83,904.84l-14.64-17.72L247,888.68c3.87,17.32-8.47,28-15.69,40.57-5.68,9.92-16,7.79-25.13,7-1.33-.12-2.27-4.68-3.39-7.19,9.3,5.1,19.07,3.88,24.52-4.11,2.9-4.25-.59-12.85-1.19-19.5,4.37-6.87,3.6-10.58-5.63-9.44-5.94.73-11.91,1.53-17.89,1.72-14.51.45-27.32,13.26-27.39,27.65q-.16,35.1-.43,70.19c-1.42-3.47-4-6.93-4.06-10.42q-.5-46.7-.12-93.38c.1-12.13,7.21-19.9,19.34-20.43,13.64-.59,27.48-1.07,40.95.64C249.18,874.3,261.42,887.29,264.83,904.84Z" style="fill: #fac233"/>
        <path d="M688.54,871.52c14.6,2.69,18.79,6.93,19,21.22.38,28.33.42,56.66.39,85,0,18.44-2.52,21-21.86,24.36-1.61-4.93-4.94-10-4.55-14.76C684.67,948.76,673,909.29,688.54,871.52Z" style="fill: #e9b12f"/>
        <path d="M488.55,995.53c6-18.3,11.34-36.85,18.54-54.66,1.44-3.57,11.05-7.24,14.94-5.75,10.39,4,18.3,3.41,25.74-5,1-1.11,3.86-.57,5.86-.8,3.09,14.22,1.13,17.39-12.7,19.73-8.61,1.46-17.28,2.59-27,4,.57,6.43-4.87,14.82,6.63,18.12l-4.92,3.69c9.72,1.13,18.85,2.94,28,3.07,10.41.16,14.9,4.49,13.86,14.73-6.53,3.06-13,8.4-19.6,8.7-14.72.66-29.54-1.21-44.32-2.05l-4.95-3.86Z" style="fill: #e9b12f"/>
        <path d="M662.39,885.23C628,865.37,590.15,876,575.49,906c-12.84,26.19-12.79,61.25,12.3,82.32,2.35,2,3.78,5.05,5.63,7.61-26.82-15.17-32.84-40.35-31.47-68.16,2-41.64,40.72-69.56,80.7-57.94C650.09,872,655.85,879.94,662.39,885.23Z" style="fill: #fac233"/>
        <path d="M894.71,876.05c-14.79-1.43-22.34,6.7-28,19.36-12.65,28.58-26.31,56.71-39.21,85.19-2.09,4.63-2.37,10.09-3.5,15.16-9.65-4-7.06-10.7-4-17.56,11-4.64,7.92-14,7.41-22.41,3-5.4,6.39-10.64,9-16.23C845.35,920.4,853.36,900.79,863,882,870.26,867.82,883,866.1,894.71,876.05Z" style="fill: #fac233"/>
        <path d="M831.54,610.59c-5.95-4.3-10.85-8.52-6.76-17.26,12.26-26.23,24-52.69,36-79a11.17,11.17,0,0,1,5.32-5.71v17.36a5.92,5.92,0,0,1-.29,1.92c0,.93.07,1.86.11,2.78a2,2,0,0,1-.19,2.1q-8.32,21.9-16.64,43.79l-.12.26q-2.49,5.33-5,10.67Q837.78,599,831.54,610.59Z" style="fill: #fac233"/>
        <path d="M802.53,885.68c-20.29-8.53-41.67-7.71-63-7.27-14.23.29-16.94,3-17,17.12,0,27.51-.1,55,.06,82.54,0,6,.93,11.94,1.43,17.91-1.8-2.05-3.58-4.12-5.36-6.18.46-6.36,1.37-12.72,1.31-19.08-.26-30.63-.79-61.26-1.22-91.89,3-2.39,6.08-6.85,9.1-6.83,18.92.15,37.93.41,56.69,2.6C790.91,875.34,796.57,881.83,802.53,885.68Z" style="fill: #fac233"/>
        <path d="M688.54,871.52c-15.5,37.77-3.87,77.24-7,115.8-.39,4.76,2.94,9.83,4.55,14.76l-9.62-14.68-.12-106.61Z" style="fill: #fac233"/>
        <path d="M718.79,878.83c.43,30.63,1,61.26,1.22,91.89.06,6.36-.85,12.72-1.31,19.08-1.08-4.61-3.05-9.22-3.1-13.84q-.44-41.62,0-83.25C715.67,888.07,717.69,883.46,718.79,878.83Z" style="fill: #e9b12f"/>
        <path d="M663.88,973.27c-7.91,1.17-16,1.71-23.68,3.66-15.86,4-28.44.4-34.47-10.84,14.15,4.72,28,5.66,42.2-.72C655,962.19,661.41,964.87,663.88,973.27Z" style="fill: #fac233"/>
        <path d="M557.48,992.66c1-10.24-3.45-14.57-13.86-14.73-9.15-.13-18.28-1.94-28-3.07l4.92-3.69c7.24-.1,14.5-.49,21.74-.23C557.35,971.48,561.46,977.52,557.48,992.66Z" style="fill: #fac233"/>
        <path d="M676.31,880.79l.12,106.61c-.63-1-1.8-2-1.8-3q.07-50.8.41-101.59C675.05,882.13,675.87,881.46,676.31,880.79Z" style="fill: #e9b12f"/>
        <path d="M849.12,576.53q8.31-21.88,16.64-43.79Q857.44,554.64,849.12,576.53Z" style="fill: #e9b12f"/>
        <path d="M815.78,899.74l-13-13.85Z" style="fill: #fac233"/>
        <path d="M844,587.46q2.47-5.34,5-10.67Q846.51,582.12,844,587.46Z" style="fill: #e9b12f"/>
        <path d="M664.28,896.6q-1-5.76-2-11.54Q663.3,890.84,664.28,896.6Z" style="fill: #fac233"/>
        <path d="M821.11,907.46q-2.77-3.94-5.56-7.92Z" style="fill: #fac233"/>
        <path d="M902.58,883.23q-3.63-3.42-7.27-6.83Z" style="fill: #fac233"/>
        <path d="M824,995.6l5.39,5.74Z" style="fill: #fac233"/>
        <path d="M488.61,995.45l4.95,3.86Z" style="fill: #fac233"/>
        <path d="M724,995.86l3.12,3.41Z" style="fill: #fac233"/>
        <path d="M176.61,998.48c1.07,1.08,2.14,2.15,3.2,3.23C178.74,1000.63,177.67,999.56,176.61,998.48Z" style="fill: #fac233"/>
        <path d="M605.61,965.94c-.76-1.41-1.53-2.81-2.29-4.21C604.09,963.13,604.85,964.54,605.61,965.94Z" style="fill: #fac233"/>
        <path d="M866,530.64c0-.92-.07-1.85-.11-2.78C865.88,528.79,865.91,529.71,866,530.64Z" style="fill: #e9b12f"/>
        <path d="M602.65,960.94c-.53-.62-1-1.25-1.57-1.87Z" style="fill: #fac233"/>
        <path d="M174.7,995.42l2.11,2.9C176.1,997.36,175.4,996.39,174.7,995.42Z" style="fill: #fac233"/>
        <path d="M600.84,625.43c-.14-.84-.29-1.69-.44-2.53-4.77-32-9.14-64-14.41-95.85-6-36.22-12.77-72.31-19.21-108.46l-.45-2.51c-4.89-34.27-9.25-68.63-14.79-102.79-9-55.52-18.74-110.93-28.36-166.35-.85-4.93-3.18-9.61-4.82-14.4-3-11.36-12.1-16.12-22.21-16.78-11.75-.76-24.37-.25-29.34,14.3-2.36,4.65-6,9.07-6.84,14-3.79,23.23-6.69,46.61-10.09,69.91-4,27.59-8.23,55.15-12.36,82.72l.14,0-2.58,14.56.14,0-2.52,14.6.13,0q-1.31,7.27-2.62,14.55l.15,0-3.51,14.58q-20.06,121.6-40.12,243.2-10.25,62.25-20.41,124.53c-1.41,8.71-4.61,15.82-14.88,11.6-27.81-11.43-55.08-24-76.39-46.26.5-6.74-.27-13.88,1.67-20.18q82.81-268.86,166.4-537.48c4.88-15.65,15.42-28.3,32.33-33.56,24.9-7.75,56.32,8,64.59,32.75,9,26.82,17.42,53.81,26.09,80.72l2.75,8.36,2.58,8.46q3.88,12.83,7.78,25.64c.64,1.35,1.27,2.7,1.91,4l-.2.75,2.7,8.69,7.74,25.47c.65,2,1.31,4,2,6,14.31,47,28.49,94.09,43,141.07q35.37,114.73,71,229.39c5.72,18.48,4.21,24.4-12.62,34.18-18.86,11-38.4,20.85-58.14,30.16-4.61,2.17-11.22.08-16.91,0q-8.21-46.29-16.42-92.58c-.14-.84-.28-1.69-.43-2.53Q601.85,631.46,600.84,625.43Z" style="fill: #0479df"/>
        <path d="M505.74,133.94c2.32,14.24,5.09,28.42,6.87,42.72,3.7,29.66,6.89,59.39,10.26,89.1q15.81,139.42,31.61,278.85,10.42,91.78,20.93,183.57c2.23,19.37-1.66,26.58-20.73,30a351,351,0,0,1-123.3-.29c-7.46-1.32-14.12-7.2-21.15-11l-1.39-2.21-.15-.3c.25-5.25.22-10.52.8-15.73q8.17-73.74,16.52-147.46,14.3-127.31,28.56-254.61c6.64-59.83,13-119.7,19.48-179.54C476,129.53,489.66,123.9,505.74,133.94Z" style="fill: #0479df"/>
        <path d="M197.07,610.94c1.64-7,2.19-14.43,5.08-20.84q55.41-123,111.45-245.72c36.31-79.42,72-159.16,110-237.72,13.21-27.27,38.78-41.76,70.16-40.82,30.53.91,54,15,67.95,42.67,12,23.72,23.08,47.9,34.57,71.89,7.48,16.85,14.82,33.75,22.45,50.53q67.54,148.51,135.2,297c9.73,21.37,19.07,42.94,29.48,64,5.41,10.93,4.35,20.27-2.94,29.19-6.39,7.82-12.87,15.68-20.17,22.62-5.51,5.24-10.38,6-14-3.68Q699,513.28,650.79,386.89C647,377,642,367.59,637.6,358c-.81-4.62-.9-9.52-2.54-13.83-17.8-46.78-36.09-93.38-53.72-140.22-10-26.41-18.81-53.22-28.46-79.74-1.74-4.77-5-9-7.48-13.5l-2.15-1.53L543,109l-2.22-2.72-7.08-7.15-2.76-2.3-.08-.11-2.44-2.21-.12-.16-4.57-2.47-.31-.35c-30.6-21.11-78.36-6.75-92.81,33.7C396.67,220,360.52,314,325.27,408.39Q283,521.56,240.63,634.71c-5.27,14.07-10.32,15.64-20.34,5C211.86,630.78,204.76,620.58,197.07,610.94Z" style="fill: #0479df"/>
        <path d="M533.65,99.08l7.07,7.15L543,109l.29.18c0,1,.06,2,.1,3l2.06-1.43c2.53,4.49,5.74,8.73,7.48,13.5,9.65,26.52,18.51,53.33,28.46,79.74,17.63,46.84,35.92,93.44,53.72,140.22,1.64,4.31,1.73,9.21,2.54,13.83-2.73-1.55-6.16-2.51-8.06-4.76-13.55-16.05-26.79-32-31.37-53.72-3-14.22-9.4-27.71-14.28-41.52l-.08-.08q-6-19.5-12-39c-1-4.81-2.11-9.62-3.82-17.41l-1.86,9C557.46,183.49,549,156.5,540,129.68c-8.27-24.77-39.69-40.5-64.59-32.75-16.91,5.26-27.45,17.91-32.33,33.56Q359.33,399,276.72,668c-1.94,6.3-1.17,13.44-1.67,20.18-7-4.12-8-9.32-5.42-17.24,10.87-33.36,20.95-67,31.36-100.5,14.45-46.54,29.08-93,43.38-139.6,20.83-67.9,41.38-135.89,62.16-203.81,6.38-20.83,13.16-41.54,19.7-62.33,4.8-15.28,8-31.26,14.6-45.73,11.74-25.84,41.1-37.32,68.5-29.12,4.45,1.33,9.36,1.15,14.05,1.66,0,0,.3.35.29.34l4.58,2.48.12.16,2.44,2.21s.08.11.07.11Z" style="fill: #e9b12f"/>
        <path d="M505.74,133.94c-16.08-10-29.79-4.41-31.69,13.1-6.51,59.84-12.84,119.71-19.48,179.54Q440.46,453.9,426,581.19q-8.28,73.72-16.52,147.46c-.58,5.21-.55,10.48-.8,15.73-1.46-3.34-4.37-6.78-4.14-10,1.87-26.83,3.75-53.69,6.75-80.41,2.59-23,7-45.86,10-68.87,2-15.7,2.57-31.59,4.47-47.32,3.31-27.52,7.4-55,10.72-82.49,3.19-26.37,5.83-52.81,8.68-79.23q4.49-41.4,8.91-82.82c1.95-18.41,3.75-36.84,5.7-55.26,1.48-14,3.14-28,4.58-42a94.43,94.43,0,0,0,0-9.53c-1.9.22-3.25.19-3.28.4-4.56,25.69-8.61,51.48-13.68,77.07-2.21,11.11-6.53,21.81-9.88,32.7,4.13-27.57,8.33-55.13,12.36-82.72,3.4-23.3,6.3-46.68,10.09-69.91.8-4.9,4.48-9.32,6.84-14,.34,1.54.68,3.07,1.61,7.31,8.47-10.85,16.92-20.37,30.37-12.75C501.87,126.37,503.46,130.77,505.74,133.94Zm-40.53,37.92c.29-.67,1-1.5.76-2s-1.24-.63-1.92-.92c-.28.68-.95,1.5-.76,2S464.53,171.57,465.21,171.86Z" style="fill: #e9b12f"/>
        <path d="M108.24,445.92c8.36,71.53,37.2,135.5,73.31,196.78C145.49,606.23,105.06,510.77,108.24,445.92Z" style="fill: transparent"/>
        <path d="M518.36,132.54c1.64,4.79,4,9.47,4.82,14.4,9.62,55.42,19.35,110.83,28.36,166.35,5.54,34.16,9.9,68.52,14.79,102.79-3.87-18.82-8.24-37.55-11.52-56.47-5.73-33.14-10.64-66.42-16.19-99.6C532,220.33,525,180.7,518.27,141,517.8,138.28,518.31,135.37,518.36,132.54Z" style="fill: #e9b12f"/>
        <path d="M566.78,418.59C573.22,454.74,580,490.83,586,527.05c5.27,31.87,9.64,63.89,14.41,95.85-3.9-20-8.2-40-11.63-60.08-7-41.22-13.7-82.52-20.32-123.82C567.37,432.28,567.31,425.4,566.78,418.59Z" style="fill: #e9b12f"/>
        <path d="M603.27,640q8.22,46.29,16.42,92.58c-1.22-.91-3.38-1.69-3.54-2.76C611.73,699.92,607.52,670,603.27,640Z" style="fill: #e9b12f"/>
        <path d="M426.85,355.08l3.51-14.58Z" style="fill: #e9b12f"/>
        <path d="M430.21,340.47q1.31-7.28,2.62-14.55Q431.53,333.19,430.21,340.47Z" style="fill: #e9b12f"/>
        <path d="M432.7,325.9l2.52-14.6Z" style="fill: #e9b12f"/>
        <path d="M435.08,311.27l2.58-14.56Z" style="fill: #e9b12f"/>
        <path d="M600.84,625.43q1,6,2,12.06Q601.85,631.46,600.84,625.43Z" style="fill: #e9b12f"/>
        <path d="M583.65,266.34l-2.7-8.68,2.86.21.08.08Z" style="fill: #e9b12f"/>
        <path d="M593.36,297.85c-.66-2-1.32-4-2-6C592,293.82,592.7,295.84,593.36,297.85Z" style="fill: #e9b12f"/>
        <path d="M408.84,744.68l1.39,2.21Z" style="fill: #e9b12f"/>
        <path d="M416.33,926.57V904.06c10.63-2.28,20.62-2.88,28.7,6.27C442.5,926.48,431.63,932.63,416.33,926.57Z" style="fill: transparent"/>
        <path d="M416.33,926.57c15.3,6.06,26.17-.09,28.7-16.24,1.56,3.12,4.78,6.47,4.4,9.32-1.62,12-21.29,20.27-31.35,13.44C416.67,932.13,416.87,928.8,416.33,926.57Z" style="fill: #fac233"/>
        <path d="M82.9,943.78c3.65-7.87,6.94-15.94,11.19-23.47,1-1.86,5.24-2,8-2.87l2.25,4.94h0l2.36,5-.09-.08,4.74,10-.15-.12V947.8Z" style="fill: transparent"/>
        <path d="M82.9,943.78l28.24,4V937.16q3.21,7,6.44,14c-4.5.17-9,.46-13.5.48-4.86,0-10,.67-14.48-.62C86.9,950.26,85.11,946.31,82.9,943.78Z" style="fill: #fac233"/>
        <path d="M111.29,937.28l-4.74-10Z" style="fill: #fac233"/>
        <path d="M106.64,927.37l-2.36-5Z" style="fill: #fac233"/>
        <path d="M104.32,922.38l-2.25-4.94Z" style="fill: #fac233"/>
        <path d="M328.52,944.13H298.9L313,912l4.94,5.81q3.85,8.43,7.7,16.87l-.11-.07Z" style="fill: transparent"/>
        <path d="M301.87,950.14h27.57c0,.69-.05,1.38-.08,2.07l-27.55-1.33Z" style="fill: #fac233"/>
        <path d="M325.66,934.63q-3.84-8.43-7.7-16.87Q321.81,926.21,325.66,934.63Z" style="fill: #fac233"/>
        <path d="M328.52,944.13l-3-9.57,4.89,9.7c-.32.15-.65.45-1,.43S328.84,944.33,328.52,944.13Z" style="fill: #fac233"/>
        <path d="M749.65,967.91V903.44c12.93-.77,26.45-3.18,34.73,8.23,9.72,13.41,7.81,28.9.74,43.49-1.39,2.86-3.67,5.28-5.54,7.91Z" style="fill: transparent"/>
        <path d="M749.65,967.91l29.93-4.84,8,1.75c-7.22,9.56-27.92,15.06-36.75,9.89C749.56,974,750,970.25,749.65,967.91Z" style="fill: #fac233"/>
        <path d="M897.65,943.7,870.38,945l14.26-30.89,8.3,15.45Z" style="fill: transparent"/>
        <path d="M902.55,944.05l7.28,6.2L908.64,954l-35.18-1.88.09-3.15c6.62,0,13.3.51,19.84-.22,3.18-.36,6.1-3,9.14-4.68Z" style="fill: #fac233"/>
        <path d="M897.65,943.7l-4.71-14.11c12.3-1.22,6.65,9.48,9.61,14.46l0,0Z" style="fill: #fac233"/>
        <path d="M226.08,905.43c.6,6.65,4.09,15.25,1.19,19.5-5.45,8-15.22,9.21-24.52,4.11,0-8.33,0-16.68,0-27.06Z" style="fill: transparent"/>
        <path d="M583.81,257.87l-2.86-.21s.2-.76.19-.76c-.63-1.35-1.26-2.69-1.9-4q-3.88-12.83-7.78-25.65c0-2.71.07-5.41.11-8.12l.25-.23Q577.82,238.36,583.81,257.87Z" style="fill: #fac233"/>
        <path d="M566.13,210.4l1.86-9c1.71,7.79,2.77,12.6,3.82,17.41l-.23.23-2.7-.33Z" style="fill: #fac233"/>
        <path d="M568.88,218.76l2.7.33c-.05,2.71-.09,5.41-.12,8.12Z" style="fill: #e9b12f"/>
        <path d="M579.24,252.86c.64,1.35,1.27,2.69,1.9,4C580.51,255.56,579.88,254.21,579.24,252.86Z" style="fill: #e9b12f"/>
        <path d="M545.4,110.66l-2.06,1.43c0-1-.07-2-.1-3Z" style="fill: #fac233"/>
        <path d="M528.25,94.3l-4.58-2.48Z" style="fill: #fac233"/>
        <path d="M543,109l-2.23-2.72Z" style="fill: #fac233"/>
        <path d="M533.65,99.08l-2.77-2.3Z" style="fill: #fac233"/>
        <path d="M530.81,96.67l-2.44-2.21Z" style="fill: #fac233"/>
        <path d="M465.21,171.87c-.68-.3-1.73-.45-1.92-.93s.48-1.31.76-2c.68.29,1.73.44,1.92.92S465.5,171.19,465.21,171.87Z" style="fill: #fac233"/>
      </g>
    </g>
  </g>
</svg>
