<svg xmlns="http://www.w3.org/2000/svg" viewBox="0 0 523.88 523.9">
  <g id="Camada_2" data-name="Camada 2">
    <g id="Camada_1-2" data-name="Camada 1">
      <g>
        <path d="M0,262.24C-.31,117.22,118-1.69,265.27,0,408.06,1.68,525.85,118.81,523.85,266c-1.93,142.1-118.8,260.28-266.52,257.9C115.88,521.58.16,406.29,0,262.24Zm131.35,44.34L166.83,352l1.07-.51c-2.47-29.91-4.93-59.81-7.42-89.92h72.31c-2.51,30.44-5,60.42-7.57,91.67l36.44-47,36,46.2.89-.68c-2.47-30-4.94-59.92-7.44-90.17h72.29c-2.49,30.31-5,60.19-7.42,90.07l1.11.36,35.47-45.35c12.18,15.56,23.72,30.32,35.26,45.08L429,351c-2.45-29.76-4.9-59.52-7.4-90h36.55c-.55-.94-.63-1.32-.87-1.47-20.09-12.64-40.25-25.17-60.23-38-3.55-2.27-6.13-1.94-9.44.19-18.57,11.94-37.26,23.71-55.88,35.58-3.43,2.19-6.43,2.24-10.05-.1-17.22-11.15-34.61-22.05-51.95-33-8-5.08-8.05-5.09-15.8-.48-.91.55-1.6,1.47-2.5,2-16.41,10.37-32.86,20.67-49.25,31.08-3.87,2.46-7,2.47-11.16-.22-18.35-12-37-23.42-55.5-35.24-3.15-2-5.44-1.9-8.54.09-16.48,10.58-33.11,20.94-49.68,31.39-3.76,2.38-7.47,4.85-11.21,7.28l.42,1.14h35.69c-2.49,30.31-4.92,60.05-7.36,89.78l1.25.55C107.67,336.84,119.24,322.05,131.35,306.58Zm.2-144.56a25.58,25.58,0,0,0-26,25.76,25.8,25.8,0,1,0,51.6-.08A25.55,25.55,0,0,0,131.55,162Zm260.8,0a25.58,25.58,0,0,0-25.62,25.64,25.8,25.8,0,1,0,51.59.16A25.58,25.58,0,0,0,392.35,162Zm-130.28,0a25.88,25.88,0,0,0-26.13,25.69,26.31,26.31,0,0,0,25.84,26.23c14.08.14,26-11.73,26.13-25.95A25.84,25.84,0,0,0,262.07,162Z" style="fill: #0f1c3e"/>
        <path d="M131.35,306.58c-12.11,15.47-23.68,30.26-35.24,45.05l-1.25-.55c2.44-29.73,4.87-59.47,7.36-89.78H66.53l-.42-1.14c3.74-2.43,7.45-4.9,11.21-7.28,16.57-10.45,33.2-20.81,49.68-31.39,3.1-2,5.39-2.11,8.54-.09,18.46,11.82,37.15,23.27,55.5,35.24,4.13,2.69,7.29,2.68,11.16.22,16.39-10.41,32.84-20.71,49.25-31.08.9-.57,1.59-1.49,2.5-2,7.75-4.61,7.77-4.6,15.8.48,17.34,11,34.73,21.88,51.95,33,3.62,2.34,6.62,2.29,10.05.1,18.62-11.87,37.31-23.64,55.88-35.58,3.31-2.13,5.89-2.46,9.44-.19,20,12.8,40.14,25.33,60.23,38,.24.15.32.53.87,1.47H421.62c2.5,30.47,4.95,60.23,7.4,90l-1.23.66c-11.54-14.76-23.08-29.52-35.26-45.08l-35.47,45.35-1.11-.36c2.46-29.88,4.93-59.76,7.42-90.07H291.08c2.5,30.25,5,60.21,7.44,90.17l-.89.68-36-46.2-36.44,47c2.58-31.25,5.06-61.23,7.57-91.67H160.48c2.49,30.11,5,60,7.42,89.92l-1.07.51Z" style="fill: #fff"/>
        <path d="M131.55,162a25.55,25.55,0,0,1,25.57,25.68,25.8,25.8,0,1,1-51.6.08A25.58,25.58,0,0,1,131.55,162Z" style="fill: #fff"/>
        <path d="M392.35,162a25.58,25.58,0,0,1,26,25.8,25.8,25.8,0,1,1-51.59-.16A25.58,25.58,0,0,1,392.35,162Z" style="fill: #fff"/>
        <path d="M262.07,162a25.84,25.84,0,0,1,25.84,26c-.1,14.22-12.05,26.09-26.13,25.95a26.31,26.31,0,0,1-25.84-26.23A25.88,25.88,0,0,1,262.07,162Z" style="fill: #fff"/>
      </g>
    </g>
  </g>
</svg>
