<svg xmlns="http://www.w3.org/2000/svg" viewBox="0 0 1199.81 442.81">
  <g id="Camada_2" data-name="Camada 2">
    <g id="Camada_1-2" data-name="Camada 1">
      <g>
        <path d="M748.88,0c4.11,2.12,8.67,1.33,13,1.71,139.43,12.42,255.36,71.49,348.73,175.37a448.38,448.38,0,0,1,34.6,43.93c4.26,6.13,8.41,12.34,13.24,19.44-6.45,0-12,0-17.58,0-2.25,0-2.84-2.12-3.83-3.56a359.94,359.94,0,0,0-106.71-102.26C985,106.36,936,88.71,882.86,82.84Q731.74,66.13,612.81,161.07a340.92,340.92,0,0,0-69.15,75c-2.21,3.25-4.53,4.47-8.49,4.47q-124-.18-247.91-.09h-4.4c-.92-1.52.28-2.29.86-3.17C362,119.75,469.66,44.4,607.32,12.27a468.38,468.38,0,0,1,83-11.35c.92-.05,2.05.31,2.58-.92Z" style="fill: #015b9e"/>
        <path d="M0,280.88c7.32-.09,14.65-.35,22-.18,3.57.07,5.52-.79,4.84-4.69-1.18-6.69,1.74-10.92,7.14-14.87,11.24-8.22,21.91-17.2,33.69-26.57,0,10.76-.12,20.5.06,30.24.09,5.09-2.28,11.73,1.06,14.86s9.86.86,15,.91c14,.15,27.94.25,41.91.05,3.69-.05,5.12,1.16,6.16,4.63q16,53.26,32.29,106.42c.56,1.82.54,4,2.54,5.51q13.71-48.66,27.32-97c1.49-5.28,3.09-10.53,4.39-15.86.67-2.72,1.91-3.7,4.8-3.65,10.66.17,21.33.19,32,0,3.9-.07,4.41,1.09,3.27,4.62-8.07,24.83-16,49.71-23.91,74.57-8.16,25.49-16.39,51-24.42,76.49-1.06,3.37-2.43,4.69-6.15,4.6q-17.73-.4-35.48,0c-3.69.08-5.15-1.23-6.3-4.59C128.5,396.56,114.66,356.84,101.05,317c-1.28-3.73-2.79-5.35-7-5.13-7.48.39-15,.23-22.48,0-3-.07-4,1-4,4,.11,28.14,0,56.29.13,84.44,0,6.59,2.27,8.76,9,9.37a111.47,111.47,0,0,0,12,.66c3.16-.06,4.42.76,4.31,4.16-.24,7.66-.14,15.32,0,23,0,2.25-.52,3.36-3,3.27-12.8-.42-25.63.72-38.42-1C35.23,437.67,27.07,429.07,27,412.62q-.36-47.46-.08-94.93c0-4.69-1.36-6-5.89-5.77-7,.33-14,0-21-.05Z" style="fill: #808285"/>
        <path d="M929.85,442.81c-.36-.3-.69-.8-1.08-.86-24.41-3.78-39.72-18.62-47.89-40.94-10.06-27.5-10.83-55.52.19-82.94,12.54-31.24,44.75-46.31,75.43-36.29,11.25,3.67,19.52,11.08,26.08,20.67,1.88-.93,1-2.44,1-3.54.06-17.82.14-35.64,0-53.47,0-3.74.7-5.2,4.85-5.06,10.15.32,20.33.33,30.48,0,4.34-.14,5.59,1,5.58,5.46-.17,53.13-.11,106.27-.11,159.4,0,10.5-.12,21,.07,31.48.06,3.24-.83,4.24-4.17,4.17-10.65-.22-21.32-.2-32,0-3.09.06-4-.82-3.9-3.9.23-5.64.07-11.3.07-16.9-.85-.55-1.27-.13-1.65.48-7.72,12.15-19.09,18.65-33,21.21-.78.14-1.7,0-2,1Zm51.28-80c0-9.19-.93-18.24-4.21-26.92-5.4-14.28-15.37-21.38-30.24-21.56-14.32-.18-25.25,6.75-30.43,20.6-6.77,18.13-6.68,36.53.89,54.46,4.86,11.51,13.29,19,26.48,19.49,14.46.49,25.44-5.35,32.08-18.49C980.07,381.72,981.34,372.39,981.13,362.8Z" style="fill: #015b9e"/>
        <path d="M757.88,442.81c-.78-1.76-2.6-1.27-3.9-1.62-22.74-6-35.11-23-33.71-46.5,1.56-26.27,16.86-42.57,44-46.8,13-2,26-4,39-6,8.35-1.3,12.76-5,13.38-11.18a15.54,15.54,0,0,0-11.11-16.92,46.23,46.23,0,0,0-26.59-.55,16.26,16.26,0,0,0-12,11.66c-1,3.73-3.09,4.33-6.47,4.27-10.33-.18-20.66-.14-31,0-2.91,0-3.61-.63-3.07-3.69,4.67-26.59,20.13-41.2,49-45.3,17.14-2.43,34.25-2,50.84,3.74,20.86,7.26,30.43,20.76,30.39,42.89-.08,36.48.36,73-.47,109.44-.08,3.61-.78,4.84-4.64,4.72-10-.31-20-.27-30,0-3.69.1-4.44-1.1-4.19-4.54.36-4.95.09-9.94.09-15-1.48-.34-2.07,1.17-2.89,2-9.89,10-21.5,16.67-35.62,18.55-.37.05-.67.58-1,.89Zm58.66-79.46c-8.86,4.79-17.83,6.25-26.81,7.81-5.87,1-11.8,2-17.24,4.69C763,380.52,758.9,390.31,762,401.07c2.33,8.22,10.95,13.33,20.93,12.39,1.65-.16,3.3-.4,4.94-.67,16.06-2.62,27.61-14,28.63-28.71C816.92,377.48,816.54,370.82,816.54,363.35Z" style="fill: #015b9e"/>
        <path d="M1108.82,442.81c-3.29-2.12-7.2-1.89-10.81-2.8-31.9-8.1-53.25-33.31-56.21-66.12-1.26-14.07-.78-27.93,3.09-41.56,8.18-28.8,31.79-48.73,61.59-52.48,15.48-2,30.64-1.08,45.26,4.43,27.54,10.39,42.18,31.15,47,59.58.18,1-.43,2.44,1.11,3v29c-2,1.69-1.51,4.2-2,6.35-6.43,29.65-24,48.91-53.23,57.45-4.55,1.33-9.41,1.17-13.79,3.17h-2a38.85,38.85,0,0,0-17,0Zm-25.62-82.23c.24,8.63,1,16.91,3.86,24.83,5.36,14.59,16.14,22.2,31.93,22.57,17.07.39,28.72-6.36,34.3-21.23a71.47,71.47,0,0,0-.32-52.67c-5.59-14.16-17-20.9-33.22-20.61s-26.45,7.28-32.19,21.46C1084.18,343.27,1083.49,352,1083.2,360.58Z" style="fill: #015b9e"/>
        <path d="M464.93,442.81c-3.25-1.79-7-1.53-10.44-2.33-24.83-5.66-41.54-20.37-48.82-44.85-7.6-25.56-8.12-51.23,2.4-76.21,10.09-23.95,28.91-36.46,54.4-39.64a87.69,87.69,0,0,1,36.08,2.54c26.63,7.87,40.47,27.05,46.29,53.09,2.37,10.59,2.9,21.39,3.07,32.23.05,3.64-1.16,4.32-4.52,4.31-32-.12-63.94-.07-95.91-.07-6.36,0-6.36,0-5.51,6.47,3.25,24.55,24,37.72,46.7,29.71,5.51-1.94,10.22-5,13.09-10.16,1.28-2.31,2.38-2.48,4.65-1.42,9.47,4.45,19,8.87,28.61,12.94,3.39,1.43,2.67,2.74,1.14,5-9.88,14.59-24,22.54-40.82,26.46-2.48.58-5.24.18-7.42,1.93Zm9-97.55c9.31,0,18.62,0,27.93,0,1.73,0,3.84.52,3.39-2.65-1.63-11.42-6.07-21.1-16.85-26.61-20.37-10.41-43.8,3-45.61,25.95-.22,2.8.67,3.39,3.21,3.36C455.33,345.2,464.64,345.26,474,345.26Z" style="fill: #015b9e"/>
        <path d="M309,442.81c-4.58-2.05-9.63-1.8-14.41-3-15.6-3.8-29.66-10-39-23.94-6-9-6-9.07,3.59-13.34,8.2-3.67,16.43-7.25,24.55-11.07,2.43-1.14,3.47-.88,4.19,1.78,2.31,8.51,8.27,13.46,16.44,15.86A60.71,60.71,0,0,0,334,410.61a22.91,22.91,0,0,0,9.92-4.47c8-6.38,7.15-16-2-20.52-8.89-4.43-18.69-5.79-28.28-7.75-10.76-2.21-21.52-4.39-31.74-8.53-15.87-6.41-27.49-16.63-28.53-34.91-1.07-18.76,5.59-34.27,21.49-45.06,9.32-6.32,19.93-9.12,31-10,18.63-1.41,37-.4,54.05,8.33,16.13,8.27,23.44,22.36,25.43,39.81.29,2.5-.78,2.81-2.75,2.8-11.33,0-22.66-.06-34,0-2.27,0-3.23-.82-3.65-3-2-10.44-8.84-15.45-19-16.82-7.52-1-15-.92-22.25,1.28-6.86,2.07-10.37,6.19-10.56,12.31-.19,6.28,4.09,9.09,9.11,11.1,11.2,4.48,23.16,5.91,34.81,8.62,8.26,1.92,16.52,3.81,24.38,7.09,16.28,6.79,28.08,17.14,28.7,36.35.65,20.48-7.28,36.19-25.63,46-8.89,4.78-18.53,7.25-28.5,8.52-1.07.14-2.4-.42-3.09,1Z" style="fill: #015b9e"/>
        <path d="M1111.82,442.81a38.85,38.85,0,0,1,17,0Z" style="fill: #808285"/>
        <path d="M560.17,360.51c0-25.15,0-50.29,0-75.43,0-2.83.12-4.56,3.87-4.53,28.48.21,57-.12,85.44.35,24.28.41,42.55,15.15,48,37.62A65.39,65.39,0,0,1,699,333.87c0,34.14-.08,68.27.08,102.4,0,3.71-.85,4.78-4.63,4.68q-15.73-.43-31.48,0c-3.87.1-5-.91-5-4.9.17-30.14.11-60.28.08-90.42,0-4.81.07-9.63-1-14.4-2.4-10.24-9.31-16.52-19.85-17.32a174.38,174.38,0,0,0-26,0c-7.28.53-10.31,3.45-11.08,11a142.47,142.47,0,0,0-.46,14.47c0,32.14-.09,64.28.1,96.41,0,4.19-1.09,5.31-5.22,5.19-10-.31-20-.26-30,0-3.6.09-4.39-1.09-4.37-4.5.13-25.3.07-50.61.07-75.92Z" style="fill: #015b9e"/>
      </g>
    </g>
  </g>
</svg>
