<svg xmlns="http://www.w3.org/2000/svg" viewBox="0 0 829.29 865.37">
  <g id="Camada_2" data-name="Camada 2">
    <g id="Camada_1-2" data-name="Camada 1">
      <g>
        <path d="M416.15,0c3.34.7,6.67,1.52,10,2.08q12,2,24.06,3.78c7.07,1.06,14.16,2,21.23,3,5,.74,10,1.64,15,2.41s10,1.46,14.95,2.23c5.18.79,10.34,1.65,15.52,2.43,4.16.63,8.33,1.14,12.49,1.77,4.71.7,9.4,1.46,14.1,2.23q7.35,1.2,14.68,2.44c6.12,1,12.24,2,18.35,3.1s12.07,2.08,18.09,3.23c5.81,1.1,11.63,2.23,17.39,3.54,6,1.37,12,2.94,18,4.5a31,31,0,0,1,4.81,1.81A2.85,2.85,0,0,1,636.14,40q7.29,18.6,14.51,37.22c1,2.43,2.1,4.78,3.07,7.21,1,2.6,3.52,2.13,5.46,2.56,6.58,1.48,13.19,2.76,19.79,4.1,7.34,1.48,14.69,2.87,22,4.42,9.2,1.94,18.37,4,27.55,6a4.06,4.06,0,0,1,3,2.63c4.07,8.58,8.4,17,12.7,25.52.94,1.85,2.28,3.51,3.16,5.38,1.07,2.29,2.93,3.06,5.18,3.54,12.46,2.63,24.93,5.16,37.33,8,10.63,2.45,21.17,5.31,31.74,8,.94.24,1.83.62,2.75.94a2.8,2.8,0,0,1,2,2.64c.42,5.29.93,10.58,1.27,15.87.5,8,1,15.94,1.26,23.91.29,11.17.38,22.35.4,33.52,0,7.23-.2,14.46-.41,21.69q-.3,10.28-.83,20.55c-.35,6.82-.8,13.65-1.27,20.46q-.53,7.82-1.25,15.61c-.65,7-1.29,14.09-2.12,21.11-.86,7.34-1.94,14.66-2.94,22-1,7-1.81,14-2.91,20.91-1,6.19-2.22,12.33-3.36,18.49-1.29,7-2.51,13.94-3.93,20.88q-1.86,9-4.12,17.87c-2.55,10-5.07,20.06-7.95,30-2.81,9.69-5.71,19.37-9.17,28.83q-7.47,20.47-15.89,40.58c-3.82,9.11-8.2,18-12.72,26.79a437.46,437.46,0,0,1-35.51,56.93C719,622.28,713.1,630.41,707,638.36c-4.44,5.78-9.18,11.33-13.89,16.9q-8.9,10.53-18,20.92c-3.12,3.58-6.33,7.11-9.65,10.5-10.3,10.5-20.55,21.05-31,31.35-7.16,7-14.56,13.8-22.09,20.43-9.13,8-18.37,15.94-27.8,23.61Q569,774.74,553,786.87c-8.63,6.55-17.4,12.92-26.35,19-10.09,6.9-20.38,13.52-30.73,20-7.93,5-16,9.83-24.16,14.42-7.6,4.26-15.35,8.27-23.19,12.06-7.14,3.44-14.44,6.58-21.79,9.55a61.81,61.81,0,0,1-11.17,3.23c-4.13.82-7.88-1.33-11.62-2.58a121.81,121.81,0,0,1-14.51-6.07c-8.86-4.26-17.71-8.6-26.4-13.2a607.38,607.38,0,0,1-57.25-35.14q-29.26-20-56.77-42.3c-16.16-13.12-32-26.65-47.06-41-10.29-9.78-20.58-19.59-30.45-29.79q-21.65-22.36-41.34-46.5a661.55,661.55,0,0,1-42.81-58.71A351.07,351.07,0,0,1,63.5,547.21q-8.82-19-16.65-38.43c-4-9.94-7.35-20.14-10.75-30.31q-4.12-12.39-7.65-25c-1.95-6.91-3.57-13.92-5.2-20.91-2.42-10.46-4.88-20.92-7-31.44-1.68-8.27-3-16.62-4.34-24.95-1.33-8.1-2.67-16.21-3.8-24.34-.87-6.29-1.42-12.63-2.14-18.94-.69-6.12-1.5-12.22-2.11-18.34-.4-4-.5-8-.81-12.06-.4-5.14-.9-10.26-1.32-15.4-.19-2.36-.34-4.73-.43-7.1-.17-4.27-.27-8.54-.4-12.81-.16-5.26-.32-10.52-.51-15.78a2.67,2.67,0,0,0-.37-.88V200.68a13.33,13.33,0,0,0,.4-2.15c.17-5.67.22-11.34.47-17,.17-3.68.59-7.35.93-11s1-7.56,1-11.34c0-3.08,1.93-3.85,4.17-4.44,10.48-2.74,20.93-5.61,31.48-8.05,13.11-3,26.3-5.71,39.48-8.47a4.63,4.63,0,0,0,3.43-2.34c5.36-10.31,10.77-20.59,15.9-31,1-2.1,2.21-3.26,4.4-3.72,13.45-2.84,26.87-5.76,40.33-8.56,10-2.08,20.1-4,30.16-6a4.35,4.35,0,0,0,3.59-3c2.78-7.18,5.65-14.32,8.49-21.48,2.77-7,5.56-13.94,8.3-20.93a5.55,5.55,0,0,1,4.08-3.7c4.94-1.26,9.77-3,14.75-4,18.85-3.69,37.73-7.2,56.61-10.66,7.14-1.31,14.34-2.29,21.51-3.42q13.29-2.1,26.58-4.19c5.85-.91,11.71-1.76,17.57-2.66,8-1.21,16-2.47,23.94-3.67,7-1.05,13.93-2,20.88-3.08,8-1.21,16-2.42,23.95-3.71C406,1.5,409.61.7,413.19,0ZM766.81,202c0-5.2.06-5.38-4.84-6.8-7.36-2.13-14.74-4.22-22.22-5.9-12.17-2.74-24.42-5.14-36.64-7.67a5.25,5.25,0,0,1-4.13-2.92c-1.88-3.85-4.18-7.5-6.1-11.33-2.38-4.77-4.59-9.63-6.78-14.49-.76-1.68-1.59-3-3.63-3.35-7.41-1.46-14.78-3.12-22.17-4.62-11.31-2.29-22.63-4.48-33.94-6.77-3.57-.72-7.74-.63-8.71-5.53,0-.19-.22-.35-.3-.54-3.85-10.12-7.67-20.24-11.55-30.35-1.1-2.85-2.06-5.79-5.7-6.64-6.8-1.59-13.52-3.5-20.33-5-6.36-1.43-12.78-2.61-19.19-3.81s-12.72-2.31-19.1-3.38c-5.44-.91-10.89-1.72-16.35-2.57-4.63-.72-9.27-1.4-13.9-2.14-6.05-1-12.09-2-18.14-2.92-4.84-.76-9.69-1.41-14.53-2.17-5.1-.8-10.18-1.72-15.29-2.49-4.16-.64-8.35-1.09-12.51-1.72-6.13-.93-12.24-1.93-18.35-2.93-4-.66-8-1.45-12-2-3.13-.46-6.24-1.51-9.48-.49a26.28,26.28,0,0,1-3.85.79c-5.89.9-11.78,1.77-17.66,2.68s-11.85,1.9-17.79,2.8c-5.18.79-10.39,1.43-15.57,2.24-7.55,1.19-15.07,2.52-22.61,3.71-5.93.93-11.89,1.66-17.81,2.61-7.33,1.18-14.64,2.5-22,3.73-6.38,1.07-12.78,2-19.14,3.17-7.05,1.26-14.12,2.5-21.1,4.07-8.54,1.93-17,4.13-25.48,6.36a4.53,4.53,0,0,0-2.71,2.16c-2.15,4.88-4,9.88-6.07,14.82-3.05,7.52-6.09,15-9.25,22.52a3.6,3.6,0,0,1-2.2,1.8c-4.48,1-9,1.88-13.52,2.77-9,1.78-18,3.49-26.95,5.35-7,1.45-14,3.06-21,4.62a3.78,3.78,0,0,0-2.73,2.4c-4.47,9.17-9.1,18.27-13.81,27.32A4.43,4.43,0,0,1,127,181.2c-6.21,1.46-12.46,2.75-18.7,4.07-7,1.49-14.06,2.8-21,4.48-7.41,1.79-14.75,3.9-22.11,5.89a2.61,2.61,0,0,0-2.32,2.51c-.62,7.63-1.51,15.24-2,22.88-.38,5.8-.45,11.64-.39,17.45.17,17.92.37,35.85.76,53.76.16,7.41.72,14.82,1.27,22.22q.9,12.42,2.13,24.81c.72,7.27,1.52,14.54,2.54,21.77,1.56,11.07,3.15,22.15,5.1,33.15,2,11.38,4.22,22.75,6.86,34A535.84,535.84,0,0,0,94.62,482a419.87,419.87,0,0,0,29.11,66A396.74,396.74,0,0,0,155,595.72c10.46,13.75,21.46,27.12,32.67,40.28,7.73,9.08,16.13,17.58,24.4,26.18,5.06,5.27,10.43,10.25,15.68,15.34,3.43,3.32,6.79,6.74,10.37,9.89,9.3,8.17,18.62,16.33,28.09,24.29,7.91,6.64,15.82,13.3,24.14,19.4q21.18,15.51,42.9,30.29a432.87,432.87,0,0,0,43.6,25.91c10.57,5.52,21.28,10.74,32.72,14.25,2.21.68,4.37,1.86,6.86.89,7.6-2.94,15.47-5.3,22.77-8.85,11.74-5.72,23.33-11.84,34.58-18.48,12.11-7.15,23.86-14.94,35.58-22.73,7.29-4.85,14.25-10.18,21.3-15.38,6.37-4.69,12.74-9.38,18.94-14.27,5.86-4.63,11.53-9.5,17.24-14.31,5.89-5,11.8-9.89,17.57-15,5.38-4.76,10.76-9.55,15.83-14.64q16.88-16.95,33.39-34.25c4.73-4.93,9.21-10.11,13.64-15.32,5.45-6.4,10.92-12.8,16.05-19.46,7.34-9.55,14.54-19.21,21.51-29a330.6,330.6,0,0,0,30.66-52.28c3.79-8.18,7.8-16.29,11-24.7,4.95-13.14,9.7-26.39,13.76-39.83,4.14-13.7,7.64-27.61,10.88-41.55,2.93-12.62,5.31-25.38,7.62-38.13,1.56-8.61,2.68-17.3,3.83-26,1-7.36,1.77-14.75,2.52-22.14.66-6.58,1.2-13.18,1.69-19.78s.93-13,1.24-19.44c.38-7.91.81-15.82.83-23.73,0-14-.19-28-.37-42-.06-5-.17-9.95-.45-14.92C767.75,211.53,767.22,206.76,766.81,202Z" style="fill: #007ac1"/>
        <path d="M258.53,504.91c-2.38,3.12-4.61,5.94-6.74,8.83q-11,14.89-22,29.83c-3.24,4.41-6.45,8.85-9.73,13.24a12.53,12.53,0,0,1-2.72,2.9c-2.49,1.72-4.75,3.21-7.55-.35a90.52,90.52,0,0,1-7.29-10.27c-6.38-11-12.82-22-18.66-33.24a317.48,317.48,0,0,1-16.91-39.58c-2.86-8-6-15.93-8.41-24.07-4.75-16.12-9.31-32.29-13.49-48.56-2.83-11-5-22.19-7.24-33.34-1.76-8.82-3.22-17.69-4.66-26.56-1.12-6.86-2-13.76-3-20.65-.89-6.45-1.8-12.91-2.51-19.38-.57-5.1-.84-10.24-1.26-15.36s-1-10.24-1.29-15.37c-.3-5.81-.34-11.63-.43-17.44-.06-4-.12-8,.07-12a4.53,4.53,0,0,1,1.55-3.16Q140.56,230.53,155,221c6.93-4.54,14-8.86,21-13.25,3.37-2.1,6.79-4.13,10.2-6.15a9.62,9.62,0,0,1,1.81-.61c-.23,5.21-.44,10.16-.68,15.11,0,.76-.23,1.52-.23,2.28,0,11.76-.15,23.52,0,35.27.12,7.06.77,14.1,1.18,21.15.29,5,.5,9.92.91,14.87.43,5.19,1.07,10.38,1.6,15.57.46,4.42.84,8.86,1.34,13.29s1.07,9.09,1.72,13.62,1.38,8.75,2.09,13.12c1.12,6.89,2.11,13.81,3.42,20.67,1.53,8,3.31,15.94,5,23.9a339.36,339.36,0,0,0,14,47.9c1.73,4.58,4,8.95,6.3,13.93,1.71-2.47,3.16-4.49,4.53-6.57,3.72-5.64,7.44-11.28,11.08-17a4.59,4.59,0,0,0,.83-2.83c-.84-5.61-1.9-11.19-2.78-16.79-.56-3.62-.91-7.28-1.39-10.92-.54-4.05-1.17-8.08-1.66-12.12-.38-3.1-.58-6.21-.91-9.31-.38-3.51-.82-7-1.2-10.51-.2-1.8-.33-3.6-.5-5.4-.56-5.93-1.17-11.86-1.67-17.8-.34-4.16-.49-8.33-.83-12.49-.37-4.71-.87-9.4-1.29-14.11-.18-2.07-.32-4.16-.43-6.24-.28-5.29-.48-10.59-.81-15.88-.38-6-.88-12.08-1.3-18.13-.19-2.78-.34-5.57-.42-8.36-.18-5.53-.28-11.06-.44-16.6-.13-4.69-.34-9.38-.41-14.07-.17-12-.49-24-.34-36,.07-6,1-12,1.66-18,.32-2.77,2.61-4.07,4.86-5.13,7.54-3.55,15-7.3,22.71-10.47,8.61-3.54,17.41-6.62,26.18-9.75,3.61-1.29,7.36-2.23,11.06-3.27a12.49,12.49,0,0,1,2.38-.14c-.26,4-.5,7.9-.75,11.79,0,.48-.16,1-.16,1.45-.15,23.71-.33,47.41-.4,71.12,0,7.73.19,15.45.41,23.17.19,6.8.52,13.58.83,20.37q.38,8,.85,15.93c.4,6.84.81,13.68,1.27,20.51.38,5.71.77,11.42,1.27,17.12.64,7.28,1.4,14.56,2.06,21.84.47,5.13.79,10.28,1.33,15.41.59,5.66,1.38,11.3,2,16.95.61,5.17,1.09,10.36,1.76,15.53.73,5.7,1.59,11.39,2.43,17.08s1.7,11.52,2.64,17.26c.9,5.53,1.83,11,2.89,16.54,1.49,7.72,3,15.44,4.71,23.11s3.51,15.33,5.68,22.88c2.05,7.09,4.65,14,7,21a4.6,4.6,0,0,0,1.27,2c.13-2.73.32-5.46.38-8.19q.25-11.05.42-22.11c.19-11.87.45-23.75.5-35.62.06-15.49,0-31-.1-46.46-.09-16.21-.26-32.42-.42-48.63q-.18-17.43-.41-34.88-.21-16.19-.43-32.35l-.42-30-.42-30q-.21-13.53-.41-27.07-.22-16.69-.43-33.4c-.13-11.49-.21-23-.36-34.46,0-1.48.35-2.31,1.92-2.64,7.11-1.51,14.17-3.27,21.31-4.61,6.34-1.19,12.74-2.07,19.14-2.88,4.91-.62,9.86-1,14.8-1.36,4-.3,7.94-.42,12-.62-.24,5.12-.46,9.85-.68,14.59,0,.55-.11,1.11-.11,1.67-.12,82.17-.5,164.34-.28,246.51.24,91.39,1,182.78,1.57,274.18q.17,26.5.4,53,.1,10.66.36,21.33c.13,5.17-2,5.65-5.87,3.65a56.79,56.79,0,0,1-10.24-6.81A185.74,185.74,0,0,1,369.14,725a241,241,0,0,1-25.41-30.33,378.28,378.28,0,0,1-29-48.75c-6.24-12.46-12.33-25-18-37.73-5.16-11.58-9.84-23.38-14.39-35.21-4.77-12.4-9.22-24.92-13.62-37.45C265.26,525.53,262,515.43,258.53,504.91Z" style="fill: #007ac1"/>
        <path d="M624.45,389.86a92.14,92.14,0,0,1,21.22,17,70.22,70.22,0,0,1,17,31.48,91.24,91.24,0,0,1,2.3,16c1,18.87-3.51,36.77-10.23,54.23a246.11,246.11,0,0,1-18.46,37.89c-4.83,8.09-9.7,16.19-15.09,23.91-7.39,10.56-15.11,20.91-23,31.08-6.28,8.07-13,15.85-19.71,23.55-6.23,7.11-12.66,14-19.19,20.89-7.47,7.83-15,15.59-22.79,23.14q-10.32,10-21.16,19.52C500,701.92,484.46,715,467.5,726.29c-7.16,4.74-14.43,9.29-21.69,13.87-2.85,1.8-5.73,3.59-8.73,5.09-2,1-3.57,0-3.57-2.1,0-5.25.2-10.51.32-15.77,0-.56,0-1.12,0-1.69q.17-26.61.33-53.22c0-1.52-.29-3-.29-4.55q.62-152.68,1.25-305.36.42-107.83.73-215.66c0-3.14-.28-6.27-.28-9.41,0-3.78,1.87-6.76,4.92-7.21a21.45,21.45,0,0,1,7.54.1c11.71,2.6,23.41,5.24,35,8.25,10.32,2.69,20.58,5.68,30.75,8.9a520.49,520.49,0,0,1,57.33,22c20.46,9.25,40.41,19.48,59.19,31.82,11.57,7.61,23.07,15.36,34.09,23.72,11.89,9,21.64,20.12,28.12,33.78a72.4,72.4,0,0,1,6.29,20.94c2.43,17.05-1.94,32.56-10.05,47.32a107.83,107.83,0,0,1-16.49,22.7c-5.23,5.48-10.38,11.1-16.11,16C648.76,372.24,640.82,378,633,384,630.36,386,627.49,387.79,624.45,389.86Zm-120.57-5.49a18.71,18.71,0,0,0,2.6-.92c5.28-2.92,10.79-5.53,15.78-8.89q41.52-28.05,82.77-56.5a56.69,56.69,0,0,0,11-10.41c9.81-11.78,9.89-25.09.64-37.29-6.06-8-13.95-13.86-22.39-19C567.59,235,539.1,222.6,509.73,212.08c-1.5-.54-3-.94-5.1-1.57C504.38,268.59,504.13,326.23,503.88,384.37Zm-2.33,152H501v79.2c0,.36,0,.71,0,1.06.12,1.24.67,1.52,1.63.66.47-.42.91-.88,1.35-1.34a553.69,553.69,0,0,0,37.22-43.16C553,557.57,563,541.09,573.05,524.65a139,139,0,0,0,15.23-34c2.74-9.55,4.37-19.25,2.33-29.16-2.65-12.81-10-21.51-22.89-24.9-6.66-1.75-13.42-1.29-20.11,0-16,3.08-30.53,9.94-44.54,18a2.75,2.75,0,0,0-1.08,2c-.22,4.71-.41,9.43-.42,14.14Q501.51,503.56,501.55,536.4Z" style="fill: #007ac1"/>
      </g>
    </g>
  </g>
</svg>
